G75*
%MOIN*%
%OFA0B0*%
%FSLAX25Y25*%
%IPPOS*%
%LPD*%
%AMOC8*
5,1,8,0,0,1.08239X$1,22.5*
%
%ADD10C,0.00000*%
%ADD11R,0.05906X0.05118*%
%ADD12R,0.05118X0.05906*%
%ADD13R,0.02000X0.05800*%
%ADD14R,0.05800X0.02000*%
%ADD15R,0.04724X0.01378*%
%ADD16R,0.04724X0.03642*%
%ADD17R,0.07874X0.21654*%
%ADD18R,0.00984X0.04724*%
%ADD19R,0.04724X0.00984*%
%ADD20R,0.01575X0.05315*%
%ADD21R,0.08268X0.06299*%
%ADD22R,0.07087X0.07480*%
%ADD23R,0.07480X0.07480*%
%ADD24R,0.05200X0.02200*%
%ADD25R,0.05200X0.02000*%
%ADD26R,0.05800X0.01400*%
%ADD27C,0.06000*%
%ADD28R,0.04600X0.01400*%
%ADD29C,0.05500*%
%ADD30R,0.03937X0.01772*%
%ADD31R,0.22441X0.06299*%
%ADD32C,0.01000*%
%ADD33C,0.03562*%
%ADD34C,0.01600*%
%ADD35C,0.03169*%
%ADD36C,0.02400*%
%ADD37C,0.00700*%
%ADD38C,0.00787*%
%ADD39C,0.04500*%
%ADD40C,0.04000*%
%ADD41C,0.01400*%
D10*
X0028765Y0001800D02*
X0028765Y0326800D01*
X0388765Y0326800D01*
X0388765Y0001800D01*
X0028765Y0001800D01*
X0034665Y0008800D02*
X0034667Y0008911D01*
X0034673Y0009022D01*
X0034683Y0009133D01*
X0034697Y0009244D01*
X0034715Y0009354D01*
X0034737Y0009463D01*
X0034762Y0009571D01*
X0034792Y0009678D01*
X0034825Y0009784D01*
X0034863Y0009889D01*
X0034904Y0009993D01*
X0034948Y0010095D01*
X0034997Y0010195D01*
X0035048Y0010293D01*
X0035104Y0010390D01*
X0035163Y0010484D01*
X0035225Y0010577D01*
X0035290Y0010667D01*
X0035359Y0010754D01*
X0035430Y0010840D01*
X0035505Y0010922D01*
X0035583Y0011002D01*
X0035663Y0011079D01*
X0035746Y0011153D01*
X0035832Y0011224D01*
X0035920Y0011291D01*
X0036011Y0011356D01*
X0036104Y0011417D01*
X0036199Y0011475D01*
X0036296Y0011530D01*
X0036395Y0011581D01*
X0036496Y0011628D01*
X0036598Y0011672D01*
X0036702Y0011712D01*
X0036807Y0011748D01*
X0036913Y0011781D01*
X0037021Y0011809D01*
X0037130Y0011834D01*
X0037239Y0011855D01*
X0037349Y0011872D01*
X0037459Y0011885D01*
X0037570Y0011894D01*
X0037682Y0011899D01*
X0037793Y0011900D01*
X0037904Y0011897D01*
X0038015Y0011890D01*
X0038126Y0011879D01*
X0038236Y0011864D01*
X0038346Y0011845D01*
X0038455Y0011822D01*
X0038563Y0011796D01*
X0038670Y0011765D01*
X0038776Y0011731D01*
X0038880Y0011692D01*
X0038983Y0011651D01*
X0039085Y0011605D01*
X0039185Y0011556D01*
X0039283Y0011503D01*
X0039379Y0011447D01*
X0039473Y0011387D01*
X0039565Y0011324D01*
X0039654Y0011258D01*
X0039741Y0011189D01*
X0039825Y0011116D01*
X0039907Y0011041D01*
X0039986Y0010962D01*
X0040063Y0010881D01*
X0040136Y0010797D01*
X0040206Y0010711D01*
X0040273Y0010622D01*
X0040337Y0010531D01*
X0040397Y0010438D01*
X0040454Y0010342D01*
X0040508Y0010244D01*
X0040558Y0010145D01*
X0040604Y0010044D01*
X0040647Y0009941D01*
X0040686Y0009837D01*
X0040722Y0009731D01*
X0040753Y0009625D01*
X0040781Y0009517D01*
X0040805Y0009408D01*
X0040825Y0009299D01*
X0040841Y0009189D01*
X0040853Y0009078D01*
X0040861Y0008967D01*
X0040865Y0008856D01*
X0040865Y0008744D01*
X0040861Y0008633D01*
X0040853Y0008522D01*
X0040841Y0008411D01*
X0040825Y0008301D01*
X0040805Y0008192D01*
X0040781Y0008083D01*
X0040753Y0007975D01*
X0040722Y0007869D01*
X0040686Y0007763D01*
X0040647Y0007659D01*
X0040604Y0007556D01*
X0040558Y0007455D01*
X0040508Y0007356D01*
X0040454Y0007258D01*
X0040397Y0007162D01*
X0040337Y0007069D01*
X0040273Y0006978D01*
X0040206Y0006889D01*
X0040136Y0006803D01*
X0040063Y0006719D01*
X0039986Y0006638D01*
X0039907Y0006559D01*
X0039825Y0006484D01*
X0039741Y0006411D01*
X0039654Y0006342D01*
X0039565Y0006276D01*
X0039473Y0006213D01*
X0039379Y0006153D01*
X0039283Y0006097D01*
X0039185Y0006044D01*
X0039085Y0005995D01*
X0038983Y0005949D01*
X0038880Y0005908D01*
X0038776Y0005869D01*
X0038670Y0005835D01*
X0038563Y0005804D01*
X0038455Y0005778D01*
X0038346Y0005755D01*
X0038236Y0005736D01*
X0038126Y0005721D01*
X0038015Y0005710D01*
X0037904Y0005703D01*
X0037793Y0005700D01*
X0037682Y0005701D01*
X0037570Y0005706D01*
X0037459Y0005715D01*
X0037349Y0005728D01*
X0037239Y0005745D01*
X0037130Y0005766D01*
X0037021Y0005791D01*
X0036913Y0005819D01*
X0036807Y0005852D01*
X0036702Y0005888D01*
X0036598Y0005928D01*
X0036496Y0005972D01*
X0036395Y0006019D01*
X0036296Y0006070D01*
X0036199Y0006125D01*
X0036104Y0006183D01*
X0036011Y0006244D01*
X0035920Y0006309D01*
X0035832Y0006376D01*
X0035746Y0006447D01*
X0035663Y0006521D01*
X0035583Y0006598D01*
X0035505Y0006678D01*
X0035430Y0006760D01*
X0035359Y0006846D01*
X0035290Y0006933D01*
X0035225Y0007023D01*
X0035163Y0007116D01*
X0035104Y0007210D01*
X0035048Y0007307D01*
X0034997Y0007405D01*
X0034948Y0007505D01*
X0034904Y0007607D01*
X0034863Y0007711D01*
X0034825Y0007816D01*
X0034792Y0007922D01*
X0034762Y0008029D01*
X0034737Y0008137D01*
X0034715Y0008246D01*
X0034697Y0008356D01*
X0034683Y0008467D01*
X0034673Y0008578D01*
X0034667Y0008689D01*
X0034665Y0008800D01*
X0042165Y0026800D02*
X0042167Y0026962D01*
X0042173Y0027124D01*
X0042183Y0027286D01*
X0042197Y0027447D01*
X0042215Y0027608D01*
X0042236Y0027768D01*
X0042262Y0027928D01*
X0042292Y0028088D01*
X0042325Y0028246D01*
X0042363Y0028404D01*
X0042404Y0028560D01*
X0042449Y0028716D01*
X0042498Y0028870D01*
X0042551Y0029023D01*
X0042607Y0029175D01*
X0042667Y0029326D01*
X0042731Y0029475D01*
X0042799Y0029622D01*
X0042870Y0029767D01*
X0042944Y0029911D01*
X0043022Y0030053D01*
X0043104Y0030193D01*
X0043189Y0030331D01*
X0043277Y0030467D01*
X0043369Y0030600D01*
X0043464Y0030732D01*
X0043562Y0030861D01*
X0043663Y0030987D01*
X0043767Y0031111D01*
X0043875Y0031232D01*
X0043985Y0031351D01*
X0044098Y0031467D01*
X0044214Y0031580D01*
X0044333Y0031690D01*
X0044454Y0031798D01*
X0044578Y0031902D01*
X0044704Y0032003D01*
X0044833Y0032101D01*
X0044965Y0032196D01*
X0045098Y0032288D01*
X0045234Y0032376D01*
X0045372Y0032461D01*
X0045512Y0032543D01*
X0045654Y0032621D01*
X0045798Y0032695D01*
X0045943Y0032766D01*
X0046090Y0032834D01*
X0046239Y0032898D01*
X0046390Y0032958D01*
X0046542Y0033014D01*
X0046695Y0033067D01*
X0046849Y0033116D01*
X0047005Y0033161D01*
X0047161Y0033202D01*
X0047319Y0033240D01*
X0047477Y0033273D01*
X0047637Y0033303D01*
X0047797Y0033329D01*
X0047957Y0033350D01*
X0048118Y0033368D01*
X0048279Y0033382D01*
X0048441Y0033392D01*
X0048603Y0033398D01*
X0048765Y0033400D01*
X0048927Y0033398D01*
X0049089Y0033392D01*
X0049251Y0033382D01*
X0049412Y0033368D01*
X0049573Y0033350D01*
X0049733Y0033329D01*
X0049893Y0033303D01*
X0050053Y0033273D01*
X0050211Y0033240D01*
X0050369Y0033202D01*
X0050525Y0033161D01*
X0050681Y0033116D01*
X0050835Y0033067D01*
X0050988Y0033014D01*
X0051140Y0032958D01*
X0051291Y0032898D01*
X0051440Y0032834D01*
X0051587Y0032766D01*
X0051732Y0032695D01*
X0051876Y0032621D01*
X0052018Y0032543D01*
X0052158Y0032461D01*
X0052296Y0032376D01*
X0052432Y0032288D01*
X0052565Y0032196D01*
X0052697Y0032101D01*
X0052826Y0032003D01*
X0052952Y0031902D01*
X0053076Y0031798D01*
X0053197Y0031690D01*
X0053316Y0031580D01*
X0053432Y0031467D01*
X0053545Y0031351D01*
X0053655Y0031232D01*
X0053763Y0031111D01*
X0053867Y0030987D01*
X0053968Y0030861D01*
X0054066Y0030732D01*
X0054161Y0030600D01*
X0054253Y0030467D01*
X0054341Y0030331D01*
X0054426Y0030193D01*
X0054508Y0030053D01*
X0054586Y0029911D01*
X0054660Y0029767D01*
X0054731Y0029622D01*
X0054799Y0029475D01*
X0054863Y0029326D01*
X0054923Y0029175D01*
X0054979Y0029023D01*
X0055032Y0028870D01*
X0055081Y0028716D01*
X0055126Y0028560D01*
X0055167Y0028404D01*
X0055205Y0028246D01*
X0055238Y0028088D01*
X0055268Y0027928D01*
X0055294Y0027768D01*
X0055315Y0027608D01*
X0055333Y0027447D01*
X0055347Y0027286D01*
X0055357Y0027124D01*
X0055363Y0026962D01*
X0055365Y0026800D01*
X0055363Y0026638D01*
X0055357Y0026476D01*
X0055347Y0026314D01*
X0055333Y0026153D01*
X0055315Y0025992D01*
X0055294Y0025832D01*
X0055268Y0025672D01*
X0055238Y0025512D01*
X0055205Y0025354D01*
X0055167Y0025196D01*
X0055126Y0025040D01*
X0055081Y0024884D01*
X0055032Y0024730D01*
X0054979Y0024577D01*
X0054923Y0024425D01*
X0054863Y0024274D01*
X0054799Y0024125D01*
X0054731Y0023978D01*
X0054660Y0023833D01*
X0054586Y0023689D01*
X0054508Y0023547D01*
X0054426Y0023407D01*
X0054341Y0023269D01*
X0054253Y0023133D01*
X0054161Y0023000D01*
X0054066Y0022868D01*
X0053968Y0022739D01*
X0053867Y0022613D01*
X0053763Y0022489D01*
X0053655Y0022368D01*
X0053545Y0022249D01*
X0053432Y0022133D01*
X0053316Y0022020D01*
X0053197Y0021910D01*
X0053076Y0021802D01*
X0052952Y0021698D01*
X0052826Y0021597D01*
X0052697Y0021499D01*
X0052565Y0021404D01*
X0052432Y0021312D01*
X0052296Y0021224D01*
X0052158Y0021139D01*
X0052018Y0021057D01*
X0051876Y0020979D01*
X0051732Y0020905D01*
X0051587Y0020834D01*
X0051440Y0020766D01*
X0051291Y0020702D01*
X0051140Y0020642D01*
X0050988Y0020586D01*
X0050835Y0020533D01*
X0050681Y0020484D01*
X0050525Y0020439D01*
X0050369Y0020398D01*
X0050211Y0020360D01*
X0050053Y0020327D01*
X0049893Y0020297D01*
X0049733Y0020271D01*
X0049573Y0020250D01*
X0049412Y0020232D01*
X0049251Y0020218D01*
X0049089Y0020208D01*
X0048927Y0020202D01*
X0048765Y0020200D01*
X0048603Y0020202D01*
X0048441Y0020208D01*
X0048279Y0020218D01*
X0048118Y0020232D01*
X0047957Y0020250D01*
X0047797Y0020271D01*
X0047637Y0020297D01*
X0047477Y0020327D01*
X0047319Y0020360D01*
X0047161Y0020398D01*
X0047005Y0020439D01*
X0046849Y0020484D01*
X0046695Y0020533D01*
X0046542Y0020586D01*
X0046390Y0020642D01*
X0046239Y0020702D01*
X0046090Y0020766D01*
X0045943Y0020834D01*
X0045798Y0020905D01*
X0045654Y0020979D01*
X0045512Y0021057D01*
X0045372Y0021139D01*
X0045234Y0021224D01*
X0045098Y0021312D01*
X0044965Y0021404D01*
X0044833Y0021499D01*
X0044704Y0021597D01*
X0044578Y0021698D01*
X0044454Y0021802D01*
X0044333Y0021910D01*
X0044214Y0022020D01*
X0044098Y0022133D01*
X0043985Y0022249D01*
X0043875Y0022368D01*
X0043767Y0022489D01*
X0043663Y0022613D01*
X0043562Y0022739D01*
X0043464Y0022868D01*
X0043369Y0023000D01*
X0043277Y0023133D01*
X0043189Y0023269D01*
X0043104Y0023407D01*
X0043022Y0023547D01*
X0042944Y0023689D01*
X0042870Y0023833D01*
X0042799Y0023978D01*
X0042731Y0024125D01*
X0042667Y0024274D01*
X0042607Y0024425D01*
X0042551Y0024577D01*
X0042498Y0024730D01*
X0042449Y0024884D01*
X0042404Y0025040D01*
X0042363Y0025196D01*
X0042325Y0025354D01*
X0042292Y0025512D01*
X0042262Y0025672D01*
X0042236Y0025832D01*
X0042215Y0025992D01*
X0042197Y0026153D01*
X0042183Y0026314D01*
X0042173Y0026476D01*
X0042167Y0026638D01*
X0042165Y0026800D01*
X0037265Y0062800D02*
X0037267Y0062911D01*
X0037273Y0063022D01*
X0037283Y0063133D01*
X0037297Y0063244D01*
X0037315Y0063354D01*
X0037337Y0063463D01*
X0037362Y0063571D01*
X0037392Y0063678D01*
X0037425Y0063784D01*
X0037463Y0063889D01*
X0037504Y0063993D01*
X0037548Y0064095D01*
X0037597Y0064195D01*
X0037648Y0064293D01*
X0037704Y0064390D01*
X0037763Y0064484D01*
X0037825Y0064577D01*
X0037890Y0064667D01*
X0037959Y0064754D01*
X0038030Y0064840D01*
X0038105Y0064922D01*
X0038183Y0065002D01*
X0038263Y0065079D01*
X0038346Y0065153D01*
X0038432Y0065224D01*
X0038520Y0065291D01*
X0038611Y0065356D01*
X0038704Y0065417D01*
X0038799Y0065475D01*
X0038896Y0065530D01*
X0038995Y0065581D01*
X0039096Y0065628D01*
X0039198Y0065672D01*
X0039302Y0065712D01*
X0039407Y0065748D01*
X0039513Y0065781D01*
X0039621Y0065809D01*
X0039730Y0065834D01*
X0039839Y0065855D01*
X0039949Y0065872D01*
X0040059Y0065885D01*
X0040170Y0065894D01*
X0040282Y0065899D01*
X0040393Y0065900D01*
X0040504Y0065897D01*
X0040615Y0065890D01*
X0040726Y0065879D01*
X0040836Y0065864D01*
X0040946Y0065845D01*
X0041055Y0065822D01*
X0041163Y0065796D01*
X0041270Y0065765D01*
X0041376Y0065731D01*
X0041480Y0065692D01*
X0041583Y0065651D01*
X0041685Y0065605D01*
X0041785Y0065556D01*
X0041883Y0065503D01*
X0041979Y0065447D01*
X0042073Y0065387D01*
X0042165Y0065324D01*
X0042254Y0065258D01*
X0042341Y0065189D01*
X0042425Y0065116D01*
X0042507Y0065041D01*
X0042586Y0064962D01*
X0042663Y0064881D01*
X0042736Y0064797D01*
X0042806Y0064711D01*
X0042873Y0064622D01*
X0042937Y0064531D01*
X0042997Y0064438D01*
X0043054Y0064342D01*
X0043108Y0064244D01*
X0043158Y0064145D01*
X0043204Y0064044D01*
X0043247Y0063941D01*
X0043286Y0063837D01*
X0043322Y0063731D01*
X0043353Y0063625D01*
X0043381Y0063517D01*
X0043405Y0063408D01*
X0043425Y0063299D01*
X0043441Y0063189D01*
X0043453Y0063078D01*
X0043461Y0062967D01*
X0043465Y0062856D01*
X0043465Y0062744D01*
X0043461Y0062633D01*
X0043453Y0062522D01*
X0043441Y0062411D01*
X0043425Y0062301D01*
X0043405Y0062192D01*
X0043381Y0062083D01*
X0043353Y0061975D01*
X0043322Y0061869D01*
X0043286Y0061763D01*
X0043247Y0061659D01*
X0043204Y0061556D01*
X0043158Y0061455D01*
X0043108Y0061356D01*
X0043054Y0061258D01*
X0042997Y0061162D01*
X0042937Y0061069D01*
X0042873Y0060978D01*
X0042806Y0060889D01*
X0042736Y0060803D01*
X0042663Y0060719D01*
X0042586Y0060638D01*
X0042507Y0060559D01*
X0042425Y0060484D01*
X0042341Y0060411D01*
X0042254Y0060342D01*
X0042165Y0060276D01*
X0042073Y0060213D01*
X0041979Y0060153D01*
X0041883Y0060097D01*
X0041785Y0060044D01*
X0041685Y0059995D01*
X0041583Y0059949D01*
X0041480Y0059908D01*
X0041376Y0059869D01*
X0041270Y0059835D01*
X0041163Y0059804D01*
X0041055Y0059778D01*
X0040946Y0059755D01*
X0040836Y0059736D01*
X0040726Y0059721D01*
X0040615Y0059710D01*
X0040504Y0059703D01*
X0040393Y0059700D01*
X0040282Y0059701D01*
X0040170Y0059706D01*
X0040059Y0059715D01*
X0039949Y0059728D01*
X0039839Y0059745D01*
X0039730Y0059766D01*
X0039621Y0059791D01*
X0039513Y0059819D01*
X0039407Y0059852D01*
X0039302Y0059888D01*
X0039198Y0059928D01*
X0039096Y0059972D01*
X0038995Y0060019D01*
X0038896Y0060070D01*
X0038799Y0060125D01*
X0038704Y0060183D01*
X0038611Y0060244D01*
X0038520Y0060309D01*
X0038432Y0060376D01*
X0038346Y0060447D01*
X0038263Y0060521D01*
X0038183Y0060598D01*
X0038105Y0060678D01*
X0038030Y0060760D01*
X0037959Y0060846D01*
X0037890Y0060933D01*
X0037825Y0061023D01*
X0037763Y0061116D01*
X0037704Y0061210D01*
X0037648Y0061307D01*
X0037597Y0061405D01*
X0037548Y0061505D01*
X0037504Y0061607D01*
X0037463Y0061711D01*
X0037425Y0061816D01*
X0037392Y0061922D01*
X0037362Y0062029D01*
X0037337Y0062137D01*
X0037315Y0062246D01*
X0037297Y0062356D01*
X0037283Y0062467D01*
X0037273Y0062578D01*
X0037267Y0062689D01*
X0037265Y0062800D01*
X0034665Y0087800D02*
X0034667Y0087911D01*
X0034673Y0088022D01*
X0034683Y0088133D01*
X0034697Y0088244D01*
X0034715Y0088354D01*
X0034737Y0088463D01*
X0034762Y0088571D01*
X0034792Y0088678D01*
X0034825Y0088784D01*
X0034863Y0088889D01*
X0034904Y0088993D01*
X0034948Y0089095D01*
X0034997Y0089195D01*
X0035048Y0089293D01*
X0035104Y0089390D01*
X0035163Y0089484D01*
X0035225Y0089577D01*
X0035290Y0089667D01*
X0035359Y0089754D01*
X0035430Y0089840D01*
X0035505Y0089922D01*
X0035583Y0090002D01*
X0035663Y0090079D01*
X0035746Y0090153D01*
X0035832Y0090224D01*
X0035920Y0090291D01*
X0036011Y0090356D01*
X0036104Y0090417D01*
X0036199Y0090475D01*
X0036296Y0090530D01*
X0036395Y0090581D01*
X0036496Y0090628D01*
X0036598Y0090672D01*
X0036702Y0090712D01*
X0036807Y0090748D01*
X0036913Y0090781D01*
X0037021Y0090809D01*
X0037130Y0090834D01*
X0037239Y0090855D01*
X0037349Y0090872D01*
X0037459Y0090885D01*
X0037570Y0090894D01*
X0037682Y0090899D01*
X0037793Y0090900D01*
X0037904Y0090897D01*
X0038015Y0090890D01*
X0038126Y0090879D01*
X0038236Y0090864D01*
X0038346Y0090845D01*
X0038455Y0090822D01*
X0038563Y0090796D01*
X0038670Y0090765D01*
X0038776Y0090731D01*
X0038880Y0090692D01*
X0038983Y0090651D01*
X0039085Y0090605D01*
X0039185Y0090556D01*
X0039283Y0090503D01*
X0039379Y0090447D01*
X0039473Y0090387D01*
X0039565Y0090324D01*
X0039654Y0090258D01*
X0039741Y0090189D01*
X0039825Y0090116D01*
X0039907Y0090041D01*
X0039986Y0089962D01*
X0040063Y0089881D01*
X0040136Y0089797D01*
X0040206Y0089711D01*
X0040273Y0089622D01*
X0040337Y0089531D01*
X0040397Y0089438D01*
X0040454Y0089342D01*
X0040508Y0089244D01*
X0040558Y0089145D01*
X0040604Y0089044D01*
X0040647Y0088941D01*
X0040686Y0088837D01*
X0040722Y0088731D01*
X0040753Y0088625D01*
X0040781Y0088517D01*
X0040805Y0088408D01*
X0040825Y0088299D01*
X0040841Y0088189D01*
X0040853Y0088078D01*
X0040861Y0087967D01*
X0040865Y0087856D01*
X0040865Y0087744D01*
X0040861Y0087633D01*
X0040853Y0087522D01*
X0040841Y0087411D01*
X0040825Y0087301D01*
X0040805Y0087192D01*
X0040781Y0087083D01*
X0040753Y0086975D01*
X0040722Y0086869D01*
X0040686Y0086763D01*
X0040647Y0086659D01*
X0040604Y0086556D01*
X0040558Y0086455D01*
X0040508Y0086356D01*
X0040454Y0086258D01*
X0040397Y0086162D01*
X0040337Y0086069D01*
X0040273Y0085978D01*
X0040206Y0085889D01*
X0040136Y0085803D01*
X0040063Y0085719D01*
X0039986Y0085638D01*
X0039907Y0085559D01*
X0039825Y0085484D01*
X0039741Y0085411D01*
X0039654Y0085342D01*
X0039565Y0085276D01*
X0039473Y0085213D01*
X0039379Y0085153D01*
X0039283Y0085097D01*
X0039185Y0085044D01*
X0039085Y0084995D01*
X0038983Y0084949D01*
X0038880Y0084908D01*
X0038776Y0084869D01*
X0038670Y0084835D01*
X0038563Y0084804D01*
X0038455Y0084778D01*
X0038346Y0084755D01*
X0038236Y0084736D01*
X0038126Y0084721D01*
X0038015Y0084710D01*
X0037904Y0084703D01*
X0037793Y0084700D01*
X0037682Y0084701D01*
X0037570Y0084706D01*
X0037459Y0084715D01*
X0037349Y0084728D01*
X0037239Y0084745D01*
X0037130Y0084766D01*
X0037021Y0084791D01*
X0036913Y0084819D01*
X0036807Y0084852D01*
X0036702Y0084888D01*
X0036598Y0084928D01*
X0036496Y0084972D01*
X0036395Y0085019D01*
X0036296Y0085070D01*
X0036199Y0085125D01*
X0036104Y0085183D01*
X0036011Y0085244D01*
X0035920Y0085309D01*
X0035832Y0085376D01*
X0035746Y0085447D01*
X0035663Y0085521D01*
X0035583Y0085598D01*
X0035505Y0085678D01*
X0035430Y0085760D01*
X0035359Y0085846D01*
X0035290Y0085933D01*
X0035225Y0086023D01*
X0035163Y0086116D01*
X0035104Y0086210D01*
X0035048Y0086307D01*
X0034997Y0086405D01*
X0034948Y0086505D01*
X0034904Y0086607D01*
X0034863Y0086711D01*
X0034825Y0086816D01*
X0034792Y0086922D01*
X0034762Y0087029D01*
X0034737Y0087137D01*
X0034715Y0087246D01*
X0034697Y0087356D01*
X0034683Y0087467D01*
X0034673Y0087578D01*
X0034667Y0087689D01*
X0034665Y0087800D01*
X0095665Y0094800D02*
X0095667Y0094911D01*
X0095673Y0095022D01*
X0095683Y0095133D01*
X0095697Y0095244D01*
X0095715Y0095354D01*
X0095737Y0095463D01*
X0095762Y0095571D01*
X0095792Y0095678D01*
X0095825Y0095784D01*
X0095863Y0095889D01*
X0095904Y0095993D01*
X0095948Y0096095D01*
X0095997Y0096195D01*
X0096048Y0096293D01*
X0096104Y0096390D01*
X0096163Y0096484D01*
X0096225Y0096577D01*
X0096290Y0096667D01*
X0096359Y0096754D01*
X0096430Y0096840D01*
X0096505Y0096922D01*
X0096583Y0097002D01*
X0096663Y0097079D01*
X0096746Y0097153D01*
X0096832Y0097224D01*
X0096920Y0097291D01*
X0097011Y0097356D01*
X0097104Y0097417D01*
X0097199Y0097475D01*
X0097296Y0097530D01*
X0097395Y0097581D01*
X0097496Y0097628D01*
X0097598Y0097672D01*
X0097702Y0097712D01*
X0097807Y0097748D01*
X0097913Y0097781D01*
X0098021Y0097809D01*
X0098130Y0097834D01*
X0098239Y0097855D01*
X0098349Y0097872D01*
X0098459Y0097885D01*
X0098570Y0097894D01*
X0098682Y0097899D01*
X0098793Y0097900D01*
X0098904Y0097897D01*
X0099015Y0097890D01*
X0099126Y0097879D01*
X0099236Y0097864D01*
X0099346Y0097845D01*
X0099455Y0097822D01*
X0099563Y0097796D01*
X0099670Y0097765D01*
X0099776Y0097731D01*
X0099880Y0097692D01*
X0099983Y0097651D01*
X0100085Y0097605D01*
X0100185Y0097556D01*
X0100283Y0097503D01*
X0100379Y0097447D01*
X0100473Y0097387D01*
X0100565Y0097324D01*
X0100654Y0097258D01*
X0100741Y0097189D01*
X0100825Y0097116D01*
X0100907Y0097041D01*
X0100986Y0096962D01*
X0101063Y0096881D01*
X0101136Y0096797D01*
X0101206Y0096711D01*
X0101273Y0096622D01*
X0101337Y0096531D01*
X0101397Y0096438D01*
X0101454Y0096342D01*
X0101508Y0096244D01*
X0101558Y0096145D01*
X0101604Y0096044D01*
X0101647Y0095941D01*
X0101686Y0095837D01*
X0101722Y0095731D01*
X0101753Y0095625D01*
X0101781Y0095517D01*
X0101805Y0095408D01*
X0101825Y0095299D01*
X0101841Y0095189D01*
X0101853Y0095078D01*
X0101861Y0094967D01*
X0101865Y0094856D01*
X0101865Y0094744D01*
X0101861Y0094633D01*
X0101853Y0094522D01*
X0101841Y0094411D01*
X0101825Y0094301D01*
X0101805Y0094192D01*
X0101781Y0094083D01*
X0101753Y0093975D01*
X0101722Y0093869D01*
X0101686Y0093763D01*
X0101647Y0093659D01*
X0101604Y0093556D01*
X0101558Y0093455D01*
X0101508Y0093356D01*
X0101454Y0093258D01*
X0101397Y0093162D01*
X0101337Y0093069D01*
X0101273Y0092978D01*
X0101206Y0092889D01*
X0101136Y0092803D01*
X0101063Y0092719D01*
X0100986Y0092638D01*
X0100907Y0092559D01*
X0100825Y0092484D01*
X0100741Y0092411D01*
X0100654Y0092342D01*
X0100565Y0092276D01*
X0100473Y0092213D01*
X0100379Y0092153D01*
X0100283Y0092097D01*
X0100185Y0092044D01*
X0100085Y0091995D01*
X0099983Y0091949D01*
X0099880Y0091908D01*
X0099776Y0091869D01*
X0099670Y0091835D01*
X0099563Y0091804D01*
X0099455Y0091778D01*
X0099346Y0091755D01*
X0099236Y0091736D01*
X0099126Y0091721D01*
X0099015Y0091710D01*
X0098904Y0091703D01*
X0098793Y0091700D01*
X0098682Y0091701D01*
X0098570Y0091706D01*
X0098459Y0091715D01*
X0098349Y0091728D01*
X0098239Y0091745D01*
X0098130Y0091766D01*
X0098021Y0091791D01*
X0097913Y0091819D01*
X0097807Y0091852D01*
X0097702Y0091888D01*
X0097598Y0091928D01*
X0097496Y0091972D01*
X0097395Y0092019D01*
X0097296Y0092070D01*
X0097199Y0092125D01*
X0097104Y0092183D01*
X0097011Y0092244D01*
X0096920Y0092309D01*
X0096832Y0092376D01*
X0096746Y0092447D01*
X0096663Y0092521D01*
X0096583Y0092598D01*
X0096505Y0092678D01*
X0096430Y0092760D01*
X0096359Y0092846D01*
X0096290Y0092933D01*
X0096225Y0093023D01*
X0096163Y0093116D01*
X0096104Y0093210D01*
X0096048Y0093307D01*
X0095997Y0093405D01*
X0095948Y0093505D01*
X0095904Y0093607D01*
X0095863Y0093711D01*
X0095825Y0093816D01*
X0095792Y0093922D01*
X0095762Y0094029D01*
X0095737Y0094137D01*
X0095715Y0094246D01*
X0095697Y0094356D01*
X0095683Y0094467D01*
X0095673Y0094578D01*
X0095667Y0094689D01*
X0095665Y0094800D01*
X0205665Y0094800D02*
X0205667Y0094911D01*
X0205673Y0095022D01*
X0205683Y0095133D01*
X0205697Y0095244D01*
X0205715Y0095354D01*
X0205737Y0095463D01*
X0205762Y0095571D01*
X0205792Y0095678D01*
X0205825Y0095784D01*
X0205863Y0095889D01*
X0205904Y0095993D01*
X0205948Y0096095D01*
X0205997Y0096195D01*
X0206048Y0096293D01*
X0206104Y0096390D01*
X0206163Y0096484D01*
X0206225Y0096577D01*
X0206290Y0096667D01*
X0206359Y0096754D01*
X0206430Y0096840D01*
X0206505Y0096922D01*
X0206583Y0097002D01*
X0206663Y0097079D01*
X0206746Y0097153D01*
X0206832Y0097224D01*
X0206920Y0097291D01*
X0207011Y0097356D01*
X0207104Y0097417D01*
X0207199Y0097475D01*
X0207296Y0097530D01*
X0207395Y0097581D01*
X0207496Y0097628D01*
X0207598Y0097672D01*
X0207702Y0097712D01*
X0207807Y0097748D01*
X0207913Y0097781D01*
X0208021Y0097809D01*
X0208130Y0097834D01*
X0208239Y0097855D01*
X0208349Y0097872D01*
X0208459Y0097885D01*
X0208570Y0097894D01*
X0208682Y0097899D01*
X0208793Y0097900D01*
X0208904Y0097897D01*
X0209015Y0097890D01*
X0209126Y0097879D01*
X0209236Y0097864D01*
X0209346Y0097845D01*
X0209455Y0097822D01*
X0209563Y0097796D01*
X0209670Y0097765D01*
X0209776Y0097731D01*
X0209880Y0097692D01*
X0209983Y0097651D01*
X0210085Y0097605D01*
X0210185Y0097556D01*
X0210283Y0097503D01*
X0210379Y0097447D01*
X0210473Y0097387D01*
X0210565Y0097324D01*
X0210654Y0097258D01*
X0210741Y0097189D01*
X0210825Y0097116D01*
X0210907Y0097041D01*
X0210986Y0096962D01*
X0211063Y0096881D01*
X0211136Y0096797D01*
X0211206Y0096711D01*
X0211273Y0096622D01*
X0211337Y0096531D01*
X0211397Y0096438D01*
X0211454Y0096342D01*
X0211508Y0096244D01*
X0211558Y0096145D01*
X0211604Y0096044D01*
X0211647Y0095941D01*
X0211686Y0095837D01*
X0211722Y0095731D01*
X0211753Y0095625D01*
X0211781Y0095517D01*
X0211805Y0095408D01*
X0211825Y0095299D01*
X0211841Y0095189D01*
X0211853Y0095078D01*
X0211861Y0094967D01*
X0211865Y0094856D01*
X0211865Y0094744D01*
X0211861Y0094633D01*
X0211853Y0094522D01*
X0211841Y0094411D01*
X0211825Y0094301D01*
X0211805Y0094192D01*
X0211781Y0094083D01*
X0211753Y0093975D01*
X0211722Y0093869D01*
X0211686Y0093763D01*
X0211647Y0093659D01*
X0211604Y0093556D01*
X0211558Y0093455D01*
X0211508Y0093356D01*
X0211454Y0093258D01*
X0211397Y0093162D01*
X0211337Y0093069D01*
X0211273Y0092978D01*
X0211206Y0092889D01*
X0211136Y0092803D01*
X0211063Y0092719D01*
X0210986Y0092638D01*
X0210907Y0092559D01*
X0210825Y0092484D01*
X0210741Y0092411D01*
X0210654Y0092342D01*
X0210565Y0092276D01*
X0210473Y0092213D01*
X0210379Y0092153D01*
X0210283Y0092097D01*
X0210185Y0092044D01*
X0210085Y0091995D01*
X0209983Y0091949D01*
X0209880Y0091908D01*
X0209776Y0091869D01*
X0209670Y0091835D01*
X0209563Y0091804D01*
X0209455Y0091778D01*
X0209346Y0091755D01*
X0209236Y0091736D01*
X0209126Y0091721D01*
X0209015Y0091710D01*
X0208904Y0091703D01*
X0208793Y0091700D01*
X0208682Y0091701D01*
X0208570Y0091706D01*
X0208459Y0091715D01*
X0208349Y0091728D01*
X0208239Y0091745D01*
X0208130Y0091766D01*
X0208021Y0091791D01*
X0207913Y0091819D01*
X0207807Y0091852D01*
X0207702Y0091888D01*
X0207598Y0091928D01*
X0207496Y0091972D01*
X0207395Y0092019D01*
X0207296Y0092070D01*
X0207199Y0092125D01*
X0207104Y0092183D01*
X0207011Y0092244D01*
X0206920Y0092309D01*
X0206832Y0092376D01*
X0206746Y0092447D01*
X0206663Y0092521D01*
X0206583Y0092598D01*
X0206505Y0092678D01*
X0206430Y0092760D01*
X0206359Y0092846D01*
X0206290Y0092933D01*
X0206225Y0093023D01*
X0206163Y0093116D01*
X0206104Y0093210D01*
X0206048Y0093307D01*
X0205997Y0093405D01*
X0205948Y0093505D01*
X0205904Y0093607D01*
X0205863Y0093711D01*
X0205825Y0093816D01*
X0205792Y0093922D01*
X0205762Y0094029D01*
X0205737Y0094137D01*
X0205715Y0094246D01*
X0205697Y0094356D01*
X0205683Y0094467D01*
X0205673Y0094578D01*
X0205667Y0094689D01*
X0205665Y0094800D01*
X0315665Y0094800D02*
X0315667Y0094911D01*
X0315673Y0095022D01*
X0315683Y0095133D01*
X0315697Y0095244D01*
X0315715Y0095354D01*
X0315737Y0095463D01*
X0315762Y0095571D01*
X0315792Y0095678D01*
X0315825Y0095784D01*
X0315863Y0095889D01*
X0315904Y0095993D01*
X0315948Y0096095D01*
X0315997Y0096195D01*
X0316048Y0096293D01*
X0316104Y0096390D01*
X0316163Y0096484D01*
X0316225Y0096577D01*
X0316290Y0096667D01*
X0316359Y0096754D01*
X0316430Y0096840D01*
X0316505Y0096922D01*
X0316583Y0097002D01*
X0316663Y0097079D01*
X0316746Y0097153D01*
X0316832Y0097224D01*
X0316920Y0097291D01*
X0317011Y0097356D01*
X0317104Y0097417D01*
X0317199Y0097475D01*
X0317296Y0097530D01*
X0317395Y0097581D01*
X0317496Y0097628D01*
X0317598Y0097672D01*
X0317702Y0097712D01*
X0317807Y0097748D01*
X0317913Y0097781D01*
X0318021Y0097809D01*
X0318130Y0097834D01*
X0318239Y0097855D01*
X0318349Y0097872D01*
X0318459Y0097885D01*
X0318570Y0097894D01*
X0318682Y0097899D01*
X0318793Y0097900D01*
X0318904Y0097897D01*
X0319015Y0097890D01*
X0319126Y0097879D01*
X0319236Y0097864D01*
X0319346Y0097845D01*
X0319455Y0097822D01*
X0319563Y0097796D01*
X0319670Y0097765D01*
X0319776Y0097731D01*
X0319880Y0097692D01*
X0319983Y0097651D01*
X0320085Y0097605D01*
X0320185Y0097556D01*
X0320283Y0097503D01*
X0320379Y0097447D01*
X0320473Y0097387D01*
X0320565Y0097324D01*
X0320654Y0097258D01*
X0320741Y0097189D01*
X0320825Y0097116D01*
X0320907Y0097041D01*
X0320986Y0096962D01*
X0321063Y0096881D01*
X0321136Y0096797D01*
X0321206Y0096711D01*
X0321273Y0096622D01*
X0321337Y0096531D01*
X0321397Y0096438D01*
X0321454Y0096342D01*
X0321508Y0096244D01*
X0321558Y0096145D01*
X0321604Y0096044D01*
X0321647Y0095941D01*
X0321686Y0095837D01*
X0321722Y0095731D01*
X0321753Y0095625D01*
X0321781Y0095517D01*
X0321805Y0095408D01*
X0321825Y0095299D01*
X0321841Y0095189D01*
X0321853Y0095078D01*
X0321861Y0094967D01*
X0321865Y0094856D01*
X0321865Y0094744D01*
X0321861Y0094633D01*
X0321853Y0094522D01*
X0321841Y0094411D01*
X0321825Y0094301D01*
X0321805Y0094192D01*
X0321781Y0094083D01*
X0321753Y0093975D01*
X0321722Y0093869D01*
X0321686Y0093763D01*
X0321647Y0093659D01*
X0321604Y0093556D01*
X0321558Y0093455D01*
X0321508Y0093356D01*
X0321454Y0093258D01*
X0321397Y0093162D01*
X0321337Y0093069D01*
X0321273Y0092978D01*
X0321206Y0092889D01*
X0321136Y0092803D01*
X0321063Y0092719D01*
X0320986Y0092638D01*
X0320907Y0092559D01*
X0320825Y0092484D01*
X0320741Y0092411D01*
X0320654Y0092342D01*
X0320565Y0092276D01*
X0320473Y0092213D01*
X0320379Y0092153D01*
X0320283Y0092097D01*
X0320185Y0092044D01*
X0320085Y0091995D01*
X0319983Y0091949D01*
X0319880Y0091908D01*
X0319776Y0091869D01*
X0319670Y0091835D01*
X0319563Y0091804D01*
X0319455Y0091778D01*
X0319346Y0091755D01*
X0319236Y0091736D01*
X0319126Y0091721D01*
X0319015Y0091710D01*
X0318904Y0091703D01*
X0318793Y0091700D01*
X0318682Y0091701D01*
X0318570Y0091706D01*
X0318459Y0091715D01*
X0318349Y0091728D01*
X0318239Y0091745D01*
X0318130Y0091766D01*
X0318021Y0091791D01*
X0317913Y0091819D01*
X0317807Y0091852D01*
X0317702Y0091888D01*
X0317598Y0091928D01*
X0317496Y0091972D01*
X0317395Y0092019D01*
X0317296Y0092070D01*
X0317199Y0092125D01*
X0317104Y0092183D01*
X0317011Y0092244D01*
X0316920Y0092309D01*
X0316832Y0092376D01*
X0316746Y0092447D01*
X0316663Y0092521D01*
X0316583Y0092598D01*
X0316505Y0092678D01*
X0316430Y0092760D01*
X0316359Y0092846D01*
X0316290Y0092933D01*
X0316225Y0093023D01*
X0316163Y0093116D01*
X0316104Y0093210D01*
X0316048Y0093307D01*
X0315997Y0093405D01*
X0315948Y0093505D01*
X0315904Y0093607D01*
X0315863Y0093711D01*
X0315825Y0093816D01*
X0315792Y0093922D01*
X0315762Y0094029D01*
X0315737Y0094137D01*
X0315715Y0094246D01*
X0315697Y0094356D01*
X0315683Y0094467D01*
X0315673Y0094578D01*
X0315667Y0094689D01*
X0315665Y0094800D01*
X0371465Y0049900D02*
X0371467Y0050011D01*
X0371473Y0050122D01*
X0371483Y0050233D01*
X0371497Y0050344D01*
X0371515Y0050454D01*
X0371537Y0050563D01*
X0371562Y0050671D01*
X0371592Y0050778D01*
X0371625Y0050884D01*
X0371663Y0050989D01*
X0371704Y0051093D01*
X0371748Y0051195D01*
X0371797Y0051295D01*
X0371848Y0051393D01*
X0371904Y0051490D01*
X0371963Y0051584D01*
X0372025Y0051677D01*
X0372090Y0051767D01*
X0372159Y0051854D01*
X0372230Y0051940D01*
X0372305Y0052022D01*
X0372383Y0052102D01*
X0372463Y0052179D01*
X0372546Y0052253D01*
X0372632Y0052324D01*
X0372720Y0052391D01*
X0372811Y0052456D01*
X0372904Y0052517D01*
X0372999Y0052575D01*
X0373096Y0052630D01*
X0373195Y0052681D01*
X0373296Y0052728D01*
X0373398Y0052772D01*
X0373502Y0052812D01*
X0373607Y0052848D01*
X0373713Y0052881D01*
X0373821Y0052909D01*
X0373930Y0052934D01*
X0374039Y0052955D01*
X0374149Y0052972D01*
X0374259Y0052985D01*
X0374370Y0052994D01*
X0374482Y0052999D01*
X0374593Y0053000D01*
X0374704Y0052997D01*
X0374815Y0052990D01*
X0374926Y0052979D01*
X0375036Y0052964D01*
X0375146Y0052945D01*
X0375255Y0052922D01*
X0375363Y0052896D01*
X0375470Y0052865D01*
X0375576Y0052831D01*
X0375680Y0052792D01*
X0375783Y0052751D01*
X0375885Y0052705D01*
X0375985Y0052656D01*
X0376083Y0052603D01*
X0376179Y0052547D01*
X0376273Y0052487D01*
X0376365Y0052424D01*
X0376454Y0052358D01*
X0376541Y0052289D01*
X0376625Y0052216D01*
X0376707Y0052141D01*
X0376786Y0052062D01*
X0376863Y0051981D01*
X0376936Y0051897D01*
X0377006Y0051811D01*
X0377073Y0051722D01*
X0377137Y0051631D01*
X0377197Y0051538D01*
X0377254Y0051442D01*
X0377308Y0051344D01*
X0377358Y0051245D01*
X0377404Y0051144D01*
X0377447Y0051041D01*
X0377486Y0050937D01*
X0377522Y0050831D01*
X0377553Y0050725D01*
X0377581Y0050617D01*
X0377605Y0050508D01*
X0377625Y0050399D01*
X0377641Y0050289D01*
X0377653Y0050178D01*
X0377661Y0050067D01*
X0377665Y0049956D01*
X0377665Y0049844D01*
X0377661Y0049733D01*
X0377653Y0049622D01*
X0377641Y0049511D01*
X0377625Y0049401D01*
X0377605Y0049292D01*
X0377581Y0049183D01*
X0377553Y0049075D01*
X0377522Y0048969D01*
X0377486Y0048863D01*
X0377447Y0048759D01*
X0377404Y0048656D01*
X0377358Y0048555D01*
X0377308Y0048456D01*
X0377254Y0048358D01*
X0377197Y0048262D01*
X0377137Y0048169D01*
X0377073Y0048078D01*
X0377006Y0047989D01*
X0376936Y0047903D01*
X0376863Y0047819D01*
X0376786Y0047738D01*
X0376707Y0047659D01*
X0376625Y0047584D01*
X0376541Y0047511D01*
X0376454Y0047442D01*
X0376365Y0047376D01*
X0376273Y0047313D01*
X0376179Y0047253D01*
X0376083Y0047197D01*
X0375985Y0047144D01*
X0375885Y0047095D01*
X0375783Y0047049D01*
X0375680Y0047008D01*
X0375576Y0046969D01*
X0375470Y0046935D01*
X0375363Y0046904D01*
X0375255Y0046878D01*
X0375146Y0046855D01*
X0375036Y0046836D01*
X0374926Y0046821D01*
X0374815Y0046810D01*
X0374704Y0046803D01*
X0374593Y0046800D01*
X0374482Y0046801D01*
X0374370Y0046806D01*
X0374259Y0046815D01*
X0374149Y0046828D01*
X0374039Y0046845D01*
X0373930Y0046866D01*
X0373821Y0046891D01*
X0373713Y0046919D01*
X0373607Y0046952D01*
X0373502Y0046988D01*
X0373398Y0047028D01*
X0373296Y0047072D01*
X0373195Y0047119D01*
X0373096Y0047170D01*
X0372999Y0047225D01*
X0372904Y0047283D01*
X0372811Y0047344D01*
X0372720Y0047409D01*
X0372632Y0047476D01*
X0372546Y0047547D01*
X0372463Y0047621D01*
X0372383Y0047698D01*
X0372305Y0047778D01*
X0372230Y0047860D01*
X0372159Y0047946D01*
X0372090Y0048033D01*
X0372025Y0048123D01*
X0371963Y0048216D01*
X0371904Y0048310D01*
X0371848Y0048407D01*
X0371797Y0048505D01*
X0371748Y0048605D01*
X0371704Y0048707D01*
X0371663Y0048811D01*
X0371625Y0048916D01*
X0371592Y0049022D01*
X0371562Y0049129D01*
X0371537Y0049237D01*
X0371515Y0049346D01*
X0371497Y0049456D01*
X0371483Y0049567D01*
X0371473Y0049678D01*
X0371467Y0049789D01*
X0371465Y0049900D01*
X0376665Y0071600D02*
X0376667Y0071711D01*
X0376673Y0071822D01*
X0376683Y0071933D01*
X0376697Y0072044D01*
X0376715Y0072154D01*
X0376737Y0072263D01*
X0376762Y0072371D01*
X0376792Y0072478D01*
X0376825Y0072584D01*
X0376863Y0072689D01*
X0376904Y0072793D01*
X0376948Y0072895D01*
X0376997Y0072995D01*
X0377048Y0073093D01*
X0377104Y0073190D01*
X0377163Y0073284D01*
X0377225Y0073377D01*
X0377290Y0073467D01*
X0377359Y0073554D01*
X0377430Y0073640D01*
X0377505Y0073722D01*
X0377583Y0073802D01*
X0377663Y0073879D01*
X0377746Y0073953D01*
X0377832Y0074024D01*
X0377920Y0074091D01*
X0378011Y0074156D01*
X0378104Y0074217D01*
X0378199Y0074275D01*
X0378296Y0074330D01*
X0378395Y0074381D01*
X0378496Y0074428D01*
X0378598Y0074472D01*
X0378702Y0074512D01*
X0378807Y0074548D01*
X0378913Y0074581D01*
X0379021Y0074609D01*
X0379130Y0074634D01*
X0379239Y0074655D01*
X0379349Y0074672D01*
X0379459Y0074685D01*
X0379570Y0074694D01*
X0379682Y0074699D01*
X0379793Y0074700D01*
X0379904Y0074697D01*
X0380015Y0074690D01*
X0380126Y0074679D01*
X0380236Y0074664D01*
X0380346Y0074645D01*
X0380455Y0074622D01*
X0380563Y0074596D01*
X0380670Y0074565D01*
X0380776Y0074531D01*
X0380880Y0074492D01*
X0380983Y0074451D01*
X0381085Y0074405D01*
X0381185Y0074356D01*
X0381283Y0074303D01*
X0381379Y0074247D01*
X0381473Y0074187D01*
X0381565Y0074124D01*
X0381654Y0074058D01*
X0381741Y0073989D01*
X0381825Y0073916D01*
X0381907Y0073841D01*
X0381986Y0073762D01*
X0382063Y0073681D01*
X0382136Y0073597D01*
X0382206Y0073511D01*
X0382273Y0073422D01*
X0382337Y0073331D01*
X0382397Y0073238D01*
X0382454Y0073142D01*
X0382508Y0073044D01*
X0382558Y0072945D01*
X0382604Y0072844D01*
X0382647Y0072741D01*
X0382686Y0072637D01*
X0382722Y0072531D01*
X0382753Y0072425D01*
X0382781Y0072317D01*
X0382805Y0072208D01*
X0382825Y0072099D01*
X0382841Y0071989D01*
X0382853Y0071878D01*
X0382861Y0071767D01*
X0382865Y0071656D01*
X0382865Y0071544D01*
X0382861Y0071433D01*
X0382853Y0071322D01*
X0382841Y0071211D01*
X0382825Y0071101D01*
X0382805Y0070992D01*
X0382781Y0070883D01*
X0382753Y0070775D01*
X0382722Y0070669D01*
X0382686Y0070563D01*
X0382647Y0070459D01*
X0382604Y0070356D01*
X0382558Y0070255D01*
X0382508Y0070156D01*
X0382454Y0070058D01*
X0382397Y0069962D01*
X0382337Y0069869D01*
X0382273Y0069778D01*
X0382206Y0069689D01*
X0382136Y0069603D01*
X0382063Y0069519D01*
X0381986Y0069438D01*
X0381907Y0069359D01*
X0381825Y0069284D01*
X0381741Y0069211D01*
X0381654Y0069142D01*
X0381565Y0069076D01*
X0381473Y0069013D01*
X0381379Y0068953D01*
X0381283Y0068897D01*
X0381185Y0068844D01*
X0381085Y0068795D01*
X0380983Y0068749D01*
X0380880Y0068708D01*
X0380776Y0068669D01*
X0380670Y0068635D01*
X0380563Y0068604D01*
X0380455Y0068578D01*
X0380346Y0068555D01*
X0380236Y0068536D01*
X0380126Y0068521D01*
X0380015Y0068510D01*
X0379904Y0068503D01*
X0379793Y0068500D01*
X0379682Y0068501D01*
X0379570Y0068506D01*
X0379459Y0068515D01*
X0379349Y0068528D01*
X0379239Y0068545D01*
X0379130Y0068566D01*
X0379021Y0068591D01*
X0378913Y0068619D01*
X0378807Y0068652D01*
X0378702Y0068688D01*
X0378598Y0068728D01*
X0378496Y0068772D01*
X0378395Y0068819D01*
X0378296Y0068870D01*
X0378199Y0068925D01*
X0378104Y0068983D01*
X0378011Y0069044D01*
X0377920Y0069109D01*
X0377832Y0069176D01*
X0377746Y0069247D01*
X0377663Y0069321D01*
X0377583Y0069398D01*
X0377505Y0069478D01*
X0377430Y0069560D01*
X0377359Y0069646D01*
X0377290Y0069733D01*
X0377225Y0069823D01*
X0377163Y0069916D01*
X0377104Y0070010D01*
X0377048Y0070107D01*
X0376997Y0070205D01*
X0376948Y0070305D01*
X0376904Y0070407D01*
X0376863Y0070511D01*
X0376825Y0070616D01*
X0376792Y0070722D01*
X0376762Y0070829D01*
X0376737Y0070937D01*
X0376715Y0071046D01*
X0376697Y0071156D01*
X0376683Y0071267D01*
X0376673Y0071378D01*
X0376667Y0071489D01*
X0376665Y0071600D01*
X0362165Y0026800D02*
X0362167Y0026962D01*
X0362173Y0027124D01*
X0362183Y0027286D01*
X0362197Y0027447D01*
X0362215Y0027608D01*
X0362236Y0027768D01*
X0362262Y0027928D01*
X0362292Y0028088D01*
X0362325Y0028246D01*
X0362363Y0028404D01*
X0362404Y0028560D01*
X0362449Y0028716D01*
X0362498Y0028870D01*
X0362551Y0029023D01*
X0362607Y0029175D01*
X0362667Y0029326D01*
X0362731Y0029475D01*
X0362799Y0029622D01*
X0362870Y0029767D01*
X0362944Y0029911D01*
X0363022Y0030053D01*
X0363104Y0030193D01*
X0363189Y0030331D01*
X0363277Y0030467D01*
X0363369Y0030600D01*
X0363464Y0030732D01*
X0363562Y0030861D01*
X0363663Y0030987D01*
X0363767Y0031111D01*
X0363875Y0031232D01*
X0363985Y0031351D01*
X0364098Y0031467D01*
X0364214Y0031580D01*
X0364333Y0031690D01*
X0364454Y0031798D01*
X0364578Y0031902D01*
X0364704Y0032003D01*
X0364833Y0032101D01*
X0364965Y0032196D01*
X0365098Y0032288D01*
X0365234Y0032376D01*
X0365372Y0032461D01*
X0365512Y0032543D01*
X0365654Y0032621D01*
X0365798Y0032695D01*
X0365943Y0032766D01*
X0366090Y0032834D01*
X0366239Y0032898D01*
X0366390Y0032958D01*
X0366542Y0033014D01*
X0366695Y0033067D01*
X0366849Y0033116D01*
X0367005Y0033161D01*
X0367161Y0033202D01*
X0367319Y0033240D01*
X0367477Y0033273D01*
X0367637Y0033303D01*
X0367797Y0033329D01*
X0367957Y0033350D01*
X0368118Y0033368D01*
X0368279Y0033382D01*
X0368441Y0033392D01*
X0368603Y0033398D01*
X0368765Y0033400D01*
X0368927Y0033398D01*
X0369089Y0033392D01*
X0369251Y0033382D01*
X0369412Y0033368D01*
X0369573Y0033350D01*
X0369733Y0033329D01*
X0369893Y0033303D01*
X0370053Y0033273D01*
X0370211Y0033240D01*
X0370369Y0033202D01*
X0370525Y0033161D01*
X0370681Y0033116D01*
X0370835Y0033067D01*
X0370988Y0033014D01*
X0371140Y0032958D01*
X0371291Y0032898D01*
X0371440Y0032834D01*
X0371587Y0032766D01*
X0371732Y0032695D01*
X0371876Y0032621D01*
X0372018Y0032543D01*
X0372158Y0032461D01*
X0372296Y0032376D01*
X0372432Y0032288D01*
X0372565Y0032196D01*
X0372697Y0032101D01*
X0372826Y0032003D01*
X0372952Y0031902D01*
X0373076Y0031798D01*
X0373197Y0031690D01*
X0373316Y0031580D01*
X0373432Y0031467D01*
X0373545Y0031351D01*
X0373655Y0031232D01*
X0373763Y0031111D01*
X0373867Y0030987D01*
X0373968Y0030861D01*
X0374066Y0030732D01*
X0374161Y0030600D01*
X0374253Y0030467D01*
X0374341Y0030331D01*
X0374426Y0030193D01*
X0374508Y0030053D01*
X0374586Y0029911D01*
X0374660Y0029767D01*
X0374731Y0029622D01*
X0374799Y0029475D01*
X0374863Y0029326D01*
X0374923Y0029175D01*
X0374979Y0029023D01*
X0375032Y0028870D01*
X0375081Y0028716D01*
X0375126Y0028560D01*
X0375167Y0028404D01*
X0375205Y0028246D01*
X0375238Y0028088D01*
X0375268Y0027928D01*
X0375294Y0027768D01*
X0375315Y0027608D01*
X0375333Y0027447D01*
X0375347Y0027286D01*
X0375357Y0027124D01*
X0375363Y0026962D01*
X0375365Y0026800D01*
X0375363Y0026638D01*
X0375357Y0026476D01*
X0375347Y0026314D01*
X0375333Y0026153D01*
X0375315Y0025992D01*
X0375294Y0025832D01*
X0375268Y0025672D01*
X0375238Y0025512D01*
X0375205Y0025354D01*
X0375167Y0025196D01*
X0375126Y0025040D01*
X0375081Y0024884D01*
X0375032Y0024730D01*
X0374979Y0024577D01*
X0374923Y0024425D01*
X0374863Y0024274D01*
X0374799Y0024125D01*
X0374731Y0023978D01*
X0374660Y0023833D01*
X0374586Y0023689D01*
X0374508Y0023547D01*
X0374426Y0023407D01*
X0374341Y0023269D01*
X0374253Y0023133D01*
X0374161Y0023000D01*
X0374066Y0022868D01*
X0373968Y0022739D01*
X0373867Y0022613D01*
X0373763Y0022489D01*
X0373655Y0022368D01*
X0373545Y0022249D01*
X0373432Y0022133D01*
X0373316Y0022020D01*
X0373197Y0021910D01*
X0373076Y0021802D01*
X0372952Y0021698D01*
X0372826Y0021597D01*
X0372697Y0021499D01*
X0372565Y0021404D01*
X0372432Y0021312D01*
X0372296Y0021224D01*
X0372158Y0021139D01*
X0372018Y0021057D01*
X0371876Y0020979D01*
X0371732Y0020905D01*
X0371587Y0020834D01*
X0371440Y0020766D01*
X0371291Y0020702D01*
X0371140Y0020642D01*
X0370988Y0020586D01*
X0370835Y0020533D01*
X0370681Y0020484D01*
X0370525Y0020439D01*
X0370369Y0020398D01*
X0370211Y0020360D01*
X0370053Y0020327D01*
X0369893Y0020297D01*
X0369733Y0020271D01*
X0369573Y0020250D01*
X0369412Y0020232D01*
X0369251Y0020218D01*
X0369089Y0020208D01*
X0368927Y0020202D01*
X0368765Y0020200D01*
X0368603Y0020202D01*
X0368441Y0020208D01*
X0368279Y0020218D01*
X0368118Y0020232D01*
X0367957Y0020250D01*
X0367797Y0020271D01*
X0367637Y0020297D01*
X0367477Y0020327D01*
X0367319Y0020360D01*
X0367161Y0020398D01*
X0367005Y0020439D01*
X0366849Y0020484D01*
X0366695Y0020533D01*
X0366542Y0020586D01*
X0366390Y0020642D01*
X0366239Y0020702D01*
X0366090Y0020766D01*
X0365943Y0020834D01*
X0365798Y0020905D01*
X0365654Y0020979D01*
X0365512Y0021057D01*
X0365372Y0021139D01*
X0365234Y0021224D01*
X0365098Y0021312D01*
X0364965Y0021404D01*
X0364833Y0021499D01*
X0364704Y0021597D01*
X0364578Y0021698D01*
X0364454Y0021802D01*
X0364333Y0021910D01*
X0364214Y0022020D01*
X0364098Y0022133D01*
X0363985Y0022249D01*
X0363875Y0022368D01*
X0363767Y0022489D01*
X0363663Y0022613D01*
X0363562Y0022739D01*
X0363464Y0022868D01*
X0363369Y0023000D01*
X0363277Y0023133D01*
X0363189Y0023269D01*
X0363104Y0023407D01*
X0363022Y0023547D01*
X0362944Y0023689D01*
X0362870Y0023833D01*
X0362799Y0023978D01*
X0362731Y0024125D01*
X0362667Y0024274D01*
X0362607Y0024425D01*
X0362551Y0024577D01*
X0362498Y0024730D01*
X0362449Y0024884D01*
X0362404Y0025040D01*
X0362363Y0025196D01*
X0362325Y0025354D01*
X0362292Y0025512D01*
X0362262Y0025672D01*
X0362236Y0025832D01*
X0362215Y0025992D01*
X0362197Y0026153D01*
X0362183Y0026314D01*
X0362173Y0026476D01*
X0362167Y0026638D01*
X0362165Y0026800D01*
X0376665Y0008800D02*
X0376667Y0008911D01*
X0376673Y0009022D01*
X0376683Y0009133D01*
X0376697Y0009244D01*
X0376715Y0009354D01*
X0376737Y0009463D01*
X0376762Y0009571D01*
X0376792Y0009678D01*
X0376825Y0009784D01*
X0376863Y0009889D01*
X0376904Y0009993D01*
X0376948Y0010095D01*
X0376997Y0010195D01*
X0377048Y0010293D01*
X0377104Y0010390D01*
X0377163Y0010484D01*
X0377225Y0010577D01*
X0377290Y0010667D01*
X0377359Y0010754D01*
X0377430Y0010840D01*
X0377505Y0010922D01*
X0377583Y0011002D01*
X0377663Y0011079D01*
X0377746Y0011153D01*
X0377832Y0011224D01*
X0377920Y0011291D01*
X0378011Y0011356D01*
X0378104Y0011417D01*
X0378199Y0011475D01*
X0378296Y0011530D01*
X0378395Y0011581D01*
X0378496Y0011628D01*
X0378598Y0011672D01*
X0378702Y0011712D01*
X0378807Y0011748D01*
X0378913Y0011781D01*
X0379021Y0011809D01*
X0379130Y0011834D01*
X0379239Y0011855D01*
X0379349Y0011872D01*
X0379459Y0011885D01*
X0379570Y0011894D01*
X0379682Y0011899D01*
X0379793Y0011900D01*
X0379904Y0011897D01*
X0380015Y0011890D01*
X0380126Y0011879D01*
X0380236Y0011864D01*
X0380346Y0011845D01*
X0380455Y0011822D01*
X0380563Y0011796D01*
X0380670Y0011765D01*
X0380776Y0011731D01*
X0380880Y0011692D01*
X0380983Y0011651D01*
X0381085Y0011605D01*
X0381185Y0011556D01*
X0381283Y0011503D01*
X0381379Y0011447D01*
X0381473Y0011387D01*
X0381565Y0011324D01*
X0381654Y0011258D01*
X0381741Y0011189D01*
X0381825Y0011116D01*
X0381907Y0011041D01*
X0381986Y0010962D01*
X0382063Y0010881D01*
X0382136Y0010797D01*
X0382206Y0010711D01*
X0382273Y0010622D01*
X0382337Y0010531D01*
X0382397Y0010438D01*
X0382454Y0010342D01*
X0382508Y0010244D01*
X0382558Y0010145D01*
X0382604Y0010044D01*
X0382647Y0009941D01*
X0382686Y0009837D01*
X0382722Y0009731D01*
X0382753Y0009625D01*
X0382781Y0009517D01*
X0382805Y0009408D01*
X0382825Y0009299D01*
X0382841Y0009189D01*
X0382853Y0009078D01*
X0382861Y0008967D01*
X0382865Y0008856D01*
X0382865Y0008744D01*
X0382861Y0008633D01*
X0382853Y0008522D01*
X0382841Y0008411D01*
X0382825Y0008301D01*
X0382805Y0008192D01*
X0382781Y0008083D01*
X0382753Y0007975D01*
X0382722Y0007869D01*
X0382686Y0007763D01*
X0382647Y0007659D01*
X0382604Y0007556D01*
X0382558Y0007455D01*
X0382508Y0007356D01*
X0382454Y0007258D01*
X0382397Y0007162D01*
X0382337Y0007069D01*
X0382273Y0006978D01*
X0382206Y0006889D01*
X0382136Y0006803D01*
X0382063Y0006719D01*
X0381986Y0006638D01*
X0381907Y0006559D01*
X0381825Y0006484D01*
X0381741Y0006411D01*
X0381654Y0006342D01*
X0381565Y0006276D01*
X0381473Y0006213D01*
X0381379Y0006153D01*
X0381283Y0006097D01*
X0381185Y0006044D01*
X0381085Y0005995D01*
X0380983Y0005949D01*
X0380880Y0005908D01*
X0380776Y0005869D01*
X0380670Y0005835D01*
X0380563Y0005804D01*
X0380455Y0005778D01*
X0380346Y0005755D01*
X0380236Y0005736D01*
X0380126Y0005721D01*
X0380015Y0005710D01*
X0379904Y0005703D01*
X0379793Y0005700D01*
X0379682Y0005701D01*
X0379570Y0005706D01*
X0379459Y0005715D01*
X0379349Y0005728D01*
X0379239Y0005745D01*
X0379130Y0005766D01*
X0379021Y0005791D01*
X0378913Y0005819D01*
X0378807Y0005852D01*
X0378702Y0005888D01*
X0378598Y0005928D01*
X0378496Y0005972D01*
X0378395Y0006019D01*
X0378296Y0006070D01*
X0378199Y0006125D01*
X0378104Y0006183D01*
X0378011Y0006244D01*
X0377920Y0006309D01*
X0377832Y0006376D01*
X0377746Y0006447D01*
X0377663Y0006521D01*
X0377583Y0006598D01*
X0377505Y0006678D01*
X0377430Y0006760D01*
X0377359Y0006846D01*
X0377290Y0006933D01*
X0377225Y0007023D01*
X0377163Y0007116D01*
X0377104Y0007210D01*
X0377048Y0007307D01*
X0376997Y0007405D01*
X0376948Y0007505D01*
X0376904Y0007607D01*
X0376863Y0007711D01*
X0376825Y0007816D01*
X0376792Y0007922D01*
X0376762Y0008029D01*
X0376737Y0008137D01*
X0376715Y0008246D01*
X0376697Y0008356D01*
X0376683Y0008467D01*
X0376673Y0008578D01*
X0376667Y0008689D01*
X0376665Y0008800D01*
D11*
X0143765Y0107060D03*
X0143765Y0114540D03*
X0143765Y0123560D03*
X0143765Y0131040D03*
X0143765Y0152060D03*
X0143765Y0159540D03*
X0143765Y0168560D03*
X0143765Y0176040D03*
X0091265Y0178040D03*
X0091265Y0170560D03*
X0091265Y0160540D03*
X0091265Y0153060D03*
X0088765Y0131040D03*
X0088765Y0123560D03*
X0088765Y0114540D03*
X0088765Y0107060D03*
X0111265Y0229060D03*
X0111265Y0236540D03*
X0117265Y0245060D03*
X0117265Y0252540D03*
X0109265Y0249060D03*
X0109265Y0256540D03*
X0100265Y0256540D03*
X0100265Y0249060D03*
X0083765Y0249060D03*
X0083765Y0256540D03*
X0067265Y0256540D03*
X0067265Y0249060D03*
X0059265Y0249060D03*
X0059265Y0256540D03*
X0050765Y0256540D03*
X0050765Y0249060D03*
X0126265Y0308060D03*
X0136265Y0308060D03*
X0136265Y0315540D03*
X0126265Y0315540D03*
X0171265Y0310540D03*
X0171265Y0303060D03*
X0348765Y0302060D03*
X0348765Y0309540D03*
X0348765Y0293540D03*
X0348765Y0286060D03*
X0358765Y0285540D03*
X0358765Y0278060D03*
D12*
X0306505Y0271800D03*
X0299025Y0271800D03*
X0182505Y0274300D03*
X0175025Y0274300D03*
X0175025Y0284300D03*
X0182505Y0284300D03*
X0152505Y0284300D03*
X0145025Y0284300D03*
X0145025Y0294300D03*
X0152505Y0294300D03*
X0152525Y0316800D03*
X0160005Y0316800D03*
X0122505Y0201800D03*
X0115025Y0201800D03*
X0127025Y0181800D03*
X0134505Y0181800D03*
X0135505Y0151800D03*
X0128025Y0151800D03*
X0119005Y0151800D03*
X0111525Y0151800D03*
X0127525Y0136800D03*
X0135005Y0136800D03*
X0135505Y0106800D03*
X0128025Y0106800D03*
X0119005Y0106800D03*
X0111525Y0106800D03*
X0080505Y0106800D03*
X0073025Y0106800D03*
X0064005Y0106800D03*
X0056525Y0106800D03*
X0072025Y0136800D03*
X0079505Y0136800D03*
X0082505Y0151800D03*
X0075025Y0151800D03*
X0066005Y0151800D03*
X0058525Y0151800D03*
X0075025Y0181800D03*
X0082505Y0181800D03*
D13*
X0312765Y0275200D03*
X0315865Y0275200D03*
X0319065Y0275200D03*
X0322165Y0275200D03*
X0325365Y0275200D03*
X0328465Y0275200D03*
X0331665Y0275200D03*
X0334765Y0275200D03*
X0334765Y0308400D03*
X0331665Y0308400D03*
X0328465Y0308400D03*
X0325365Y0308400D03*
X0322165Y0308400D03*
X0319065Y0308400D03*
X0315865Y0308400D03*
X0312765Y0308400D03*
D14*
X0307165Y0302800D03*
X0307165Y0299700D03*
X0307165Y0296500D03*
X0307165Y0293400D03*
X0307165Y0290200D03*
X0307165Y0287100D03*
X0307165Y0283900D03*
X0307165Y0280800D03*
X0340365Y0280800D03*
X0340365Y0283900D03*
X0340365Y0287100D03*
X0340365Y0290200D03*
X0340365Y0293400D03*
X0340365Y0296500D03*
X0340365Y0299700D03*
X0340365Y0302800D03*
D15*
X0265280Y0300639D03*
X0265280Y0298080D03*
X0265280Y0295520D03*
X0265280Y0292961D03*
X0242249Y0292961D03*
X0242249Y0295520D03*
X0242249Y0298080D03*
X0242249Y0300639D03*
D16*
X0091765Y0258097D03*
X0091765Y0251503D03*
X0075765Y0251503D03*
X0075765Y0258097D03*
D17*
X0133265Y0249501D03*
X0133265Y0212099D03*
X0373765Y0276099D03*
X0373765Y0313501D03*
D18*
X0093529Y0238847D03*
X0091560Y0238847D03*
X0089591Y0238847D03*
X0087623Y0238847D03*
X0085654Y0238847D03*
X0083686Y0238847D03*
X0081717Y0238847D03*
X0079749Y0238847D03*
X0077780Y0238847D03*
X0075812Y0238847D03*
X0073843Y0238847D03*
X0071875Y0238847D03*
X0069906Y0238847D03*
X0067938Y0238847D03*
X0065969Y0238847D03*
X0064001Y0238847D03*
X0064001Y0194753D03*
X0065969Y0194753D03*
X0067938Y0194753D03*
X0069906Y0194753D03*
X0071875Y0194753D03*
X0073843Y0194753D03*
X0075812Y0194753D03*
X0077780Y0194753D03*
X0079749Y0194753D03*
X0081717Y0194753D03*
X0083686Y0194753D03*
X0085654Y0194753D03*
X0087623Y0194753D03*
X0089591Y0194753D03*
X0091560Y0194753D03*
X0093529Y0194753D03*
D19*
X0100812Y0202036D03*
X0100812Y0204005D03*
X0100812Y0205973D03*
X0100812Y0207942D03*
X0100812Y0209910D03*
X0100812Y0211879D03*
X0100812Y0213847D03*
X0100812Y0215816D03*
X0100812Y0217784D03*
X0100812Y0219753D03*
X0100812Y0221721D03*
X0100812Y0223690D03*
X0100812Y0225658D03*
X0100812Y0227627D03*
X0100812Y0229595D03*
X0100812Y0231564D03*
X0056717Y0231564D03*
X0056717Y0229595D03*
X0056717Y0227627D03*
X0056717Y0225658D03*
X0056717Y0223690D03*
X0056717Y0221721D03*
X0056717Y0219753D03*
X0056717Y0217784D03*
X0056717Y0215816D03*
X0056717Y0213847D03*
X0056717Y0211879D03*
X0056717Y0209910D03*
X0056717Y0207942D03*
X0056717Y0205973D03*
X0056717Y0204005D03*
X0056717Y0202036D03*
D20*
X0056284Y0309477D03*
X0053765Y0309477D03*
X0051166Y0309477D03*
X0048647Y0309477D03*
X0058883Y0309477D03*
X0093647Y0309477D03*
X0096166Y0309477D03*
X0098765Y0309477D03*
X0101284Y0309477D03*
X0103883Y0309477D03*
X0228647Y0309477D03*
X0231166Y0309477D03*
X0233765Y0309477D03*
X0236284Y0309477D03*
X0238883Y0309477D03*
X0273647Y0309477D03*
X0276166Y0309477D03*
X0278765Y0309477D03*
X0281284Y0309477D03*
X0283883Y0309477D03*
D21*
X0290969Y0309950D03*
X0266560Y0309950D03*
X0245969Y0309950D03*
X0221560Y0309950D03*
X0110969Y0309950D03*
X0086560Y0309950D03*
X0065969Y0309950D03*
X0041560Y0309950D03*
D22*
X0038017Y0319989D03*
X0069513Y0319989D03*
X0083017Y0319989D03*
X0114513Y0319989D03*
X0218017Y0319989D03*
X0249513Y0319989D03*
X0263017Y0319989D03*
X0294513Y0319989D03*
D23*
X0283489Y0319989D03*
X0274040Y0319989D03*
X0238489Y0319989D03*
X0229040Y0319989D03*
X0103489Y0319989D03*
X0094040Y0319989D03*
X0058489Y0319989D03*
X0049040Y0319989D03*
D24*
X0313065Y0320500D03*
X0313065Y0313100D03*
D25*
X0304465Y0316800D03*
D26*
X0135265Y0175800D03*
X0135265Y0173200D03*
X0135265Y0170600D03*
X0135265Y0168100D03*
X0135265Y0165500D03*
X0135265Y0163000D03*
X0135265Y0160400D03*
X0135265Y0157800D03*
X0112265Y0157800D03*
X0112265Y0160400D03*
X0112265Y0163000D03*
X0112265Y0165500D03*
X0112265Y0168100D03*
X0112265Y0170600D03*
X0112265Y0173200D03*
X0112265Y0175800D03*
X0080265Y0175800D03*
X0080265Y0173200D03*
X0080265Y0170600D03*
X0080265Y0168100D03*
X0080265Y0165500D03*
X0080265Y0163000D03*
X0080265Y0160400D03*
X0080265Y0157800D03*
X0057265Y0157800D03*
X0057265Y0160400D03*
X0057265Y0163000D03*
X0057265Y0165500D03*
X0057265Y0168100D03*
X0057265Y0170600D03*
X0057265Y0173200D03*
X0057265Y0175800D03*
X0057265Y0130800D03*
X0057265Y0128200D03*
X0057265Y0125600D03*
X0057265Y0123100D03*
X0057265Y0120500D03*
X0057265Y0118000D03*
X0057265Y0115400D03*
X0057265Y0112800D03*
X0080265Y0112800D03*
X0080265Y0115400D03*
X0080265Y0118000D03*
X0080265Y0120500D03*
X0080265Y0123100D03*
X0080265Y0125600D03*
X0080265Y0128200D03*
X0080265Y0130800D03*
X0112265Y0130800D03*
X0112265Y0128200D03*
X0112265Y0125600D03*
X0112265Y0123100D03*
X0112265Y0120500D03*
X0112265Y0118000D03*
X0112265Y0115400D03*
X0112265Y0112800D03*
X0135265Y0112800D03*
X0135265Y0115400D03*
X0135265Y0118000D03*
X0135265Y0120500D03*
X0135265Y0123100D03*
X0135265Y0125600D03*
X0135265Y0128200D03*
X0135265Y0130800D03*
D27*
X0040265Y0131800D02*
X0034265Y0131800D01*
X0034265Y0121800D02*
X0040265Y0121800D01*
X0040265Y0141800D02*
X0034265Y0141800D01*
X0034265Y0151800D02*
X0040265Y0151800D01*
X0040265Y0161800D02*
X0034265Y0161800D01*
D28*
X0319665Y0314200D03*
X0319665Y0316800D03*
X0319665Y0319400D03*
X0327865Y0319400D03*
X0327865Y0314200D03*
D29*
X0333765Y0087700D03*
X0343765Y0087700D03*
X0353765Y0087700D03*
X0363765Y0087700D03*
X0358765Y0077700D03*
X0348765Y0077700D03*
X0338765Y0077700D03*
X0328765Y0077700D03*
X0333765Y0062600D03*
X0343765Y0062600D03*
X0353765Y0062600D03*
X0363765Y0062600D03*
X0358765Y0052600D03*
X0348765Y0052600D03*
X0338765Y0052600D03*
X0328765Y0052600D03*
X0308765Y0062600D03*
X0298765Y0062600D03*
X0288765Y0062600D03*
X0278765Y0062600D03*
X0283765Y0052600D03*
X0293765Y0052600D03*
X0303765Y0052600D03*
X0303765Y0077700D03*
X0293765Y0077700D03*
X0283765Y0077700D03*
X0273765Y0077700D03*
X0278765Y0087700D03*
X0288765Y0087700D03*
X0298765Y0087700D03*
X0308765Y0087700D03*
X0273765Y0052600D03*
X0253765Y0062600D03*
X0243765Y0062600D03*
X0233765Y0062600D03*
X0223765Y0062600D03*
X0228765Y0052600D03*
X0218765Y0052600D03*
X0238765Y0052600D03*
X0248765Y0052600D03*
X0248765Y0077700D03*
X0238765Y0077700D03*
X0228765Y0077700D03*
X0218765Y0077700D03*
X0223765Y0087700D03*
X0233765Y0087700D03*
X0243765Y0087700D03*
X0253765Y0087700D03*
X0198765Y0087700D03*
X0188765Y0087700D03*
X0178765Y0087700D03*
X0168765Y0087700D03*
X0173765Y0077700D03*
X0163765Y0077700D03*
X0168765Y0062600D03*
X0178765Y0062600D03*
X0188765Y0062600D03*
X0198765Y0062600D03*
X0193765Y0052600D03*
X0183765Y0052600D03*
X0173765Y0052600D03*
X0163765Y0052600D03*
X0143765Y0062600D03*
X0133765Y0062600D03*
X0123765Y0062600D03*
X0113765Y0062600D03*
X0118765Y0052600D03*
X0108765Y0052600D03*
X0128765Y0052600D03*
X0138765Y0052600D03*
X0138765Y0077700D03*
X0128765Y0077700D03*
X0118765Y0077700D03*
X0108765Y0077700D03*
X0113765Y0087700D03*
X0123765Y0087700D03*
X0133765Y0087700D03*
X0143765Y0087700D03*
X0183765Y0077700D03*
X0193765Y0077700D03*
X0088765Y0087700D03*
X0078765Y0087700D03*
X0068765Y0087700D03*
X0058765Y0087700D03*
X0063765Y0077700D03*
X0053765Y0077700D03*
X0058765Y0062600D03*
X0068765Y0062600D03*
X0078765Y0062600D03*
X0088765Y0062600D03*
X0083765Y0052600D03*
X0073765Y0052600D03*
X0063765Y0052600D03*
X0053765Y0052600D03*
X0073765Y0077700D03*
X0083765Y0077700D03*
D30*
X0145694Y0302961D03*
X0145694Y0305520D03*
X0145694Y0308080D03*
X0145694Y0310639D03*
X0161836Y0310639D03*
X0161836Y0308080D03*
X0161836Y0305520D03*
X0161836Y0302961D03*
D31*
X0188765Y0293276D03*
X0188765Y0315324D03*
D32*
X0171265Y0310540D02*
X0168804Y0308080D01*
X0161836Y0308080D01*
X0161836Y0305520D02*
X0168804Y0305520D01*
X0171265Y0303060D01*
X0166765Y0303350D02*
X0165304Y0303350D01*
X0165304Y0302961D02*
X0165304Y0303800D01*
X0166765Y0303800D01*
X0166765Y0298472D01*
X0167936Y0297300D01*
X0175136Y0297300D01*
X0175265Y0295050D01*
X0175265Y0288472D01*
X0175525Y0288212D01*
X0175525Y0284800D01*
X0174525Y0284800D01*
X0174525Y0288753D01*
X0172268Y0288753D01*
X0171887Y0288651D01*
X0171544Y0288453D01*
X0171265Y0288174D01*
X0171068Y0287832D01*
X0170966Y0287450D01*
X0170966Y0284800D01*
X0174525Y0284800D01*
X0174525Y0283800D01*
X0175525Y0283800D01*
X0175525Y0279847D01*
X0176133Y0279847D01*
X0176196Y0278753D01*
X0175525Y0278753D01*
X0175525Y0274800D01*
X0174525Y0274800D01*
X0174525Y0278753D01*
X0172268Y0278753D01*
X0171887Y0278651D01*
X0171544Y0278453D01*
X0171265Y0278174D01*
X0171068Y0277832D01*
X0170966Y0277450D01*
X0170966Y0274800D01*
X0174525Y0274800D01*
X0174525Y0273800D01*
X0175525Y0273800D01*
X0175525Y0269847D01*
X0176705Y0269847D01*
X0176750Y0269057D01*
X0176737Y0268800D01*
X0151765Y0268800D01*
X0151765Y0279847D01*
X0152005Y0279847D01*
X0152005Y0283800D01*
X0153005Y0283800D01*
X0153005Y0284800D01*
X0156564Y0284800D01*
X0156564Y0287450D01*
X0156462Y0287832D01*
X0156264Y0288174D01*
X0155985Y0288453D01*
X0155643Y0288651D01*
X0155261Y0288753D01*
X0153005Y0288753D01*
X0153005Y0284800D01*
X0152005Y0284800D01*
X0152005Y0288753D01*
X0151765Y0288753D01*
X0151765Y0289847D01*
X0152005Y0289847D01*
X0152005Y0293800D01*
X0153005Y0293800D01*
X0153005Y0294800D01*
X0156564Y0294800D01*
X0156564Y0297450D01*
X0156462Y0297832D01*
X0156264Y0298174D01*
X0155985Y0298453D01*
X0155643Y0298651D01*
X0155261Y0298753D01*
X0153005Y0298753D01*
X0153005Y0294800D01*
X0152005Y0294800D01*
X0152005Y0298753D01*
X0151765Y0298753D01*
X0151765Y0303800D01*
X0158367Y0303800D01*
X0158367Y0302961D01*
X0158367Y0301878D01*
X0158469Y0301497D01*
X0158667Y0301155D01*
X0158946Y0300875D01*
X0159288Y0300678D01*
X0159670Y0300576D01*
X0161836Y0300576D01*
X0164002Y0300576D01*
X0164383Y0300678D01*
X0164725Y0300875D01*
X0165004Y0301155D01*
X0165202Y0301497D01*
X0165304Y0301878D01*
X0165304Y0302961D01*
X0161836Y0302961D01*
X0161836Y0302961D01*
X0161836Y0300576D01*
X0161836Y0302961D01*
X0161836Y0302961D01*
X0165304Y0302961D01*
X0165304Y0302352D02*
X0166765Y0302352D01*
X0166765Y0301353D02*
X0165119Y0301353D01*
X0166765Y0300355D02*
X0151765Y0300355D01*
X0151765Y0301353D02*
X0158552Y0301353D01*
X0158367Y0302352D02*
X0151765Y0302352D01*
X0151765Y0303350D02*
X0158367Y0303350D01*
X0158367Y0302961D02*
X0161835Y0302961D01*
X0158367Y0302961D01*
X0161835Y0302961D02*
X0161835Y0302961D01*
X0161836Y0302352D02*
X0161836Y0302352D01*
X0161836Y0301353D02*
X0161836Y0301353D01*
X0166878Y0298358D02*
X0156080Y0298358D01*
X0156564Y0297359D02*
X0167877Y0297359D01*
X0166765Y0299356D02*
X0151765Y0299356D01*
X0152005Y0298358D02*
X0153005Y0298358D01*
X0153005Y0297359D02*
X0152005Y0297359D01*
X0152005Y0296361D02*
X0153005Y0296361D01*
X0153005Y0295362D02*
X0152005Y0295362D01*
X0153005Y0294364D02*
X0175265Y0294364D01*
X0175247Y0295362D02*
X0156564Y0295362D01*
X0156564Y0296361D02*
X0175190Y0296361D01*
X0175265Y0293365D02*
X0156564Y0293365D01*
X0156564Y0293800D02*
X0153005Y0293800D01*
X0153005Y0289847D01*
X0155261Y0289847D01*
X0155643Y0289949D01*
X0155985Y0290147D01*
X0156264Y0290426D01*
X0156462Y0290768D01*
X0156564Y0291150D01*
X0156564Y0293800D01*
X0156564Y0292367D02*
X0175265Y0292367D01*
X0175265Y0291368D02*
X0156564Y0291368D01*
X0156208Y0290370D02*
X0175265Y0290370D01*
X0175265Y0289371D02*
X0151765Y0289371D01*
X0152005Y0288373D02*
X0153005Y0288373D01*
X0153005Y0287374D02*
X0152005Y0287374D01*
X0152005Y0286376D02*
X0153005Y0286376D01*
X0153005Y0285377D02*
X0152005Y0285377D01*
X0153005Y0284379D02*
X0174525Y0284379D01*
X0174525Y0283800D02*
X0170966Y0283800D01*
X0170966Y0281150D01*
X0171068Y0280768D01*
X0171265Y0280426D01*
X0171544Y0280147D01*
X0171887Y0279949D01*
X0172268Y0279847D01*
X0174525Y0279847D01*
X0174525Y0283800D01*
X0174525Y0283380D02*
X0175525Y0283380D01*
X0175525Y0282382D02*
X0174525Y0282382D01*
X0174525Y0281383D02*
X0175525Y0281383D01*
X0175525Y0280385D02*
X0174525Y0280385D01*
X0176160Y0279386D02*
X0151765Y0279386D01*
X0151765Y0278388D02*
X0171479Y0278388D01*
X0170966Y0277389D02*
X0151765Y0277389D01*
X0151765Y0276391D02*
X0170966Y0276391D01*
X0170966Y0275392D02*
X0151765Y0275392D01*
X0151765Y0274394D02*
X0174525Y0274394D01*
X0174525Y0273800D02*
X0170966Y0273800D01*
X0170966Y0271150D01*
X0171068Y0270768D01*
X0171265Y0270426D01*
X0171544Y0270147D01*
X0171887Y0269949D01*
X0172268Y0269847D01*
X0174525Y0269847D01*
X0174525Y0273800D01*
X0174525Y0273395D02*
X0175525Y0273395D01*
X0175525Y0272397D02*
X0174525Y0272397D01*
X0174525Y0271398D02*
X0175525Y0271398D01*
X0175525Y0270400D02*
X0174525Y0270400D01*
X0176730Y0269401D02*
X0151765Y0269401D01*
X0151765Y0270400D02*
X0171292Y0270400D01*
X0170966Y0271398D02*
X0151765Y0271398D01*
X0151765Y0272397D02*
X0170966Y0272397D01*
X0170966Y0273395D02*
X0151765Y0273395D01*
X0148765Y0278800D02*
X0132765Y0278800D01*
X0132765Y0301800D01*
X0141765Y0301800D01*
X0141765Y0305800D01*
X0142225Y0305800D01*
X0142225Y0305521D01*
X0145694Y0305521D01*
X0145694Y0305520D01*
X0145694Y0302962D01*
X0145694Y0302962D01*
X0145694Y0305347D01*
X0145694Y0305520D01*
X0145694Y0305520D01*
X0142225Y0305520D01*
X0142225Y0304437D01*
X0142278Y0304241D01*
X0142225Y0304045D01*
X0142225Y0302961D01*
X0142225Y0301878D01*
X0142328Y0301497D01*
X0142525Y0301155D01*
X0142804Y0300875D01*
X0143146Y0300678D01*
X0143528Y0300576D01*
X0145694Y0300576D01*
X0147860Y0300576D01*
X0148241Y0300678D01*
X0148583Y0300875D01*
X0148765Y0301057D01*
X0148765Y0298193D01*
X0148505Y0298453D01*
X0148163Y0298651D01*
X0147781Y0298753D01*
X0145525Y0298753D01*
X0145525Y0294800D01*
X0144525Y0294800D01*
X0144525Y0298753D01*
X0142268Y0298753D01*
X0141887Y0298651D01*
X0141544Y0298453D01*
X0141265Y0298174D01*
X0141068Y0297832D01*
X0140966Y0297450D01*
X0140966Y0294800D01*
X0144525Y0294800D01*
X0144525Y0293800D01*
X0145525Y0293800D01*
X0145525Y0289847D01*
X0147781Y0289847D01*
X0148163Y0289949D01*
X0148505Y0290147D01*
X0148765Y0290407D01*
X0148765Y0288193D01*
X0148505Y0288453D01*
X0148163Y0288651D01*
X0147781Y0288753D01*
X0145525Y0288753D01*
X0145525Y0284800D01*
X0144525Y0284800D01*
X0144525Y0288753D01*
X0142268Y0288753D01*
X0141887Y0288651D01*
X0141544Y0288453D01*
X0141265Y0288174D01*
X0141068Y0287832D01*
X0140966Y0287450D01*
X0140966Y0284800D01*
X0144525Y0284800D01*
X0144525Y0283800D01*
X0145525Y0283800D01*
X0145525Y0279847D01*
X0147781Y0279847D01*
X0148163Y0279949D01*
X0148505Y0280147D01*
X0148765Y0280407D01*
X0148765Y0278800D01*
X0148765Y0279386D02*
X0132765Y0279386D01*
X0132765Y0280385D02*
X0141307Y0280385D01*
X0141265Y0280426D02*
X0141544Y0280147D01*
X0141887Y0279949D01*
X0142268Y0279847D01*
X0144525Y0279847D01*
X0144525Y0283800D01*
X0140966Y0283800D01*
X0140966Y0281150D01*
X0141068Y0280768D01*
X0141265Y0280426D01*
X0140966Y0281383D02*
X0132765Y0281383D01*
X0132765Y0282382D02*
X0140966Y0282382D01*
X0140966Y0283380D02*
X0132765Y0283380D01*
X0132765Y0284379D02*
X0144525Y0284379D01*
X0144525Y0285377D02*
X0145525Y0285377D01*
X0145525Y0286376D02*
X0144525Y0286376D01*
X0144525Y0287374D02*
X0145525Y0287374D01*
X0145525Y0288373D02*
X0144525Y0288373D01*
X0144525Y0289847D02*
X0144525Y0293800D01*
X0140966Y0293800D01*
X0140966Y0291150D01*
X0141068Y0290768D01*
X0141265Y0290426D01*
X0141544Y0290147D01*
X0141887Y0289949D01*
X0142268Y0289847D01*
X0144525Y0289847D01*
X0144525Y0290370D02*
X0145525Y0290370D01*
X0145525Y0291368D02*
X0144525Y0291368D01*
X0144525Y0292367D02*
X0145525Y0292367D01*
X0145525Y0293365D02*
X0144525Y0293365D01*
X0144525Y0294364D02*
X0132765Y0294364D01*
X0132765Y0295362D02*
X0140966Y0295362D01*
X0140966Y0296361D02*
X0132765Y0296361D01*
X0132765Y0297359D02*
X0140966Y0297359D01*
X0141449Y0298358D02*
X0132765Y0298358D01*
X0132765Y0299356D02*
X0148765Y0299356D01*
X0148765Y0298358D02*
X0148600Y0298358D01*
X0148765Y0300355D02*
X0132765Y0300355D01*
X0132765Y0301353D02*
X0142410Y0301353D01*
X0142225Y0302352D02*
X0141765Y0302352D01*
X0142225Y0302961D02*
X0145694Y0302961D01*
X0145694Y0300576D01*
X0145694Y0302961D01*
X0145694Y0302961D01*
X0145694Y0302961D01*
X0142225Y0302961D01*
X0142225Y0303350D02*
X0141765Y0303350D01*
X0141765Y0304349D02*
X0142249Y0304349D01*
X0142225Y0305347D02*
X0141765Y0305347D01*
X0145694Y0305347D02*
X0145694Y0305347D01*
X0145694Y0304349D02*
X0145694Y0304349D01*
X0145694Y0303350D02*
X0145694Y0303350D01*
X0145694Y0302352D02*
X0145694Y0302352D01*
X0145694Y0301353D02*
X0145694Y0301353D01*
X0145525Y0298358D02*
X0144525Y0298358D01*
X0144525Y0297359D02*
X0145525Y0297359D01*
X0145694Y0296800D02*
X0145025Y0294300D01*
X0144525Y0295362D02*
X0145525Y0295362D01*
X0145525Y0296361D02*
X0144525Y0296361D01*
X0140966Y0293365D02*
X0132765Y0293365D01*
X0132765Y0292367D02*
X0140966Y0292367D01*
X0140966Y0291368D02*
X0132765Y0291368D01*
X0132765Y0290370D02*
X0141322Y0290370D01*
X0141464Y0288373D02*
X0132765Y0288373D01*
X0132765Y0289371D02*
X0148765Y0289371D01*
X0148765Y0288373D02*
X0148585Y0288373D01*
X0148727Y0290370D02*
X0148765Y0290370D01*
X0152005Y0290370D02*
X0153005Y0290370D01*
X0153005Y0291368D02*
X0152005Y0291368D01*
X0152005Y0292367D02*
X0153005Y0292367D01*
X0153005Y0293365D02*
X0152005Y0293365D01*
X0156065Y0288373D02*
X0171464Y0288373D01*
X0170966Y0287374D02*
X0156564Y0287374D01*
X0156564Y0286376D02*
X0170966Y0286376D01*
X0170966Y0285377D02*
X0156564Y0285377D01*
X0156564Y0283800D02*
X0153005Y0283800D01*
X0153005Y0279847D01*
X0155261Y0279847D01*
X0155643Y0279949D01*
X0155985Y0280147D01*
X0156264Y0280426D01*
X0156462Y0280768D01*
X0156564Y0281150D01*
X0156564Y0283800D01*
X0156564Y0283380D02*
X0170966Y0283380D01*
X0170966Y0282382D02*
X0156564Y0282382D01*
X0156564Y0281383D02*
X0170966Y0281383D01*
X0171307Y0280385D02*
X0156223Y0280385D01*
X0153005Y0280385D02*
X0152005Y0280385D01*
X0152005Y0281383D02*
X0153005Y0281383D01*
X0153005Y0282382D02*
X0152005Y0282382D01*
X0152005Y0283380D02*
X0153005Y0283380D01*
X0148765Y0280385D02*
X0148742Y0280385D01*
X0145525Y0280385D02*
X0144525Y0280385D01*
X0144525Y0281383D02*
X0145525Y0281383D01*
X0145525Y0282382D02*
X0144525Y0282382D01*
X0144525Y0283380D02*
X0145525Y0283380D01*
X0140966Y0285377D02*
X0132765Y0285377D01*
X0132765Y0286376D02*
X0140966Y0286376D01*
X0140966Y0287374D02*
X0132765Y0287374D01*
X0128128Y0260800D02*
X0105765Y0260800D01*
X0105765Y0260505D01*
X0106114Y0260599D01*
X0108765Y0260599D01*
X0108765Y0257040D01*
X0109765Y0257040D01*
X0113717Y0257040D01*
X0113717Y0259297D01*
X0113615Y0259678D01*
X0113418Y0260020D01*
X0113138Y0260299D01*
X0112796Y0260497D01*
X0112415Y0260599D01*
X0109765Y0260599D01*
X0109765Y0257040D01*
X0109765Y0256040D01*
X0113132Y0256040D01*
X0113391Y0256299D01*
X0113733Y0256497D01*
X0114114Y0256599D01*
X0116765Y0256599D01*
X0116765Y0253040D01*
X0117765Y0253040D01*
X0121717Y0253040D01*
X0121717Y0255297D01*
X0121615Y0255678D01*
X0121418Y0256020D01*
X0121138Y0256299D01*
X0120796Y0256497D01*
X0120415Y0256599D01*
X0117765Y0256599D01*
X0117765Y0253040D01*
X0117765Y0252040D01*
X0121717Y0252040D01*
X0121717Y0249784D01*
X0121615Y0249402D01*
X0121418Y0249060D01*
X0121138Y0248781D01*
X0120894Y0248640D01*
X0121417Y0248116D01*
X0121417Y0246760D01*
X0128128Y0246760D01*
X0128128Y0260800D01*
X0128128Y0260414D02*
X0112939Y0260414D01*
X0113686Y0259416D02*
X0128128Y0259416D01*
X0128128Y0258417D02*
X0113717Y0258417D01*
X0113717Y0257419D02*
X0128128Y0257419D01*
X0128128Y0256420D02*
X0120929Y0256420D01*
X0121684Y0255422D02*
X0128128Y0255422D01*
X0128128Y0254423D02*
X0121717Y0254423D01*
X0121717Y0253425D02*
X0128128Y0253425D01*
X0128128Y0252426D02*
X0117765Y0252426D01*
X0117765Y0252540D02*
X0117265Y0252540D01*
X0117765Y0252540D02*
X0117765Y0258800D01*
X0109265Y0258800D01*
X0109265Y0256540D01*
X0100265Y0256540D01*
X0108765Y0257419D02*
X0109765Y0257419D01*
X0109765Y0258417D02*
X0108765Y0258417D01*
X0108765Y0259416D02*
X0109765Y0259416D01*
X0109765Y0260414D02*
X0108765Y0260414D01*
X0109765Y0256420D02*
X0113600Y0256420D01*
X0116765Y0256420D02*
X0117765Y0256420D01*
X0117765Y0255422D02*
X0116765Y0255422D01*
X0116765Y0254423D02*
X0117765Y0254423D01*
X0117765Y0253425D02*
X0116765Y0253425D01*
X0121717Y0251428D02*
X0128128Y0251428D01*
X0128128Y0250429D02*
X0121717Y0250429D01*
X0121623Y0249431D02*
X0128128Y0249431D01*
X0128128Y0248432D02*
X0121101Y0248432D01*
X0121417Y0247434D02*
X0128128Y0247434D01*
X0133265Y0249501D02*
X0133265Y0245060D01*
X0117265Y0245060D01*
X0109715Y0241250D02*
X0109715Y0240299D01*
X0107815Y0240299D01*
X0107112Y0239596D01*
X0107112Y0233484D01*
X0107636Y0232960D01*
X0107391Y0232819D01*
X0107112Y0232540D01*
X0106914Y0232198D01*
X0106812Y0231816D01*
X0106812Y0229560D01*
X0110765Y0229560D01*
X0110765Y0228560D01*
X0111765Y0228560D01*
X0111765Y0229560D01*
X0115717Y0229560D01*
X0115717Y0231816D01*
X0115615Y0232198D01*
X0115418Y0232540D01*
X0115138Y0232819D01*
X0114894Y0232960D01*
X0115417Y0233484D01*
X0115417Y0234840D01*
X0131565Y0234840D01*
X0131565Y0224126D01*
X0128831Y0224126D01*
X0128128Y0223423D01*
X0128128Y0201800D01*
X0123005Y0201800D01*
X0123005Y0202300D01*
X0126564Y0202300D01*
X0126564Y0204950D01*
X0126462Y0205332D01*
X0126264Y0205674D01*
X0125985Y0205953D01*
X0125643Y0206151D01*
X0125261Y0206253D01*
X0123136Y0206253D01*
X0123165Y0206323D01*
X0123165Y0207277D01*
X0122799Y0208159D01*
X0122124Y0208835D01*
X0121242Y0209200D01*
X0120557Y0209200D01*
X0120407Y0209350D01*
X0118709Y0209350D01*
X0118799Y0209441D01*
X0119165Y0210323D01*
X0119165Y0211277D01*
X0118799Y0212159D01*
X0118124Y0212835D01*
X0117242Y0213200D01*
X0116287Y0213200D01*
X0115405Y0212835D01*
X0114730Y0212159D01*
X0114440Y0211460D01*
X0113807Y0211460D01*
X0114165Y0212323D01*
X0114165Y0213277D01*
X0113799Y0214159D01*
X0113124Y0214835D01*
X0112242Y0215200D01*
X0111287Y0215200D01*
X0110405Y0214835D01*
X0109730Y0214159D01*
X0109427Y0213429D01*
X0105765Y0213429D01*
X0105765Y0241250D01*
X0109715Y0241250D01*
X0109715Y0240444D02*
X0105765Y0240444D01*
X0105765Y0239446D02*
X0107112Y0239446D01*
X0107112Y0238447D02*
X0105765Y0238447D01*
X0105765Y0237449D02*
X0107112Y0237449D01*
X0107112Y0236450D02*
X0105765Y0236450D01*
X0105765Y0235452D02*
X0107112Y0235452D01*
X0107112Y0234453D02*
X0105765Y0234453D01*
X0105765Y0233455D02*
X0107141Y0233455D01*
X0107063Y0232456D02*
X0105765Y0232456D01*
X0105765Y0231458D02*
X0106812Y0231458D01*
X0106812Y0230459D02*
X0105765Y0230459D01*
X0105765Y0229461D02*
X0110765Y0229461D01*
X0111265Y0229060D02*
X0111265Y0228800D01*
X0117765Y0228800D01*
X0115717Y0228560D02*
X0111765Y0228560D01*
X0111765Y0225001D01*
X0114415Y0225001D01*
X0114796Y0225103D01*
X0115138Y0225300D01*
X0115418Y0225580D01*
X0115615Y0225922D01*
X0115717Y0226303D01*
X0115717Y0228560D01*
X0115717Y0228462D02*
X0131565Y0228462D01*
X0131565Y0227464D02*
X0115717Y0227464D01*
X0115717Y0226465D02*
X0131565Y0226465D01*
X0131565Y0225467D02*
X0115305Y0225467D01*
X0111765Y0225467D02*
X0110765Y0225467D01*
X0110765Y0225001D02*
X0110765Y0228560D01*
X0106812Y0228560D01*
X0106812Y0226303D01*
X0106914Y0225922D01*
X0107112Y0225580D01*
X0107391Y0225300D01*
X0107733Y0225103D01*
X0108114Y0225001D01*
X0110765Y0225001D01*
X0110765Y0226465D02*
X0111765Y0226465D01*
X0111765Y0227464D02*
X0110765Y0227464D01*
X0110765Y0228462D02*
X0111765Y0228462D01*
X0111765Y0229461D02*
X0131565Y0229461D01*
X0131565Y0230459D02*
X0115717Y0230459D01*
X0115717Y0231458D02*
X0131565Y0231458D01*
X0131565Y0232456D02*
X0115466Y0232456D01*
X0115388Y0233455D02*
X0131565Y0233455D01*
X0131565Y0234453D02*
X0115417Y0234453D01*
X0111265Y0236540D02*
X0133265Y0236540D01*
X0133265Y0212099D01*
X0128128Y0212486D02*
X0118473Y0212486D01*
X0119078Y0211487D02*
X0128128Y0211487D01*
X0128128Y0210489D02*
X0119165Y0210489D01*
X0118820Y0209490D02*
X0128128Y0209490D01*
X0128128Y0208492D02*
X0122467Y0208492D01*
X0123075Y0207493D02*
X0128128Y0207493D01*
X0128128Y0206495D02*
X0123165Y0206495D01*
X0126367Y0205496D02*
X0128128Y0205496D01*
X0128128Y0204498D02*
X0126564Y0204498D01*
X0126564Y0203499D02*
X0128128Y0203499D01*
X0128128Y0202501D02*
X0126564Y0202501D01*
X0127765Y0199800D02*
X0122505Y0199800D01*
X0122505Y0201800D01*
X0118604Y0205429D02*
X0118081Y0205953D01*
X0111968Y0205953D01*
X0111266Y0205250D01*
X0111266Y0203586D01*
X0105765Y0203586D01*
X0105765Y0206250D01*
X0118395Y0206250D01*
X0118680Y0205561D01*
X0118604Y0205429D01*
X0118643Y0205496D02*
X0118537Y0205496D01*
X0111512Y0205496D02*
X0105765Y0205496D01*
X0105765Y0204498D02*
X0111266Y0204498D01*
X0108765Y0204800D02*
X0107591Y0205973D01*
X0100812Y0205973D01*
X0100812Y0202036D02*
X0100812Y0197847D01*
X0100765Y0197800D01*
X0091765Y0200800D02*
X0091765Y0194753D01*
X0091560Y0194753D01*
X0084765Y0181800D02*
X0082505Y0181800D01*
X0080265Y0175800D02*
X0076765Y0175800D01*
X0072765Y0171800D01*
X0075765Y0171800D02*
X0075765Y0167800D01*
X0072765Y0167800D01*
X0075765Y0171800D02*
X0077165Y0173200D01*
X0080265Y0173200D01*
X0073765Y0176800D02*
X0073765Y0181800D01*
X0075025Y0181800D01*
X0067938Y0181800D01*
X0067938Y0194753D01*
X0071875Y0194753D02*
X0071875Y0202036D01*
X0071765Y0226800D02*
X0071765Y0227800D01*
X0071765Y0231564D01*
X0071875Y0231564D01*
X0071875Y0238847D01*
X0073843Y0238847D02*
X0073843Y0243800D01*
X0073765Y0243800D01*
X0075812Y0243800D01*
X0075812Y0238847D01*
X0079749Y0238847D02*
X0079749Y0231800D01*
X0076765Y0231800D01*
X0081717Y0231800D02*
X0081717Y0238847D01*
X0081717Y0231800D02*
X0084765Y0231800D01*
X0088765Y0231564D02*
X0088765Y0226800D01*
X0071765Y0226800D01*
X0069906Y0238847D02*
X0069765Y0238847D01*
X0069906Y0238847D02*
X0069906Y0243800D01*
X0073765Y0243800D01*
X0067265Y0249060D02*
X0059265Y0249060D01*
X0059265Y0256540D02*
X0067265Y0256540D01*
X0088765Y0231564D02*
X0100812Y0231564D01*
X0095765Y0231564D01*
X0105765Y0228462D02*
X0106812Y0228462D01*
X0106812Y0227464D02*
X0105765Y0227464D01*
X0105765Y0226465D02*
X0106812Y0226465D01*
X0107225Y0225467D02*
X0105765Y0225467D01*
X0105765Y0224468D02*
X0131565Y0224468D01*
X0128174Y0223470D02*
X0105765Y0223470D01*
X0105765Y0222471D02*
X0128128Y0222471D01*
X0128128Y0221472D02*
X0105765Y0221472D01*
X0105765Y0220474D02*
X0128128Y0220474D01*
X0128128Y0219475D02*
X0105765Y0219475D01*
X0105765Y0218477D02*
X0128128Y0218477D01*
X0128128Y0217478D02*
X0105765Y0217478D01*
X0105765Y0216480D02*
X0128128Y0216480D01*
X0128128Y0215481D02*
X0105765Y0215481D01*
X0105765Y0214483D02*
X0110054Y0214483D01*
X0109450Y0213484D02*
X0105765Y0213484D01*
X0113476Y0214483D02*
X0128128Y0214483D01*
X0128128Y0213484D02*
X0114079Y0213484D01*
X0114165Y0212486D02*
X0115057Y0212486D01*
X0114452Y0211487D02*
X0113819Y0211487D01*
X0091265Y0179300D02*
X0091265Y0178040D01*
X0091265Y0170560D02*
X0091265Y0165500D01*
X0080265Y0165500D01*
X0080265Y0163000D02*
X0088765Y0163000D01*
X0091265Y0160540D01*
X0086525Y0157800D02*
X0080265Y0157800D01*
X0086525Y0157800D02*
X0091265Y0153060D01*
X0082765Y0151800D02*
X0082505Y0151800D01*
X0075025Y0151800D02*
X0066005Y0151800D01*
X0065765Y0151800D01*
X0065765Y0161800D01*
X0065765Y0160400D01*
X0057265Y0160400D01*
X0057265Y0163000D02*
X0046765Y0163000D01*
X0046765Y0151800D01*
X0037265Y0151800D01*
X0037265Y0141800D02*
X0042265Y0136800D01*
X0042765Y0136800D01*
X0037265Y0131800D02*
X0039265Y0126800D01*
X0042765Y0126800D01*
X0057265Y0115400D02*
X0063765Y0115400D01*
X0063765Y0112800D01*
X0063765Y0106800D01*
X0064005Y0106800D01*
X0073025Y0106800D01*
X0080265Y0118000D02*
X0088765Y0118000D01*
X0088765Y0114540D01*
X0112265Y0115400D02*
X0118765Y0115400D01*
X0118765Y0112800D01*
X0118765Y0106800D01*
X0119005Y0106800D02*
X0128025Y0106800D01*
X0119005Y0106800D02*
X0119005Y0112800D01*
X0118765Y0112800D01*
X0135265Y0118000D02*
X0143765Y0118000D01*
X0143765Y0114540D01*
X0128025Y0151800D02*
X0119005Y0151800D01*
X0126765Y0151800D02*
X0126765Y0157800D01*
X0126765Y0160400D01*
X0112265Y0160400D01*
X0126765Y0151800D02*
X0128025Y0151800D01*
X0143765Y0159540D02*
X0143765Y0163000D01*
X0135265Y0163000D01*
X0072025Y0136800D02*
X0065765Y0136800D01*
X0065765Y0139800D01*
X0066005Y0151800D02*
X0066765Y0151800D01*
X0057265Y0165500D02*
X0041265Y0165500D01*
X0037265Y0161800D01*
X0174525Y0275392D02*
X0175525Y0275392D01*
X0175525Y0276391D02*
X0174525Y0276391D01*
X0174525Y0277389D02*
X0175525Y0277389D01*
X0175525Y0278388D02*
X0174525Y0278388D01*
X0174525Y0285377D02*
X0175525Y0285377D01*
X0175525Y0286376D02*
X0174525Y0286376D01*
X0174525Y0287374D02*
X0175525Y0287374D01*
X0175364Y0288373D02*
X0174525Y0288373D01*
X0228647Y0301800D02*
X0228647Y0309477D01*
X0228765Y0301800D02*
X0228647Y0301800D01*
X0237765Y0295800D02*
X0238044Y0295520D01*
X0242249Y0295520D01*
X0242249Y0300639D02*
X0242765Y0301154D01*
X0242765Y0303800D01*
X0242249Y0300639D02*
X0253765Y0300639D01*
X0253765Y0298080D01*
X0253765Y0295800D01*
X0253765Y0292961D01*
X0265280Y0292961D01*
X0265280Y0295520D02*
X0278765Y0295520D01*
X0278765Y0293400D01*
X0307165Y0293400D01*
X0307165Y0296500D02*
X0285765Y0296500D01*
X0285765Y0300800D01*
X0285765Y0296500D02*
X0281284Y0296500D01*
X0281284Y0309477D01*
X0278765Y0309477D02*
X0278765Y0295520D01*
X0269765Y0300639D02*
X0269765Y0300800D01*
X0269765Y0300639D02*
X0265280Y0300639D01*
X0265280Y0298080D02*
X0253765Y0298080D01*
X0253765Y0295800D02*
X0253765Y0295520D01*
X0292765Y0271800D02*
X0299025Y0271800D01*
X0334765Y0287100D02*
X0334765Y0288800D01*
X0334765Y0299700D01*
X0340365Y0299700D01*
X0340365Y0296500D02*
X0343205Y0296500D01*
X0348765Y0302060D01*
X0360324Y0302060D01*
X0373765Y0313501D01*
X0378902Y0313336D02*
X0383765Y0313336D01*
X0383765Y0314334D02*
X0378902Y0314334D01*
X0378902Y0315333D02*
X0383765Y0315333D01*
X0383765Y0316331D02*
X0378902Y0316331D01*
X0378902Y0317330D02*
X0383765Y0317330D01*
X0383765Y0318328D02*
X0378902Y0318328D01*
X0378902Y0319327D02*
X0383765Y0319327D01*
X0383765Y0320325D02*
X0378902Y0320325D01*
X0378902Y0321324D02*
X0383765Y0321324D01*
X0383765Y0321800D02*
X0383765Y0261800D01*
X0345765Y0261800D01*
X0345765Y0282301D01*
X0352215Y0282301D01*
X0352917Y0283004D01*
X0352917Y0284360D01*
X0354612Y0284360D01*
X0354612Y0282484D01*
X0355136Y0281960D01*
X0354891Y0281819D01*
X0354612Y0281540D01*
X0354414Y0281198D01*
X0354312Y0280816D01*
X0354312Y0278560D01*
X0358265Y0278560D01*
X0358265Y0277560D01*
X0359265Y0277560D01*
X0359265Y0278560D01*
X0363217Y0278560D01*
X0363217Y0280816D01*
X0363115Y0281198D01*
X0362918Y0281540D01*
X0362638Y0281819D01*
X0362394Y0281960D01*
X0362917Y0282484D01*
X0362917Y0283840D01*
X0368628Y0283840D01*
X0368628Y0264775D01*
X0369331Y0264072D01*
X0378199Y0264072D01*
X0378902Y0264775D01*
X0378902Y0287423D01*
X0378199Y0288126D01*
X0369331Y0288126D01*
X0368628Y0287423D01*
X0368628Y0287240D01*
X0362917Y0287240D01*
X0362917Y0288596D01*
X0362215Y0289299D01*
X0355315Y0289299D01*
X0354612Y0288596D01*
X0354612Y0287760D01*
X0352917Y0287760D01*
X0352917Y0289116D01*
X0352233Y0289800D01*
X0352917Y0290484D01*
X0352917Y0296596D01*
X0352215Y0297299D01*
X0346408Y0297299D01*
X0347410Y0298301D01*
X0352215Y0298301D01*
X0352917Y0299004D01*
X0352917Y0300360D01*
X0360256Y0300360D01*
X0360889Y0300309D01*
X0360949Y0300360D01*
X0361028Y0300360D01*
X0361478Y0300810D01*
X0368628Y0306896D01*
X0368628Y0302177D01*
X0369331Y0301474D01*
X0378199Y0301474D01*
X0378902Y0302177D01*
X0378902Y0321800D01*
X0383765Y0321800D01*
X0383765Y0312337D02*
X0378902Y0312337D01*
X0378902Y0311339D02*
X0383765Y0311339D01*
X0383765Y0310340D02*
X0378902Y0310340D01*
X0378902Y0309341D02*
X0383765Y0309341D01*
X0383765Y0308343D02*
X0378902Y0308343D01*
X0378902Y0307344D02*
X0383765Y0307344D01*
X0383765Y0306346D02*
X0378902Y0306346D01*
X0378902Y0305347D02*
X0383765Y0305347D01*
X0383765Y0304349D02*
X0378902Y0304349D01*
X0378902Y0303350D02*
X0383765Y0303350D01*
X0383765Y0302352D02*
X0378902Y0302352D01*
X0383765Y0301353D02*
X0362117Y0301353D01*
X0363290Y0302352D02*
X0368628Y0302352D01*
X0368628Y0303350D02*
X0364463Y0303350D01*
X0365636Y0304349D02*
X0368628Y0304349D01*
X0368628Y0305347D02*
X0366809Y0305347D01*
X0367982Y0306346D02*
X0368628Y0306346D01*
X0366256Y0309341D02*
X0349265Y0309341D01*
X0349265Y0309040D02*
X0349265Y0310040D01*
X0353217Y0310040D01*
X0353217Y0312297D01*
X0353115Y0312678D01*
X0352918Y0313020D01*
X0352638Y0313299D01*
X0352296Y0313497D01*
X0351915Y0313599D01*
X0349265Y0313599D01*
X0349265Y0310040D01*
X0348265Y0310040D01*
X0348265Y0313599D01*
X0345765Y0313599D01*
X0345765Y0321800D01*
X0368628Y0321800D01*
X0368628Y0311361D01*
X0359698Y0303760D01*
X0352917Y0303760D01*
X0352917Y0305116D01*
X0352394Y0305640D01*
X0352638Y0305781D01*
X0352918Y0306060D01*
X0353115Y0306402D01*
X0353217Y0306784D01*
X0353217Y0309040D01*
X0349265Y0309040D01*
X0348765Y0309540D02*
X0348765Y0315800D01*
X0348265Y0313336D02*
X0349265Y0313336D01*
X0349265Y0312337D02*
X0348265Y0312337D01*
X0348265Y0311339D02*
X0349265Y0311339D01*
X0349265Y0310340D02*
X0348265Y0310340D01*
X0345765Y0314334D02*
X0368628Y0314334D01*
X0368628Y0313336D02*
X0352576Y0313336D01*
X0353207Y0312337D02*
X0368628Y0312337D01*
X0368602Y0311339D02*
X0353217Y0311339D01*
X0353217Y0310340D02*
X0367429Y0310340D01*
X0365083Y0308343D02*
X0353217Y0308343D01*
X0353217Y0307344D02*
X0363909Y0307344D01*
X0362736Y0306346D02*
X0353083Y0306346D01*
X0352686Y0305347D02*
X0361563Y0305347D01*
X0360390Y0304349D02*
X0352917Y0304349D01*
X0352917Y0300355D02*
X0360317Y0300355D01*
X0360943Y0300355D02*
X0383765Y0300355D01*
X0383765Y0299356D02*
X0352917Y0299356D01*
X0352272Y0298358D02*
X0383765Y0298358D01*
X0383765Y0297359D02*
X0346468Y0297359D01*
X0348765Y0293540D02*
X0348625Y0293400D01*
X0340365Y0293400D01*
X0340365Y0290200D02*
X0334765Y0290200D01*
X0334765Y0288800D01*
X0334765Y0287100D02*
X0340365Y0287100D01*
X0345765Y0281383D02*
X0354521Y0281383D01*
X0354714Y0282382D02*
X0352295Y0282382D01*
X0352917Y0283380D02*
X0354612Y0283380D01*
X0354312Y0280385D02*
X0345765Y0280385D01*
X0345765Y0279386D02*
X0354312Y0279386D01*
X0354312Y0277560D02*
X0354312Y0275303D01*
X0354414Y0274922D01*
X0354612Y0274580D01*
X0354891Y0274300D01*
X0355233Y0274103D01*
X0355614Y0274001D01*
X0358265Y0274001D01*
X0358265Y0277560D01*
X0354312Y0277560D01*
X0354312Y0277389D02*
X0345765Y0277389D01*
X0345765Y0276391D02*
X0354312Y0276391D01*
X0354312Y0275392D02*
X0345765Y0275392D01*
X0345765Y0274394D02*
X0354798Y0274394D01*
X0358265Y0274394D02*
X0359265Y0274394D01*
X0359265Y0274001D02*
X0359265Y0277560D01*
X0363217Y0277560D01*
X0363217Y0275303D01*
X0363115Y0274922D01*
X0362918Y0274580D01*
X0362638Y0274300D01*
X0362296Y0274103D01*
X0361915Y0274001D01*
X0359265Y0274001D01*
X0359265Y0275392D02*
X0358265Y0275392D01*
X0358265Y0276391D02*
X0359265Y0276391D01*
X0358765Y0276800D02*
X0358765Y0278060D01*
X0359265Y0278388D02*
X0368628Y0278388D01*
X0368628Y0279386D02*
X0363217Y0279386D01*
X0363217Y0280385D02*
X0368628Y0280385D01*
X0368628Y0281383D02*
X0363008Y0281383D01*
X0362815Y0282382D02*
X0368628Y0282382D01*
X0368628Y0283380D02*
X0362917Y0283380D01*
X0362917Y0287374D02*
X0368628Y0287374D01*
X0373765Y0285540D02*
X0373765Y0276099D01*
X0373265Y0277800D01*
X0368628Y0277389D02*
X0363217Y0277389D01*
X0363217Y0276391D02*
X0368628Y0276391D01*
X0368628Y0275392D02*
X0363217Y0275392D01*
X0362732Y0274394D02*
X0368628Y0274394D01*
X0368628Y0273395D02*
X0345765Y0273395D01*
X0345765Y0272397D02*
X0368628Y0272397D01*
X0368628Y0271398D02*
X0345765Y0271398D01*
X0345765Y0270400D02*
X0368628Y0270400D01*
X0368628Y0269401D02*
X0345765Y0269401D01*
X0345765Y0268403D02*
X0368628Y0268403D01*
X0368628Y0267404D02*
X0345765Y0267404D01*
X0345765Y0266405D02*
X0368628Y0266405D01*
X0368628Y0265407D02*
X0345765Y0265407D01*
X0345765Y0264408D02*
X0368995Y0264408D01*
X0378535Y0264408D02*
X0383765Y0264408D01*
X0383765Y0263410D02*
X0345765Y0263410D01*
X0345765Y0262411D02*
X0383765Y0262411D01*
X0383765Y0265407D02*
X0378902Y0265407D01*
X0378902Y0266405D02*
X0383765Y0266405D01*
X0383765Y0267404D02*
X0378902Y0267404D01*
X0378902Y0268403D02*
X0383765Y0268403D01*
X0383765Y0269401D02*
X0378902Y0269401D01*
X0378902Y0270400D02*
X0383765Y0270400D01*
X0383765Y0271398D02*
X0378902Y0271398D01*
X0378902Y0272397D02*
X0383765Y0272397D01*
X0383765Y0273395D02*
X0378902Y0273395D01*
X0378902Y0274394D02*
X0383765Y0274394D01*
X0383765Y0275392D02*
X0378902Y0275392D01*
X0378902Y0276391D02*
X0383765Y0276391D01*
X0383765Y0277389D02*
X0378902Y0277389D01*
X0378902Y0278388D02*
X0383765Y0278388D01*
X0383765Y0279386D02*
X0378902Y0279386D01*
X0378902Y0280385D02*
X0383765Y0280385D01*
X0383765Y0281383D02*
X0378902Y0281383D01*
X0378902Y0282382D02*
X0383765Y0282382D01*
X0383765Y0283380D02*
X0378902Y0283380D01*
X0378902Y0284379D02*
X0383765Y0284379D01*
X0383765Y0285377D02*
X0378902Y0285377D01*
X0378902Y0286376D02*
X0383765Y0286376D01*
X0383765Y0287374D02*
X0378902Y0287374D01*
X0373765Y0285540D02*
X0358765Y0285540D01*
X0358245Y0286060D01*
X0348765Y0286060D01*
X0352917Y0288373D02*
X0354612Y0288373D01*
X0352662Y0289371D02*
X0383765Y0289371D01*
X0383765Y0288373D02*
X0362917Y0288373D01*
X0352803Y0290370D02*
X0383765Y0290370D01*
X0383765Y0291368D02*
X0352917Y0291368D01*
X0352917Y0292367D02*
X0383765Y0292367D01*
X0383765Y0293365D02*
X0352917Y0293365D01*
X0352917Y0294364D02*
X0383765Y0294364D01*
X0383765Y0295362D02*
X0352917Y0295362D01*
X0352917Y0296361D02*
X0383765Y0296361D01*
X0368628Y0315333D02*
X0345765Y0315333D01*
X0345765Y0316331D02*
X0368628Y0316331D01*
X0368628Y0317330D02*
X0345765Y0317330D01*
X0345765Y0318328D02*
X0368628Y0318328D01*
X0368628Y0319327D02*
X0345765Y0319327D01*
X0345765Y0320325D02*
X0368628Y0320325D01*
X0368628Y0321324D02*
X0345765Y0321324D01*
X0327865Y0314200D02*
X0325365Y0314200D01*
X0325365Y0308400D01*
X0319065Y0308400D02*
X0319065Y0301800D01*
X0318765Y0301800D01*
X0319065Y0308400D02*
X0315865Y0308400D01*
X0312765Y0308400D01*
X0313065Y0308400D01*
X0313065Y0313100D01*
X0319065Y0314200D02*
X0319065Y0308400D01*
X0319065Y0314200D02*
X0319665Y0314200D01*
X0319665Y0319400D02*
X0319665Y0320500D01*
X0313065Y0320500D01*
X0345765Y0278388D02*
X0358265Y0278388D01*
X0358265Y0277389D02*
X0359265Y0277389D01*
X0093765Y0304800D02*
X0093647Y0304800D01*
X0093647Y0309477D01*
X0048647Y0309477D02*
X0048647Y0304800D01*
X0048765Y0304800D01*
D33*
X0143765Y0315800D03*
X0166765Y0316800D03*
X0163765Y0296800D03*
X0163765Y0291800D03*
X0163765Y0286800D03*
X0163765Y0281800D03*
X0163765Y0276800D03*
X0065765Y0161800D03*
D34*
X0057265Y0157800D02*
X0057265Y0151800D01*
X0058525Y0151800D01*
X0057265Y0112800D02*
X0057265Y0106800D01*
X0056525Y0106800D01*
X0056525Y0100800D01*
X0111525Y0100800D01*
X0111525Y0106800D01*
X0112265Y0106800D01*
X0112265Y0112800D01*
X0111525Y0100800D02*
X0149765Y0100800D01*
X0111525Y0151800D02*
X0111525Y0157800D01*
X0112265Y0157800D01*
X0095765Y0203800D02*
X0081717Y0203800D01*
X0081717Y0211800D01*
X0060765Y0211800D01*
X0060765Y0204005D01*
X0045765Y0225658D02*
X0045765Y0256800D01*
X0050765Y0256800D01*
X0095765Y0215816D02*
X0095765Y0204005D01*
X0095765Y0203800D01*
X0178765Y0269300D02*
X0178797Y0269950D01*
X0178841Y0269907D01*
X0179251Y0269670D01*
X0179709Y0269547D01*
X0182025Y0269547D01*
X0182025Y0273820D01*
X0182984Y0273820D01*
X0182984Y0269547D01*
X0185301Y0269547D01*
X0185759Y0269670D01*
X0186169Y0269907D01*
X0186504Y0270242D01*
X0186741Y0270652D01*
X0186864Y0271110D01*
X0186864Y0273820D01*
X0182984Y0273820D01*
X0182984Y0274780D01*
X0182025Y0274780D01*
X0182025Y0279053D01*
X0179709Y0279053D01*
X0179251Y0278930D01*
X0179246Y0278927D01*
X0179283Y0279661D01*
X0179709Y0279547D01*
X0182025Y0279547D01*
X0182025Y0283820D01*
X0182984Y0283820D01*
X0182984Y0279547D01*
X0185301Y0279547D01*
X0185759Y0279670D01*
X0186169Y0279907D01*
X0186504Y0280242D01*
X0186741Y0280652D01*
X0186864Y0281110D01*
X0186864Y0283820D01*
X0182984Y0283820D01*
X0182984Y0284780D01*
X0186864Y0284780D01*
X0186864Y0287490D01*
X0186741Y0287948D01*
X0186522Y0288327D01*
X0187990Y0288327D01*
X0187990Y0292501D01*
X0189540Y0292501D01*
X0189540Y0292502D02*
X0189540Y0294051D01*
X0201785Y0294051D01*
X0201785Y0296663D01*
X0201748Y0296800D01*
X0203765Y0296800D01*
X0203765Y0286800D01*
X0193765Y0286800D01*
X0193765Y0269300D01*
X0178765Y0269300D01*
X0182025Y0270350D02*
X0182984Y0270350D01*
X0182984Y0271948D02*
X0182025Y0271948D01*
X0182025Y0273547D02*
X0182984Y0273547D01*
X0182984Y0274780D02*
X0186864Y0274780D01*
X0186864Y0277490D01*
X0186741Y0277948D01*
X0186504Y0278358D01*
X0186169Y0278693D01*
X0185759Y0278930D01*
X0185301Y0279053D01*
X0182984Y0279053D01*
X0182984Y0274780D01*
X0182984Y0275145D02*
X0182025Y0275145D01*
X0182025Y0276744D02*
X0182984Y0276744D01*
X0182984Y0278342D02*
X0182025Y0278342D01*
X0182025Y0279941D02*
X0182984Y0279941D01*
X0182984Y0281539D02*
X0182025Y0281539D01*
X0182025Y0283138D02*
X0182984Y0283138D01*
X0182984Y0284737D02*
X0193765Y0284737D01*
X0193765Y0286335D02*
X0186864Y0286335D01*
X0186745Y0287934D02*
X0203765Y0287934D01*
X0203765Y0289532D02*
X0201689Y0289532D01*
X0201663Y0289432D02*
X0201785Y0289890D01*
X0201785Y0292502D01*
X0189540Y0292502D01*
X0189540Y0292501D02*
X0189540Y0288327D01*
X0200222Y0288327D01*
X0200680Y0288449D01*
X0201090Y0288686D01*
X0201426Y0289022D01*
X0201663Y0289432D01*
X0201785Y0291131D02*
X0203765Y0291131D01*
X0203765Y0292729D02*
X0189540Y0292729D01*
X0188765Y0293276D02*
X0203765Y0293276D01*
X0203765Y0323800D01*
X0126265Y0323800D01*
X0126265Y0315540D01*
X0136265Y0315540D02*
X0136265Y0315800D01*
X0143765Y0315800D01*
X0145694Y0310639D02*
X0136265Y0310639D01*
X0136265Y0308060D01*
X0126265Y0308060D01*
X0141265Y0305520D02*
X0141265Y0301800D01*
X0103883Y0301800D01*
X0058765Y0301800D01*
X0058765Y0309477D01*
X0058883Y0309477D01*
X0093647Y0309477D02*
X0093765Y0309477D01*
X0103883Y0309477D02*
X0103883Y0301800D01*
X0141265Y0305520D02*
X0145694Y0305520D01*
X0145694Y0308080D02*
X0152525Y0308080D01*
X0152525Y0316800D01*
X0160005Y0316800D02*
X0166765Y0316800D01*
X0166765Y0310639D01*
X0161836Y0310639D01*
X0171744Y0303539D02*
X0176017Y0303539D01*
X0176017Y0304300D01*
X0176265Y0304300D01*
X0176265Y0310908D01*
X0176439Y0310734D01*
X0176849Y0310497D01*
X0177307Y0310374D01*
X0187990Y0310374D01*
X0187990Y0314549D01*
X0189540Y0314549D01*
X0189540Y0310374D01*
X0200222Y0310374D01*
X0200680Y0310497D01*
X0201090Y0310734D01*
X0201426Y0311069D01*
X0201465Y0311137D01*
X0201465Y0299300D01*
X0175562Y0299300D01*
X0175658Y0299396D01*
X0175895Y0299806D01*
X0176017Y0300264D01*
X0176017Y0302580D01*
X0171744Y0302580D01*
X0171744Y0303539D01*
X0176017Y0303919D02*
X0201465Y0303919D01*
X0201465Y0305517D02*
X0176265Y0305517D01*
X0176265Y0307116D02*
X0201465Y0307116D01*
X0201465Y0308714D02*
X0176265Y0308714D01*
X0176265Y0310313D02*
X0201465Y0310313D01*
X0201465Y0302320D02*
X0176017Y0302320D01*
X0176017Y0300722D02*
X0201465Y0300722D01*
X0201785Y0295926D02*
X0203765Y0295926D01*
X0203765Y0294328D02*
X0201785Y0294328D01*
X0189540Y0291131D02*
X0187990Y0291131D01*
X0187990Y0289532D02*
X0189540Y0289532D01*
X0186864Y0283138D02*
X0193765Y0283138D01*
X0193765Y0281539D02*
X0186864Y0281539D01*
X0186203Y0279941D02*
X0193765Y0279941D01*
X0193765Y0278342D02*
X0186513Y0278342D01*
X0186864Y0276744D02*
X0193765Y0276744D01*
X0193765Y0275145D02*
X0186864Y0275145D01*
X0186864Y0273547D02*
X0193765Y0273547D01*
X0193765Y0271948D02*
X0186864Y0271948D01*
X0186567Y0270350D02*
X0193765Y0270350D01*
X0189540Y0311911D02*
X0187990Y0311911D01*
X0187990Y0313510D02*
X0189540Y0313510D01*
X0301765Y0311800D02*
X0301765Y0299700D01*
X0307165Y0299700D01*
X0315865Y0299700D01*
X0315865Y0287100D01*
X0315865Y0275200D01*
X0315865Y0269800D01*
X0306765Y0269800D01*
X0306765Y0271800D01*
X0306505Y0271800D01*
X0308765Y0271800D01*
X0308765Y0264800D01*
X0328465Y0264800D02*
X0340365Y0264800D01*
X0340365Y0280800D01*
X0340365Y0283900D01*
X0328465Y0275200D02*
X0328465Y0308400D01*
X0327865Y0316800D02*
X0327865Y0319400D01*
X0327865Y0316800D02*
X0319665Y0316800D01*
X0304465Y0316800D01*
X0304465Y0311800D01*
X0301765Y0311800D01*
X0307165Y0287100D02*
X0315865Y0287100D01*
X0328465Y0275200D02*
X0328465Y0264800D01*
D35*
X0073765Y0176800D03*
X0072765Y0171800D03*
X0072765Y0167800D03*
X0042765Y0136800D03*
X0042765Y0126800D03*
D36*
X0045765Y0140800D03*
X0048765Y0143800D03*
X0051765Y0146800D03*
X0056765Y0139800D03*
X0065765Y0139800D03*
X0074765Y0123800D03*
X0063765Y0112800D03*
X0088765Y0135800D03*
X0106765Y0126800D03*
X0111765Y0133800D03*
X0116765Y0133800D03*
X0123765Y0130800D03*
X0120765Y0126800D03*
X0129765Y0123800D03*
X0118765Y0112800D03*
X0143765Y0135800D03*
X0126765Y0157800D03*
X0129765Y0168800D03*
X0123765Y0175800D03*
X0143765Y0180800D03*
X0127765Y0199800D03*
X0120765Y0206800D03*
X0116765Y0210800D03*
X0111765Y0212800D03*
X0108765Y0204800D03*
X0100765Y0197800D03*
X0106765Y0194800D03*
X0091765Y0200800D03*
X0072765Y0186800D03*
X0065765Y0179800D03*
X0068765Y0176800D03*
X0062765Y0182800D03*
X0059765Y0184800D03*
X0056765Y0193800D03*
X0071875Y0202036D03*
X0050765Y0208800D03*
X0045765Y0212800D03*
X0047765Y0216800D03*
X0051765Y0221800D03*
X0063765Y0223800D03*
X0062765Y0227800D03*
X0068765Y0231800D03*
X0071765Y0227800D03*
X0076765Y0231800D03*
X0084765Y0231800D03*
X0073765Y0243800D03*
X0060765Y0238800D03*
X0104765Y0238800D03*
X0117765Y0228800D03*
X0117765Y0258800D03*
X0093765Y0304800D03*
X0048765Y0304800D03*
X0103765Y0170800D03*
X0248765Y0292800D03*
X0248765Y0297800D03*
X0253765Y0295800D03*
X0242765Y0303800D03*
X0237765Y0295800D03*
X0228765Y0301800D03*
X0269765Y0300800D03*
X0270765Y0303800D03*
X0285765Y0300800D03*
X0306765Y0277800D03*
X0293765Y0276800D03*
X0292765Y0271800D03*
X0318765Y0301800D03*
X0331765Y0300800D03*
X0334765Y0302800D03*
X0334765Y0288800D03*
X0352765Y0276800D03*
X0348765Y0315800D03*
D37*
X0334765Y0308400D02*
X0334765Y0302800D01*
X0331665Y0302800D02*
X0331765Y0300800D01*
X0331665Y0302800D02*
X0331665Y0308400D01*
X0352765Y0276800D02*
X0358765Y0276800D01*
X0273647Y0303800D02*
X0273647Y0309477D01*
X0273647Y0303800D02*
X0270765Y0303800D01*
X0248765Y0298080D02*
X0248765Y0297800D01*
X0248765Y0298080D02*
X0242249Y0298080D01*
X0236284Y0298080D01*
X0236284Y0309477D01*
X0233765Y0309477D02*
X0233765Y0292961D01*
X0242249Y0292961D01*
X0248765Y0292961D01*
X0248765Y0292800D01*
X0120765Y0206800D02*
X0119765Y0207800D01*
X0100812Y0207800D01*
X0100812Y0207942D01*
X0100812Y0209800D02*
X0100812Y0209910D01*
X0115875Y0209910D01*
X0116765Y0210800D01*
X0111765Y0212800D02*
X0110843Y0211879D01*
X0100812Y0211879D01*
X0100812Y0211800D01*
X0100812Y0202036D02*
X0114025Y0202036D01*
X0115025Y0201800D01*
X0106765Y0194800D02*
X0093529Y0194800D01*
X0093529Y0194753D01*
X0095765Y0185800D02*
X0075812Y0185800D01*
X0075812Y0194753D01*
X0077780Y0194753D02*
X0077780Y0187800D01*
X0106765Y0187800D01*
X0106765Y0173200D01*
X0112265Y0173200D01*
X0112265Y0175800D02*
X0112265Y0189800D01*
X0079749Y0189800D01*
X0079749Y0194753D01*
X0073843Y0194753D02*
X0073843Y0186800D01*
X0072765Y0186800D01*
X0075765Y0185800D02*
X0075812Y0185800D01*
X0084765Y0181800D02*
X0084765Y0170600D01*
X0080265Y0170600D01*
X0080265Y0168100D02*
X0086265Y0168100D01*
X0086265Y0179300D01*
X0091265Y0179300D01*
X0095765Y0185800D02*
X0095765Y0168100D01*
X0112265Y0168100D01*
X0112265Y0170600D02*
X0103765Y0170600D01*
X0103765Y0170800D01*
X0123765Y0175800D02*
X0123765Y0181800D01*
X0127025Y0181800D01*
X0134505Y0181800D02*
X0139765Y0181800D01*
X0139765Y0170600D01*
X0135265Y0170600D01*
X0135265Y0168100D02*
X0129765Y0168100D01*
X0129765Y0168800D01*
X0135265Y0165500D02*
X0143765Y0165500D01*
X0143765Y0168560D01*
X0143765Y0176040D02*
X0143765Y0180800D01*
X0135265Y0160400D02*
X0131365Y0160400D01*
X0130765Y0159800D01*
X0130765Y0156800D01*
X0131765Y0155800D01*
X0135505Y0155800D01*
X0135505Y0151800D01*
X0135265Y0157800D02*
X0138025Y0157800D01*
X0143765Y0152060D01*
X0139765Y0136800D02*
X0135005Y0136800D01*
X0139765Y0136800D02*
X0139765Y0125600D01*
X0135265Y0125600D01*
X0135265Y0123100D02*
X0129765Y0123100D01*
X0129765Y0123800D01*
X0135265Y0120500D02*
X0143765Y0120500D01*
X0143765Y0123560D01*
X0143765Y0131040D02*
X0143765Y0135800D01*
X0127525Y0136800D02*
X0123765Y0136800D01*
X0123765Y0130800D01*
X0120765Y0126800D02*
X0120765Y0123100D01*
X0112265Y0123100D01*
X0112265Y0125600D02*
X0106765Y0125600D01*
X0106765Y0126800D01*
X0112265Y0128200D02*
X0116765Y0128200D01*
X0116765Y0133800D01*
X0111765Y0133800D02*
X0111765Y0130800D01*
X0112265Y0130800D01*
X0126765Y0136800D02*
X0127525Y0136800D01*
X0130765Y0115400D02*
X0130765Y0110800D01*
X0135505Y0110800D01*
X0135505Y0106800D01*
X0135265Y0112800D02*
X0138025Y0112800D01*
X0143765Y0107060D01*
X0135265Y0115400D02*
X0130765Y0115400D01*
X0088765Y0120500D02*
X0088765Y0123560D01*
X0088765Y0120500D02*
X0080265Y0120500D01*
X0080265Y0123100D02*
X0074765Y0123100D01*
X0074765Y0123800D01*
X0080265Y0125600D02*
X0084765Y0125600D01*
X0084765Y0136800D01*
X0079505Y0136800D01*
X0088765Y0135800D02*
X0088765Y0131040D01*
X0080265Y0115400D02*
X0075765Y0115400D01*
X0075765Y0110800D01*
X0080505Y0110800D01*
X0080505Y0106800D01*
X0080265Y0112800D02*
X0083025Y0112800D01*
X0088765Y0107060D01*
X0057265Y0123100D02*
X0045765Y0123100D01*
X0045765Y0140800D01*
X0048765Y0143800D02*
X0048765Y0125600D01*
X0057265Y0125600D01*
X0057265Y0128200D02*
X0051765Y0128200D01*
X0051765Y0146800D01*
X0056765Y0139800D02*
X0056765Y0130800D01*
X0057265Y0130800D01*
X0082765Y0151800D02*
X0082765Y0155800D01*
X0075765Y0155800D01*
X0075765Y0160400D01*
X0080265Y0160400D01*
X0068765Y0168100D02*
X0068765Y0176800D01*
X0065765Y0179800D02*
X0065765Y0170600D01*
X0057265Y0170600D01*
X0057265Y0168100D02*
X0068765Y0168100D01*
X0062765Y0173200D02*
X0062765Y0182800D01*
X0059765Y0184800D02*
X0059765Y0175800D01*
X0057265Y0175800D01*
X0057265Y0173200D02*
X0062765Y0173200D01*
X0056765Y0193800D02*
X0055765Y0193800D01*
X0052765Y0196800D01*
X0052765Y0206800D01*
X0053765Y0207800D01*
X0056576Y0207800D01*
X0056717Y0207942D01*
X0056717Y0209800D02*
X0056717Y0209910D01*
X0052875Y0209910D01*
X0050765Y0208800D01*
X0046765Y0211800D02*
X0045765Y0212800D01*
X0046765Y0211800D02*
X0056639Y0211800D01*
X0056717Y0211879D01*
X0056717Y0211800D01*
X0056717Y0213800D02*
X0056717Y0213847D01*
X0049717Y0213847D01*
X0047765Y0216800D01*
X0051749Y0215816D02*
X0056717Y0215816D01*
X0051749Y0215816D02*
X0051765Y0221800D01*
X0056717Y0227627D02*
X0062591Y0227627D01*
X0062765Y0227800D01*
X0060560Y0229595D02*
X0061765Y0230800D01*
X0064765Y0230800D01*
X0065765Y0229800D01*
X0065765Y0225800D01*
X0063765Y0223800D01*
X0060560Y0229595D02*
X0056717Y0229595D01*
X0056717Y0229800D01*
X0056717Y0231564D02*
X0056717Y0232800D01*
X0068765Y0232800D01*
X0068765Y0231800D01*
X0069765Y0234800D02*
X0065969Y0234800D01*
X0065969Y0238847D01*
X0067765Y0238847D02*
X0067938Y0238847D01*
X0067765Y0238847D02*
X0067765Y0244800D01*
X0050765Y0244800D01*
X0050765Y0249060D01*
X0060765Y0238800D02*
X0064001Y0238800D01*
X0064001Y0238847D01*
X0069765Y0238847D02*
X0069765Y0234800D01*
X0077780Y0238847D02*
X0077780Y0251503D01*
X0075765Y0251503D01*
X0075765Y0249060D01*
X0067265Y0249060D01*
X0071765Y0254800D02*
X0071765Y0256540D01*
X0067265Y0256540D01*
X0071765Y0254800D02*
X0079765Y0254800D01*
X0079765Y0256800D01*
X0083765Y0256800D01*
X0083765Y0256540D01*
X0087765Y0256540D01*
X0087765Y0254800D01*
X0095765Y0254800D01*
X0095765Y0256540D01*
X0100265Y0256540D01*
X0100265Y0249060D02*
X0091765Y0249060D01*
X0091025Y0249060D01*
X0087765Y0245800D01*
X0087765Y0238989D01*
X0087623Y0238847D01*
X0085654Y0238847D02*
X0085654Y0234800D01*
X0093765Y0234800D01*
X0093765Y0238847D01*
X0093529Y0238847D01*
X0096765Y0238847D01*
X0104765Y0238800D01*
X0104765Y0229595D01*
X0104765Y0225658D01*
X0100812Y0225658D01*
X0100812Y0225800D01*
X0100812Y0229595D02*
X0104765Y0229595D01*
X0111265Y0236540D02*
X0111265Y0242800D01*
X0091765Y0242800D01*
X0091765Y0238847D01*
X0091560Y0238847D01*
X0089765Y0238847D02*
X0089591Y0238847D01*
X0089765Y0238847D02*
X0089765Y0244800D01*
X0117265Y0244800D01*
X0117265Y0245060D01*
X0109265Y0249060D02*
X0100265Y0249060D01*
X0091765Y0249060D02*
X0091765Y0251503D01*
X0083765Y0249060D02*
X0083765Y0238847D01*
X0083686Y0238847D01*
X0056717Y0231800D02*
X0056717Y0231564D01*
X0056717Y0227800D02*
X0056717Y0227627D01*
D38*
X0081717Y0238847D02*
X0081765Y0238847D01*
X0293765Y0276800D02*
X0293765Y0283900D01*
X0307165Y0283900D01*
X0307165Y0280800D02*
X0306765Y0280800D01*
X0306765Y0277800D01*
D39*
X0308765Y0264800D02*
X0188765Y0264800D01*
X0188765Y0271800D01*
X0188765Y0264800D02*
X0149765Y0264800D01*
X0091765Y0264800D01*
X0075765Y0264800D01*
X0050765Y0264800D01*
X0050765Y0256800D01*
X0050765Y0256540D01*
X0149765Y0264800D02*
X0149765Y0144800D01*
X0149765Y0100800D01*
X0149765Y0144800D02*
X0111525Y0144800D01*
X0111525Y0151800D01*
X0111525Y0144800D02*
X0057265Y0144800D01*
X0057265Y0151800D01*
X0308765Y0264800D02*
X0328465Y0264800D01*
D40*
X0091765Y0264800D02*
X0091765Y0258097D01*
X0075765Y0258097D02*
X0075765Y0264800D01*
D41*
X0060765Y0225658D02*
X0056717Y0225658D01*
X0045765Y0225658D01*
X0060765Y0225658D02*
X0060765Y0211800D01*
X0060765Y0204005D02*
X0056717Y0204005D01*
X0081717Y0203800D02*
X0081717Y0194753D01*
X0095765Y0204005D02*
X0100812Y0204005D01*
X0100812Y0215816D02*
X0095765Y0215816D01*
M02*
