G75*
%MOIN*%
%OFA0B0*%
%FSLAX25Y25*%
%IPPOS*%
%LPD*%
%AMOC8*
5,1,8,0,0,1.08239X$1,22.5*
%
%ADD10C,0.00000*%
%ADD11C,0.00600*%
%ADD12C,0.00400*%
%ADD13C,0.00300*%
%ADD14C,0.00800*%
%ADD15C,0.02559*%
%ADD16C,0.00100*%
%ADD17C,0.00500*%
%ADD18C,0.01000*%
%ADD19C,0.01575*%
D10*
X0028765Y0001800D02*
X0028765Y0326800D01*
X0388765Y0326800D01*
X0388765Y0001800D01*
X0028765Y0001800D01*
X0034665Y0008800D02*
X0034667Y0008911D01*
X0034673Y0009022D01*
X0034683Y0009133D01*
X0034697Y0009244D01*
X0034715Y0009354D01*
X0034737Y0009463D01*
X0034762Y0009571D01*
X0034792Y0009678D01*
X0034825Y0009784D01*
X0034863Y0009889D01*
X0034904Y0009993D01*
X0034948Y0010095D01*
X0034997Y0010195D01*
X0035048Y0010293D01*
X0035104Y0010390D01*
X0035163Y0010484D01*
X0035225Y0010577D01*
X0035290Y0010667D01*
X0035359Y0010754D01*
X0035430Y0010840D01*
X0035505Y0010922D01*
X0035583Y0011002D01*
X0035663Y0011079D01*
X0035746Y0011153D01*
X0035832Y0011224D01*
X0035920Y0011291D01*
X0036011Y0011356D01*
X0036104Y0011417D01*
X0036199Y0011475D01*
X0036296Y0011530D01*
X0036395Y0011581D01*
X0036496Y0011628D01*
X0036598Y0011672D01*
X0036702Y0011712D01*
X0036807Y0011748D01*
X0036913Y0011781D01*
X0037021Y0011809D01*
X0037130Y0011834D01*
X0037239Y0011855D01*
X0037349Y0011872D01*
X0037459Y0011885D01*
X0037570Y0011894D01*
X0037682Y0011899D01*
X0037793Y0011900D01*
X0037904Y0011897D01*
X0038015Y0011890D01*
X0038126Y0011879D01*
X0038236Y0011864D01*
X0038346Y0011845D01*
X0038455Y0011822D01*
X0038563Y0011796D01*
X0038670Y0011765D01*
X0038776Y0011731D01*
X0038880Y0011692D01*
X0038983Y0011651D01*
X0039085Y0011605D01*
X0039185Y0011556D01*
X0039283Y0011503D01*
X0039379Y0011447D01*
X0039473Y0011387D01*
X0039565Y0011324D01*
X0039654Y0011258D01*
X0039741Y0011189D01*
X0039825Y0011116D01*
X0039907Y0011041D01*
X0039986Y0010962D01*
X0040063Y0010881D01*
X0040136Y0010797D01*
X0040206Y0010711D01*
X0040273Y0010622D01*
X0040337Y0010531D01*
X0040397Y0010438D01*
X0040454Y0010342D01*
X0040508Y0010244D01*
X0040558Y0010145D01*
X0040604Y0010044D01*
X0040647Y0009941D01*
X0040686Y0009837D01*
X0040722Y0009731D01*
X0040753Y0009625D01*
X0040781Y0009517D01*
X0040805Y0009408D01*
X0040825Y0009299D01*
X0040841Y0009189D01*
X0040853Y0009078D01*
X0040861Y0008967D01*
X0040865Y0008856D01*
X0040865Y0008744D01*
X0040861Y0008633D01*
X0040853Y0008522D01*
X0040841Y0008411D01*
X0040825Y0008301D01*
X0040805Y0008192D01*
X0040781Y0008083D01*
X0040753Y0007975D01*
X0040722Y0007869D01*
X0040686Y0007763D01*
X0040647Y0007659D01*
X0040604Y0007556D01*
X0040558Y0007455D01*
X0040508Y0007356D01*
X0040454Y0007258D01*
X0040397Y0007162D01*
X0040337Y0007069D01*
X0040273Y0006978D01*
X0040206Y0006889D01*
X0040136Y0006803D01*
X0040063Y0006719D01*
X0039986Y0006638D01*
X0039907Y0006559D01*
X0039825Y0006484D01*
X0039741Y0006411D01*
X0039654Y0006342D01*
X0039565Y0006276D01*
X0039473Y0006213D01*
X0039379Y0006153D01*
X0039283Y0006097D01*
X0039185Y0006044D01*
X0039085Y0005995D01*
X0038983Y0005949D01*
X0038880Y0005908D01*
X0038776Y0005869D01*
X0038670Y0005835D01*
X0038563Y0005804D01*
X0038455Y0005778D01*
X0038346Y0005755D01*
X0038236Y0005736D01*
X0038126Y0005721D01*
X0038015Y0005710D01*
X0037904Y0005703D01*
X0037793Y0005700D01*
X0037682Y0005701D01*
X0037570Y0005706D01*
X0037459Y0005715D01*
X0037349Y0005728D01*
X0037239Y0005745D01*
X0037130Y0005766D01*
X0037021Y0005791D01*
X0036913Y0005819D01*
X0036807Y0005852D01*
X0036702Y0005888D01*
X0036598Y0005928D01*
X0036496Y0005972D01*
X0036395Y0006019D01*
X0036296Y0006070D01*
X0036199Y0006125D01*
X0036104Y0006183D01*
X0036011Y0006244D01*
X0035920Y0006309D01*
X0035832Y0006376D01*
X0035746Y0006447D01*
X0035663Y0006521D01*
X0035583Y0006598D01*
X0035505Y0006678D01*
X0035430Y0006760D01*
X0035359Y0006846D01*
X0035290Y0006933D01*
X0035225Y0007023D01*
X0035163Y0007116D01*
X0035104Y0007210D01*
X0035048Y0007307D01*
X0034997Y0007405D01*
X0034948Y0007505D01*
X0034904Y0007607D01*
X0034863Y0007711D01*
X0034825Y0007816D01*
X0034792Y0007922D01*
X0034762Y0008029D01*
X0034737Y0008137D01*
X0034715Y0008246D01*
X0034697Y0008356D01*
X0034683Y0008467D01*
X0034673Y0008578D01*
X0034667Y0008689D01*
X0034665Y0008800D01*
X0042165Y0026800D02*
X0042167Y0026962D01*
X0042173Y0027124D01*
X0042183Y0027286D01*
X0042197Y0027447D01*
X0042215Y0027608D01*
X0042236Y0027768D01*
X0042262Y0027928D01*
X0042292Y0028088D01*
X0042325Y0028246D01*
X0042363Y0028404D01*
X0042404Y0028560D01*
X0042449Y0028716D01*
X0042498Y0028870D01*
X0042551Y0029023D01*
X0042607Y0029175D01*
X0042667Y0029326D01*
X0042731Y0029475D01*
X0042799Y0029622D01*
X0042870Y0029767D01*
X0042944Y0029911D01*
X0043022Y0030053D01*
X0043104Y0030193D01*
X0043189Y0030331D01*
X0043277Y0030467D01*
X0043369Y0030600D01*
X0043464Y0030732D01*
X0043562Y0030861D01*
X0043663Y0030987D01*
X0043767Y0031111D01*
X0043875Y0031232D01*
X0043985Y0031351D01*
X0044098Y0031467D01*
X0044214Y0031580D01*
X0044333Y0031690D01*
X0044454Y0031798D01*
X0044578Y0031902D01*
X0044704Y0032003D01*
X0044833Y0032101D01*
X0044965Y0032196D01*
X0045098Y0032288D01*
X0045234Y0032376D01*
X0045372Y0032461D01*
X0045512Y0032543D01*
X0045654Y0032621D01*
X0045798Y0032695D01*
X0045943Y0032766D01*
X0046090Y0032834D01*
X0046239Y0032898D01*
X0046390Y0032958D01*
X0046542Y0033014D01*
X0046695Y0033067D01*
X0046849Y0033116D01*
X0047005Y0033161D01*
X0047161Y0033202D01*
X0047319Y0033240D01*
X0047477Y0033273D01*
X0047637Y0033303D01*
X0047797Y0033329D01*
X0047957Y0033350D01*
X0048118Y0033368D01*
X0048279Y0033382D01*
X0048441Y0033392D01*
X0048603Y0033398D01*
X0048765Y0033400D01*
X0048927Y0033398D01*
X0049089Y0033392D01*
X0049251Y0033382D01*
X0049412Y0033368D01*
X0049573Y0033350D01*
X0049733Y0033329D01*
X0049893Y0033303D01*
X0050053Y0033273D01*
X0050211Y0033240D01*
X0050369Y0033202D01*
X0050525Y0033161D01*
X0050681Y0033116D01*
X0050835Y0033067D01*
X0050988Y0033014D01*
X0051140Y0032958D01*
X0051291Y0032898D01*
X0051440Y0032834D01*
X0051587Y0032766D01*
X0051732Y0032695D01*
X0051876Y0032621D01*
X0052018Y0032543D01*
X0052158Y0032461D01*
X0052296Y0032376D01*
X0052432Y0032288D01*
X0052565Y0032196D01*
X0052697Y0032101D01*
X0052826Y0032003D01*
X0052952Y0031902D01*
X0053076Y0031798D01*
X0053197Y0031690D01*
X0053316Y0031580D01*
X0053432Y0031467D01*
X0053545Y0031351D01*
X0053655Y0031232D01*
X0053763Y0031111D01*
X0053867Y0030987D01*
X0053968Y0030861D01*
X0054066Y0030732D01*
X0054161Y0030600D01*
X0054253Y0030467D01*
X0054341Y0030331D01*
X0054426Y0030193D01*
X0054508Y0030053D01*
X0054586Y0029911D01*
X0054660Y0029767D01*
X0054731Y0029622D01*
X0054799Y0029475D01*
X0054863Y0029326D01*
X0054923Y0029175D01*
X0054979Y0029023D01*
X0055032Y0028870D01*
X0055081Y0028716D01*
X0055126Y0028560D01*
X0055167Y0028404D01*
X0055205Y0028246D01*
X0055238Y0028088D01*
X0055268Y0027928D01*
X0055294Y0027768D01*
X0055315Y0027608D01*
X0055333Y0027447D01*
X0055347Y0027286D01*
X0055357Y0027124D01*
X0055363Y0026962D01*
X0055365Y0026800D01*
X0055363Y0026638D01*
X0055357Y0026476D01*
X0055347Y0026314D01*
X0055333Y0026153D01*
X0055315Y0025992D01*
X0055294Y0025832D01*
X0055268Y0025672D01*
X0055238Y0025512D01*
X0055205Y0025354D01*
X0055167Y0025196D01*
X0055126Y0025040D01*
X0055081Y0024884D01*
X0055032Y0024730D01*
X0054979Y0024577D01*
X0054923Y0024425D01*
X0054863Y0024274D01*
X0054799Y0024125D01*
X0054731Y0023978D01*
X0054660Y0023833D01*
X0054586Y0023689D01*
X0054508Y0023547D01*
X0054426Y0023407D01*
X0054341Y0023269D01*
X0054253Y0023133D01*
X0054161Y0023000D01*
X0054066Y0022868D01*
X0053968Y0022739D01*
X0053867Y0022613D01*
X0053763Y0022489D01*
X0053655Y0022368D01*
X0053545Y0022249D01*
X0053432Y0022133D01*
X0053316Y0022020D01*
X0053197Y0021910D01*
X0053076Y0021802D01*
X0052952Y0021698D01*
X0052826Y0021597D01*
X0052697Y0021499D01*
X0052565Y0021404D01*
X0052432Y0021312D01*
X0052296Y0021224D01*
X0052158Y0021139D01*
X0052018Y0021057D01*
X0051876Y0020979D01*
X0051732Y0020905D01*
X0051587Y0020834D01*
X0051440Y0020766D01*
X0051291Y0020702D01*
X0051140Y0020642D01*
X0050988Y0020586D01*
X0050835Y0020533D01*
X0050681Y0020484D01*
X0050525Y0020439D01*
X0050369Y0020398D01*
X0050211Y0020360D01*
X0050053Y0020327D01*
X0049893Y0020297D01*
X0049733Y0020271D01*
X0049573Y0020250D01*
X0049412Y0020232D01*
X0049251Y0020218D01*
X0049089Y0020208D01*
X0048927Y0020202D01*
X0048765Y0020200D01*
X0048603Y0020202D01*
X0048441Y0020208D01*
X0048279Y0020218D01*
X0048118Y0020232D01*
X0047957Y0020250D01*
X0047797Y0020271D01*
X0047637Y0020297D01*
X0047477Y0020327D01*
X0047319Y0020360D01*
X0047161Y0020398D01*
X0047005Y0020439D01*
X0046849Y0020484D01*
X0046695Y0020533D01*
X0046542Y0020586D01*
X0046390Y0020642D01*
X0046239Y0020702D01*
X0046090Y0020766D01*
X0045943Y0020834D01*
X0045798Y0020905D01*
X0045654Y0020979D01*
X0045512Y0021057D01*
X0045372Y0021139D01*
X0045234Y0021224D01*
X0045098Y0021312D01*
X0044965Y0021404D01*
X0044833Y0021499D01*
X0044704Y0021597D01*
X0044578Y0021698D01*
X0044454Y0021802D01*
X0044333Y0021910D01*
X0044214Y0022020D01*
X0044098Y0022133D01*
X0043985Y0022249D01*
X0043875Y0022368D01*
X0043767Y0022489D01*
X0043663Y0022613D01*
X0043562Y0022739D01*
X0043464Y0022868D01*
X0043369Y0023000D01*
X0043277Y0023133D01*
X0043189Y0023269D01*
X0043104Y0023407D01*
X0043022Y0023547D01*
X0042944Y0023689D01*
X0042870Y0023833D01*
X0042799Y0023978D01*
X0042731Y0024125D01*
X0042667Y0024274D01*
X0042607Y0024425D01*
X0042551Y0024577D01*
X0042498Y0024730D01*
X0042449Y0024884D01*
X0042404Y0025040D01*
X0042363Y0025196D01*
X0042325Y0025354D01*
X0042292Y0025512D01*
X0042262Y0025672D01*
X0042236Y0025832D01*
X0042215Y0025992D01*
X0042197Y0026153D01*
X0042183Y0026314D01*
X0042173Y0026476D01*
X0042167Y0026638D01*
X0042165Y0026800D01*
X0037265Y0062800D02*
X0037267Y0062911D01*
X0037273Y0063022D01*
X0037283Y0063133D01*
X0037297Y0063244D01*
X0037315Y0063354D01*
X0037337Y0063463D01*
X0037362Y0063571D01*
X0037392Y0063678D01*
X0037425Y0063784D01*
X0037463Y0063889D01*
X0037504Y0063993D01*
X0037548Y0064095D01*
X0037597Y0064195D01*
X0037648Y0064293D01*
X0037704Y0064390D01*
X0037763Y0064484D01*
X0037825Y0064577D01*
X0037890Y0064667D01*
X0037959Y0064754D01*
X0038030Y0064840D01*
X0038105Y0064922D01*
X0038183Y0065002D01*
X0038263Y0065079D01*
X0038346Y0065153D01*
X0038432Y0065224D01*
X0038520Y0065291D01*
X0038611Y0065356D01*
X0038704Y0065417D01*
X0038799Y0065475D01*
X0038896Y0065530D01*
X0038995Y0065581D01*
X0039096Y0065628D01*
X0039198Y0065672D01*
X0039302Y0065712D01*
X0039407Y0065748D01*
X0039513Y0065781D01*
X0039621Y0065809D01*
X0039730Y0065834D01*
X0039839Y0065855D01*
X0039949Y0065872D01*
X0040059Y0065885D01*
X0040170Y0065894D01*
X0040282Y0065899D01*
X0040393Y0065900D01*
X0040504Y0065897D01*
X0040615Y0065890D01*
X0040726Y0065879D01*
X0040836Y0065864D01*
X0040946Y0065845D01*
X0041055Y0065822D01*
X0041163Y0065796D01*
X0041270Y0065765D01*
X0041376Y0065731D01*
X0041480Y0065692D01*
X0041583Y0065651D01*
X0041685Y0065605D01*
X0041785Y0065556D01*
X0041883Y0065503D01*
X0041979Y0065447D01*
X0042073Y0065387D01*
X0042165Y0065324D01*
X0042254Y0065258D01*
X0042341Y0065189D01*
X0042425Y0065116D01*
X0042507Y0065041D01*
X0042586Y0064962D01*
X0042663Y0064881D01*
X0042736Y0064797D01*
X0042806Y0064711D01*
X0042873Y0064622D01*
X0042937Y0064531D01*
X0042997Y0064438D01*
X0043054Y0064342D01*
X0043108Y0064244D01*
X0043158Y0064145D01*
X0043204Y0064044D01*
X0043247Y0063941D01*
X0043286Y0063837D01*
X0043322Y0063731D01*
X0043353Y0063625D01*
X0043381Y0063517D01*
X0043405Y0063408D01*
X0043425Y0063299D01*
X0043441Y0063189D01*
X0043453Y0063078D01*
X0043461Y0062967D01*
X0043465Y0062856D01*
X0043465Y0062744D01*
X0043461Y0062633D01*
X0043453Y0062522D01*
X0043441Y0062411D01*
X0043425Y0062301D01*
X0043405Y0062192D01*
X0043381Y0062083D01*
X0043353Y0061975D01*
X0043322Y0061869D01*
X0043286Y0061763D01*
X0043247Y0061659D01*
X0043204Y0061556D01*
X0043158Y0061455D01*
X0043108Y0061356D01*
X0043054Y0061258D01*
X0042997Y0061162D01*
X0042937Y0061069D01*
X0042873Y0060978D01*
X0042806Y0060889D01*
X0042736Y0060803D01*
X0042663Y0060719D01*
X0042586Y0060638D01*
X0042507Y0060559D01*
X0042425Y0060484D01*
X0042341Y0060411D01*
X0042254Y0060342D01*
X0042165Y0060276D01*
X0042073Y0060213D01*
X0041979Y0060153D01*
X0041883Y0060097D01*
X0041785Y0060044D01*
X0041685Y0059995D01*
X0041583Y0059949D01*
X0041480Y0059908D01*
X0041376Y0059869D01*
X0041270Y0059835D01*
X0041163Y0059804D01*
X0041055Y0059778D01*
X0040946Y0059755D01*
X0040836Y0059736D01*
X0040726Y0059721D01*
X0040615Y0059710D01*
X0040504Y0059703D01*
X0040393Y0059700D01*
X0040282Y0059701D01*
X0040170Y0059706D01*
X0040059Y0059715D01*
X0039949Y0059728D01*
X0039839Y0059745D01*
X0039730Y0059766D01*
X0039621Y0059791D01*
X0039513Y0059819D01*
X0039407Y0059852D01*
X0039302Y0059888D01*
X0039198Y0059928D01*
X0039096Y0059972D01*
X0038995Y0060019D01*
X0038896Y0060070D01*
X0038799Y0060125D01*
X0038704Y0060183D01*
X0038611Y0060244D01*
X0038520Y0060309D01*
X0038432Y0060376D01*
X0038346Y0060447D01*
X0038263Y0060521D01*
X0038183Y0060598D01*
X0038105Y0060678D01*
X0038030Y0060760D01*
X0037959Y0060846D01*
X0037890Y0060933D01*
X0037825Y0061023D01*
X0037763Y0061116D01*
X0037704Y0061210D01*
X0037648Y0061307D01*
X0037597Y0061405D01*
X0037548Y0061505D01*
X0037504Y0061607D01*
X0037463Y0061711D01*
X0037425Y0061816D01*
X0037392Y0061922D01*
X0037362Y0062029D01*
X0037337Y0062137D01*
X0037315Y0062246D01*
X0037297Y0062356D01*
X0037283Y0062467D01*
X0037273Y0062578D01*
X0037267Y0062689D01*
X0037265Y0062800D01*
X0034665Y0087800D02*
X0034667Y0087911D01*
X0034673Y0088022D01*
X0034683Y0088133D01*
X0034697Y0088244D01*
X0034715Y0088354D01*
X0034737Y0088463D01*
X0034762Y0088571D01*
X0034792Y0088678D01*
X0034825Y0088784D01*
X0034863Y0088889D01*
X0034904Y0088993D01*
X0034948Y0089095D01*
X0034997Y0089195D01*
X0035048Y0089293D01*
X0035104Y0089390D01*
X0035163Y0089484D01*
X0035225Y0089577D01*
X0035290Y0089667D01*
X0035359Y0089754D01*
X0035430Y0089840D01*
X0035505Y0089922D01*
X0035583Y0090002D01*
X0035663Y0090079D01*
X0035746Y0090153D01*
X0035832Y0090224D01*
X0035920Y0090291D01*
X0036011Y0090356D01*
X0036104Y0090417D01*
X0036199Y0090475D01*
X0036296Y0090530D01*
X0036395Y0090581D01*
X0036496Y0090628D01*
X0036598Y0090672D01*
X0036702Y0090712D01*
X0036807Y0090748D01*
X0036913Y0090781D01*
X0037021Y0090809D01*
X0037130Y0090834D01*
X0037239Y0090855D01*
X0037349Y0090872D01*
X0037459Y0090885D01*
X0037570Y0090894D01*
X0037682Y0090899D01*
X0037793Y0090900D01*
X0037904Y0090897D01*
X0038015Y0090890D01*
X0038126Y0090879D01*
X0038236Y0090864D01*
X0038346Y0090845D01*
X0038455Y0090822D01*
X0038563Y0090796D01*
X0038670Y0090765D01*
X0038776Y0090731D01*
X0038880Y0090692D01*
X0038983Y0090651D01*
X0039085Y0090605D01*
X0039185Y0090556D01*
X0039283Y0090503D01*
X0039379Y0090447D01*
X0039473Y0090387D01*
X0039565Y0090324D01*
X0039654Y0090258D01*
X0039741Y0090189D01*
X0039825Y0090116D01*
X0039907Y0090041D01*
X0039986Y0089962D01*
X0040063Y0089881D01*
X0040136Y0089797D01*
X0040206Y0089711D01*
X0040273Y0089622D01*
X0040337Y0089531D01*
X0040397Y0089438D01*
X0040454Y0089342D01*
X0040508Y0089244D01*
X0040558Y0089145D01*
X0040604Y0089044D01*
X0040647Y0088941D01*
X0040686Y0088837D01*
X0040722Y0088731D01*
X0040753Y0088625D01*
X0040781Y0088517D01*
X0040805Y0088408D01*
X0040825Y0088299D01*
X0040841Y0088189D01*
X0040853Y0088078D01*
X0040861Y0087967D01*
X0040865Y0087856D01*
X0040865Y0087744D01*
X0040861Y0087633D01*
X0040853Y0087522D01*
X0040841Y0087411D01*
X0040825Y0087301D01*
X0040805Y0087192D01*
X0040781Y0087083D01*
X0040753Y0086975D01*
X0040722Y0086869D01*
X0040686Y0086763D01*
X0040647Y0086659D01*
X0040604Y0086556D01*
X0040558Y0086455D01*
X0040508Y0086356D01*
X0040454Y0086258D01*
X0040397Y0086162D01*
X0040337Y0086069D01*
X0040273Y0085978D01*
X0040206Y0085889D01*
X0040136Y0085803D01*
X0040063Y0085719D01*
X0039986Y0085638D01*
X0039907Y0085559D01*
X0039825Y0085484D01*
X0039741Y0085411D01*
X0039654Y0085342D01*
X0039565Y0085276D01*
X0039473Y0085213D01*
X0039379Y0085153D01*
X0039283Y0085097D01*
X0039185Y0085044D01*
X0039085Y0084995D01*
X0038983Y0084949D01*
X0038880Y0084908D01*
X0038776Y0084869D01*
X0038670Y0084835D01*
X0038563Y0084804D01*
X0038455Y0084778D01*
X0038346Y0084755D01*
X0038236Y0084736D01*
X0038126Y0084721D01*
X0038015Y0084710D01*
X0037904Y0084703D01*
X0037793Y0084700D01*
X0037682Y0084701D01*
X0037570Y0084706D01*
X0037459Y0084715D01*
X0037349Y0084728D01*
X0037239Y0084745D01*
X0037130Y0084766D01*
X0037021Y0084791D01*
X0036913Y0084819D01*
X0036807Y0084852D01*
X0036702Y0084888D01*
X0036598Y0084928D01*
X0036496Y0084972D01*
X0036395Y0085019D01*
X0036296Y0085070D01*
X0036199Y0085125D01*
X0036104Y0085183D01*
X0036011Y0085244D01*
X0035920Y0085309D01*
X0035832Y0085376D01*
X0035746Y0085447D01*
X0035663Y0085521D01*
X0035583Y0085598D01*
X0035505Y0085678D01*
X0035430Y0085760D01*
X0035359Y0085846D01*
X0035290Y0085933D01*
X0035225Y0086023D01*
X0035163Y0086116D01*
X0035104Y0086210D01*
X0035048Y0086307D01*
X0034997Y0086405D01*
X0034948Y0086505D01*
X0034904Y0086607D01*
X0034863Y0086711D01*
X0034825Y0086816D01*
X0034792Y0086922D01*
X0034762Y0087029D01*
X0034737Y0087137D01*
X0034715Y0087246D01*
X0034697Y0087356D01*
X0034683Y0087467D01*
X0034673Y0087578D01*
X0034667Y0087689D01*
X0034665Y0087800D01*
X0067565Y0111800D02*
X0067567Y0111869D01*
X0067573Y0111937D01*
X0067583Y0112005D01*
X0067596Y0112072D01*
X0067614Y0112138D01*
X0067635Y0112203D01*
X0067660Y0112267D01*
X0067688Y0112329D01*
X0067720Y0112390D01*
X0067755Y0112449D01*
X0067794Y0112505D01*
X0067836Y0112560D01*
X0067881Y0112611D01*
X0067929Y0112661D01*
X0067979Y0112707D01*
X0068032Y0112750D01*
X0068088Y0112791D01*
X0068145Y0112828D01*
X0068205Y0112861D01*
X0068267Y0112892D01*
X0068330Y0112918D01*
X0068394Y0112941D01*
X0068460Y0112961D01*
X0068527Y0112976D01*
X0068594Y0112988D01*
X0068662Y0112996D01*
X0068731Y0113000D01*
X0068799Y0113000D01*
X0068868Y0112996D01*
X0068936Y0112988D01*
X0069003Y0112976D01*
X0069070Y0112961D01*
X0069136Y0112941D01*
X0069200Y0112918D01*
X0069263Y0112892D01*
X0069325Y0112861D01*
X0069385Y0112828D01*
X0069442Y0112791D01*
X0069498Y0112750D01*
X0069551Y0112707D01*
X0069601Y0112661D01*
X0069649Y0112611D01*
X0069694Y0112560D01*
X0069736Y0112505D01*
X0069775Y0112449D01*
X0069810Y0112390D01*
X0069842Y0112329D01*
X0069870Y0112267D01*
X0069895Y0112203D01*
X0069916Y0112138D01*
X0069934Y0112072D01*
X0069947Y0112005D01*
X0069957Y0111937D01*
X0069963Y0111869D01*
X0069965Y0111800D01*
X0095665Y0094800D02*
X0095667Y0094911D01*
X0095673Y0095022D01*
X0095683Y0095133D01*
X0095697Y0095244D01*
X0095715Y0095354D01*
X0095737Y0095463D01*
X0095762Y0095571D01*
X0095792Y0095678D01*
X0095825Y0095784D01*
X0095863Y0095889D01*
X0095904Y0095993D01*
X0095948Y0096095D01*
X0095997Y0096195D01*
X0096048Y0096293D01*
X0096104Y0096390D01*
X0096163Y0096484D01*
X0096225Y0096577D01*
X0096290Y0096667D01*
X0096359Y0096754D01*
X0096430Y0096840D01*
X0096505Y0096922D01*
X0096583Y0097002D01*
X0096663Y0097079D01*
X0096746Y0097153D01*
X0096832Y0097224D01*
X0096920Y0097291D01*
X0097011Y0097356D01*
X0097104Y0097417D01*
X0097199Y0097475D01*
X0097296Y0097530D01*
X0097395Y0097581D01*
X0097496Y0097628D01*
X0097598Y0097672D01*
X0097702Y0097712D01*
X0097807Y0097748D01*
X0097913Y0097781D01*
X0098021Y0097809D01*
X0098130Y0097834D01*
X0098239Y0097855D01*
X0098349Y0097872D01*
X0098459Y0097885D01*
X0098570Y0097894D01*
X0098682Y0097899D01*
X0098793Y0097900D01*
X0098904Y0097897D01*
X0099015Y0097890D01*
X0099126Y0097879D01*
X0099236Y0097864D01*
X0099346Y0097845D01*
X0099455Y0097822D01*
X0099563Y0097796D01*
X0099670Y0097765D01*
X0099776Y0097731D01*
X0099880Y0097692D01*
X0099983Y0097651D01*
X0100085Y0097605D01*
X0100185Y0097556D01*
X0100283Y0097503D01*
X0100379Y0097447D01*
X0100473Y0097387D01*
X0100565Y0097324D01*
X0100654Y0097258D01*
X0100741Y0097189D01*
X0100825Y0097116D01*
X0100907Y0097041D01*
X0100986Y0096962D01*
X0101063Y0096881D01*
X0101136Y0096797D01*
X0101206Y0096711D01*
X0101273Y0096622D01*
X0101337Y0096531D01*
X0101397Y0096438D01*
X0101454Y0096342D01*
X0101508Y0096244D01*
X0101558Y0096145D01*
X0101604Y0096044D01*
X0101647Y0095941D01*
X0101686Y0095837D01*
X0101722Y0095731D01*
X0101753Y0095625D01*
X0101781Y0095517D01*
X0101805Y0095408D01*
X0101825Y0095299D01*
X0101841Y0095189D01*
X0101853Y0095078D01*
X0101861Y0094967D01*
X0101865Y0094856D01*
X0101865Y0094744D01*
X0101861Y0094633D01*
X0101853Y0094522D01*
X0101841Y0094411D01*
X0101825Y0094301D01*
X0101805Y0094192D01*
X0101781Y0094083D01*
X0101753Y0093975D01*
X0101722Y0093869D01*
X0101686Y0093763D01*
X0101647Y0093659D01*
X0101604Y0093556D01*
X0101558Y0093455D01*
X0101508Y0093356D01*
X0101454Y0093258D01*
X0101397Y0093162D01*
X0101337Y0093069D01*
X0101273Y0092978D01*
X0101206Y0092889D01*
X0101136Y0092803D01*
X0101063Y0092719D01*
X0100986Y0092638D01*
X0100907Y0092559D01*
X0100825Y0092484D01*
X0100741Y0092411D01*
X0100654Y0092342D01*
X0100565Y0092276D01*
X0100473Y0092213D01*
X0100379Y0092153D01*
X0100283Y0092097D01*
X0100185Y0092044D01*
X0100085Y0091995D01*
X0099983Y0091949D01*
X0099880Y0091908D01*
X0099776Y0091869D01*
X0099670Y0091835D01*
X0099563Y0091804D01*
X0099455Y0091778D01*
X0099346Y0091755D01*
X0099236Y0091736D01*
X0099126Y0091721D01*
X0099015Y0091710D01*
X0098904Y0091703D01*
X0098793Y0091700D01*
X0098682Y0091701D01*
X0098570Y0091706D01*
X0098459Y0091715D01*
X0098349Y0091728D01*
X0098239Y0091745D01*
X0098130Y0091766D01*
X0098021Y0091791D01*
X0097913Y0091819D01*
X0097807Y0091852D01*
X0097702Y0091888D01*
X0097598Y0091928D01*
X0097496Y0091972D01*
X0097395Y0092019D01*
X0097296Y0092070D01*
X0097199Y0092125D01*
X0097104Y0092183D01*
X0097011Y0092244D01*
X0096920Y0092309D01*
X0096832Y0092376D01*
X0096746Y0092447D01*
X0096663Y0092521D01*
X0096583Y0092598D01*
X0096505Y0092678D01*
X0096430Y0092760D01*
X0096359Y0092846D01*
X0096290Y0092933D01*
X0096225Y0093023D01*
X0096163Y0093116D01*
X0096104Y0093210D01*
X0096048Y0093307D01*
X0095997Y0093405D01*
X0095948Y0093505D01*
X0095904Y0093607D01*
X0095863Y0093711D01*
X0095825Y0093816D01*
X0095792Y0093922D01*
X0095762Y0094029D01*
X0095737Y0094137D01*
X0095715Y0094246D01*
X0095697Y0094356D01*
X0095683Y0094467D01*
X0095673Y0094578D01*
X0095667Y0094689D01*
X0095665Y0094800D01*
X0122565Y0111800D02*
X0122567Y0111869D01*
X0122573Y0111937D01*
X0122583Y0112005D01*
X0122596Y0112072D01*
X0122614Y0112138D01*
X0122635Y0112203D01*
X0122660Y0112267D01*
X0122688Y0112329D01*
X0122720Y0112390D01*
X0122755Y0112449D01*
X0122794Y0112505D01*
X0122836Y0112560D01*
X0122881Y0112611D01*
X0122929Y0112661D01*
X0122979Y0112707D01*
X0123032Y0112750D01*
X0123088Y0112791D01*
X0123145Y0112828D01*
X0123205Y0112861D01*
X0123267Y0112892D01*
X0123330Y0112918D01*
X0123394Y0112941D01*
X0123460Y0112961D01*
X0123527Y0112976D01*
X0123594Y0112988D01*
X0123662Y0112996D01*
X0123731Y0113000D01*
X0123799Y0113000D01*
X0123868Y0112996D01*
X0123936Y0112988D01*
X0124003Y0112976D01*
X0124070Y0112961D01*
X0124136Y0112941D01*
X0124200Y0112918D01*
X0124263Y0112892D01*
X0124325Y0112861D01*
X0124385Y0112828D01*
X0124442Y0112791D01*
X0124498Y0112750D01*
X0124551Y0112707D01*
X0124601Y0112661D01*
X0124649Y0112611D01*
X0124694Y0112560D01*
X0124736Y0112505D01*
X0124775Y0112449D01*
X0124810Y0112390D01*
X0124842Y0112329D01*
X0124870Y0112267D01*
X0124895Y0112203D01*
X0124916Y0112138D01*
X0124934Y0112072D01*
X0124947Y0112005D01*
X0124957Y0111937D01*
X0124963Y0111869D01*
X0124965Y0111800D01*
X0124965Y0156800D02*
X0124963Y0156869D01*
X0124957Y0156937D01*
X0124947Y0157005D01*
X0124934Y0157072D01*
X0124916Y0157138D01*
X0124895Y0157203D01*
X0124870Y0157267D01*
X0124842Y0157329D01*
X0124810Y0157390D01*
X0124775Y0157449D01*
X0124736Y0157505D01*
X0124694Y0157560D01*
X0124649Y0157611D01*
X0124601Y0157661D01*
X0124551Y0157707D01*
X0124498Y0157750D01*
X0124442Y0157791D01*
X0124385Y0157828D01*
X0124325Y0157861D01*
X0124263Y0157892D01*
X0124200Y0157918D01*
X0124136Y0157941D01*
X0124070Y0157961D01*
X0124003Y0157976D01*
X0123936Y0157988D01*
X0123868Y0157996D01*
X0123799Y0158000D01*
X0123731Y0158000D01*
X0123662Y0157996D01*
X0123594Y0157988D01*
X0123527Y0157976D01*
X0123460Y0157961D01*
X0123394Y0157941D01*
X0123330Y0157918D01*
X0123267Y0157892D01*
X0123205Y0157861D01*
X0123145Y0157828D01*
X0123088Y0157791D01*
X0123032Y0157750D01*
X0122979Y0157707D01*
X0122929Y0157661D01*
X0122881Y0157611D01*
X0122836Y0157560D01*
X0122794Y0157505D01*
X0122755Y0157449D01*
X0122720Y0157390D01*
X0122688Y0157329D01*
X0122660Y0157267D01*
X0122635Y0157203D01*
X0122614Y0157138D01*
X0122596Y0157072D01*
X0122583Y0157005D01*
X0122573Y0156937D01*
X0122567Y0156869D01*
X0122565Y0156800D01*
X0069965Y0156800D02*
X0069963Y0156869D01*
X0069957Y0156937D01*
X0069947Y0157005D01*
X0069934Y0157072D01*
X0069916Y0157138D01*
X0069895Y0157203D01*
X0069870Y0157267D01*
X0069842Y0157329D01*
X0069810Y0157390D01*
X0069775Y0157449D01*
X0069736Y0157505D01*
X0069694Y0157560D01*
X0069649Y0157611D01*
X0069601Y0157661D01*
X0069551Y0157707D01*
X0069498Y0157750D01*
X0069442Y0157791D01*
X0069385Y0157828D01*
X0069325Y0157861D01*
X0069263Y0157892D01*
X0069200Y0157918D01*
X0069136Y0157941D01*
X0069070Y0157961D01*
X0069003Y0157976D01*
X0068936Y0157988D01*
X0068868Y0157996D01*
X0068799Y0158000D01*
X0068731Y0158000D01*
X0068662Y0157996D01*
X0068594Y0157988D01*
X0068527Y0157976D01*
X0068460Y0157961D01*
X0068394Y0157941D01*
X0068330Y0157918D01*
X0068267Y0157892D01*
X0068205Y0157861D01*
X0068145Y0157828D01*
X0068088Y0157791D01*
X0068032Y0157750D01*
X0067979Y0157707D01*
X0067929Y0157661D01*
X0067881Y0157611D01*
X0067836Y0157560D01*
X0067794Y0157505D01*
X0067755Y0157449D01*
X0067720Y0157390D01*
X0067688Y0157329D01*
X0067660Y0157267D01*
X0067635Y0157203D01*
X0067614Y0157138D01*
X0067596Y0157072D01*
X0067583Y0157005D01*
X0067573Y0156937D01*
X0067567Y0156869D01*
X0067565Y0156800D01*
X0205665Y0094800D02*
X0205667Y0094911D01*
X0205673Y0095022D01*
X0205683Y0095133D01*
X0205697Y0095244D01*
X0205715Y0095354D01*
X0205737Y0095463D01*
X0205762Y0095571D01*
X0205792Y0095678D01*
X0205825Y0095784D01*
X0205863Y0095889D01*
X0205904Y0095993D01*
X0205948Y0096095D01*
X0205997Y0096195D01*
X0206048Y0096293D01*
X0206104Y0096390D01*
X0206163Y0096484D01*
X0206225Y0096577D01*
X0206290Y0096667D01*
X0206359Y0096754D01*
X0206430Y0096840D01*
X0206505Y0096922D01*
X0206583Y0097002D01*
X0206663Y0097079D01*
X0206746Y0097153D01*
X0206832Y0097224D01*
X0206920Y0097291D01*
X0207011Y0097356D01*
X0207104Y0097417D01*
X0207199Y0097475D01*
X0207296Y0097530D01*
X0207395Y0097581D01*
X0207496Y0097628D01*
X0207598Y0097672D01*
X0207702Y0097712D01*
X0207807Y0097748D01*
X0207913Y0097781D01*
X0208021Y0097809D01*
X0208130Y0097834D01*
X0208239Y0097855D01*
X0208349Y0097872D01*
X0208459Y0097885D01*
X0208570Y0097894D01*
X0208682Y0097899D01*
X0208793Y0097900D01*
X0208904Y0097897D01*
X0209015Y0097890D01*
X0209126Y0097879D01*
X0209236Y0097864D01*
X0209346Y0097845D01*
X0209455Y0097822D01*
X0209563Y0097796D01*
X0209670Y0097765D01*
X0209776Y0097731D01*
X0209880Y0097692D01*
X0209983Y0097651D01*
X0210085Y0097605D01*
X0210185Y0097556D01*
X0210283Y0097503D01*
X0210379Y0097447D01*
X0210473Y0097387D01*
X0210565Y0097324D01*
X0210654Y0097258D01*
X0210741Y0097189D01*
X0210825Y0097116D01*
X0210907Y0097041D01*
X0210986Y0096962D01*
X0211063Y0096881D01*
X0211136Y0096797D01*
X0211206Y0096711D01*
X0211273Y0096622D01*
X0211337Y0096531D01*
X0211397Y0096438D01*
X0211454Y0096342D01*
X0211508Y0096244D01*
X0211558Y0096145D01*
X0211604Y0096044D01*
X0211647Y0095941D01*
X0211686Y0095837D01*
X0211722Y0095731D01*
X0211753Y0095625D01*
X0211781Y0095517D01*
X0211805Y0095408D01*
X0211825Y0095299D01*
X0211841Y0095189D01*
X0211853Y0095078D01*
X0211861Y0094967D01*
X0211865Y0094856D01*
X0211865Y0094744D01*
X0211861Y0094633D01*
X0211853Y0094522D01*
X0211841Y0094411D01*
X0211825Y0094301D01*
X0211805Y0094192D01*
X0211781Y0094083D01*
X0211753Y0093975D01*
X0211722Y0093869D01*
X0211686Y0093763D01*
X0211647Y0093659D01*
X0211604Y0093556D01*
X0211558Y0093455D01*
X0211508Y0093356D01*
X0211454Y0093258D01*
X0211397Y0093162D01*
X0211337Y0093069D01*
X0211273Y0092978D01*
X0211206Y0092889D01*
X0211136Y0092803D01*
X0211063Y0092719D01*
X0210986Y0092638D01*
X0210907Y0092559D01*
X0210825Y0092484D01*
X0210741Y0092411D01*
X0210654Y0092342D01*
X0210565Y0092276D01*
X0210473Y0092213D01*
X0210379Y0092153D01*
X0210283Y0092097D01*
X0210185Y0092044D01*
X0210085Y0091995D01*
X0209983Y0091949D01*
X0209880Y0091908D01*
X0209776Y0091869D01*
X0209670Y0091835D01*
X0209563Y0091804D01*
X0209455Y0091778D01*
X0209346Y0091755D01*
X0209236Y0091736D01*
X0209126Y0091721D01*
X0209015Y0091710D01*
X0208904Y0091703D01*
X0208793Y0091700D01*
X0208682Y0091701D01*
X0208570Y0091706D01*
X0208459Y0091715D01*
X0208349Y0091728D01*
X0208239Y0091745D01*
X0208130Y0091766D01*
X0208021Y0091791D01*
X0207913Y0091819D01*
X0207807Y0091852D01*
X0207702Y0091888D01*
X0207598Y0091928D01*
X0207496Y0091972D01*
X0207395Y0092019D01*
X0207296Y0092070D01*
X0207199Y0092125D01*
X0207104Y0092183D01*
X0207011Y0092244D01*
X0206920Y0092309D01*
X0206832Y0092376D01*
X0206746Y0092447D01*
X0206663Y0092521D01*
X0206583Y0092598D01*
X0206505Y0092678D01*
X0206430Y0092760D01*
X0206359Y0092846D01*
X0206290Y0092933D01*
X0206225Y0093023D01*
X0206163Y0093116D01*
X0206104Y0093210D01*
X0206048Y0093307D01*
X0205997Y0093405D01*
X0205948Y0093505D01*
X0205904Y0093607D01*
X0205863Y0093711D01*
X0205825Y0093816D01*
X0205792Y0093922D01*
X0205762Y0094029D01*
X0205737Y0094137D01*
X0205715Y0094246D01*
X0205697Y0094356D01*
X0205683Y0094467D01*
X0205673Y0094578D01*
X0205667Y0094689D01*
X0205665Y0094800D01*
X0315665Y0094800D02*
X0315667Y0094911D01*
X0315673Y0095022D01*
X0315683Y0095133D01*
X0315697Y0095244D01*
X0315715Y0095354D01*
X0315737Y0095463D01*
X0315762Y0095571D01*
X0315792Y0095678D01*
X0315825Y0095784D01*
X0315863Y0095889D01*
X0315904Y0095993D01*
X0315948Y0096095D01*
X0315997Y0096195D01*
X0316048Y0096293D01*
X0316104Y0096390D01*
X0316163Y0096484D01*
X0316225Y0096577D01*
X0316290Y0096667D01*
X0316359Y0096754D01*
X0316430Y0096840D01*
X0316505Y0096922D01*
X0316583Y0097002D01*
X0316663Y0097079D01*
X0316746Y0097153D01*
X0316832Y0097224D01*
X0316920Y0097291D01*
X0317011Y0097356D01*
X0317104Y0097417D01*
X0317199Y0097475D01*
X0317296Y0097530D01*
X0317395Y0097581D01*
X0317496Y0097628D01*
X0317598Y0097672D01*
X0317702Y0097712D01*
X0317807Y0097748D01*
X0317913Y0097781D01*
X0318021Y0097809D01*
X0318130Y0097834D01*
X0318239Y0097855D01*
X0318349Y0097872D01*
X0318459Y0097885D01*
X0318570Y0097894D01*
X0318682Y0097899D01*
X0318793Y0097900D01*
X0318904Y0097897D01*
X0319015Y0097890D01*
X0319126Y0097879D01*
X0319236Y0097864D01*
X0319346Y0097845D01*
X0319455Y0097822D01*
X0319563Y0097796D01*
X0319670Y0097765D01*
X0319776Y0097731D01*
X0319880Y0097692D01*
X0319983Y0097651D01*
X0320085Y0097605D01*
X0320185Y0097556D01*
X0320283Y0097503D01*
X0320379Y0097447D01*
X0320473Y0097387D01*
X0320565Y0097324D01*
X0320654Y0097258D01*
X0320741Y0097189D01*
X0320825Y0097116D01*
X0320907Y0097041D01*
X0320986Y0096962D01*
X0321063Y0096881D01*
X0321136Y0096797D01*
X0321206Y0096711D01*
X0321273Y0096622D01*
X0321337Y0096531D01*
X0321397Y0096438D01*
X0321454Y0096342D01*
X0321508Y0096244D01*
X0321558Y0096145D01*
X0321604Y0096044D01*
X0321647Y0095941D01*
X0321686Y0095837D01*
X0321722Y0095731D01*
X0321753Y0095625D01*
X0321781Y0095517D01*
X0321805Y0095408D01*
X0321825Y0095299D01*
X0321841Y0095189D01*
X0321853Y0095078D01*
X0321861Y0094967D01*
X0321865Y0094856D01*
X0321865Y0094744D01*
X0321861Y0094633D01*
X0321853Y0094522D01*
X0321841Y0094411D01*
X0321825Y0094301D01*
X0321805Y0094192D01*
X0321781Y0094083D01*
X0321753Y0093975D01*
X0321722Y0093869D01*
X0321686Y0093763D01*
X0321647Y0093659D01*
X0321604Y0093556D01*
X0321558Y0093455D01*
X0321508Y0093356D01*
X0321454Y0093258D01*
X0321397Y0093162D01*
X0321337Y0093069D01*
X0321273Y0092978D01*
X0321206Y0092889D01*
X0321136Y0092803D01*
X0321063Y0092719D01*
X0320986Y0092638D01*
X0320907Y0092559D01*
X0320825Y0092484D01*
X0320741Y0092411D01*
X0320654Y0092342D01*
X0320565Y0092276D01*
X0320473Y0092213D01*
X0320379Y0092153D01*
X0320283Y0092097D01*
X0320185Y0092044D01*
X0320085Y0091995D01*
X0319983Y0091949D01*
X0319880Y0091908D01*
X0319776Y0091869D01*
X0319670Y0091835D01*
X0319563Y0091804D01*
X0319455Y0091778D01*
X0319346Y0091755D01*
X0319236Y0091736D01*
X0319126Y0091721D01*
X0319015Y0091710D01*
X0318904Y0091703D01*
X0318793Y0091700D01*
X0318682Y0091701D01*
X0318570Y0091706D01*
X0318459Y0091715D01*
X0318349Y0091728D01*
X0318239Y0091745D01*
X0318130Y0091766D01*
X0318021Y0091791D01*
X0317913Y0091819D01*
X0317807Y0091852D01*
X0317702Y0091888D01*
X0317598Y0091928D01*
X0317496Y0091972D01*
X0317395Y0092019D01*
X0317296Y0092070D01*
X0317199Y0092125D01*
X0317104Y0092183D01*
X0317011Y0092244D01*
X0316920Y0092309D01*
X0316832Y0092376D01*
X0316746Y0092447D01*
X0316663Y0092521D01*
X0316583Y0092598D01*
X0316505Y0092678D01*
X0316430Y0092760D01*
X0316359Y0092846D01*
X0316290Y0092933D01*
X0316225Y0093023D01*
X0316163Y0093116D01*
X0316104Y0093210D01*
X0316048Y0093307D01*
X0315997Y0093405D01*
X0315948Y0093505D01*
X0315904Y0093607D01*
X0315863Y0093711D01*
X0315825Y0093816D01*
X0315792Y0093922D01*
X0315762Y0094029D01*
X0315737Y0094137D01*
X0315715Y0094246D01*
X0315697Y0094356D01*
X0315683Y0094467D01*
X0315673Y0094578D01*
X0315667Y0094689D01*
X0315665Y0094800D01*
X0371465Y0049900D02*
X0371467Y0050011D01*
X0371473Y0050122D01*
X0371483Y0050233D01*
X0371497Y0050344D01*
X0371515Y0050454D01*
X0371537Y0050563D01*
X0371562Y0050671D01*
X0371592Y0050778D01*
X0371625Y0050884D01*
X0371663Y0050989D01*
X0371704Y0051093D01*
X0371748Y0051195D01*
X0371797Y0051295D01*
X0371848Y0051393D01*
X0371904Y0051490D01*
X0371963Y0051584D01*
X0372025Y0051677D01*
X0372090Y0051767D01*
X0372159Y0051854D01*
X0372230Y0051940D01*
X0372305Y0052022D01*
X0372383Y0052102D01*
X0372463Y0052179D01*
X0372546Y0052253D01*
X0372632Y0052324D01*
X0372720Y0052391D01*
X0372811Y0052456D01*
X0372904Y0052517D01*
X0372999Y0052575D01*
X0373096Y0052630D01*
X0373195Y0052681D01*
X0373296Y0052728D01*
X0373398Y0052772D01*
X0373502Y0052812D01*
X0373607Y0052848D01*
X0373713Y0052881D01*
X0373821Y0052909D01*
X0373930Y0052934D01*
X0374039Y0052955D01*
X0374149Y0052972D01*
X0374259Y0052985D01*
X0374370Y0052994D01*
X0374482Y0052999D01*
X0374593Y0053000D01*
X0374704Y0052997D01*
X0374815Y0052990D01*
X0374926Y0052979D01*
X0375036Y0052964D01*
X0375146Y0052945D01*
X0375255Y0052922D01*
X0375363Y0052896D01*
X0375470Y0052865D01*
X0375576Y0052831D01*
X0375680Y0052792D01*
X0375783Y0052751D01*
X0375885Y0052705D01*
X0375985Y0052656D01*
X0376083Y0052603D01*
X0376179Y0052547D01*
X0376273Y0052487D01*
X0376365Y0052424D01*
X0376454Y0052358D01*
X0376541Y0052289D01*
X0376625Y0052216D01*
X0376707Y0052141D01*
X0376786Y0052062D01*
X0376863Y0051981D01*
X0376936Y0051897D01*
X0377006Y0051811D01*
X0377073Y0051722D01*
X0377137Y0051631D01*
X0377197Y0051538D01*
X0377254Y0051442D01*
X0377308Y0051344D01*
X0377358Y0051245D01*
X0377404Y0051144D01*
X0377447Y0051041D01*
X0377486Y0050937D01*
X0377522Y0050831D01*
X0377553Y0050725D01*
X0377581Y0050617D01*
X0377605Y0050508D01*
X0377625Y0050399D01*
X0377641Y0050289D01*
X0377653Y0050178D01*
X0377661Y0050067D01*
X0377665Y0049956D01*
X0377665Y0049844D01*
X0377661Y0049733D01*
X0377653Y0049622D01*
X0377641Y0049511D01*
X0377625Y0049401D01*
X0377605Y0049292D01*
X0377581Y0049183D01*
X0377553Y0049075D01*
X0377522Y0048969D01*
X0377486Y0048863D01*
X0377447Y0048759D01*
X0377404Y0048656D01*
X0377358Y0048555D01*
X0377308Y0048456D01*
X0377254Y0048358D01*
X0377197Y0048262D01*
X0377137Y0048169D01*
X0377073Y0048078D01*
X0377006Y0047989D01*
X0376936Y0047903D01*
X0376863Y0047819D01*
X0376786Y0047738D01*
X0376707Y0047659D01*
X0376625Y0047584D01*
X0376541Y0047511D01*
X0376454Y0047442D01*
X0376365Y0047376D01*
X0376273Y0047313D01*
X0376179Y0047253D01*
X0376083Y0047197D01*
X0375985Y0047144D01*
X0375885Y0047095D01*
X0375783Y0047049D01*
X0375680Y0047008D01*
X0375576Y0046969D01*
X0375470Y0046935D01*
X0375363Y0046904D01*
X0375255Y0046878D01*
X0375146Y0046855D01*
X0375036Y0046836D01*
X0374926Y0046821D01*
X0374815Y0046810D01*
X0374704Y0046803D01*
X0374593Y0046800D01*
X0374482Y0046801D01*
X0374370Y0046806D01*
X0374259Y0046815D01*
X0374149Y0046828D01*
X0374039Y0046845D01*
X0373930Y0046866D01*
X0373821Y0046891D01*
X0373713Y0046919D01*
X0373607Y0046952D01*
X0373502Y0046988D01*
X0373398Y0047028D01*
X0373296Y0047072D01*
X0373195Y0047119D01*
X0373096Y0047170D01*
X0372999Y0047225D01*
X0372904Y0047283D01*
X0372811Y0047344D01*
X0372720Y0047409D01*
X0372632Y0047476D01*
X0372546Y0047547D01*
X0372463Y0047621D01*
X0372383Y0047698D01*
X0372305Y0047778D01*
X0372230Y0047860D01*
X0372159Y0047946D01*
X0372090Y0048033D01*
X0372025Y0048123D01*
X0371963Y0048216D01*
X0371904Y0048310D01*
X0371848Y0048407D01*
X0371797Y0048505D01*
X0371748Y0048605D01*
X0371704Y0048707D01*
X0371663Y0048811D01*
X0371625Y0048916D01*
X0371592Y0049022D01*
X0371562Y0049129D01*
X0371537Y0049237D01*
X0371515Y0049346D01*
X0371497Y0049456D01*
X0371483Y0049567D01*
X0371473Y0049678D01*
X0371467Y0049789D01*
X0371465Y0049900D01*
X0376665Y0071600D02*
X0376667Y0071711D01*
X0376673Y0071822D01*
X0376683Y0071933D01*
X0376697Y0072044D01*
X0376715Y0072154D01*
X0376737Y0072263D01*
X0376762Y0072371D01*
X0376792Y0072478D01*
X0376825Y0072584D01*
X0376863Y0072689D01*
X0376904Y0072793D01*
X0376948Y0072895D01*
X0376997Y0072995D01*
X0377048Y0073093D01*
X0377104Y0073190D01*
X0377163Y0073284D01*
X0377225Y0073377D01*
X0377290Y0073467D01*
X0377359Y0073554D01*
X0377430Y0073640D01*
X0377505Y0073722D01*
X0377583Y0073802D01*
X0377663Y0073879D01*
X0377746Y0073953D01*
X0377832Y0074024D01*
X0377920Y0074091D01*
X0378011Y0074156D01*
X0378104Y0074217D01*
X0378199Y0074275D01*
X0378296Y0074330D01*
X0378395Y0074381D01*
X0378496Y0074428D01*
X0378598Y0074472D01*
X0378702Y0074512D01*
X0378807Y0074548D01*
X0378913Y0074581D01*
X0379021Y0074609D01*
X0379130Y0074634D01*
X0379239Y0074655D01*
X0379349Y0074672D01*
X0379459Y0074685D01*
X0379570Y0074694D01*
X0379682Y0074699D01*
X0379793Y0074700D01*
X0379904Y0074697D01*
X0380015Y0074690D01*
X0380126Y0074679D01*
X0380236Y0074664D01*
X0380346Y0074645D01*
X0380455Y0074622D01*
X0380563Y0074596D01*
X0380670Y0074565D01*
X0380776Y0074531D01*
X0380880Y0074492D01*
X0380983Y0074451D01*
X0381085Y0074405D01*
X0381185Y0074356D01*
X0381283Y0074303D01*
X0381379Y0074247D01*
X0381473Y0074187D01*
X0381565Y0074124D01*
X0381654Y0074058D01*
X0381741Y0073989D01*
X0381825Y0073916D01*
X0381907Y0073841D01*
X0381986Y0073762D01*
X0382063Y0073681D01*
X0382136Y0073597D01*
X0382206Y0073511D01*
X0382273Y0073422D01*
X0382337Y0073331D01*
X0382397Y0073238D01*
X0382454Y0073142D01*
X0382508Y0073044D01*
X0382558Y0072945D01*
X0382604Y0072844D01*
X0382647Y0072741D01*
X0382686Y0072637D01*
X0382722Y0072531D01*
X0382753Y0072425D01*
X0382781Y0072317D01*
X0382805Y0072208D01*
X0382825Y0072099D01*
X0382841Y0071989D01*
X0382853Y0071878D01*
X0382861Y0071767D01*
X0382865Y0071656D01*
X0382865Y0071544D01*
X0382861Y0071433D01*
X0382853Y0071322D01*
X0382841Y0071211D01*
X0382825Y0071101D01*
X0382805Y0070992D01*
X0382781Y0070883D01*
X0382753Y0070775D01*
X0382722Y0070669D01*
X0382686Y0070563D01*
X0382647Y0070459D01*
X0382604Y0070356D01*
X0382558Y0070255D01*
X0382508Y0070156D01*
X0382454Y0070058D01*
X0382397Y0069962D01*
X0382337Y0069869D01*
X0382273Y0069778D01*
X0382206Y0069689D01*
X0382136Y0069603D01*
X0382063Y0069519D01*
X0381986Y0069438D01*
X0381907Y0069359D01*
X0381825Y0069284D01*
X0381741Y0069211D01*
X0381654Y0069142D01*
X0381565Y0069076D01*
X0381473Y0069013D01*
X0381379Y0068953D01*
X0381283Y0068897D01*
X0381185Y0068844D01*
X0381085Y0068795D01*
X0380983Y0068749D01*
X0380880Y0068708D01*
X0380776Y0068669D01*
X0380670Y0068635D01*
X0380563Y0068604D01*
X0380455Y0068578D01*
X0380346Y0068555D01*
X0380236Y0068536D01*
X0380126Y0068521D01*
X0380015Y0068510D01*
X0379904Y0068503D01*
X0379793Y0068500D01*
X0379682Y0068501D01*
X0379570Y0068506D01*
X0379459Y0068515D01*
X0379349Y0068528D01*
X0379239Y0068545D01*
X0379130Y0068566D01*
X0379021Y0068591D01*
X0378913Y0068619D01*
X0378807Y0068652D01*
X0378702Y0068688D01*
X0378598Y0068728D01*
X0378496Y0068772D01*
X0378395Y0068819D01*
X0378296Y0068870D01*
X0378199Y0068925D01*
X0378104Y0068983D01*
X0378011Y0069044D01*
X0377920Y0069109D01*
X0377832Y0069176D01*
X0377746Y0069247D01*
X0377663Y0069321D01*
X0377583Y0069398D01*
X0377505Y0069478D01*
X0377430Y0069560D01*
X0377359Y0069646D01*
X0377290Y0069733D01*
X0377225Y0069823D01*
X0377163Y0069916D01*
X0377104Y0070010D01*
X0377048Y0070107D01*
X0376997Y0070205D01*
X0376948Y0070305D01*
X0376904Y0070407D01*
X0376863Y0070511D01*
X0376825Y0070616D01*
X0376792Y0070722D01*
X0376762Y0070829D01*
X0376737Y0070937D01*
X0376715Y0071046D01*
X0376697Y0071156D01*
X0376683Y0071267D01*
X0376673Y0071378D01*
X0376667Y0071489D01*
X0376665Y0071600D01*
X0362165Y0026800D02*
X0362167Y0026962D01*
X0362173Y0027124D01*
X0362183Y0027286D01*
X0362197Y0027447D01*
X0362215Y0027608D01*
X0362236Y0027768D01*
X0362262Y0027928D01*
X0362292Y0028088D01*
X0362325Y0028246D01*
X0362363Y0028404D01*
X0362404Y0028560D01*
X0362449Y0028716D01*
X0362498Y0028870D01*
X0362551Y0029023D01*
X0362607Y0029175D01*
X0362667Y0029326D01*
X0362731Y0029475D01*
X0362799Y0029622D01*
X0362870Y0029767D01*
X0362944Y0029911D01*
X0363022Y0030053D01*
X0363104Y0030193D01*
X0363189Y0030331D01*
X0363277Y0030467D01*
X0363369Y0030600D01*
X0363464Y0030732D01*
X0363562Y0030861D01*
X0363663Y0030987D01*
X0363767Y0031111D01*
X0363875Y0031232D01*
X0363985Y0031351D01*
X0364098Y0031467D01*
X0364214Y0031580D01*
X0364333Y0031690D01*
X0364454Y0031798D01*
X0364578Y0031902D01*
X0364704Y0032003D01*
X0364833Y0032101D01*
X0364965Y0032196D01*
X0365098Y0032288D01*
X0365234Y0032376D01*
X0365372Y0032461D01*
X0365512Y0032543D01*
X0365654Y0032621D01*
X0365798Y0032695D01*
X0365943Y0032766D01*
X0366090Y0032834D01*
X0366239Y0032898D01*
X0366390Y0032958D01*
X0366542Y0033014D01*
X0366695Y0033067D01*
X0366849Y0033116D01*
X0367005Y0033161D01*
X0367161Y0033202D01*
X0367319Y0033240D01*
X0367477Y0033273D01*
X0367637Y0033303D01*
X0367797Y0033329D01*
X0367957Y0033350D01*
X0368118Y0033368D01*
X0368279Y0033382D01*
X0368441Y0033392D01*
X0368603Y0033398D01*
X0368765Y0033400D01*
X0368927Y0033398D01*
X0369089Y0033392D01*
X0369251Y0033382D01*
X0369412Y0033368D01*
X0369573Y0033350D01*
X0369733Y0033329D01*
X0369893Y0033303D01*
X0370053Y0033273D01*
X0370211Y0033240D01*
X0370369Y0033202D01*
X0370525Y0033161D01*
X0370681Y0033116D01*
X0370835Y0033067D01*
X0370988Y0033014D01*
X0371140Y0032958D01*
X0371291Y0032898D01*
X0371440Y0032834D01*
X0371587Y0032766D01*
X0371732Y0032695D01*
X0371876Y0032621D01*
X0372018Y0032543D01*
X0372158Y0032461D01*
X0372296Y0032376D01*
X0372432Y0032288D01*
X0372565Y0032196D01*
X0372697Y0032101D01*
X0372826Y0032003D01*
X0372952Y0031902D01*
X0373076Y0031798D01*
X0373197Y0031690D01*
X0373316Y0031580D01*
X0373432Y0031467D01*
X0373545Y0031351D01*
X0373655Y0031232D01*
X0373763Y0031111D01*
X0373867Y0030987D01*
X0373968Y0030861D01*
X0374066Y0030732D01*
X0374161Y0030600D01*
X0374253Y0030467D01*
X0374341Y0030331D01*
X0374426Y0030193D01*
X0374508Y0030053D01*
X0374586Y0029911D01*
X0374660Y0029767D01*
X0374731Y0029622D01*
X0374799Y0029475D01*
X0374863Y0029326D01*
X0374923Y0029175D01*
X0374979Y0029023D01*
X0375032Y0028870D01*
X0375081Y0028716D01*
X0375126Y0028560D01*
X0375167Y0028404D01*
X0375205Y0028246D01*
X0375238Y0028088D01*
X0375268Y0027928D01*
X0375294Y0027768D01*
X0375315Y0027608D01*
X0375333Y0027447D01*
X0375347Y0027286D01*
X0375357Y0027124D01*
X0375363Y0026962D01*
X0375365Y0026800D01*
X0375363Y0026638D01*
X0375357Y0026476D01*
X0375347Y0026314D01*
X0375333Y0026153D01*
X0375315Y0025992D01*
X0375294Y0025832D01*
X0375268Y0025672D01*
X0375238Y0025512D01*
X0375205Y0025354D01*
X0375167Y0025196D01*
X0375126Y0025040D01*
X0375081Y0024884D01*
X0375032Y0024730D01*
X0374979Y0024577D01*
X0374923Y0024425D01*
X0374863Y0024274D01*
X0374799Y0024125D01*
X0374731Y0023978D01*
X0374660Y0023833D01*
X0374586Y0023689D01*
X0374508Y0023547D01*
X0374426Y0023407D01*
X0374341Y0023269D01*
X0374253Y0023133D01*
X0374161Y0023000D01*
X0374066Y0022868D01*
X0373968Y0022739D01*
X0373867Y0022613D01*
X0373763Y0022489D01*
X0373655Y0022368D01*
X0373545Y0022249D01*
X0373432Y0022133D01*
X0373316Y0022020D01*
X0373197Y0021910D01*
X0373076Y0021802D01*
X0372952Y0021698D01*
X0372826Y0021597D01*
X0372697Y0021499D01*
X0372565Y0021404D01*
X0372432Y0021312D01*
X0372296Y0021224D01*
X0372158Y0021139D01*
X0372018Y0021057D01*
X0371876Y0020979D01*
X0371732Y0020905D01*
X0371587Y0020834D01*
X0371440Y0020766D01*
X0371291Y0020702D01*
X0371140Y0020642D01*
X0370988Y0020586D01*
X0370835Y0020533D01*
X0370681Y0020484D01*
X0370525Y0020439D01*
X0370369Y0020398D01*
X0370211Y0020360D01*
X0370053Y0020327D01*
X0369893Y0020297D01*
X0369733Y0020271D01*
X0369573Y0020250D01*
X0369412Y0020232D01*
X0369251Y0020218D01*
X0369089Y0020208D01*
X0368927Y0020202D01*
X0368765Y0020200D01*
X0368603Y0020202D01*
X0368441Y0020208D01*
X0368279Y0020218D01*
X0368118Y0020232D01*
X0367957Y0020250D01*
X0367797Y0020271D01*
X0367637Y0020297D01*
X0367477Y0020327D01*
X0367319Y0020360D01*
X0367161Y0020398D01*
X0367005Y0020439D01*
X0366849Y0020484D01*
X0366695Y0020533D01*
X0366542Y0020586D01*
X0366390Y0020642D01*
X0366239Y0020702D01*
X0366090Y0020766D01*
X0365943Y0020834D01*
X0365798Y0020905D01*
X0365654Y0020979D01*
X0365512Y0021057D01*
X0365372Y0021139D01*
X0365234Y0021224D01*
X0365098Y0021312D01*
X0364965Y0021404D01*
X0364833Y0021499D01*
X0364704Y0021597D01*
X0364578Y0021698D01*
X0364454Y0021802D01*
X0364333Y0021910D01*
X0364214Y0022020D01*
X0364098Y0022133D01*
X0363985Y0022249D01*
X0363875Y0022368D01*
X0363767Y0022489D01*
X0363663Y0022613D01*
X0363562Y0022739D01*
X0363464Y0022868D01*
X0363369Y0023000D01*
X0363277Y0023133D01*
X0363189Y0023269D01*
X0363104Y0023407D01*
X0363022Y0023547D01*
X0362944Y0023689D01*
X0362870Y0023833D01*
X0362799Y0023978D01*
X0362731Y0024125D01*
X0362667Y0024274D01*
X0362607Y0024425D01*
X0362551Y0024577D01*
X0362498Y0024730D01*
X0362449Y0024884D01*
X0362404Y0025040D01*
X0362363Y0025196D01*
X0362325Y0025354D01*
X0362292Y0025512D01*
X0362262Y0025672D01*
X0362236Y0025832D01*
X0362215Y0025992D01*
X0362197Y0026153D01*
X0362183Y0026314D01*
X0362173Y0026476D01*
X0362167Y0026638D01*
X0362165Y0026800D01*
X0376665Y0008800D02*
X0376667Y0008911D01*
X0376673Y0009022D01*
X0376683Y0009133D01*
X0376697Y0009244D01*
X0376715Y0009354D01*
X0376737Y0009463D01*
X0376762Y0009571D01*
X0376792Y0009678D01*
X0376825Y0009784D01*
X0376863Y0009889D01*
X0376904Y0009993D01*
X0376948Y0010095D01*
X0376997Y0010195D01*
X0377048Y0010293D01*
X0377104Y0010390D01*
X0377163Y0010484D01*
X0377225Y0010577D01*
X0377290Y0010667D01*
X0377359Y0010754D01*
X0377430Y0010840D01*
X0377505Y0010922D01*
X0377583Y0011002D01*
X0377663Y0011079D01*
X0377746Y0011153D01*
X0377832Y0011224D01*
X0377920Y0011291D01*
X0378011Y0011356D01*
X0378104Y0011417D01*
X0378199Y0011475D01*
X0378296Y0011530D01*
X0378395Y0011581D01*
X0378496Y0011628D01*
X0378598Y0011672D01*
X0378702Y0011712D01*
X0378807Y0011748D01*
X0378913Y0011781D01*
X0379021Y0011809D01*
X0379130Y0011834D01*
X0379239Y0011855D01*
X0379349Y0011872D01*
X0379459Y0011885D01*
X0379570Y0011894D01*
X0379682Y0011899D01*
X0379793Y0011900D01*
X0379904Y0011897D01*
X0380015Y0011890D01*
X0380126Y0011879D01*
X0380236Y0011864D01*
X0380346Y0011845D01*
X0380455Y0011822D01*
X0380563Y0011796D01*
X0380670Y0011765D01*
X0380776Y0011731D01*
X0380880Y0011692D01*
X0380983Y0011651D01*
X0381085Y0011605D01*
X0381185Y0011556D01*
X0381283Y0011503D01*
X0381379Y0011447D01*
X0381473Y0011387D01*
X0381565Y0011324D01*
X0381654Y0011258D01*
X0381741Y0011189D01*
X0381825Y0011116D01*
X0381907Y0011041D01*
X0381986Y0010962D01*
X0382063Y0010881D01*
X0382136Y0010797D01*
X0382206Y0010711D01*
X0382273Y0010622D01*
X0382337Y0010531D01*
X0382397Y0010438D01*
X0382454Y0010342D01*
X0382508Y0010244D01*
X0382558Y0010145D01*
X0382604Y0010044D01*
X0382647Y0009941D01*
X0382686Y0009837D01*
X0382722Y0009731D01*
X0382753Y0009625D01*
X0382781Y0009517D01*
X0382805Y0009408D01*
X0382825Y0009299D01*
X0382841Y0009189D01*
X0382853Y0009078D01*
X0382861Y0008967D01*
X0382865Y0008856D01*
X0382865Y0008744D01*
X0382861Y0008633D01*
X0382853Y0008522D01*
X0382841Y0008411D01*
X0382825Y0008301D01*
X0382805Y0008192D01*
X0382781Y0008083D01*
X0382753Y0007975D01*
X0382722Y0007869D01*
X0382686Y0007763D01*
X0382647Y0007659D01*
X0382604Y0007556D01*
X0382558Y0007455D01*
X0382508Y0007356D01*
X0382454Y0007258D01*
X0382397Y0007162D01*
X0382337Y0007069D01*
X0382273Y0006978D01*
X0382206Y0006889D01*
X0382136Y0006803D01*
X0382063Y0006719D01*
X0381986Y0006638D01*
X0381907Y0006559D01*
X0381825Y0006484D01*
X0381741Y0006411D01*
X0381654Y0006342D01*
X0381565Y0006276D01*
X0381473Y0006213D01*
X0381379Y0006153D01*
X0381283Y0006097D01*
X0381185Y0006044D01*
X0381085Y0005995D01*
X0380983Y0005949D01*
X0380880Y0005908D01*
X0380776Y0005869D01*
X0380670Y0005835D01*
X0380563Y0005804D01*
X0380455Y0005778D01*
X0380346Y0005755D01*
X0380236Y0005736D01*
X0380126Y0005721D01*
X0380015Y0005710D01*
X0379904Y0005703D01*
X0379793Y0005700D01*
X0379682Y0005701D01*
X0379570Y0005706D01*
X0379459Y0005715D01*
X0379349Y0005728D01*
X0379239Y0005745D01*
X0379130Y0005766D01*
X0379021Y0005791D01*
X0378913Y0005819D01*
X0378807Y0005852D01*
X0378702Y0005888D01*
X0378598Y0005928D01*
X0378496Y0005972D01*
X0378395Y0006019D01*
X0378296Y0006070D01*
X0378199Y0006125D01*
X0378104Y0006183D01*
X0378011Y0006244D01*
X0377920Y0006309D01*
X0377832Y0006376D01*
X0377746Y0006447D01*
X0377663Y0006521D01*
X0377583Y0006598D01*
X0377505Y0006678D01*
X0377430Y0006760D01*
X0377359Y0006846D01*
X0377290Y0006933D01*
X0377225Y0007023D01*
X0377163Y0007116D01*
X0377104Y0007210D01*
X0377048Y0007307D01*
X0376997Y0007405D01*
X0376948Y0007505D01*
X0376904Y0007607D01*
X0376863Y0007711D01*
X0376825Y0007816D01*
X0376792Y0007922D01*
X0376762Y0008029D01*
X0376737Y0008137D01*
X0376715Y0008246D01*
X0376697Y0008356D01*
X0376683Y0008467D01*
X0376673Y0008578D01*
X0376667Y0008689D01*
X0376665Y0008800D01*
D11*
X0131165Y0111800D02*
X0124965Y0111800D01*
X0122565Y0111800D01*
X0116365Y0111800D01*
X0108365Y0127400D02*
X0108365Y0128900D01*
X0107365Y0128900D01*
X0107365Y0127400D01*
X0116365Y0131800D02*
X0131165Y0131800D01*
X0131165Y0156800D02*
X0124965Y0156800D01*
X0122565Y0156800D01*
X0116365Y0156800D01*
X0108365Y0172400D02*
X0108365Y0173900D01*
X0107365Y0173900D01*
X0107365Y0172400D01*
X0116365Y0176800D02*
X0131165Y0176800D01*
X0076165Y0176800D02*
X0061365Y0176800D01*
X0053365Y0173900D02*
X0053365Y0172400D01*
X0052365Y0172400D02*
X0052365Y0173900D01*
X0053365Y0173900D01*
X0042265Y0164300D02*
X0039765Y0166800D01*
X0034765Y0166800D01*
X0032265Y0164300D01*
X0032265Y0159300D01*
X0034765Y0156800D01*
X0032265Y0154300D01*
X0032265Y0149300D01*
X0034765Y0146800D01*
X0032265Y0144300D01*
X0032265Y0139300D01*
X0034765Y0136800D01*
X0032265Y0134300D01*
X0032265Y0129300D01*
X0034765Y0126800D01*
X0032265Y0124300D01*
X0032265Y0119300D01*
X0034765Y0116800D01*
X0039765Y0116800D01*
X0042265Y0119300D01*
X0042265Y0124300D01*
X0039765Y0126800D01*
X0042265Y0129300D01*
X0042265Y0134300D01*
X0039765Y0136800D01*
X0042265Y0139300D01*
X0042265Y0144300D01*
X0039765Y0146800D01*
X0042265Y0149300D01*
X0042265Y0154300D01*
X0039765Y0156800D01*
X0042265Y0159300D01*
X0042265Y0164300D01*
X0061365Y0156800D02*
X0067565Y0156800D01*
X0069965Y0156800D01*
X0076165Y0156800D01*
X0076165Y0131800D02*
X0061365Y0131800D01*
X0053365Y0128900D02*
X0053365Y0127400D01*
X0052365Y0127400D02*
X0052365Y0128900D01*
X0053365Y0128900D01*
X0061365Y0111800D02*
X0067565Y0111800D01*
X0069965Y0111800D01*
X0076165Y0111800D01*
X0254065Y0268168D02*
X0255132Y0267100D01*
X0257267Y0267100D01*
X0258335Y0268168D01*
X0258335Y0273505D01*
X0260510Y0272438D02*
X0260510Y0271370D01*
X0261578Y0270303D01*
X0263713Y0270303D01*
X0264781Y0269235D01*
X0264781Y0268168D01*
X0263713Y0267100D01*
X0261578Y0267100D01*
X0260510Y0268168D01*
X0260510Y0272438D02*
X0261578Y0273505D01*
X0263713Y0273505D01*
X0264781Y0272438D01*
X0266956Y0273505D02*
X0270158Y0273505D01*
X0271226Y0272438D01*
X0271226Y0271370D01*
X0270158Y0270303D01*
X0266956Y0270303D01*
X0270158Y0270303D02*
X0271226Y0269235D01*
X0271226Y0268168D01*
X0270158Y0267100D01*
X0266956Y0267100D01*
X0266956Y0273505D01*
X0279847Y0273505D02*
X0281982Y0273505D01*
X0280914Y0273505D02*
X0280914Y0267100D01*
X0279847Y0267100D02*
X0281982Y0267100D01*
X0284144Y0267100D02*
X0284144Y0273505D01*
X0288414Y0267100D01*
X0288414Y0273505D01*
X0309565Y0277600D02*
X0310465Y0277600D01*
X0309565Y0277600D02*
X0309565Y0278500D01*
X0322165Y0271000D02*
X0322165Y0267000D01*
X0337065Y0277600D02*
X0337965Y0277600D01*
X0337965Y0278500D01*
X0344565Y0296500D02*
X0348565Y0296500D01*
X0337965Y0305100D02*
X0337965Y0306000D01*
X0337065Y0306000D01*
X0334665Y0304200D02*
X0336165Y0302700D01*
X0324665Y0312600D02*
X0322865Y0312600D01*
X0326565Y0316200D02*
X0326565Y0317400D01*
X0324665Y0321000D02*
X0322865Y0321000D01*
X0323265Y0319900D02*
X0323328Y0319873D01*
X0323393Y0319850D01*
X0323459Y0319830D01*
X0323526Y0319815D01*
X0323594Y0319803D01*
X0323662Y0319795D01*
X0323731Y0319791D01*
X0323799Y0319791D01*
X0323868Y0319795D01*
X0323936Y0319803D01*
X0324004Y0319815D01*
X0324071Y0319830D01*
X0324137Y0319850D01*
X0324202Y0319873D01*
X0324265Y0319900D01*
X0311565Y0318100D02*
X0311565Y0315500D01*
X0309865Y0310800D02*
X0307565Y0310800D01*
X0305965Y0310800D01*
X0305965Y0314500D01*
X0307565Y0310800D02*
X0307568Y0310867D01*
X0307574Y0310934D01*
X0307584Y0311000D01*
X0307597Y0311065D01*
X0307615Y0311130D01*
X0307636Y0311193D01*
X0307660Y0311256D01*
X0307688Y0311316D01*
X0307720Y0311375D01*
X0307754Y0311433D01*
X0307792Y0311488D01*
X0307833Y0311541D01*
X0307877Y0311591D01*
X0307924Y0311639D01*
X0307973Y0311685D01*
X0308025Y0311727D01*
X0308079Y0311766D01*
X0308135Y0311803D01*
X0308193Y0311836D01*
X0308253Y0311866D01*
X0308314Y0311892D01*
X0308377Y0311915D01*
X0308441Y0311934D01*
X0308506Y0311950D01*
X0308572Y0311962D01*
X0308639Y0311970D01*
X0308705Y0311974D01*
X0308772Y0311975D01*
X0308839Y0311972D01*
X0308906Y0311965D01*
X0308972Y0311954D01*
X0309037Y0311940D01*
X0309102Y0311922D01*
X0309165Y0311900D01*
X0309565Y0306000D02*
X0310465Y0306000D01*
X0309565Y0306000D02*
X0309565Y0305100D01*
X0303065Y0299600D02*
X0299065Y0299600D01*
X0305965Y0319100D02*
X0305965Y0322800D01*
X0309865Y0322800D01*
X0254065Y0273505D02*
X0254065Y0268168D01*
X0215465Y0273049D02*
X0215465Y0275184D01*
X0214397Y0276252D01*
X0209059Y0276252D01*
X0210127Y0278427D02*
X0211194Y0278427D01*
X0212262Y0279495D01*
X0212262Y0281630D01*
X0213330Y0282697D01*
X0214397Y0282697D01*
X0215465Y0281630D01*
X0215465Y0279495D01*
X0214397Y0278427D01*
X0210127Y0278427D02*
X0209059Y0279495D01*
X0209059Y0281630D01*
X0210127Y0282697D01*
X0209059Y0284872D02*
X0209059Y0288075D01*
X0210127Y0289143D01*
X0211194Y0289143D01*
X0212262Y0288075D01*
X0212262Y0284872D01*
X0215465Y0284872D02*
X0209059Y0284872D01*
X0212262Y0288075D02*
X0213330Y0289143D01*
X0214397Y0289143D01*
X0215465Y0288075D01*
X0215465Y0284872D01*
X0214397Y0297763D02*
X0210127Y0297763D01*
X0209059Y0298831D01*
X0209059Y0300966D01*
X0210127Y0302034D01*
X0214397Y0302034D01*
X0215465Y0300966D01*
X0215465Y0298831D01*
X0214397Y0297763D01*
X0214397Y0304209D02*
X0209059Y0304209D01*
X0214397Y0304209D02*
X0215465Y0305277D01*
X0215465Y0307412D01*
X0214397Y0308479D01*
X0209059Y0308479D01*
X0209059Y0310654D02*
X0209059Y0314925D01*
X0209059Y0312790D02*
X0215465Y0312790D01*
X0215465Y0273049D02*
X0214397Y0271981D01*
X0209059Y0271981D01*
X0120563Y0293505D02*
X0116292Y0293505D01*
X0118427Y0293505D02*
X0118427Y0287100D01*
X0114117Y0288168D02*
X0114117Y0293505D01*
X0109847Y0293505D02*
X0109847Y0288168D01*
X0110914Y0287100D01*
X0113049Y0287100D01*
X0114117Y0288168D01*
X0107672Y0288168D02*
X0106604Y0287100D01*
X0104469Y0287100D01*
X0103401Y0288168D01*
X0103401Y0292438D01*
X0104469Y0293505D01*
X0106604Y0293505D01*
X0107672Y0292438D01*
X0107672Y0288168D01*
X0094781Y0289235D02*
X0094781Y0293505D01*
X0094781Y0289235D02*
X0092645Y0287100D01*
X0090510Y0289235D01*
X0090510Y0293505D01*
X0088335Y0293505D02*
X0084065Y0293505D01*
X0084065Y0290303D01*
X0086200Y0291370D01*
X0087267Y0291370D01*
X0088335Y0290303D01*
X0088335Y0288168D01*
X0087267Y0287100D01*
X0085132Y0287100D01*
X0084065Y0288168D01*
X0066969Y0287100D02*
X0066969Y0293505D01*
X0062698Y0293505D02*
X0066969Y0287100D01*
X0062698Y0287100D02*
X0062698Y0293505D01*
X0060536Y0293505D02*
X0058401Y0293505D01*
X0059469Y0293505D02*
X0059469Y0287100D01*
X0060536Y0287100D02*
X0058401Y0287100D01*
X0049781Y0289235D02*
X0049781Y0293505D01*
X0049781Y0289235D02*
X0047645Y0287100D01*
X0045510Y0289235D01*
X0045510Y0293505D01*
X0043335Y0293505D02*
X0039065Y0293505D01*
X0039065Y0290303D01*
X0041200Y0291370D01*
X0042267Y0291370D01*
X0043335Y0290303D01*
X0043335Y0288168D01*
X0042267Y0287100D01*
X0040132Y0287100D01*
X0039065Y0288168D01*
D12*
X0050228Y0260277D02*
X0049461Y0259510D01*
X0049461Y0257975D01*
X0050228Y0257208D01*
X0050228Y0260277D02*
X0050995Y0260277D01*
X0054065Y0257208D01*
X0054065Y0260277D01*
X0057461Y0259510D02*
X0059763Y0257208D01*
X0059763Y0260277D01*
X0062065Y0259510D02*
X0057461Y0259510D01*
X0054065Y0255673D02*
X0054065Y0252604D01*
X0054065Y0254139D02*
X0049461Y0254139D01*
X0050995Y0252604D01*
X0050228Y0251069D02*
X0049461Y0250302D01*
X0049461Y0248767D01*
X0050228Y0248000D01*
X0053297Y0248000D01*
X0054065Y0248767D01*
X0054065Y0250302D01*
X0053297Y0251069D01*
X0055961Y0252431D02*
X0060565Y0252431D01*
X0062065Y0252604D02*
X0062065Y0255673D01*
X0062065Y0254139D02*
X0057461Y0254139D01*
X0058995Y0252604D01*
X0058228Y0251069D02*
X0057461Y0250302D01*
X0057461Y0248767D01*
X0058228Y0248000D01*
X0061297Y0248000D01*
X0062065Y0248767D01*
X0062065Y0250302D01*
X0061297Y0251069D01*
X0060565Y0250896D02*
X0060565Y0253965D01*
X0057495Y0250896D02*
X0055961Y0252431D01*
X0056728Y0249361D02*
X0058263Y0249361D01*
X0059030Y0248594D01*
X0059030Y0246292D01*
X0060565Y0246292D02*
X0055961Y0246292D01*
X0055961Y0248594D01*
X0056728Y0249361D01*
X0059030Y0247827D02*
X0060565Y0249361D01*
X0088961Y0248594D02*
X0088961Y0246292D01*
X0093565Y0246292D01*
X0092030Y0246292D02*
X0092030Y0248594D01*
X0091263Y0249361D01*
X0089728Y0249361D01*
X0088961Y0248594D01*
X0090461Y0248767D02*
X0091228Y0248000D01*
X0094297Y0248000D01*
X0095065Y0248767D01*
X0095065Y0250302D01*
X0094297Y0251069D01*
X0093565Y0250896D02*
X0090495Y0253965D01*
X0089728Y0253965D01*
X0088961Y0253198D01*
X0088961Y0251663D01*
X0089728Y0250896D01*
X0090461Y0250302D02*
X0091228Y0251069D01*
X0090461Y0250302D02*
X0090461Y0248767D01*
X0092030Y0247827D02*
X0093565Y0249361D01*
X0093565Y0250896D02*
X0093565Y0253965D01*
X0095065Y0254139D02*
X0090461Y0254139D01*
X0091995Y0252604D01*
X0095065Y0252604D02*
X0095065Y0255673D01*
X0094297Y0257208D02*
X0095065Y0257975D01*
X0095065Y0259510D01*
X0094297Y0260277D01*
X0093530Y0260277D01*
X0092763Y0259510D01*
X0092763Y0258742D01*
X0092763Y0259510D02*
X0091995Y0260277D01*
X0091228Y0260277D01*
X0090461Y0259510D01*
X0090461Y0257975D01*
X0091228Y0257208D01*
X0099461Y0258742D02*
X0100995Y0257208D01*
X0099461Y0258742D02*
X0104065Y0258742D01*
X0104065Y0257208D02*
X0104065Y0260277D01*
X0104065Y0255673D02*
X0104065Y0252604D01*
X0104065Y0254139D02*
X0099461Y0254139D01*
X0100995Y0252604D01*
X0100228Y0251069D02*
X0099461Y0250302D01*
X0099461Y0248767D01*
X0100228Y0248000D01*
X0103297Y0248000D01*
X0104065Y0248767D01*
X0104065Y0250302D01*
X0103297Y0251069D01*
X0107461Y0250906D02*
X0107461Y0249371D01*
X0108228Y0248604D01*
X0108995Y0248604D01*
X0109763Y0249371D01*
X0109763Y0251673D01*
X0111297Y0251673D02*
X0108228Y0251673D01*
X0107461Y0250906D01*
X0111297Y0251673D02*
X0112065Y0250906D01*
X0112065Y0249371D01*
X0111297Y0248604D01*
X0111297Y0247069D02*
X0112065Y0246302D01*
X0112065Y0244767D01*
X0111297Y0244000D01*
X0108228Y0244000D01*
X0107461Y0244767D01*
X0107461Y0246302D01*
X0108228Y0247069D01*
X0117228Y0236465D02*
X0120297Y0233396D01*
X0121065Y0234163D01*
X0121065Y0235698D01*
X0120297Y0236465D01*
X0117228Y0236465D01*
X0116461Y0235698D01*
X0116461Y0234163D01*
X0117228Y0233396D01*
X0120297Y0233396D01*
X0121065Y0231861D02*
X0121065Y0228792D01*
X0121065Y0230327D02*
X0116461Y0230327D01*
X0117995Y0228792D01*
X0117228Y0227257D02*
X0116461Y0226490D01*
X0116461Y0224956D01*
X0117228Y0224188D01*
X0120297Y0224188D01*
X0121065Y0224956D01*
X0121065Y0226490D01*
X0120297Y0227257D01*
X0123091Y0208639D02*
X0123091Y0205569D01*
X0123091Y0204035D02*
X0121556Y0202500D01*
X0122323Y0204035D02*
X0119254Y0204035D01*
X0118487Y0203267D01*
X0118487Y0201733D01*
X0119254Y0200965D01*
X0122323Y0200965D01*
X0123091Y0201733D01*
X0123091Y0203267D01*
X0122323Y0204035D01*
X0120021Y0205569D02*
X0118487Y0207104D01*
X0123091Y0207104D01*
X0121663Y0196604D02*
X0122430Y0195837D01*
X0122430Y0195069D01*
X0121663Y0194302D01*
X0120128Y0194302D01*
X0119361Y0195069D01*
X0119361Y0195837D01*
X0120128Y0196604D01*
X0121663Y0196604D01*
X0121663Y0194302D02*
X0122430Y0193535D01*
X0122430Y0192767D01*
X0121663Y0192000D01*
X0120128Y0192000D01*
X0119361Y0192767D01*
X0119361Y0193535D01*
X0120128Y0194302D01*
X0117826Y0195837D02*
X0117059Y0196604D01*
X0115524Y0196604D01*
X0114757Y0195837D01*
X0114757Y0192767D01*
X0115524Y0192000D01*
X0117059Y0192000D01*
X0117826Y0192767D01*
X0125965Y0190837D02*
X0125965Y0187767D01*
X0126732Y0187000D01*
X0128267Y0187000D01*
X0129034Y0187767D01*
X0130569Y0187000D02*
X0133638Y0190069D01*
X0133638Y0190837D01*
X0132871Y0191604D01*
X0131336Y0191604D01*
X0130569Y0190837D01*
X0129034Y0190837D02*
X0128267Y0191604D01*
X0126732Y0191604D01*
X0125965Y0190837D01*
X0130569Y0187000D02*
X0133638Y0187000D01*
X0135173Y0187767D02*
X0135940Y0187000D01*
X0137475Y0187000D01*
X0138242Y0187767D01*
X0138242Y0190837D01*
X0137475Y0191604D01*
X0135940Y0191604D01*
X0135173Y0190837D01*
X0135173Y0190069D01*
X0135940Y0189302D01*
X0138242Y0189302D01*
X0148961Y0175965D02*
X0149728Y0175965D01*
X0152797Y0172896D01*
X0153565Y0172896D01*
X0153565Y0171361D02*
X0153565Y0168292D01*
X0150495Y0171361D01*
X0149728Y0171361D01*
X0148961Y0170594D01*
X0148961Y0169059D01*
X0149728Y0168292D01*
X0149728Y0166757D02*
X0148961Y0165990D01*
X0148961Y0164456D01*
X0149728Y0163688D01*
X0152797Y0163688D01*
X0153565Y0164456D01*
X0153565Y0165990D01*
X0152797Y0166757D01*
X0148961Y0172896D02*
X0148961Y0175965D01*
X0148961Y0159465D02*
X0149728Y0157931D01*
X0151263Y0156396D01*
X0151263Y0158698D01*
X0152030Y0159465D01*
X0152797Y0159465D01*
X0153565Y0158698D01*
X0153565Y0157163D01*
X0152797Y0156396D01*
X0151263Y0156396D01*
X0150495Y0154861D02*
X0149728Y0154861D01*
X0148961Y0154094D01*
X0148961Y0152559D01*
X0149728Y0151792D01*
X0149728Y0150257D02*
X0148961Y0149490D01*
X0148961Y0147956D01*
X0149728Y0147188D01*
X0152797Y0147188D01*
X0153565Y0147956D01*
X0153565Y0149490D01*
X0152797Y0150257D01*
X0153565Y0151792D02*
X0150495Y0154861D01*
X0153565Y0154861D02*
X0153565Y0151792D01*
X0139242Y0157767D02*
X0138475Y0157000D01*
X0136940Y0157000D01*
X0136173Y0157767D01*
X0136173Y0158535D01*
X0136940Y0159302D01*
X0138475Y0159302D01*
X0139242Y0158535D01*
X0139242Y0157767D01*
X0138475Y0159302D02*
X0139242Y0160069D01*
X0139242Y0160837D01*
X0138475Y0161604D01*
X0136940Y0161604D01*
X0136173Y0160837D01*
X0136173Y0160069D01*
X0136940Y0159302D01*
X0134638Y0160069D02*
X0134638Y0160837D01*
X0133871Y0161604D01*
X0132336Y0161604D01*
X0131569Y0160837D01*
X0130034Y0160837D02*
X0129267Y0161604D01*
X0127732Y0161604D01*
X0126965Y0160837D01*
X0126965Y0157767D01*
X0127732Y0157000D01*
X0129267Y0157000D01*
X0130034Y0157767D01*
X0131569Y0157000D02*
X0134638Y0160069D01*
X0134638Y0157000D02*
X0131569Y0157000D01*
X0131836Y0146604D02*
X0133371Y0146604D01*
X0134138Y0145837D01*
X0134138Y0145069D01*
X0133371Y0144302D01*
X0134138Y0143535D01*
X0134138Y0142767D01*
X0133371Y0142000D01*
X0131836Y0142000D01*
X0131069Y0142767D01*
X0129534Y0142767D02*
X0128767Y0142000D01*
X0127232Y0142000D01*
X0126465Y0142767D01*
X0126465Y0145837D01*
X0127232Y0146604D01*
X0128767Y0146604D01*
X0129534Y0145837D01*
X0131069Y0145837D02*
X0131836Y0146604D01*
X0132603Y0144302D02*
X0133371Y0144302D01*
X0135673Y0144302D02*
X0138742Y0144302D01*
X0137975Y0142000D02*
X0137975Y0146604D01*
X0135673Y0144302D01*
X0118930Y0145837D02*
X0115861Y0142767D01*
X0116628Y0142000D01*
X0118163Y0142000D01*
X0118930Y0142767D01*
X0118930Y0145837D01*
X0118163Y0146604D01*
X0116628Y0146604D01*
X0115861Y0145837D01*
X0115861Y0142767D01*
X0114326Y0142767D02*
X0113559Y0142000D01*
X0112024Y0142000D01*
X0111257Y0142767D01*
X0109722Y0142767D02*
X0108955Y0142000D01*
X0107420Y0142000D01*
X0106653Y0142767D01*
X0106653Y0145837D01*
X0107420Y0146604D01*
X0108955Y0146604D01*
X0109722Y0145837D01*
X0111257Y0145837D02*
X0112024Y0146604D01*
X0113559Y0146604D01*
X0114326Y0145837D01*
X0114326Y0145069D01*
X0113559Y0144302D01*
X0114326Y0143535D01*
X0114326Y0142767D01*
X0113559Y0144302D02*
X0112791Y0144302D01*
X0101065Y0148956D02*
X0101065Y0150490D01*
X0100297Y0151257D01*
X0101065Y0152792D02*
X0101065Y0155861D01*
X0101065Y0154327D02*
X0096461Y0154327D01*
X0097995Y0152792D01*
X0097228Y0151257D02*
X0096461Y0150490D01*
X0096461Y0148956D01*
X0097228Y0148188D01*
X0100297Y0148188D01*
X0101065Y0148956D01*
X0100297Y0157396D02*
X0101065Y0158163D01*
X0101065Y0159698D01*
X0100297Y0160465D01*
X0098763Y0160465D01*
X0097995Y0159698D01*
X0097995Y0158931D01*
X0098763Y0157396D01*
X0096461Y0157396D01*
X0096461Y0160465D01*
X0097228Y0165688D02*
X0100297Y0165688D01*
X0101065Y0166456D01*
X0101065Y0167990D01*
X0100297Y0168757D01*
X0101065Y0170292D02*
X0101065Y0173361D01*
X0101065Y0171827D02*
X0096461Y0171827D01*
X0097995Y0170292D01*
X0097228Y0168757D02*
X0096461Y0167990D01*
X0096461Y0166456D01*
X0097228Y0165688D01*
X0086242Y0161604D02*
X0086242Y0160837D01*
X0083173Y0157767D01*
X0083173Y0157000D01*
X0081638Y0157000D02*
X0078569Y0157000D01*
X0080103Y0157000D02*
X0080103Y0161604D01*
X0078569Y0160069D01*
X0077034Y0160837D02*
X0076267Y0161604D01*
X0074732Y0161604D01*
X0073965Y0160837D01*
X0073965Y0157767D01*
X0074732Y0157000D01*
X0076267Y0157000D01*
X0077034Y0157767D01*
X0083173Y0161604D02*
X0086242Y0161604D01*
X0082475Y0146604D02*
X0080173Y0144302D01*
X0083242Y0144302D01*
X0082475Y0142000D02*
X0082475Y0146604D01*
X0078638Y0145837D02*
X0078638Y0145069D01*
X0075569Y0142000D01*
X0078638Y0142000D01*
X0074034Y0142767D02*
X0073267Y0142000D01*
X0071732Y0142000D01*
X0070965Y0142767D01*
X0070965Y0145837D01*
X0071732Y0146604D01*
X0073267Y0146604D01*
X0074034Y0145837D01*
X0075569Y0145837D02*
X0076336Y0146604D01*
X0077871Y0146604D01*
X0078638Y0145837D01*
X0065930Y0145837D02*
X0065930Y0142767D01*
X0065163Y0142000D01*
X0063628Y0142000D01*
X0062861Y0142767D01*
X0061326Y0142000D02*
X0058257Y0142000D01*
X0059791Y0142000D02*
X0059791Y0146604D01*
X0058257Y0145069D01*
X0056722Y0145837D02*
X0055955Y0146604D01*
X0054420Y0146604D01*
X0053653Y0145837D01*
X0053653Y0142767D01*
X0054420Y0142000D01*
X0055955Y0142000D01*
X0056722Y0142767D01*
X0062861Y0145069D02*
X0062861Y0145837D01*
X0063628Y0146604D01*
X0065163Y0146604D01*
X0065930Y0145837D01*
X0065930Y0144302D02*
X0063628Y0144302D01*
X0062861Y0145069D01*
X0072732Y0116604D02*
X0071965Y0115837D01*
X0071965Y0112767D01*
X0072732Y0112000D01*
X0074267Y0112000D01*
X0075034Y0112767D01*
X0076569Y0112000D02*
X0079638Y0115069D01*
X0079638Y0115837D01*
X0078871Y0116604D01*
X0077336Y0116604D01*
X0076569Y0115837D01*
X0075034Y0115837D02*
X0074267Y0116604D01*
X0072732Y0116604D01*
X0076569Y0112000D02*
X0079638Y0112000D01*
X0081173Y0112767D02*
X0081940Y0112000D01*
X0083475Y0112000D01*
X0084242Y0112767D01*
X0084242Y0113535D01*
X0083475Y0114302D01*
X0082707Y0114302D01*
X0083475Y0114302D02*
X0084242Y0115069D01*
X0084242Y0115837D01*
X0083475Y0116604D01*
X0081940Y0116604D01*
X0081173Y0115837D01*
X0093961Y0112931D02*
X0095495Y0111396D01*
X0094728Y0109861D02*
X0093961Y0109094D01*
X0093961Y0107559D01*
X0094728Y0106792D01*
X0097797Y0106792D01*
X0098565Y0107559D01*
X0098565Y0109094D01*
X0097797Y0109861D01*
X0098565Y0111396D02*
X0098565Y0114465D01*
X0098565Y0112931D02*
X0093961Y0112931D01*
X0094728Y0118688D02*
X0097797Y0118688D01*
X0098565Y0119456D01*
X0098565Y0120990D01*
X0097797Y0121757D01*
X0098565Y0123292D02*
X0095495Y0126361D01*
X0094728Y0126361D01*
X0093961Y0125594D01*
X0093961Y0124059D01*
X0094728Y0123292D01*
X0094728Y0121757D02*
X0093961Y0120990D01*
X0093961Y0119456D01*
X0094728Y0118688D01*
X0098565Y0123292D02*
X0098565Y0126361D01*
X0098565Y0127896D02*
X0095495Y0130965D01*
X0094728Y0130965D01*
X0093961Y0130198D01*
X0093961Y0128663D01*
X0094728Y0127896D01*
X0098565Y0127896D02*
X0098565Y0130965D01*
X0126965Y0115837D02*
X0126965Y0112767D01*
X0127732Y0112000D01*
X0129267Y0112000D01*
X0130034Y0112767D01*
X0131569Y0112767D02*
X0132336Y0112000D01*
X0133871Y0112000D01*
X0134638Y0112767D01*
X0134638Y0113535D01*
X0133871Y0114302D01*
X0133103Y0114302D01*
X0133871Y0114302D02*
X0134638Y0115069D01*
X0134638Y0115837D01*
X0133871Y0116604D01*
X0132336Y0116604D01*
X0131569Y0115837D01*
X0130034Y0115837D02*
X0129267Y0116604D01*
X0127732Y0116604D01*
X0126965Y0115837D01*
X0136173Y0115837D02*
X0136940Y0116604D01*
X0138475Y0116604D01*
X0139242Y0115837D01*
X0139242Y0115069D01*
X0138475Y0114302D01*
X0139242Y0113535D01*
X0139242Y0112767D01*
X0138475Y0112000D01*
X0136940Y0112000D01*
X0136173Y0112767D01*
X0137707Y0114302D02*
X0138475Y0114302D01*
X0148961Y0112931D02*
X0153565Y0112931D01*
X0153565Y0114465D02*
X0153565Y0111396D01*
X0152797Y0109861D02*
X0153565Y0109094D01*
X0153565Y0107559D01*
X0152797Y0106792D01*
X0152797Y0105257D02*
X0153565Y0104490D01*
X0153565Y0102956D01*
X0152797Y0102188D01*
X0149728Y0102188D01*
X0148961Y0102956D01*
X0148961Y0104490D01*
X0149728Y0105257D01*
X0149728Y0106792D02*
X0148961Y0107559D01*
X0148961Y0109094D01*
X0149728Y0109861D01*
X0150495Y0109861D01*
X0151263Y0109094D01*
X0152030Y0109861D01*
X0152797Y0109861D01*
X0151263Y0109094D02*
X0151263Y0108327D01*
X0150495Y0111396D02*
X0148961Y0112931D01*
X0149728Y0118688D02*
X0148961Y0119456D01*
X0148961Y0120990D01*
X0149728Y0121757D01*
X0149728Y0123292D02*
X0148961Y0124059D01*
X0148961Y0125594D01*
X0149728Y0126361D01*
X0150495Y0126361D01*
X0151263Y0125594D01*
X0152030Y0126361D01*
X0152797Y0126361D01*
X0153565Y0125594D01*
X0153565Y0124059D01*
X0152797Y0123292D01*
X0152797Y0121757D02*
X0153565Y0120990D01*
X0153565Y0119456D01*
X0152797Y0118688D01*
X0149728Y0118688D01*
X0151263Y0124827D02*
X0151263Y0125594D01*
X0149728Y0127896D02*
X0148961Y0128663D01*
X0148961Y0130198D01*
X0149728Y0130965D01*
X0150495Y0130965D01*
X0153565Y0127896D01*
X0153565Y0130965D01*
X0118930Y0101604D02*
X0115861Y0101604D01*
X0115861Y0099302D01*
X0117395Y0100069D01*
X0118163Y0100069D01*
X0118930Y0099302D01*
X0118930Y0097767D01*
X0118163Y0097000D01*
X0116628Y0097000D01*
X0115861Y0097767D01*
X0114326Y0097767D02*
X0114326Y0098535D01*
X0113559Y0099302D01*
X0112791Y0099302D01*
X0113559Y0099302D02*
X0114326Y0100069D01*
X0114326Y0100837D01*
X0113559Y0101604D01*
X0112024Y0101604D01*
X0111257Y0100837D01*
X0109722Y0100837D02*
X0108955Y0101604D01*
X0107420Y0101604D01*
X0106653Y0100837D01*
X0106653Y0097767D01*
X0107420Y0097000D01*
X0108955Y0097000D01*
X0109722Y0097767D01*
X0111257Y0097767D02*
X0112024Y0097000D01*
X0113559Y0097000D01*
X0114326Y0097767D01*
X0063930Y0097767D02*
X0063163Y0097000D01*
X0061628Y0097000D01*
X0060861Y0097767D01*
X0060861Y0099302D02*
X0062395Y0100069D01*
X0063163Y0100069D01*
X0063930Y0099302D01*
X0063930Y0097767D01*
X0060861Y0099302D02*
X0060861Y0101604D01*
X0063930Y0101604D01*
X0059326Y0100837D02*
X0058559Y0101604D01*
X0057024Y0101604D01*
X0056257Y0100837D01*
X0054722Y0100837D02*
X0053955Y0101604D01*
X0052420Y0101604D01*
X0051653Y0100837D01*
X0051653Y0097767D01*
X0052420Y0097000D01*
X0053955Y0097000D01*
X0054722Y0097767D01*
X0056257Y0097000D02*
X0059326Y0100069D01*
X0059326Y0100837D01*
X0059326Y0097000D02*
X0056257Y0097000D01*
X0098763Y0174896D02*
X0098763Y0177198D01*
X0099530Y0177965D01*
X0100297Y0177965D01*
X0101065Y0177198D01*
X0101065Y0175663D01*
X0100297Y0174896D01*
X0098763Y0174896D01*
X0097228Y0176431D01*
X0096461Y0177965D01*
X0086242Y0187767D02*
X0085475Y0187000D01*
X0083940Y0187000D01*
X0083173Y0187767D01*
X0083173Y0188535D01*
X0083940Y0189302D01*
X0085475Y0189302D01*
X0086242Y0188535D01*
X0086242Y0187767D01*
X0085475Y0189302D02*
X0086242Y0190069D01*
X0086242Y0190837D01*
X0085475Y0191604D01*
X0083940Y0191604D01*
X0083173Y0190837D01*
X0083173Y0190069D01*
X0083940Y0189302D01*
X0081638Y0187000D02*
X0078569Y0187000D01*
X0080103Y0187000D02*
X0080103Y0191604D01*
X0078569Y0190069D01*
X0077034Y0190837D02*
X0076267Y0191604D01*
X0074732Y0191604D01*
X0073965Y0190837D01*
X0073965Y0187767D01*
X0074732Y0187000D01*
X0076267Y0187000D01*
X0077034Y0187767D01*
X0174757Y0265267D02*
X0175524Y0264500D01*
X0177059Y0264500D01*
X0177826Y0265267D01*
X0179361Y0265267D02*
X0182430Y0268337D01*
X0182430Y0269104D01*
X0179361Y0269104D01*
X0177826Y0268337D02*
X0177059Y0269104D01*
X0175524Y0269104D01*
X0174757Y0268337D01*
X0174757Y0265267D01*
X0179361Y0265267D02*
X0179361Y0264500D01*
X0180128Y0274500D02*
X0181663Y0274500D01*
X0182430Y0275267D01*
X0182430Y0276035D01*
X0181663Y0276802D01*
X0179361Y0276802D01*
X0179361Y0275267D01*
X0180128Y0274500D01*
X0177826Y0275267D02*
X0177059Y0274500D01*
X0175524Y0274500D01*
X0174757Y0275267D01*
X0174757Y0278337D01*
X0175524Y0279104D01*
X0177059Y0279104D01*
X0177826Y0278337D01*
X0179361Y0276802D02*
X0180895Y0278337D01*
X0182430Y0279104D01*
X0180297Y0302792D02*
X0177228Y0302792D01*
X0176461Y0303559D01*
X0176461Y0305094D01*
X0177228Y0305861D01*
X0178763Y0307396D02*
X0178763Y0310465D01*
X0181065Y0309698D02*
X0176461Y0309698D01*
X0178763Y0307396D01*
X0180297Y0305861D02*
X0181065Y0305094D01*
X0181065Y0303559D01*
X0180297Y0302792D01*
X0201756Y0307103D02*
X0206360Y0307103D01*
X0206360Y0310172D01*
X0205593Y0311707D02*
X0206360Y0312474D01*
X0206360Y0314009D01*
X0205593Y0314776D01*
X0204825Y0314776D01*
X0204058Y0314009D01*
X0204058Y0313242D01*
X0204058Y0314009D02*
X0203291Y0314776D01*
X0202523Y0314776D01*
X0201756Y0314009D01*
X0201756Y0312474D01*
X0202523Y0311707D01*
X0242449Y0308002D02*
X0243984Y0308002D01*
X0243216Y0308002D02*
X0243216Y0303398D01*
X0242449Y0303398D02*
X0243984Y0303398D01*
X0245518Y0304165D02*
X0246286Y0303398D01*
X0247820Y0303398D01*
X0248588Y0304165D01*
X0250122Y0303398D02*
X0253191Y0306467D01*
X0253191Y0307234D01*
X0252424Y0308002D01*
X0250889Y0308002D01*
X0250122Y0307234D01*
X0248588Y0307234D02*
X0247820Y0308002D01*
X0246286Y0308002D01*
X0245518Y0307234D01*
X0245518Y0304165D01*
X0250122Y0303398D02*
X0253191Y0303398D01*
X0297965Y0280837D02*
X0297965Y0277767D01*
X0298732Y0277000D01*
X0300267Y0277000D01*
X0301034Y0277767D01*
X0302569Y0277767D02*
X0303336Y0277000D01*
X0304871Y0277000D01*
X0305638Y0277767D01*
X0305638Y0278535D01*
X0304871Y0279302D01*
X0304103Y0279302D01*
X0304871Y0279302D02*
X0305638Y0280069D01*
X0305638Y0280837D01*
X0304871Y0281604D01*
X0303336Y0281604D01*
X0302569Y0280837D01*
X0301034Y0280837D02*
X0300267Y0281604D01*
X0298732Y0281604D01*
X0297965Y0280837D01*
X0307173Y0279302D02*
X0309475Y0279302D01*
X0310242Y0278535D01*
X0310242Y0277767D01*
X0309475Y0277000D01*
X0307940Y0277000D01*
X0307173Y0277767D01*
X0307173Y0279302D01*
X0308707Y0280837D01*
X0310242Y0281604D01*
X0348961Y0282371D02*
X0349728Y0281604D01*
X0348961Y0282371D02*
X0348961Y0283906D01*
X0349728Y0284673D01*
X0350495Y0284673D01*
X0353565Y0281604D01*
X0353565Y0284673D01*
X0353961Y0285594D02*
X0353961Y0283292D01*
X0358565Y0283292D01*
X0357030Y0283292D02*
X0357030Y0285594D01*
X0356263Y0286361D01*
X0354728Y0286361D01*
X0353961Y0285594D01*
X0353565Y0286208D02*
X0353565Y0289277D01*
X0353961Y0288663D02*
X0354728Y0287896D01*
X0353961Y0288663D02*
X0353961Y0290198D01*
X0354728Y0290965D01*
X0355495Y0290965D01*
X0356263Y0290198D01*
X0357030Y0290965D01*
X0357797Y0290965D01*
X0358565Y0290198D01*
X0358565Y0288663D01*
X0357797Y0287896D01*
X0358565Y0286361D02*
X0357030Y0284827D01*
X0353565Y0287742D02*
X0348961Y0287742D01*
X0350495Y0286208D01*
X0356263Y0289431D02*
X0356263Y0290198D01*
X0357797Y0297188D02*
X0358565Y0297956D01*
X0358565Y0299490D01*
X0357797Y0300257D01*
X0358565Y0301792D02*
X0355495Y0304861D01*
X0354728Y0304861D01*
X0353961Y0304094D01*
X0353961Y0302559D01*
X0354728Y0301792D01*
X0354728Y0300257D02*
X0353961Y0299490D01*
X0353961Y0297956D01*
X0354728Y0297188D01*
X0357797Y0297188D01*
X0358565Y0301792D02*
X0358565Y0304861D01*
X0357797Y0306396D02*
X0358565Y0307163D01*
X0358565Y0308698D01*
X0357797Y0309465D01*
X0354728Y0309465D01*
X0357797Y0306396D01*
X0354728Y0306396D01*
X0353961Y0307163D01*
X0353961Y0308698D01*
X0354728Y0309465D01*
X0383935Y0316594D02*
X0383935Y0318129D01*
X0384702Y0318896D01*
X0387771Y0318896D01*
X0388539Y0318129D01*
X0388539Y0316594D01*
X0387771Y0315827D01*
X0384702Y0315827D01*
X0383935Y0316594D01*
X0387004Y0317361D02*
X0388539Y0318896D01*
X0388539Y0320431D02*
X0385469Y0323500D01*
X0384702Y0323500D01*
X0383935Y0322733D01*
X0383935Y0321198D01*
X0384702Y0320431D01*
X0388539Y0320431D02*
X0388539Y0323500D01*
X0352797Y0280069D02*
X0353565Y0279302D01*
X0353565Y0277767D01*
X0352797Y0277000D01*
X0349728Y0277000D01*
X0348961Y0277767D01*
X0348961Y0279302D01*
X0349728Y0280069D01*
X0159138Y0322767D02*
X0158371Y0322000D01*
X0156836Y0322000D01*
X0156069Y0322767D01*
X0156069Y0324302D02*
X0157603Y0325069D01*
X0158371Y0325069D01*
X0159138Y0324302D01*
X0159138Y0322767D01*
X0156069Y0324302D02*
X0156069Y0326604D01*
X0159138Y0326604D01*
X0154534Y0325837D02*
X0153767Y0326604D01*
X0152232Y0326604D01*
X0151465Y0325837D01*
X0151465Y0322767D01*
X0152232Y0322000D01*
X0153767Y0322000D01*
X0154534Y0322767D01*
X0136065Y0312198D02*
X0131461Y0312198D01*
X0133763Y0309896D01*
X0133763Y0312965D01*
X0131065Y0312569D02*
X0129530Y0311035D01*
X0129530Y0311802D02*
X0129530Y0309500D01*
X0131065Y0309500D02*
X0126461Y0309500D01*
X0126461Y0311802D01*
X0127228Y0312569D01*
X0128763Y0312569D01*
X0129530Y0311802D01*
X0128763Y0314104D02*
X0127995Y0315639D01*
X0127995Y0316406D01*
X0128763Y0317173D01*
X0130297Y0317173D01*
X0131065Y0316406D01*
X0131065Y0314871D01*
X0130297Y0314104D01*
X0128763Y0314104D02*
X0126461Y0314104D01*
X0126461Y0317173D01*
X0132228Y0308361D02*
X0133763Y0308361D01*
X0134530Y0307594D01*
X0134530Y0305292D01*
X0136065Y0305292D02*
X0131461Y0305292D01*
X0131461Y0307594D01*
X0132228Y0308361D01*
X0134530Y0306827D02*
X0136065Y0308361D01*
X0143965Y0303337D02*
X0143965Y0300267D01*
X0144732Y0299500D01*
X0146267Y0299500D01*
X0147034Y0300267D01*
X0148569Y0299500D02*
X0151638Y0302569D01*
X0151638Y0303337D01*
X0150871Y0304104D01*
X0149336Y0304104D01*
X0148569Y0303337D01*
X0147034Y0303337D02*
X0146267Y0304104D01*
X0144732Y0304104D01*
X0143965Y0303337D01*
X0148569Y0299500D02*
X0151638Y0299500D01*
X0150871Y0294104D02*
X0151638Y0293337D01*
X0151638Y0292569D01*
X0150871Y0291802D01*
X0151638Y0291035D01*
X0151638Y0290267D01*
X0150871Y0289500D01*
X0149336Y0289500D01*
X0148569Y0290267D01*
X0147034Y0290267D02*
X0146267Y0289500D01*
X0144732Y0289500D01*
X0143965Y0290267D01*
X0143965Y0293337D01*
X0144732Y0294104D01*
X0146267Y0294104D01*
X0147034Y0293337D01*
X0148569Y0293337D02*
X0149336Y0294104D01*
X0150871Y0294104D01*
X0150871Y0291802D02*
X0150103Y0291802D01*
D13*
X0154502Y0304111D02*
X0157588Y0304111D01*
X0158205Y0304728D01*
X0158205Y0305963D01*
X0157588Y0306580D01*
X0154502Y0306580D01*
X0155737Y0307794D02*
X0154502Y0309029D01*
X0158205Y0309029D01*
X0158205Y0310263D02*
X0158205Y0307794D01*
X0092083Y0225216D02*
X0092700Y0224599D01*
X0090232Y0222130D01*
X0090849Y0221513D01*
X0092083Y0221513D01*
X0092700Y0222130D01*
X0092700Y0224599D01*
X0092083Y0225216D02*
X0090849Y0225216D01*
X0090232Y0224599D01*
X0090232Y0222130D01*
X0089017Y0221513D02*
X0086548Y0221513D01*
X0086548Y0225216D01*
X0085334Y0223982D02*
X0085334Y0221513D01*
X0085334Y0223365D02*
X0082865Y0223365D01*
X0082865Y0223982D02*
X0082865Y0221513D01*
X0081644Y0221513D02*
X0080410Y0221513D01*
X0081027Y0221513D02*
X0081027Y0225216D01*
X0080410Y0225216D02*
X0081644Y0225216D01*
X0082865Y0223982D02*
X0084100Y0225216D01*
X0085334Y0223982D01*
X0079195Y0224599D02*
X0079195Y0223365D01*
X0078578Y0222747D01*
X0076727Y0222747D01*
X0076727Y0221513D02*
X0076727Y0225216D01*
X0078578Y0225216D01*
X0079195Y0224599D01*
X0077961Y0222747D02*
X0079195Y0221513D01*
X0075512Y0221513D02*
X0073044Y0221513D01*
X0073044Y0225216D01*
X0075512Y0225216D01*
X0074278Y0223365D02*
X0073044Y0223365D01*
X0071829Y0222747D02*
X0071829Y0222130D01*
X0071212Y0221513D01*
X0069978Y0221513D01*
X0069360Y0222130D01*
X0069978Y0223365D02*
X0071212Y0223365D01*
X0071829Y0222747D01*
X0071829Y0224599D02*
X0071212Y0225216D01*
X0069978Y0225216D01*
X0069360Y0224599D01*
X0069360Y0223982D01*
X0069978Y0223365D01*
X0080279Y0156066D02*
X0083415Y0152930D01*
X0083415Y0154498D02*
X0080279Y0154498D01*
X0080279Y0152930D02*
X0083415Y0156066D01*
X0081847Y0156066D02*
X0081847Y0152930D01*
X0135279Y0152930D02*
X0138415Y0156066D01*
X0138415Y0154498D02*
X0135279Y0154498D01*
X0135279Y0156066D02*
X0138415Y0152930D01*
X0136847Y0152930D02*
X0136847Y0156066D01*
X0136847Y0111066D02*
X0136847Y0107930D01*
X0138415Y0107930D02*
X0135279Y0111066D01*
X0135279Y0109498D02*
X0138415Y0109498D01*
X0138415Y0111066D02*
X0135279Y0107930D01*
X0083415Y0107930D02*
X0080279Y0111066D01*
X0081847Y0111066D02*
X0081847Y0107930D01*
X0080279Y0107930D02*
X0083415Y0111066D01*
X0083415Y0109498D02*
X0080279Y0109498D01*
X0313079Y0307330D02*
X0316215Y0310466D01*
X0316215Y0308898D02*
X0313079Y0308898D01*
X0313079Y0310466D02*
X0316215Y0307330D01*
X0314647Y0307330D02*
X0314647Y0310466D01*
X0316515Y0321134D02*
X0319651Y0324270D01*
X0319651Y0322702D02*
X0316515Y0322702D01*
X0316515Y0324270D02*
X0319651Y0321134D01*
X0318083Y0321134D02*
X0318083Y0324270D01*
X0336299Y0315950D02*
X0339435Y0312814D01*
X0339435Y0314382D02*
X0336299Y0314382D01*
X0336299Y0312814D02*
X0339435Y0315950D01*
X0337867Y0315950D02*
X0337867Y0312814D01*
D14*
X0351665Y0305000D02*
X0359071Y0305000D01*
X0355368Y0305000D02*
X0355368Y0300062D01*
X0352899Y0297450D02*
X0351665Y0296215D01*
X0351665Y0293746D01*
X0352899Y0292512D01*
X0359071Y0292512D01*
X0359071Y0289899D02*
X0359071Y0286196D01*
X0357837Y0284962D01*
X0356602Y0284962D01*
X0355368Y0286196D01*
X0355368Y0289899D01*
X0355368Y0286196D02*
X0354134Y0284962D01*
X0352899Y0284962D01*
X0351665Y0286196D01*
X0351665Y0289899D01*
X0359071Y0289899D01*
X0359071Y0297450D02*
X0352899Y0297450D01*
X0351665Y0300062D02*
X0359071Y0300062D01*
X0357837Y0282349D02*
X0352899Y0282349D01*
X0357837Y0277411D01*
X0352899Y0277411D01*
X0351665Y0278646D01*
X0351665Y0281114D01*
X0352899Y0282349D01*
X0357837Y0282349D02*
X0359071Y0281114D01*
X0359071Y0278646D01*
X0357837Y0277411D01*
X0321965Y0298994D02*
X0321965Y0305166D01*
X0320730Y0306400D01*
X0318262Y0306400D01*
X0317027Y0305166D01*
X0317027Y0298994D01*
X0314414Y0302697D02*
X0309477Y0302697D01*
X0310711Y0306400D02*
X0310711Y0298994D01*
X0314414Y0302697D01*
X0314268Y0327200D02*
X0315502Y0328434D01*
X0315502Y0334606D01*
X0318115Y0334606D02*
X0318115Y0330903D01*
X0320584Y0332138D01*
X0321818Y0332138D01*
X0323053Y0330903D01*
X0323053Y0328434D01*
X0321818Y0327200D01*
X0319350Y0327200D01*
X0318115Y0328434D01*
X0314268Y0327200D02*
X0311799Y0327200D01*
X0310565Y0328434D01*
X0310565Y0334606D01*
X0318115Y0334606D02*
X0323053Y0334606D01*
X0262229Y0302312D02*
X0262229Y0291288D01*
X0245300Y0291288D01*
X0245300Y0302312D01*
X0262229Y0302312D01*
X0159277Y0301288D02*
X0148253Y0301288D01*
X0148253Y0312312D01*
X0159277Y0312312D01*
X0159277Y0301288D01*
X0097347Y0235343D02*
X0097347Y0198257D01*
X0060221Y0198257D01*
X0060221Y0235343D01*
X0097347Y0235343D01*
X0098345Y0152700D02*
X0095876Y0152700D01*
X0094641Y0151466D01*
X0094641Y0146528D01*
X0099579Y0151466D01*
X0098345Y0152700D01*
X0099579Y0151466D02*
X0099579Y0146528D01*
X0098345Y0145294D01*
X0095876Y0145294D01*
X0094641Y0146528D01*
X0092028Y0145294D02*
X0088325Y0145294D01*
X0087091Y0146528D01*
X0087091Y0147762D01*
X0088325Y0148997D01*
X0092028Y0148997D01*
X0088325Y0148997D02*
X0087091Y0150231D01*
X0087091Y0151466D01*
X0088325Y0152700D01*
X0092028Y0152700D01*
X0092028Y0145294D01*
X0087365Y0145294D02*
X0083662Y0145294D01*
X0082427Y0146528D01*
X0082427Y0151466D01*
X0083662Y0152700D01*
X0087365Y0152700D01*
X0087365Y0145294D01*
X0084478Y0147762D02*
X0082009Y0145294D01*
X0082009Y0152700D01*
X0079814Y0152700D02*
X0079814Y0145294D01*
X0076111Y0145294D01*
X0074877Y0146528D01*
X0074877Y0148997D01*
X0076111Y0150231D01*
X0079814Y0150231D01*
X0077346Y0150231D02*
X0074877Y0152700D01*
X0072264Y0152700D02*
X0069795Y0152700D01*
X0071029Y0152700D02*
X0071029Y0145294D01*
X0069795Y0145294D02*
X0072264Y0145294D01*
X0067230Y0145294D02*
X0067230Y0150231D01*
X0064761Y0152700D01*
X0062293Y0150231D01*
X0062293Y0145294D01*
X0059680Y0145294D02*
X0059680Y0152700D01*
X0054742Y0152700D01*
X0052129Y0152700D02*
X0052129Y0145294D01*
X0048426Y0145294D01*
X0047192Y0146528D01*
X0047192Y0148997D01*
X0048426Y0150231D01*
X0052129Y0150231D01*
X0049661Y0150231D02*
X0047192Y0152700D01*
X0044579Y0151466D02*
X0039641Y0146528D01*
X0039641Y0151466D01*
X0040876Y0152700D01*
X0043345Y0152700D01*
X0044579Y0151466D01*
X0044579Y0146528D01*
X0043345Y0145294D01*
X0040876Y0145294D01*
X0039641Y0146528D01*
X0037028Y0147762D02*
X0034560Y0145294D01*
X0032091Y0147762D01*
X0032091Y0152700D01*
X0037028Y0152700D02*
X0037028Y0147762D01*
X0037028Y0148997D02*
X0032091Y0148997D01*
X0054742Y0145294D02*
X0059680Y0145294D01*
X0059680Y0148997D02*
X0057211Y0148997D01*
X0079540Y0152700D02*
X0084478Y0152700D01*
X0102192Y0152700D02*
X0104661Y0150231D01*
X0103426Y0150231D02*
X0107129Y0150231D01*
X0107129Y0152700D02*
X0107129Y0145294D01*
X0103426Y0145294D01*
X0102192Y0146528D01*
X0102192Y0148997D01*
X0103426Y0150231D01*
X0109742Y0152700D02*
X0114680Y0152700D01*
X0114680Y0145294D01*
X0109742Y0145294D01*
X0112211Y0148997D02*
X0114680Y0148997D01*
X0117293Y0150231D02*
X0117293Y0145294D01*
X0122230Y0145294D02*
X0122230Y0150231D01*
X0119761Y0152700D01*
X0117293Y0150231D01*
X0124795Y0152700D02*
X0127264Y0152700D01*
X0126029Y0152700D02*
X0126029Y0145294D01*
X0124795Y0145294D02*
X0127264Y0145294D01*
X0129877Y0146528D02*
X0129877Y0148997D01*
X0131111Y0150231D01*
X0134814Y0150231D01*
X0132346Y0150231D02*
X0129877Y0152700D01*
X0134814Y0152700D02*
X0134814Y0145294D01*
X0131111Y0145294D01*
X0129877Y0146528D01*
X0137427Y0146528D02*
X0138662Y0145294D01*
X0142365Y0145294D01*
X0142365Y0152700D01*
X0138662Y0152700D01*
X0137427Y0151466D01*
X0137427Y0146528D01*
X0138662Y0107700D02*
X0137427Y0106466D01*
X0137427Y0101528D01*
X0138662Y0100294D01*
X0142365Y0100294D01*
X0142365Y0107700D01*
X0138662Y0107700D01*
X0134814Y0107700D02*
X0134814Y0100294D01*
X0131111Y0100294D01*
X0129877Y0101528D01*
X0129877Y0103997D01*
X0131111Y0105231D01*
X0134814Y0105231D01*
X0132346Y0105231D02*
X0129877Y0107700D01*
X0127264Y0107700D02*
X0124795Y0107700D01*
X0126029Y0107700D02*
X0126029Y0100294D01*
X0124795Y0100294D02*
X0127264Y0100294D01*
X0122230Y0100294D02*
X0122230Y0105231D01*
X0119761Y0107700D01*
X0117293Y0105231D01*
X0117293Y0100294D01*
X0114680Y0100294D02*
X0114680Y0107700D01*
X0109742Y0107700D01*
X0107129Y0107700D02*
X0107129Y0100294D01*
X0103426Y0100294D01*
X0102192Y0101528D01*
X0102192Y0103997D01*
X0103426Y0105231D01*
X0107129Y0105231D01*
X0104661Y0105231D02*
X0102192Y0107700D01*
X0099579Y0106466D02*
X0094641Y0101528D01*
X0094641Y0106466D01*
X0095876Y0107700D01*
X0098345Y0107700D01*
X0099579Y0106466D01*
X0099579Y0101528D01*
X0098345Y0100294D01*
X0095876Y0100294D01*
X0094641Y0101528D01*
X0092028Y0100294D02*
X0088325Y0100294D01*
X0087091Y0101528D01*
X0087091Y0102762D01*
X0088325Y0103997D01*
X0092028Y0103997D01*
X0088325Y0103997D02*
X0087091Y0105231D01*
X0087091Y0106466D01*
X0088325Y0107700D01*
X0092028Y0107700D01*
X0092028Y0100294D01*
X0087365Y0100294D02*
X0083662Y0100294D01*
X0082427Y0101528D01*
X0082427Y0106466D01*
X0083662Y0107700D01*
X0087365Y0107700D01*
X0087365Y0100294D01*
X0084478Y0101528D02*
X0083244Y0100294D01*
X0080775Y0100294D01*
X0079540Y0101528D01*
X0079540Y0102762D01*
X0084478Y0107700D01*
X0079540Y0107700D01*
X0079814Y0107700D02*
X0079814Y0100294D01*
X0076111Y0100294D01*
X0074877Y0101528D01*
X0074877Y0103997D01*
X0076111Y0105231D01*
X0079814Y0105231D01*
X0077346Y0105231D02*
X0074877Y0107700D01*
X0072264Y0107700D02*
X0069795Y0107700D01*
X0071029Y0107700D02*
X0071029Y0100294D01*
X0069795Y0100294D02*
X0072264Y0100294D01*
X0067230Y0100294D02*
X0067230Y0105231D01*
X0064761Y0107700D01*
X0062293Y0105231D01*
X0062293Y0100294D01*
X0059680Y0100294D02*
X0059680Y0107700D01*
X0054742Y0107700D01*
X0052129Y0107700D02*
X0052129Y0100294D01*
X0048426Y0100294D01*
X0047192Y0101528D01*
X0047192Y0103997D01*
X0048426Y0105231D01*
X0052129Y0105231D01*
X0049661Y0105231D02*
X0047192Y0107700D01*
X0044579Y0106466D02*
X0039641Y0101528D01*
X0039641Y0106466D01*
X0040876Y0107700D01*
X0043345Y0107700D01*
X0044579Y0106466D01*
X0044579Y0101528D01*
X0043345Y0100294D01*
X0040876Y0100294D01*
X0039641Y0101528D01*
X0037028Y0100294D02*
X0033325Y0100294D01*
X0032091Y0101528D01*
X0032091Y0102762D01*
X0033325Y0103997D01*
X0037028Y0103997D01*
X0033325Y0103997D02*
X0032091Y0105231D01*
X0032091Y0106466D01*
X0033325Y0107700D01*
X0037028Y0107700D01*
X0037028Y0100294D01*
X0054742Y0100294D02*
X0059680Y0100294D01*
X0059680Y0103997D02*
X0057211Y0103997D01*
X0109742Y0100294D02*
X0114680Y0100294D01*
X0114680Y0103997D02*
X0112211Y0103997D01*
D15*
X0247367Y0299359D03*
D16*
X0239715Y0305729D02*
X0239414Y0306030D01*
X0238814Y0306030D01*
X0238814Y0305429D02*
X0239414Y0305429D01*
X0239715Y0305729D01*
X0236715Y0304959D02*
X0236715Y0304508D01*
X0235814Y0304508D01*
X0235814Y0304959D01*
X0235964Y0305109D01*
X0236565Y0305109D01*
X0236715Y0304959D01*
X0236264Y0305429D02*
X0236264Y0306030D01*
X0234065Y0305729D02*
X0233464Y0305729D01*
X0233764Y0305429D02*
X0233764Y0306030D01*
X0233464Y0305109D02*
X0233314Y0304959D01*
X0233314Y0304508D01*
X0234215Y0304508D01*
X0234215Y0304959D01*
X0234065Y0305109D01*
X0233464Y0305109D01*
X0231715Y0305116D02*
X0231715Y0304815D01*
X0231715Y0304965D02*
X0230814Y0304965D01*
X0230814Y0304815D02*
X0230814Y0305116D01*
X0230814Y0305429D02*
X0230814Y0305880D01*
X0230964Y0306030D01*
X0231565Y0306030D01*
X0231715Y0305880D01*
X0231715Y0305429D01*
X0230814Y0305429D01*
X0229215Y0305429D02*
X0229215Y0305880D01*
X0229065Y0306030D01*
X0228464Y0306030D01*
X0228314Y0305880D01*
X0228314Y0305429D01*
X0229215Y0305429D01*
X0229215Y0305109D02*
X0228314Y0305109D01*
X0228314Y0304508D02*
X0229215Y0305109D01*
X0229215Y0304508D02*
X0228314Y0304508D01*
X0228464Y0304188D02*
X0228314Y0304038D01*
X0228314Y0303738D01*
X0228464Y0303588D01*
X0229065Y0303588D01*
X0229215Y0303738D01*
X0229215Y0304038D01*
X0229065Y0304188D01*
X0228764Y0304188D01*
X0228764Y0303888D01*
X0273314Y0303738D02*
X0273464Y0303588D01*
X0274065Y0303588D01*
X0274215Y0303738D01*
X0274215Y0304038D01*
X0274065Y0304188D01*
X0273764Y0304188D01*
X0273764Y0303888D01*
X0273464Y0304188D02*
X0273314Y0304038D01*
X0273314Y0303738D01*
X0273314Y0304508D02*
X0274215Y0305109D01*
X0273314Y0305109D01*
X0273314Y0305429D02*
X0273314Y0305880D01*
X0273464Y0306030D01*
X0274065Y0306030D01*
X0274215Y0305880D01*
X0274215Y0305429D01*
X0273314Y0305429D01*
X0273314Y0304508D02*
X0274215Y0304508D01*
X0275814Y0304815D02*
X0275814Y0305116D01*
X0275814Y0304965D02*
X0276715Y0304965D01*
X0276715Y0304815D02*
X0276715Y0305116D01*
X0276715Y0305429D02*
X0276715Y0305880D01*
X0276565Y0306030D01*
X0275964Y0306030D01*
X0275814Y0305880D01*
X0275814Y0305429D01*
X0276715Y0305429D01*
X0278314Y0304959D02*
X0278314Y0304508D01*
X0279215Y0304508D01*
X0279215Y0304959D01*
X0279065Y0305109D01*
X0278464Y0305109D01*
X0278314Y0304959D01*
X0278764Y0305429D02*
X0278764Y0306030D01*
X0278464Y0305729D02*
X0279065Y0305729D01*
X0280814Y0304959D02*
X0280814Y0304508D01*
X0281715Y0304508D01*
X0281715Y0304959D01*
X0281565Y0305109D01*
X0280964Y0305109D01*
X0280814Y0304959D01*
X0281264Y0305429D02*
X0281264Y0306030D01*
X0283814Y0306030D02*
X0284414Y0306030D01*
X0284715Y0305729D01*
X0284414Y0305429D01*
X0283814Y0305429D01*
X0104715Y0305729D02*
X0104414Y0306030D01*
X0103814Y0306030D01*
X0103814Y0305429D02*
X0104414Y0305429D01*
X0104715Y0305729D01*
X0101715Y0304959D02*
X0101715Y0304508D01*
X0100814Y0304508D01*
X0100814Y0304959D01*
X0100964Y0305109D01*
X0101565Y0305109D01*
X0101715Y0304959D01*
X0101264Y0305429D02*
X0101264Y0306030D01*
X0099065Y0305729D02*
X0098464Y0305729D01*
X0098764Y0305429D02*
X0098764Y0306030D01*
X0098464Y0305109D02*
X0098314Y0304959D01*
X0098314Y0304508D01*
X0099215Y0304508D01*
X0099215Y0304959D01*
X0099065Y0305109D01*
X0098464Y0305109D01*
X0096715Y0305116D02*
X0096715Y0304815D01*
X0096715Y0304965D02*
X0095814Y0304965D01*
X0095814Y0304815D02*
X0095814Y0305116D01*
X0095814Y0305429D02*
X0095814Y0305880D01*
X0095964Y0306030D01*
X0096565Y0306030D01*
X0096715Y0305880D01*
X0096715Y0305429D01*
X0095814Y0305429D01*
X0094215Y0305429D02*
X0094215Y0305880D01*
X0094065Y0306030D01*
X0093464Y0306030D01*
X0093314Y0305880D01*
X0093314Y0305429D01*
X0094215Y0305429D01*
X0094215Y0305109D02*
X0093314Y0305109D01*
X0093314Y0304508D02*
X0094215Y0305109D01*
X0094215Y0304508D02*
X0093314Y0304508D01*
X0093464Y0304188D02*
X0093314Y0304038D01*
X0093314Y0303738D01*
X0093464Y0303588D01*
X0094065Y0303588D01*
X0094215Y0303738D01*
X0094215Y0304038D01*
X0094065Y0304188D01*
X0093764Y0304188D01*
X0093764Y0303888D01*
X0059715Y0305729D02*
X0059414Y0306030D01*
X0058814Y0306030D01*
X0058814Y0305429D02*
X0059414Y0305429D01*
X0059715Y0305729D01*
X0056715Y0304959D02*
X0056715Y0304508D01*
X0055814Y0304508D01*
X0055814Y0304959D01*
X0055964Y0305109D01*
X0056565Y0305109D01*
X0056715Y0304959D01*
X0056264Y0305429D02*
X0056264Y0306030D01*
X0054065Y0305729D02*
X0053464Y0305729D01*
X0053764Y0305429D02*
X0053764Y0306030D01*
X0053464Y0305109D02*
X0053314Y0304959D01*
X0053314Y0304508D01*
X0054215Y0304508D01*
X0054215Y0304959D01*
X0054065Y0305109D01*
X0053464Y0305109D01*
X0051715Y0305116D02*
X0051715Y0304815D01*
X0051715Y0304965D02*
X0050814Y0304965D01*
X0050814Y0304815D02*
X0050814Y0305116D01*
X0050814Y0305429D02*
X0050814Y0305880D01*
X0050964Y0306030D01*
X0051565Y0306030D01*
X0051715Y0305880D01*
X0051715Y0305429D01*
X0050814Y0305429D01*
X0049215Y0305429D02*
X0049215Y0305880D01*
X0049065Y0306030D01*
X0048464Y0306030D01*
X0048314Y0305880D01*
X0048314Y0305429D01*
X0049215Y0305429D01*
X0049215Y0305109D02*
X0048314Y0305109D01*
X0048314Y0304508D02*
X0049215Y0305109D01*
X0049215Y0304508D02*
X0048314Y0304508D01*
X0048464Y0304188D02*
X0048314Y0304038D01*
X0048314Y0303738D01*
X0048464Y0303588D01*
X0049065Y0303588D01*
X0049215Y0303738D01*
X0049215Y0304038D01*
X0049065Y0304188D01*
X0048764Y0304188D01*
X0048764Y0303888D01*
X0069304Y0260385D02*
X0069121Y0260201D01*
X0069121Y0259834D01*
X0069304Y0259651D01*
X0069304Y0260385D02*
X0069488Y0260385D01*
X0070222Y0259651D01*
X0070222Y0260385D01*
X0070222Y0259280D02*
X0070222Y0258546D01*
X0069121Y0258546D01*
X0085121Y0258546D02*
X0086222Y0258546D01*
X0086222Y0259280D01*
X0086222Y0259651D02*
X0086222Y0260385D01*
X0086222Y0260018D02*
X0085121Y0260018D01*
X0085488Y0259651D01*
D17*
X0089304Y0255391D02*
X0089304Y0254209D01*
X0094225Y0254209D02*
X0094225Y0255391D01*
X0078225Y0255391D02*
X0078225Y0254209D01*
X0073304Y0254209D02*
X0073304Y0255391D01*
X0061515Y0308965D02*
X0060015Y0308965D01*
X0068529Y0313800D02*
X0068529Y0315800D01*
X0068529Y0325698D02*
X0064099Y0325698D01*
X0060162Y0325698D02*
X0055733Y0325698D01*
X0051796Y0325698D02*
X0047367Y0325698D01*
X0043430Y0325698D02*
X0039001Y0325698D01*
X0039001Y0315800D02*
X0039001Y0313800D01*
X0046265Y0308965D02*
X0047515Y0308965D01*
X0084001Y0313800D02*
X0084001Y0315800D01*
X0091265Y0308965D02*
X0092515Y0308965D01*
X0105015Y0308965D02*
X0106515Y0308965D01*
X0113529Y0313800D02*
X0113529Y0315800D01*
X0113529Y0325698D02*
X0109099Y0325698D01*
X0105162Y0325698D02*
X0100733Y0325698D01*
X0096796Y0325698D02*
X0092367Y0325698D01*
X0088430Y0325698D02*
X0084001Y0325698D01*
X0176954Y0309812D02*
X0176954Y0298788D01*
X0178529Y0297213D01*
X0176954Y0309812D02*
X0178529Y0311387D01*
X0199001Y0311387D02*
X0200576Y0309812D01*
X0200576Y0298788D01*
X0199001Y0297213D01*
X0219001Y0313800D02*
X0219001Y0315800D01*
X0226265Y0308965D02*
X0227515Y0308965D01*
X0240015Y0308965D02*
X0241515Y0308965D01*
X0248529Y0313800D02*
X0248529Y0315800D01*
X0248529Y0325698D02*
X0244099Y0325698D01*
X0240162Y0325698D02*
X0235733Y0325698D01*
X0231796Y0325698D02*
X0227367Y0325698D01*
X0223430Y0325698D02*
X0219001Y0325698D01*
X0264001Y0325698D02*
X0268430Y0325698D01*
X0272367Y0325698D02*
X0276796Y0325698D01*
X0280733Y0325698D02*
X0285162Y0325698D01*
X0289099Y0325698D02*
X0293529Y0325698D01*
X0293529Y0315800D02*
X0293529Y0313800D01*
X0286515Y0308965D02*
X0285015Y0308965D01*
X0272515Y0308965D02*
X0271265Y0308965D01*
X0264001Y0313800D02*
X0264001Y0315800D01*
X0048515Y0165449D02*
X0048515Y0162446D01*
X0048515Y0163947D02*
X0044011Y0163947D01*
X0045512Y0162446D01*
X0048515Y0160845D02*
X0048515Y0157842D01*
X0044011Y0157842D01*
X0044762Y0156241D02*
X0044011Y0155490D01*
X0044011Y0153989D01*
X0044762Y0153238D01*
X0045512Y0153238D01*
X0046263Y0153989D01*
X0046263Y0155490D01*
X0047013Y0156241D01*
X0047764Y0156241D01*
X0048515Y0155490D01*
X0048515Y0153989D01*
X0047764Y0153238D01*
X0030515Y0159946D02*
X0030515Y0162949D01*
X0030515Y0161447D02*
X0026011Y0161447D01*
X0027512Y0159946D01*
X0044011Y0122949D02*
X0044011Y0119946D01*
X0046263Y0119946D01*
X0045512Y0121447D01*
X0045512Y0122198D01*
X0046263Y0122949D01*
X0047764Y0122949D01*
X0048515Y0122198D01*
X0048515Y0120697D01*
X0047764Y0119946D01*
D18*
X0091560Y0231564D02*
X0091562Y0231652D01*
X0091568Y0231740D01*
X0091578Y0231828D01*
X0091592Y0231916D01*
X0091609Y0232002D01*
X0091631Y0232088D01*
X0091656Y0232172D01*
X0091686Y0232256D01*
X0091718Y0232338D01*
X0091755Y0232418D01*
X0091795Y0232497D01*
X0091839Y0232574D01*
X0091886Y0232649D01*
X0091936Y0232721D01*
X0091990Y0232792D01*
X0092046Y0232859D01*
X0092106Y0232925D01*
X0092168Y0232987D01*
X0092234Y0233047D01*
X0092301Y0233103D01*
X0092372Y0233157D01*
X0092444Y0233207D01*
X0092519Y0233254D01*
X0092596Y0233298D01*
X0092675Y0233338D01*
X0092755Y0233375D01*
X0092837Y0233407D01*
X0092921Y0233437D01*
X0093005Y0233462D01*
X0093091Y0233484D01*
X0093177Y0233501D01*
X0093265Y0233515D01*
X0093353Y0233525D01*
X0093441Y0233531D01*
X0093529Y0233533D01*
X0093617Y0233531D01*
X0093705Y0233525D01*
X0093793Y0233515D01*
X0093881Y0233501D01*
X0093967Y0233484D01*
X0094053Y0233462D01*
X0094137Y0233437D01*
X0094221Y0233407D01*
X0094303Y0233375D01*
X0094383Y0233338D01*
X0094462Y0233298D01*
X0094539Y0233254D01*
X0094614Y0233207D01*
X0094686Y0233157D01*
X0094757Y0233103D01*
X0094824Y0233047D01*
X0094890Y0232987D01*
X0094952Y0232925D01*
X0095012Y0232859D01*
X0095068Y0232792D01*
X0095122Y0232721D01*
X0095172Y0232649D01*
X0095219Y0232574D01*
X0095263Y0232497D01*
X0095303Y0232418D01*
X0095340Y0232338D01*
X0095372Y0232256D01*
X0095402Y0232172D01*
X0095427Y0232088D01*
X0095449Y0232002D01*
X0095466Y0231916D01*
X0095480Y0231828D01*
X0095490Y0231740D01*
X0095496Y0231652D01*
X0095498Y0231564D01*
X0095496Y0231476D01*
X0095490Y0231388D01*
X0095480Y0231300D01*
X0095466Y0231212D01*
X0095449Y0231126D01*
X0095427Y0231040D01*
X0095402Y0230956D01*
X0095372Y0230872D01*
X0095340Y0230790D01*
X0095303Y0230710D01*
X0095263Y0230631D01*
X0095219Y0230554D01*
X0095172Y0230479D01*
X0095122Y0230407D01*
X0095068Y0230336D01*
X0095012Y0230269D01*
X0094952Y0230203D01*
X0094890Y0230141D01*
X0094824Y0230081D01*
X0094757Y0230025D01*
X0094686Y0229971D01*
X0094614Y0229921D01*
X0094539Y0229874D01*
X0094462Y0229830D01*
X0094383Y0229790D01*
X0094303Y0229753D01*
X0094221Y0229721D01*
X0094137Y0229691D01*
X0094053Y0229666D01*
X0093967Y0229644D01*
X0093881Y0229627D01*
X0093793Y0229613D01*
X0093705Y0229603D01*
X0093617Y0229597D01*
X0093529Y0229595D01*
X0093441Y0229597D01*
X0093353Y0229603D01*
X0093265Y0229613D01*
X0093177Y0229627D01*
X0093091Y0229644D01*
X0093005Y0229666D01*
X0092921Y0229691D01*
X0092837Y0229721D01*
X0092755Y0229753D01*
X0092675Y0229790D01*
X0092596Y0229830D01*
X0092519Y0229874D01*
X0092444Y0229921D01*
X0092372Y0229971D01*
X0092301Y0230025D01*
X0092234Y0230081D01*
X0092168Y0230141D01*
X0092106Y0230203D01*
X0092046Y0230269D01*
X0091990Y0230336D01*
X0091936Y0230407D01*
X0091886Y0230479D01*
X0091839Y0230554D01*
X0091795Y0230631D01*
X0091755Y0230710D01*
X0091718Y0230790D01*
X0091686Y0230872D01*
X0091656Y0230956D01*
X0091631Y0231040D01*
X0091609Y0231126D01*
X0091592Y0231212D01*
X0091578Y0231300D01*
X0091568Y0231388D01*
X0091562Y0231476D01*
X0091560Y0231564D01*
D19*
X0149828Y0310737D03*
M02*
