%
M48
M72
T01C0.01200
T02C0.01969
T03C0.02362
T04C0.03500
T05C0.04000
T06C0.06200
T07C0.13200
%
T01
X63765Y112800
X74765Y123800
X88765Y135800
X106765Y126800
X111765Y133800
X116765Y133800
X123765Y130800
X120765Y126800
X129765Y123800
X118765Y112800
X143765Y135800
X126765Y157800
X129765Y168800
X123765Y175800
X143765Y180800
X127765Y199800
X120765Y206800
X116765Y210800
X111765Y212800
X108765Y204800
X100765Y197800
X106765Y194800
X91765Y200800
X72765Y186800
X65765Y179800
X68765Y176800
X62765Y182800
X59765Y184800
X56765Y193800
X71875Y202036
X50765Y208800
X45765Y212800
X47765Y216800
X51765Y221800
X63765Y223800
X62765Y227800
X68765Y231800
X71765Y227800
X76765Y231800
X84765Y231800
X73765Y243800
X60765Y238800
X104765Y238800
X117765Y228800
X117765Y258800
X93765Y304800
X48765Y304800
X103765Y170800
X65765Y139800
X56765Y139800
X51765Y146800
X48765Y143800
X45765Y140800
X237765Y295800
X242765Y303800
X248765Y297800
X248765Y292800
X253765Y295800
X269765Y300800
X270765Y303800
X285765Y300800
X306765Y277800
X293765Y276800
X292765Y271800
X318765Y301800
X331765Y300800
X334765Y302800
X334765Y288800
X352765Y276800
X348765Y315800
X228765Y301800
T02
X73765Y176800
X72765Y171800
X72765Y167800
X42765Y136800
X42765Y126800
T03
X65765Y161800
X163765Y276800
X163765Y281800
X163765Y286800
X163765Y291800
X163765Y296800
X166765Y316800
X143765Y315800
T04
X143765Y87700
X133765Y87700
X123765Y87700
X113765Y87700
X118765Y77700
X108765Y77700
X113765Y62600
X123765Y62600
X133765Y62600
X143765Y62600
X138765Y52600
X128765Y52600
X118765Y52600
X108765Y52600
X88765Y62600
X78765Y62600
X68765Y62600
X58765Y62600
X63765Y52600
X53765Y52600
X73765Y52600
X83765Y52600
X83765Y77700
X73765Y77700
X63765Y77700
X53765Y77700
X58765Y87700
X68765Y87700
X78765Y87700
X88765Y87700
X128765Y77700
X138765Y77700
X163765Y77700
X173765Y77700
X183765Y77700
X193765Y77700
X198765Y87700
X188765Y87700
X178765Y87700
X168765Y87700
X168765Y62600
X178765Y62600
X188765Y62600
X198765Y62600
X193765Y52600
X183765Y52600
X173765Y52600
X163765Y52600
X218765Y52600
X228765Y52600
X238765Y52600
X248765Y52600
X253765Y62600
X243765Y62600
X233765Y62600
X223765Y62600
X228765Y77700
X218765Y77700
X223765Y87700
X233765Y87700
X243765Y87700
X253765Y87700
X248765Y77700
X238765Y77700
X273765Y77700
X283765Y77700
X293765Y77700
X303765Y77700
X308765Y87700
X298765Y87700
X288765Y87700
X278765Y87700
X278765Y62600
X288765Y62600
X298765Y62600
X308765Y62600
X303765Y52600
X293765Y52600
X283765Y52600
X273765Y52600
X328765Y52600
X338765Y52600
X348765Y52600
X358765Y52600
X363765Y62600
X353765Y62600
X343765Y62600
X333765Y62600
X338765Y77700
X348765Y77700
X358765Y77700
X363765Y87700
X353765Y87700
X343765Y87700
X333765Y87700
X328765Y77700
T05
X37265Y121800
X37265Y131800
X37265Y141800
X37265Y151800
X37265Y161800
T06
X37765Y8800
X40365Y62800
X37765Y87800
X98765Y94800
X208765Y94800
X318765Y94800
X374565Y49900
X379765Y71600
X379765Y8800
T07
X368765Y26800
X48765Y26800
M30
