%
M48
M72
T01C0.01200
T02C0.01575
T03C0.02362
T04C0.03543
T05C0.04000
T06C0.04016
T07C0.04331
T08C0.06299
T09C0.12598
T10C0.13200
%
T01
X62057Y118533
X68057Y128133
X62807Y130033
X61557Y133233
X64057Y135533
X61557Y138033
X55057Y138333
X62307Y150533
X68157Y160133
X60557Y165033
X58057Y162533
X58557Y168033
X55057Y169283
X63057Y168033
X77557Y170333
X79557Y167833
X79557Y172933
X77557Y175533
X88057Y186033
X94010Y184033
X92041Y197033
X94978Y198783
X97947Y197033
X101884Y197033
X106307Y205283
X108557Y207644
X104807Y211033
X102557Y208533
X90557Y212033
X89057Y198783
X78262Y197033
X74057Y206783
X74057Y210533
X61807Y207675
X61807Y203707
X49317Y217533
X53307Y221793
X53057Y229283
X53057Y238533
X70807Y250533
X78262Y243533
X86307Y243533
X88807Y245533
X101852Y243033
X103297Y250543
X101884Y232283
X103307Y229283
X105821Y232297
X107307Y226329
X107307Y222783
X98547Y230533
X95057Y232283
X84167Y232033
X76293Y232033
X45807Y200783
X45807Y192783
X56807Y188783
X67557Y191533
X101557Y169283
X105057Y168033
X108557Y168533
X107057Y165033
X104557Y162533
X114557Y160133
X108807Y150533
X108057Y138033
X110557Y135533
X108057Y133233
X109307Y130033
X114557Y128133
X108557Y118533
X126057Y135833
X124057Y138333
X126057Y140933
X124057Y143533
X101557Y138333
X79557Y135833
X77557Y138333
X79557Y140933
X77557Y143533
X124057Y170333
X126057Y167833
X126057Y172933
X124057Y175533
X155807Y192783
X155807Y200783
X171807Y203707
X171807Y207675
X184057Y206783
X184057Y210533
X188262Y197033
X199057Y198783
X202041Y197033
X204978Y198783
X207947Y197033
X211884Y197033
X216307Y205283
X218557Y207644
X214807Y211033
X212557Y208533
X200557Y212033
X217307Y222783
X217307Y226329
X213307Y229283
X211884Y232283
X208547Y230533
X205057Y232283
X194167Y232033
X186293Y232033
X188262Y243533
X196307Y243533
X198807Y245533
X211852Y243033
X213297Y250543
X217057Y259533
X202557Y269033
X191557Y269033
X180807Y250533
X163057Y238533
X163057Y229283
X163307Y221793
X159317Y217533
X177557Y191533
X166807Y188783
X165057Y169283
X168557Y168033
X170557Y165033
X168057Y162533
X173057Y168033
X178157Y160133
X172307Y150533
X171557Y138033
X174057Y135533
X171557Y133233
X172807Y130033
X178057Y128133
X172057Y118533
X189557Y135833
X187557Y138333
X189557Y140933
X187557Y143533
X165057Y138333
X189557Y167833
X187557Y170333
X189557Y172933
X187557Y175533
X198057Y186033
X204010Y184033
X211557Y169283
X215057Y168033
X218557Y168533
X217057Y165033
X214557Y162533
X224557Y160133
X218807Y150533
X218057Y138033
X220557Y135533
X218057Y133233
X219307Y130033
X224557Y128133
X218557Y118533
X236057Y135833
X234057Y138333
X236057Y140933
X234057Y143533
X211557Y138333
X236057Y167833
X234057Y170333
X236057Y172933
X234057Y175533
X265807Y192783
X276807Y188783
X287557Y191533
X298262Y197033
X294057Y206783
X294057Y210533
X281807Y207675
X281807Y203707
X265807Y200783
X269317Y217533
X273307Y221793
X273057Y229283
X273057Y238533
X271675Y243533
X290807Y250533
X298262Y243533
X306307Y243533
X308807Y245533
X304167Y232033
X296293Y232033
X315057Y232283
X318547Y230533
X321884Y232283
X323307Y229283
X325821Y232297
X327307Y226329
X327307Y222783
X324807Y211033
X322557Y208533
X326307Y205283
X328557Y207644
X339541Y213549
X344307Y212533
X321884Y197033
X317947Y197033
X314978Y198783
X312041Y197033
X309057Y198783
X308057Y186033
X314010Y184033
X321557Y169283
X325057Y168033
X328557Y168533
X327057Y165033
X324557Y162533
X334557Y160133
X328807Y150533
X328057Y138033
X330557Y135533
X328057Y133233
X329307Y130033
X334557Y128133
X328557Y118533
X346057Y135833
X344057Y138333
X346057Y140933
X344057Y143533
X321557Y138333
X299557Y135833
X297557Y138333
X299557Y140933
X297557Y143533
X284057Y135533
X281557Y133233
X282807Y130033
X288057Y128133
X282057Y118533
X281557Y138033
X275057Y138333
X282307Y150533
X288157Y160133
X280557Y165033
X278057Y162533
X278557Y168033
X275057Y169283
X283057Y168033
X297557Y170333
X299557Y167833
X299557Y172933
X297557Y175533
X310557Y212033
X321852Y243033
X323297Y250543
X312557Y269033
X301557Y269033
X295807Y306283
X219557Y235533
X215821Y232297
X229541Y213549
X234307Y212533
X163807Y303283
X175557Y309033
X185357Y318533
X188457Y317033
X179797Y326533
X201057Y333533
X93307Y288283
X74557Y306063
X74557Y309533
X64057Y302033
X81557Y269033
X92557Y269033
X119541Y213549
X124307Y212533
X344057Y175533
X346057Y172933
X344057Y170333
X346057Y167833
T02
X98057Y278533
X94557Y278533
X82057Y282533
X82057Y286533
X82057Y290533
X82057Y294533
T03
X146057Y281533
X180057Y270033
X179557Y300533
X206057Y320033
X214057Y285033
T04
X217057Y104433
X207057Y104433
X212057Y94433
X202057Y94433
X207057Y79333
X217057Y79333
X227057Y79333
X237057Y79333
X232057Y69333
X222057Y69333
X212057Y69333
X202057Y69333
X182057Y79333
X172057Y79333
X162057Y79333
X152057Y79333
X157057Y69333
X147057Y69333
X167057Y69333
X177057Y69333
X177057Y94433
X167057Y94433
X157057Y94433
X147057Y94433
X152057Y104433
X162057Y104433
X172057Y104433
X182057Y104433
X222057Y94433
X232057Y94433
X237057Y104433
X227057Y104433
X257057Y94433
X267057Y94433
X277057Y94433
X287057Y94433
X292057Y104433
X282057Y104433
X272057Y104433
X262057Y104433
X262057Y79333
X272057Y79333
X282057Y79333
X292057Y79333
X287057Y69333
X277057Y69333
X267057Y69333
X257057Y69333
X312057Y69333
X322057Y69333
X332057Y69333
X342057Y69333
X347057Y79333
X337057Y79333
X327057Y79333
X317057Y79333
X322057Y94433
X332057Y94433
X342057Y94433
X347057Y104433
X337057Y104433
X327057Y104433
X317057Y104433
X312057Y94433
X127057Y104433
X117057Y104433
X107057Y104433
X97057Y104433
X102057Y94433
X92057Y94433
X97057Y79333
X107057Y79333
X117057Y79333
X127057Y79333
X122057Y69333
X112057Y69333
X102057Y69333
X92057Y69333
X72057Y79333
X62057Y79333
X52057Y79333
X42057Y79333
X47057Y69333
X37057Y69333
X57057Y69333
X67057Y69333
X67057Y94433
X57057Y94433
X47057Y94433
X37057Y94433
X42057Y104433
X52057Y104433
X62057Y104433
X72057Y104433
X112057Y94433
X122057Y94433
T05
X70557Y329033
X70557Y339033
T06
X332557Y306533
X332557Y296533
X332557Y286533
X332557Y276533
T07
X32557Y276033
X32557Y286033
X32557Y296033
X32557Y306033
T08
X21057Y25533
X23657Y79533
X21057Y104533
X82057Y111533
X192057Y111533
X302057Y111533
X357857Y66633
X363057Y88333
X363057Y25533
T09
X356057Y329033
X28057Y329033
T10
X32057Y43533
X352057Y43533
M30
