G75*
%MOIN*%
%OFA0B0*%
%FSLAX25Y25*%
%IPPOS*%
%LPD*%
%AMOC8*
5,1,8,0,0,1.08239X$1,22.5*
%
%ADD10C,0.00000*%
%ADD11C,0.00600*%
%ADD12C,0.00400*%
%ADD13C,0.00500*%
%ADD14C,0.00100*%
%ADD15C,0.00800*%
%ADD16C,0.01575*%
%ADD17C,0.00300*%
D10*
X0012057Y0020033D02*
X0012057Y0345033D01*
X0372057Y0345033D01*
X0372057Y0020033D01*
X0012057Y0020033D01*
X0025457Y0043533D02*
X0025459Y0043695D01*
X0025465Y0043857D01*
X0025475Y0044019D01*
X0025489Y0044180D01*
X0025507Y0044341D01*
X0025528Y0044501D01*
X0025554Y0044661D01*
X0025584Y0044821D01*
X0025617Y0044979D01*
X0025655Y0045137D01*
X0025696Y0045293D01*
X0025741Y0045449D01*
X0025790Y0045603D01*
X0025843Y0045756D01*
X0025899Y0045908D01*
X0025959Y0046059D01*
X0026023Y0046208D01*
X0026091Y0046355D01*
X0026162Y0046500D01*
X0026236Y0046644D01*
X0026314Y0046786D01*
X0026396Y0046926D01*
X0026481Y0047064D01*
X0026569Y0047200D01*
X0026661Y0047333D01*
X0026756Y0047465D01*
X0026854Y0047594D01*
X0026955Y0047720D01*
X0027059Y0047844D01*
X0027167Y0047965D01*
X0027277Y0048084D01*
X0027390Y0048200D01*
X0027506Y0048313D01*
X0027625Y0048423D01*
X0027746Y0048531D01*
X0027870Y0048635D01*
X0027996Y0048736D01*
X0028125Y0048834D01*
X0028257Y0048929D01*
X0028390Y0049021D01*
X0028526Y0049109D01*
X0028664Y0049194D01*
X0028804Y0049276D01*
X0028946Y0049354D01*
X0029090Y0049428D01*
X0029235Y0049499D01*
X0029382Y0049567D01*
X0029531Y0049631D01*
X0029682Y0049691D01*
X0029834Y0049747D01*
X0029987Y0049800D01*
X0030141Y0049849D01*
X0030297Y0049894D01*
X0030453Y0049935D01*
X0030611Y0049973D01*
X0030769Y0050006D01*
X0030929Y0050036D01*
X0031089Y0050062D01*
X0031249Y0050083D01*
X0031410Y0050101D01*
X0031571Y0050115D01*
X0031733Y0050125D01*
X0031895Y0050131D01*
X0032057Y0050133D01*
X0032219Y0050131D01*
X0032381Y0050125D01*
X0032543Y0050115D01*
X0032704Y0050101D01*
X0032865Y0050083D01*
X0033025Y0050062D01*
X0033185Y0050036D01*
X0033345Y0050006D01*
X0033503Y0049973D01*
X0033661Y0049935D01*
X0033817Y0049894D01*
X0033973Y0049849D01*
X0034127Y0049800D01*
X0034280Y0049747D01*
X0034432Y0049691D01*
X0034583Y0049631D01*
X0034732Y0049567D01*
X0034879Y0049499D01*
X0035024Y0049428D01*
X0035168Y0049354D01*
X0035310Y0049276D01*
X0035450Y0049194D01*
X0035588Y0049109D01*
X0035724Y0049021D01*
X0035857Y0048929D01*
X0035989Y0048834D01*
X0036118Y0048736D01*
X0036244Y0048635D01*
X0036368Y0048531D01*
X0036489Y0048423D01*
X0036608Y0048313D01*
X0036724Y0048200D01*
X0036837Y0048084D01*
X0036947Y0047965D01*
X0037055Y0047844D01*
X0037159Y0047720D01*
X0037260Y0047594D01*
X0037358Y0047465D01*
X0037453Y0047333D01*
X0037545Y0047200D01*
X0037633Y0047064D01*
X0037718Y0046926D01*
X0037800Y0046786D01*
X0037878Y0046644D01*
X0037952Y0046500D01*
X0038023Y0046355D01*
X0038091Y0046208D01*
X0038155Y0046059D01*
X0038215Y0045908D01*
X0038271Y0045756D01*
X0038324Y0045603D01*
X0038373Y0045449D01*
X0038418Y0045293D01*
X0038459Y0045137D01*
X0038497Y0044979D01*
X0038530Y0044821D01*
X0038560Y0044661D01*
X0038586Y0044501D01*
X0038607Y0044341D01*
X0038625Y0044180D01*
X0038639Y0044019D01*
X0038649Y0043857D01*
X0038655Y0043695D01*
X0038657Y0043533D01*
X0038655Y0043371D01*
X0038649Y0043209D01*
X0038639Y0043047D01*
X0038625Y0042886D01*
X0038607Y0042725D01*
X0038586Y0042565D01*
X0038560Y0042405D01*
X0038530Y0042245D01*
X0038497Y0042087D01*
X0038459Y0041929D01*
X0038418Y0041773D01*
X0038373Y0041617D01*
X0038324Y0041463D01*
X0038271Y0041310D01*
X0038215Y0041158D01*
X0038155Y0041007D01*
X0038091Y0040858D01*
X0038023Y0040711D01*
X0037952Y0040566D01*
X0037878Y0040422D01*
X0037800Y0040280D01*
X0037718Y0040140D01*
X0037633Y0040002D01*
X0037545Y0039866D01*
X0037453Y0039733D01*
X0037358Y0039601D01*
X0037260Y0039472D01*
X0037159Y0039346D01*
X0037055Y0039222D01*
X0036947Y0039101D01*
X0036837Y0038982D01*
X0036724Y0038866D01*
X0036608Y0038753D01*
X0036489Y0038643D01*
X0036368Y0038535D01*
X0036244Y0038431D01*
X0036118Y0038330D01*
X0035989Y0038232D01*
X0035857Y0038137D01*
X0035724Y0038045D01*
X0035588Y0037957D01*
X0035450Y0037872D01*
X0035310Y0037790D01*
X0035168Y0037712D01*
X0035024Y0037638D01*
X0034879Y0037567D01*
X0034732Y0037499D01*
X0034583Y0037435D01*
X0034432Y0037375D01*
X0034280Y0037319D01*
X0034127Y0037266D01*
X0033973Y0037217D01*
X0033817Y0037172D01*
X0033661Y0037131D01*
X0033503Y0037093D01*
X0033345Y0037060D01*
X0033185Y0037030D01*
X0033025Y0037004D01*
X0032865Y0036983D01*
X0032704Y0036965D01*
X0032543Y0036951D01*
X0032381Y0036941D01*
X0032219Y0036935D01*
X0032057Y0036933D01*
X0031895Y0036935D01*
X0031733Y0036941D01*
X0031571Y0036951D01*
X0031410Y0036965D01*
X0031249Y0036983D01*
X0031089Y0037004D01*
X0030929Y0037030D01*
X0030769Y0037060D01*
X0030611Y0037093D01*
X0030453Y0037131D01*
X0030297Y0037172D01*
X0030141Y0037217D01*
X0029987Y0037266D01*
X0029834Y0037319D01*
X0029682Y0037375D01*
X0029531Y0037435D01*
X0029382Y0037499D01*
X0029235Y0037567D01*
X0029090Y0037638D01*
X0028946Y0037712D01*
X0028804Y0037790D01*
X0028664Y0037872D01*
X0028526Y0037957D01*
X0028390Y0038045D01*
X0028257Y0038137D01*
X0028125Y0038232D01*
X0027996Y0038330D01*
X0027870Y0038431D01*
X0027746Y0038535D01*
X0027625Y0038643D01*
X0027506Y0038753D01*
X0027390Y0038866D01*
X0027277Y0038982D01*
X0027167Y0039101D01*
X0027059Y0039222D01*
X0026955Y0039346D01*
X0026854Y0039472D01*
X0026756Y0039601D01*
X0026661Y0039733D01*
X0026569Y0039866D01*
X0026481Y0040002D01*
X0026396Y0040140D01*
X0026314Y0040280D01*
X0026236Y0040422D01*
X0026162Y0040566D01*
X0026091Y0040711D01*
X0026023Y0040858D01*
X0025959Y0041007D01*
X0025899Y0041158D01*
X0025843Y0041310D01*
X0025790Y0041463D01*
X0025741Y0041617D01*
X0025696Y0041773D01*
X0025655Y0041929D01*
X0025617Y0042087D01*
X0025584Y0042245D01*
X0025554Y0042405D01*
X0025528Y0042565D01*
X0025507Y0042725D01*
X0025489Y0042886D01*
X0025475Y0043047D01*
X0025465Y0043209D01*
X0025459Y0043371D01*
X0025457Y0043533D01*
X0021758Y0329033D02*
X0021760Y0329191D01*
X0021766Y0329349D01*
X0021776Y0329507D01*
X0021790Y0329665D01*
X0021808Y0329822D01*
X0021829Y0329979D01*
X0021855Y0330135D01*
X0021885Y0330291D01*
X0021918Y0330446D01*
X0021956Y0330599D01*
X0021997Y0330752D01*
X0022042Y0330904D01*
X0022091Y0331055D01*
X0022144Y0331204D01*
X0022200Y0331352D01*
X0022260Y0331498D01*
X0022324Y0331643D01*
X0022392Y0331786D01*
X0022463Y0331928D01*
X0022537Y0332068D01*
X0022615Y0332205D01*
X0022697Y0332341D01*
X0022781Y0332475D01*
X0022870Y0332606D01*
X0022961Y0332735D01*
X0023056Y0332862D01*
X0023153Y0332987D01*
X0023254Y0333109D01*
X0023358Y0333228D01*
X0023465Y0333345D01*
X0023575Y0333459D01*
X0023688Y0333570D01*
X0023803Y0333679D01*
X0023921Y0333784D01*
X0024042Y0333886D01*
X0024165Y0333986D01*
X0024291Y0334082D01*
X0024419Y0334175D01*
X0024549Y0334265D01*
X0024682Y0334351D01*
X0024817Y0334435D01*
X0024953Y0334514D01*
X0025092Y0334591D01*
X0025233Y0334663D01*
X0025375Y0334733D01*
X0025519Y0334798D01*
X0025665Y0334860D01*
X0025812Y0334918D01*
X0025961Y0334973D01*
X0026111Y0335024D01*
X0026262Y0335071D01*
X0026414Y0335114D01*
X0026567Y0335153D01*
X0026722Y0335189D01*
X0026877Y0335220D01*
X0027033Y0335248D01*
X0027189Y0335272D01*
X0027346Y0335292D01*
X0027504Y0335308D01*
X0027661Y0335320D01*
X0027820Y0335328D01*
X0027978Y0335332D01*
X0028136Y0335332D01*
X0028294Y0335328D01*
X0028453Y0335320D01*
X0028610Y0335308D01*
X0028768Y0335292D01*
X0028925Y0335272D01*
X0029081Y0335248D01*
X0029237Y0335220D01*
X0029392Y0335189D01*
X0029547Y0335153D01*
X0029700Y0335114D01*
X0029852Y0335071D01*
X0030003Y0335024D01*
X0030153Y0334973D01*
X0030302Y0334918D01*
X0030449Y0334860D01*
X0030595Y0334798D01*
X0030739Y0334733D01*
X0030881Y0334663D01*
X0031022Y0334591D01*
X0031161Y0334514D01*
X0031297Y0334435D01*
X0031432Y0334351D01*
X0031565Y0334265D01*
X0031695Y0334175D01*
X0031823Y0334082D01*
X0031949Y0333986D01*
X0032072Y0333886D01*
X0032193Y0333784D01*
X0032311Y0333679D01*
X0032426Y0333570D01*
X0032539Y0333459D01*
X0032649Y0333345D01*
X0032756Y0333228D01*
X0032860Y0333109D01*
X0032961Y0332987D01*
X0033058Y0332862D01*
X0033153Y0332735D01*
X0033244Y0332606D01*
X0033333Y0332475D01*
X0033417Y0332341D01*
X0033499Y0332205D01*
X0033577Y0332068D01*
X0033651Y0331928D01*
X0033722Y0331786D01*
X0033790Y0331643D01*
X0033854Y0331498D01*
X0033914Y0331352D01*
X0033970Y0331204D01*
X0034023Y0331055D01*
X0034072Y0330904D01*
X0034117Y0330752D01*
X0034158Y0330599D01*
X0034196Y0330446D01*
X0034229Y0330291D01*
X0034259Y0330135D01*
X0034285Y0329979D01*
X0034306Y0329822D01*
X0034324Y0329665D01*
X0034338Y0329507D01*
X0034348Y0329349D01*
X0034354Y0329191D01*
X0034356Y0329033D01*
X0034354Y0328875D01*
X0034348Y0328717D01*
X0034338Y0328559D01*
X0034324Y0328401D01*
X0034306Y0328244D01*
X0034285Y0328087D01*
X0034259Y0327931D01*
X0034229Y0327775D01*
X0034196Y0327620D01*
X0034158Y0327467D01*
X0034117Y0327314D01*
X0034072Y0327162D01*
X0034023Y0327011D01*
X0033970Y0326862D01*
X0033914Y0326714D01*
X0033854Y0326568D01*
X0033790Y0326423D01*
X0033722Y0326280D01*
X0033651Y0326138D01*
X0033577Y0325998D01*
X0033499Y0325861D01*
X0033417Y0325725D01*
X0033333Y0325591D01*
X0033244Y0325460D01*
X0033153Y0325331D01*
X0033058Y0325204D01*
X0032961Y0325079D01*
X0032860Y0324957D01*
X0032756Y0324838D01*
X0032649Y0324721D01*
X0032539Y0324607D01*
X0032426Y0324496D01*
X0032311Y0324387D01*
X0032193Y0324282D01*
X0032072Y0324180D01*
X0031949Y0324080D01*
X0031823Y0323984D01*
X0031695Y0323891D01*
X0031565Y0323801D01*
X0031432Y0323715D01*
X0031297Y0323631D01*
X0031161Y0323552D01*
X0031022Y0323475D01*
X0030881Y0323403D01*
X0030739Y0323333D01*
X0030595Y0323268D01*
X0030449Y0323206D01*
X0030302Y0323148D01*
X0030153Y0323093D01*
X0030003Y0323042D01*
X0029852Y0322995D01*
X0029700Y0322952D01*
X0029547Y0322913D01*
X0029392Y0322877D01*
X0029237Y0322846D01*
X0029081Y0322818D01*
X0028925Y0322794D01*
X0028768Y0322774D01*
X0028610Y0322758D01*
X0028453Y0322746D01*
X0028294Y0322738D01*
X0028136Y0322734D01*
X0027978Y0322734D01*
X0027820Y0322738D01*
X0027661Y0322746D01*
X0027504Y0322758D01*
X0027346Y0322774D01*
X0027189Y0322794D01*
X0027033Y0322818D01*
X0026877Y0322846D01*
X0026722Y0322877D01*
X0026567Y0322913D01*
X0026414Y0322952D01*
X0026262Y0322995D01*
X0026111Y0323042D01*
X0025961Y0323093D01*
X0025812Y0323148D01*
X0025665Y0323206D01*
X0025519Y0323268D01*
X0025375Y0323333D01*
X0025233Y0323403D01*
X0025092Y0323475D01*
X0024953Y0323552D01*
X0024817Y0323631D01*
X0024682Y0323715D01*
X0024549Y0323801D01*
X0024419Y0323891D01*
X0024291Y0323984D01*
X0024165Y0324080D01*
X0024042Y0324180D01*
X0023921Y0324282D01*
X0023803Y0324387D01*
X0023688Y0324496D01*
X0023575Y0324607D01*
X0023465Y0324721D01*
X0023358Y0324838D01*
X0023254Y0324957D01*
X0023153Y0325079D01*
X0023056Y0325204D01*
X0022961Y0325331D01*
X0022870Y0325460D01*
X0022781Y0325591D01*
X0022697Y0325725D01*
X0022615Y0325861D01*
X0022537Y0325998D01*
X0022463Y0326138D01*
X0022392Y0326280D01*
X0022324Y0326423D01*
X0022260Y0326568D01*
X0022200Y0326714D01*
X0022144Y0326862D01*
X0022091Y0327011D01*
X0022042Y0327162D01*
X0021997Y0327314D01*
X0021956Y0327467D01*
X0021918Y0327620D01*
X0021885Y0327775D01*
X0021855Y0327931D01*
X0021829Y0328087D01*
X0021808Y0328244D01*
X0021790Y0328401D01*
X0021776Y0328559D01*
X0021766Y0328717D01*
X0021760Y0328875D01*
X0021758Y0329033D01*
X0345457Y0043533D02*
X0345459Y0043695D01*
X0345465Y0043857D01*
X0345475Y0044019D01*
X0345489Y0044180D01*
X0345507Y0044341D01*
X0345528Y0044501D01*
X0345554Y0044661D01*
X0345584Y0044821D01*
X0345617Y0044979D01*
X0345655Y0045137D01*
X0345696Y0045293D01*
X0345741Y0045449D01*
X0345790Y0045603D01*
X0345843Y0045756D01*
X0345899Y0045908D01*
X0345959Y0046059D01*
X0346023Y0046208D01*
X0346091Y0046355D01*
X0346162Y0046500D01*
X0346236Y0046644D01*
X0346314Y0046786D01*
X0346396Y0046926D01*
X0346481Y0047064D01*
X0346569Y0047200D01*
X0346661Y0047333D01*
X0346756Y0047465D01*
X0346854Y0047594D01*
X0346955Y0047720D01*
X0347059Y0047844D01*
X0347167Y0047965D01*
X0347277Y0048084D01*
X0347390Y0048200D01*
X0347506Y0048313D01*
X0347625Y0048423D01*
X0347746Y0048531D01*
X0347870Y0048635D01*
X0347996Y0048736D01*
X0348125Y0048834D01*
X0348257Y0048929D01*
X0348390Y0049021D01*
X0348526Y0049109D01*
X0348664Y0049194D01*
X0348804Y0049276D01*
X0348946Y0049354D01*
X0349090Y0049428D01*
X0349235Y0049499D01*
X0349382Y0049567D01*
X0349531Y0049631D01*
X0349682Y0049691D01*
X0349834Y0049747D01*
X0349987Y0049800D01*
X0350141Y0049849D01*
X0350297Y0049894D01*
X0350453Y0049935D01*
X0350611Y0049973D01*
X0350769Y0050006D01*
X0350929Y0050036D01*
X0351089Y0050062D01*
X0351249Y0050083D01*
X0351410Y0050101D01*
X0351571Y0050115D01*
X0351733Y0050125D01*
X0351895Y0050131D01*
X0352057Y0050133D01*
X0352219Y0050131D01*
X0352381Y0050125D01*
X0352543Y0050115D01*
X0352704Y0050101D01*
X0352865Y0050083D01*
X0353025Y0050062D01*
X0353185Y0050036D01*
X0353345Y0050006D01*
X0353503Y0049973D01*
X0353661Y0049935D01*
X0353817Y0049894D01*
X0353973Y0049849D01*
X0354127Y0049800D01*
X0354280Y0049747D01*
X0354432Y0049691D01*
X0354583Y0049631D01*
X0354732Y0049567D01*
X0354879Y0049499D01*
X0355024Y0049428D01*
X0355168Y0049354D01*
X0355310Y0049276D01*
X0355450Y0049194D01*
X0355588Y0049109D01*
X0355724Y0049021D01*
X0355857Y0048929D01*
X0355989Y0048834D01*
X0356118Y0048736D01*
X0356244Y0048635D01*
X0356368Y0048531D01*
X0356489Y0048423D01*
X0356608Y0048313D01*
X0356724Y0048200D01*
X0356837Y0048084D01*
X0356947Y0047965D01*
X0357055Y0047844D01*
X0357159Y0047720D01*
X0357260Y0047594D01*
X0357358Y0047465D01*
X0357453Y0047333D01*
X0357545Y0047200D01*
X0357633Y0047064D01*
X0357718Y0046926D01*
X0357800Y0046786D01*
X0357878Y0046644D01*
X0357952Y0046500D01*
X0358023Y0046355D01*
X0358091Y0046208D01*
X0358155Y0046059D01*
X0358215Y0045908D01*
X0358271Y0045756D01*
X0358324Y0045603D01*
X0358373Y0045449D01*
X0358418Y0045293D01*
X0358459Y0045137D01*
X0358497Y0044979D01*
X0358530Y0044821D01*
X0358560Y0044661D01*
X0358586Y0044501D01*
X0358607Y0044341D01*
X0358625Y0044180D01*
X0358639Y0044019D01*
X0358649Y0043857D01*
X0358655Y0043695D01*
X0358657Y0043533D01*
X0358655Y0043371D01*
X0358649Y0043209D01*
X0358639Y0043047D01*
X0358625Y0042886D01*
X0358607Y0042725D01*
X0358586Y0042565D01*
X0358560Y0042405D01*
X0358530Y0042245D01*
X0358497Y0042087D01*
X0358459Y0041929D01*
X0358418Y0041773D01*
X0358373Y0041617D01*
X0358324Y0041463D01*
X0358271Y0041310D01*
X0358215Y0041158D01*
X0358155Y0041007D01*
X0358091Y0040858D01*
X0358023Y0040711D01*
X0357952Y0040566D01*
X0357878Y0040422D01*
X0357800Y0040280D01*
X0357718Y0040140D01*
X0357633Y0040002D01*
X0357545Y0039866D01*
X0357453Y0039733D01*
X0357358Y0039601D01*
X0357260Y0039472D01*
X0357159Y0039346D01*
X0357055Y0039222D01*
X0356947Y0039101D01*
X0356837Y0038982D01*
X0356724Y0038866D01*
X0356608Y0038753D01*
X0356489Y0038643D01*
X0356368Y0038535D01*
X0356244Y0038431D01*
X0356118Y0038330D01*
X0355989Y0038232D01*
X0355857Y0038137D01*
X0355724Y0038045D01*
X0355588Y0037957D01*
X0355450Y0037872D01*
X0355310Y0037790D01*
X0355168Y0037712D01*
X0355024Y0037638D01*
X0354879Y0037567D01*
X0354732Y0037499D01*
X0354583Y0037435D01*
X0354432Y0037375D01*
X0354280Y0037319D01*
X0354127Y0037266D01*
X0353973Y0037217D01*
X0353817Y0037172D01*
X0353661Y0037131D01*
X0353503Y0037093D01*
X0353345Y0037060D01*
X0353185Y0037030D01*
X0353025Y0037004D01*
X0352865Y0036983D01*
X0352704Y0036965D01*
X0352543Y0036951D01*
X0352381Y0036941D01*
X0352219Y0036935D01*
X0352057Y0036933D01*
X0351895Y0036935D01*
X0351733Y0036941D01*
X0351571Y0036951D01*
X0351410Y0036965D01*
X0351249Y0036983D01*
X0351089Y0037004D01*
X0350929Y0037030D01*
X0350769Y0037060D01*
X0350611Y0037093D01*
X0350453Y0037131D01*
X0350297Y0037172D01*
X0350141Y0037217D01*
X0349987Y0037266D01*
X0349834Y0037319D01*
X0349682Y0037375D01*
X0349531Y0037435D01*
X0349382Y0037499D01*
X0349235Y0037567D01*
X0349090Y0037638D01*
X0348946Y0037712D01*
X0348804Y0037790D01*
X0348664Y0037872D01*
X0348526Y0037957D01*
X0348390Y0038045D01*
X0348257Y0038137D01*
X0348125Y0038232D01*
X0347996Y0038330D01*
X0347870Y0038431D01*
X0347746Y0038535D01*
X0347625Y0038643D01*
X0347506Y0038753D01*
X0347390Y0038866D01*
X0347277Y0038982D01*
X0347167Y0039101D01*
X0347059Y0039222D01*
X0346955Y0039346D01*
X0346854Y0039472D01*
X0346756Y0039601D01*
X0346661Y0039733D01*
X0346569Y0039866D01*
X0346481Y0040002D01*
X0346396Y0040140D01*
X0346314Y0040280D01*
X0346236Y0040422D01*
X0346162Y0040566D01*
X0346091Y0040711D01*
X0346023Y0040858D01*
X0345959Y0041007D01*
X0345899Y0041158D01*
X0345843Y0041310D01*
X0345790Y0041463D01*
X0345741Y0041617D01*
X0345696Y0041773D01*
X0345655Y0041929D01*
X0345617Y0042087D01*
X0345584Y0042245D01*
X0345554Y0042405D01*
X0345528Y0042565D01*
X0345507Y0042725D01*
X0345489Y0042886D01*
X0345475Y0043047D01*
X0345465Y0043209D01*
X0345459Y0043371D01*
X0345457Y0043533D01*
X0349758Y0329033D02*
X0349760Y0329191D01*
X0349766Y0329349D01*
X0349776Y0329507D01*
X0349790Y0329665D01*
X0349808Y0329822D01*
X0349829Y0329979D01*
X0349855Y0330135D01*
X0349885Y0330291D01*
X0349918Y0330446D01*
X0349956Y0330599D01*
X0349997Y0330752D01*
X0350042Y0330904D01*
X0350091Y0331055D01*
X0350144Y0331204D01*
X0350200Y0331352D01*
X0350260Y0331498D01*
X0350324Y0331643D01*
X0350392Y0331786D01*
X0350463Y0331928D01*
X0350537Y0332068D01*
X0350615Y0332205D01*
X0350697Y0332341D01*
X0350781Y0332475D01*
X0350870Y0332606D01*
X0350961Y0332735D01*
X0351056Y0332862D01*
X0351153Y0332987D01*
X0351254Y0333109D01*
X0351358Y0333228D01*
X0351465Y0333345D01*
X0351575Y0333459D01*
X0351688Y0333570D01*
X0351803Y0333679D01*
X0351921Y0333784D01*
X0352042Y0333886D01*
X0352165Y0333986D01*
X0352291Y0334082D01*
X0352419Y0334175D01*
X0352549Y0334265D01*
X0352682Y0334351D01*
X0352817Y0334435D01*
X0352953Y0334514D01*
X0353092Y0334591D01*
X0353233Y0334663D01*
X0353375Y0334733D01*
X0353519Y0334798D01*
X0353665Y0334860D01*
X0353812Y0334918D01*
X0353961Y0334973D01*
X0354111Y0335024D01*
X0354262Y0335071D01*
X0354414Y0335114D01*
X0354567Y0335153D01*
X0354722Y0335189D01*
X0354877Y0335220D01*
X0355033Y0335248D01*
X0355189Y0335272D01*
X0355346Y0335292D01*
X0355504Y0335308D01*
X0355661Y0335320D01*
X0355820Y0335328D01*
X0355978Y0335332D01*
X0356136Y0335332D01*
X0356294Y0335328D01*
X0356453Y0335320D01*
X0356610Y0335308D01*
X0356768Y0335292D01*
X0356925Y0335272D01*
X0357081Y0335248D01*
X0357237Y0335220D01*
X0357392Y0335189D01*
X0357547Y0335153D01*
X0357700Y0335114D01*
X0357852Y0335071D01*
X0358003Y0335024D01*
X0358153Y0334973D01*
X0358302Y0334918D01*
X0358449Y0334860D01*
X0358595Y0334798D01*
X0358739Y0334733D01*
X0358881Y0334663D01*
X0359022Y0334591D01*
X0359161Y0334514D01*
X0359297Y0334435D01*
X0359432Y0334351D01*
X0359565Y0334265D01*
X0359695Y0334175D01*
X0359823Y0334082D01*
X0359949Y0333986D01*
X0360072Y0333886D01*
X0360193Y0333784D01*
X0360311Y0333679D01*
X0360426Y0333570D01*
X0360539Y0333459D01*
X0360649Y0333345D01*
X0360756Y0333228D01*
X0360860Y0333109D01*
X0360961Y0332987D01*
X0361058Y0332862D01*
X0361153Y0332735D01*
X0361244Y0332606D01*
X0361333Y0332475D01*
X0361417Y0332341D01*
X0361499Y0332205D01*
X0361577Y0332068D01*
X0361651Y0331928D01*
X0361722Y0331786D01*
X0361790Y0331643D01*
X0361854Y0331498D01*
X0361914Y0331352D01*
X0361970Y0331204D01*
X0362023Y0331055D01*
X0362072Y0330904D01*
X0362117Y0330752D01*
X0362158Y0330599D01*
X0362196Y0330446D01*
X0362229Y0330291D01*
X0362259Y0330135D01*
X0362285Y0329979D01*
X0362306Y0329822D01*
X0362324Y0329665D01*
X0362338Y0329507D01*
X0362348Y0329349D01*
X0362354Y0329191D01*
X0362356Y0329033D01*
X0362354Y0328875D01*
X0362348Y0328717D01*
X0362338Y0328559D01*
X0362324Y0328401D01*
X0362306Y0328244D01*
X0362285Y0328087D01*
X0362259Y0327931D01*
X0362229Y0327775D01*
X0362196Y0327620D01*
X0362158Y0327467D01*
X0362117Y0327314D01*
X0362072Y0327162D01*
X0362023Y0327011D01*
X0361970Y0326862D01*
X0361914Y0326714D01*
X0361854Y0326568D01*
X0361790Y0326423D01*
X0361722Y0326280D01*
X0361651Y0326138D01*
X0361577Y0325998D01*
X0361499Y0325861D01*
X0361417Y0325725D01*
X0361333Y0325591D01*
X0361244Y0325460D01*
X0361153Y0325331D01*
X0361058Y0325204D01*
X0360961Y0325079D01*
X0360860Y0324957D01*
X0360756Y0324838D01*
X0360649Y0324721D01*
X0360539Y0324607D01*
X0360426Y0324496D01*
X0360311Y0324387D01*
X0360193Y0324282D01*
X0360072Y0324180D01*
X0359949Y0324080D01*
X0359823Y0323984D01*
X0359695Y0323891D01*
X0359565Y0323801D01*
X0359432Y0323715D01*
X0359297Y0323631D01*
X0359161Y0323552D01*
X0359022Y0323475D01*
X0358881Y0323403D01*
X0358739Y0323333D01*
X0358595Y0323268D01*
X0358449Y0323206D01*
X0358302Y0323148D01*
X0358153Y0323093D01*
X0358003Y0323042D01*
X0357852Y0322995D01*
X0357700Y0322952D01*
X0357547Y0322913D01*
X0357392Y0322877D01*
X0357237Y0322846D01*
X0357081Y0322818D01*
X0356925Y0322794D01*
X0356768Y0322774D01*
X0356610Y0322758D01*
X0356453Y0322746D01*
X0356294Y0322738D01*
X0356136Y0322734D01*
X0355978Y0322734D01*
X0355820Y0322738D01*
X0355661Y0322746D01*
X0355504Y0322758D01*
X0355346Y0322774D01*
X0355189Y0322794D01*
X0355033Y0322818D01*
X0354877Y0322846D01*
X0354722Y0322877D01*
X0354567Y0322913D01*
X0354414Y0322952D01*
X0354262Y0322995D01*
X0354111Y0323042D01*
X0353961Y0323093D01*
X0353812Y0323148D01*
X0353665Y0323206D01*
X0353519Y0323268D01*
X0353375Y0323333D01*
X0353233Y0323403D01*
X0353092Y0323475D01*
X0352953Y0323552D01*
X0352817Y0323631D01*
X0352682Y0323715D01*
X0352549Y0323801D01*
X0352419Y0323891D01*
X0352291Y0323984D01*
X0352165Y0324080D01*
X0352042Y0324180D01*
X0351921Y0324282D01*
X0351803Y0324387D01*
X0351688Y0324496D01*
X0351575Y0324607D01*
X0351465Y0324721D01*
X0351358Y0324838D01*
X0351254Y0324957D01*
X0351153Y0325079D01*
X0351056Y0325204D01*
X0350961Y0325331D01*
X0350870Y0325460D01*
X0350781Y0325591D01*
X0350697Y0325725D01*
X0350615Y0325861D01*
X0350537Y0325998D01*
X0350463Y0326138D01*
X0350392Y0326280D01*
X0350324Y0326423D01*
X0350260Y0326568D01*
X0350200Y0326714D01*
X0350144Y0326862D01*
X0350091Y0327011D01*
X0350042Y0327162D01*
X0349997Y0327314D01*
X0349956Y0327467D01*
X0349918Y0327620D01*
X0349885Y0327775D01*
X0349855Y0327931D01*
X0349829Y0328087D01*
X0349808Y0328244D01*
X0349790Y0328401D01*
X0349776Y0328559D01*
X0349766Y0328717D01*
X0349760Y0328875D01*
X0349758Y0329033D01*
D11*
X0342557Y0329033D02*
X0342561Y0329364D01*
X0342573Y0329695D01*
X0342594Y0330026D01*
X0342622Y0330356D01*
X0342659Y0330686D01*
X0342703Y0331014D01*
X0342756Y0331341D01*
X0342816Y0331667D01*
X0342885Y0331991D01*
X0342962Y0332313D01*
X0343046Y0332634D01*
X0343138Y0332952D01*
X0343238Y0333268D01*
X0343346Y0333581D01*
X0343462Y0333892D01*
X0343585Y0334199D01*
X0343715Y0334504D01*
X0343853Y0334805D01*
X0343998Y0335103D01*
X0344151Y0335397D01*
X0344311Y0335687D01*
X0344478Y0335973D01*
X0344651Y0336255D01*
X0344832Y0336533D01*
X0345020Y0336806D01*
X0345214Y0337075D01*
X0345414Y0337339D01*
X0345621Y0337597D01*
X0345835Y0337851D01*
X0346054Y0338099D01*
X0346280Y0338342D01*
X0346511Y0338579D01*
X0346748Y0338810D01*
X0346991Y0339036D01*
X0347239Y0339255D01*
X0347493Y0339469D01*
X0347751Y0339676D01*
X0348015Y0339876D01*
X0348284Y0340070D01*
X0348557Y0340258D01*
X0348835Y0340439D01*
X0349117Y0340612D01*
X0349403Y0340779D01*
X0349693Y0340939D01*
X0349987Y0341092D01*
X0350285Y0341237D01*
X0350586Y0341375D01*
X0350891Y0341505D01*
X0351198Y0341628D01*
X0351509Y0341744D01*
X0351822Y0341852D01*
X0352138Y0341952D01*
X0352456Y0342044D01*
X0352777Y0342128D01*
X0353099Y0342205D01*
X0353423Y0342274D01*
X0353749Y0342334D01*
X0354076Y0342387D01*
X0354404Y0342431D01*
X0354734Y0342468D01*
X0355064Y0342496D01*
X0355395Y0342517D01*
X0355726Y0342529D01*
X0356057Y0342533D01*
X0356388Y0342529D01*
X0356719Y0342517D01*
X0357050Y0342496D01*
X0357380Y0342468D01*
X0357710Y0342431D01*
X0358038Y0342387D01*
X0358365Y0342334D01*
X0358691Y0342274D01*
X0359015Y0342205D01*
X0359337Y0342128D01*
X0359658Y0342044D01*
X0359976Y0341952D01*
X0360292Y0341852D01*
X0360605Y0341744D01*
X0360916Y0341628D01*
X0361223Y0341505D01*
X0361528Y0341375D01*
X0361829Y0341237D01*
X0362127Y0341092D01*
X0362421Y0340939D01*
X0362711Y0340779D01*
X0362997Y0340612D01*
X0363279Y0340439D01*
X0363557Y0340258D01*
X0363830Y0340070D01*
X0364099Y0339876D01*
X0364363Y0339676D01*
X0364621Y0339469D01*
X0364875Y0339255D01*
X0365123Y0339036D01*
X0365366Y0338810D01*
X0365603Y0338579D01*
X0365834Y0338342D01*
X0366060Y0338099D01*
X0366279Y0337851D01*
X0366493Y0337597D01*
X0366700Y0337339D01*
X0366900Y0337075D01*
X0367094Y0336806D01*
X0367282Y0336533D01*
X0367463Y0336255D01*
X0367636Y0335973D01*
X0367803Y0335687D01*
X0367963Y0335397D01*
X0368116Y0335103D01*
X0368261Y0334805D01*
X0368399Y0334504D01*
X0368529Y0334199D01*
X0368652Y0333892D01*
X0368768Y0333581D01*
X0368876Y0333268D01*
X0368976Y0332952D01*
X0369068Y0332634D01*
X0369152Y0332313D01*
X0369229Y0331991D01*
X0369298Y0331667D01*
X0369358Y0331341D01*
X0369411Y0331014D01*
X0369455Y0330686D01*
X0369492Y0330356D01*
X0369520Y0330026D01*
X0369541Y0329695D01*
X0369553Y0329364D01*
X0369557Y0329033D01*
X0369553Y0328702D01*
X0369541Y0328371D01*
X0369520Y0328040D01*
X0369492Y0327710D01*
X0369455Y0327380D01*
X0369411Y0327052D01*
X0369358Y0326725D01*
X0369298Y0326399D01*
X0369229Y0326075D01*
X0369152Y0325753D01*
X0369068Y0325432D01*
X0368976Y0325114D01*
X0368876Y0324798D01*
X0368768Y0324485D01*
X0368652Y0324174D01*
X0368529Y0323867D01*
X0368399Y0323562D01*
X0368261Y0323261D01*
X0368116Y0322963D01*
X0367963Y0322669D01*
X0367803Y0322379D01*
X0367636Y0322093D01*
X0367463Y0321811D01*
X0367282Y0321533D01*
X0367094Y0321260D01*
X0366900Y0320991D01*
X0366700Y0320727D01*
X0366493Y0320469D01*
X0366279Y0320215D01*
X0366060Y0319967D01*
X0365834Y0319724D01*
X0365603Y0319487D01*
X0365366Y0319256D01*
X0365123Y0319030D01*
X0364875Y0318811D01*
X0364621Y0318597D01*
X0364363Y0318390D01*
X0364099Y0318190D01*
X0363830Y0317996D01*
X0363557Y0317808D01*
X0363279Y0317627D01*
X0362997Y0317454D01*
X0362711Y0317287D01*
X0362421Y0317127D01*
X0362127Y0316974D01*
X0361829Y0316829D01*
X0361528Y0316691D01*
X0361223Y0316561D01*
X0360916Y0316438D01*
X0360605Y0316322D01*
X0360292Y0316214D01*
X0359976Y0316114D01*
X0359658Y0316022D01*
X0359337Y0315938D01*
X0359015Y0315861D01*
X0358691Y0315792D01*
X0358365Y0315732D01*
X0358038Y0315679D01*
X0357710Y0315635D01*
X0357380Y0315598D01*
X0357050Y0315570D01*
X0356719Y0315549D01*
X0356388Y0315537D01*
X0356057Y0315533D01*
X0355726Y0315537D01*
X0355395Y0315549D01*
X0355064Y0315570D01*
X0354734Y0315598D01*
X0354404Y0315635D01*
X0354076Y0315679D01*
X0353749Y0315732D01*
X0353423Y0315792D01*
X0353099Y0315861D01*
X0352777Y0315938D01*
X0352456Y0316022D01*
X0352138Y0316114D01*
X0351822Y0316214D01*
X0351509Y0316322D01*
X0351198Y0316438D01*
X0350891Y0316561D01*
X0350586Y0316691D01*
X0350285Y0316829D01*
X0349987Y0316974D01*
X0349693Y0317127D01*
X0349403Y0317287D01*
X0349117Y0317454D01*
X0348835Y0317627D01*
X0348557Y0317808D01*
X0348284Y0317996D01*
X0348015Y0318190D01*
X0347751Y0318390D01*
X0347493Y0318597D01*
X0347239Y0318811D01*
X0346991Y0319030D01*
X0346748Y0319256D01*
X0346511Y0319487D01*
X0346280Y0319724D01*
X0346054Y0319967D01*
X0345835Y0320215D01*
X0345621Y0320469D01*
X0345414Y0320727D01*
X0345214Y0320991D01*
X0345020Y0321260D01*
X0344832Y0321533D01*
X0344651Y0321811D01*
X0344478Y0322093D01*
X0344311Y0322379D01*
X0344151Y0322669D01*
X0343998Y0322963D01*
X0343853Y0323261D01*
X0343715Y0323562D01*
X0343585Y0323867D01*
X0343462Y0324174D01*
X0343346Y0324485D01*
X0343238Y0324798D01*
X0343138Y0325114D01*
X0343046Y0325432D01*
X0342962Y0325753D01*
X0342885Y0326075D01*
X0342816Y0326399D01*
X0342756Y0326725D01*
X0342703Y0327052D01*
X0342659Y0327380D01*
X0342622Y0327710D01*
X0342594Y0328040D01*
X0342573Y0328371D01*
X0342561Y0328702D01*
X0342557Y0329033D01*
X0332810Y0329536D02*
X0331742Y0330604D01*
X0329607Y0330604D01*
X0328539Y0329536D01*
X0328539Y0327401D01*
X0329607Y0326333D01*
X0331742Y0326333D01*
X0332810Y0327401D01*
X0332810Y0329536D01*
X0326377Y0326333D02*
X0324242Y0326333D01*
X0325310Y0326333D02*
X0325310Y0330604D01*
X0324242Y0330604D01*
X0325310Y0332739D02*
X0325310Y0333807D01*
X0322087Y0327401D02*
X0322087Y0326333D01*
X0321020Y0326333D01*
X0321020Y0327401D01*
X0322087Y0327401D01*
X0318844Y0327401D02*
X0317777Y0326333D01*
X0314574Y0326333D01*
X0314574Y0332739D01*
X0314574Y0330604D02*
X0317777Y0330604D01*
X0318844Y0329536D01*
X0318844Y0327401D01*
X0312399Y0326333D02*
X0312399Y0330604D01*
X0308129Y0330604D02*
X0308129Y0327401D01*
X0309196Y0326333D01*
X0312399Y0326333D01*
X0305953Y0326333D02*
X0305953Y0329536D01*
X0304886Y0330604D01*
X0302751Y0330604D01*
X0301683Y0329536D01*
X0299521Y0330604D02*
X0297386Y0330604D01*
X0298454Y0331671D02*
X0298454Y0327401D01*
X0299521Y0326333D01*
X0301683Y0326333D02*
X0301683Y0332739D01*
X0294157Y0332739D02*
X0294157Y0333807D01*
X0294157Y0330604D02*
X0293089Y0330604D01*
X0294157Y0330604D02*
X0294157Y0326333D01*
X0295224Y0326333D02*
X0293089Y0326333D01*
X0290914Y0326333D02*
X0287711Y0326333D01*
X0286644Y0327401D01*
X0286644Y0329536D01*
X0287711Y0330604D01*
X0290914Y0330604D01*
X0290914Y0325266D01*
X0289846Y0324198D01*
X0288779Y0324198D01*
X0290934Y0321239D02*
X0293069Y0321239D01*
X0294137Y0320171D01*
X0289866Y0315901D01*
X0290934Y0314833D01*
X0293069Y0314833D01*
X0294137Y0315901D01*
X0294137Y0320171D01*
X0294122Y0317722D02*
X0293752Y0317722D01*
X0290578Y0317722D02*
X0290208Y0317722D01*
X0290208Y0311344D01*
X0290578Y0311344D01*
X0293752Y0311344D02*
X0297862Y0311344D01*
X0301035Y0311344D02*
X0301405Y0311344D01*
X0301405Y0317722D01*
X0301035Y0317722D01*
X0297862Y0317722D02*
X0297492Y0317722D01*
X0290934Y0321239D02*
X0289866Y0320171D01*
X0289866Y0315901D01*
X0287711Y0315901D02*
X0287711Y0314833D01*
X0286644Y0314833D01*
X0286644Y0315901D01*
X0287711Y0315901D01*
X0284468Y0314833D02*
X0280198Y0314833D01*
X0282333Y0314833D02*
X0282333Y0321239D01*
X0280198Y0319104D01*
X0279110Y0326333D02*
X0281246Y0330604D01*
X0283421Y0327401D02*
X0284488Y0327401D01*
X0284488Y0326333D01*
X0283421Y0326333D01*
X0283421Y0327401D01*
X0279110Y0326333D02*
X0276975Y0330604D01*
X0274807Y0330604D02*
X0273739Y0330604D01*
X0271604Y0328469D01*
X0271604Y0330604D02*
X0271604Y0326333D01*
X0269429Y0328469D02*
X0265159Y0328469D01*
X0265159Y0329536D02*
X0266226Y0330604D01*
X0268361Y0330604D01*
X0269429Y0329536D01*
X0269429Y0328469D01*
X0268361Y0326333D02*
X0266226Y0326333D01*
X0265159Y0327401D01*
X0265159Y0329536D01*
X0262983Y0330604D02*
X0259781Y0330604D01*
X0258713Y0329536D01*
X0259781Y0328469D01*
X0261916Y0328469D01*
X0262983Y0327401D01*
X0261916Y0326333D01*
X0258713Y0326333D01*
X0256551Y0326333D02*
X0255484Y0327401D01*
X0255484Y0331671D01*
X0256551Y0330604D02*
X0254416Y0330604D01*
X0252241Y0329536D02*
X0252241Y0328469D01*
X0247971Y0328469D01*
X0247971Y0329536D02*
X0249038Y0330604D01*
X0251173Y0330604D01*
X0252241Y0329536D01*
X0251173Y0326333D02*
X0249038Y0326333D01*
X0247971Y0327401D01*
X0247971Y0329536D01*
X0245795Y0329536D02*
X0245795Y0328469D01*
X0241525Y0328469D01*
X0241525Y0329536D02*
X0242593Y0330604D01*
X0244728Y0330604D01*
X0245795Y0329536D01*
X0244728Y0326333D02*
X0242593Y0326333D01*
X0241525Y0327401D01*
X0241525Y0329536D01*
X0239357Y0330604D02*
X0238289Y0330604D01*
X0236154Y0328469D01*
X0236154Y0330604D02*
X0236154Y0326333D01*
X0232924Y0326333D02*
X0232924Y0331671D01*
X0233992Y0332739D01*
X0233992Y0329536D02*
X0231857Y0329536D01*
X0231857Y0319104D02*
X0233992Y0314833D01*
X0236127Y0319104D01*
X0238302Y0318036D02*
X0238302Y0315901D01*
X0239370Y0314833D01*
X0241505Y0314833D01*
X0242573Y0316969D02*
X0238302Y0316969D01*
X0238302Y0318036D02*
X0239370Y0319104D01*
X0241505Y0319104D01*
X0242573Y0318036D01*
X0242573Y0316969D01*
X0244748Y0316969D02*
X0246883Y0319104D01*
X0247951Y0319104D01*
X0250119Y0318036D02*
X0251187Y0319104D01*
X0254389Y0319104D01*
X0256565Y0319104D02*
X0257632Y0319104D01*
X0257632Y0314833D01*
X0256565Y0314833D02*
X0258700Y0314833D01*
X0260862Y0315901D02*
X0261929Y0314833D01*
X0264064Y0314833D01*
X0265132Y0315901D01*
X0265132Y0318036D01*
X0264064Y0319104D01*
X0261929Y0319104D01*
X0260862Y0318036D01*
X0260862Y0315901D01*
X0254389Y0315901D02*
X0253322Y0316969D01*
X0251187Y0316969D01*
X0250119Y0318036D01*
X0250119Y0314833D02*
X0253322Y0314833D01*
X0254389Y0315901D01*
X0257632Y0321239D02*
X0257632Y0322307D01*
X0267307Y0319104D02*
X0267307Y0314833D01*
X0271577Y0314833D02*
X0271577Y0318036D01*
X0270510Y0319104D01*
X0267307Y0319104D01*
X0244748Y0319104D02*
X0244748Y0314833D01*
X0214857Y0292933D02*
X0210857Y0292933D01*
X0204257Y0281233D02*
X0204257Y0280333D01*
X0203357Y0280333D01*
X0182257Y0273833D02*
X0182257Y0269833D01*
X0176757Y0280333D02*
X0175857Y0280333D01*
X0175857Y0281233D01*
X0158746Y0297685D02*
X0158746Y0298055D01*
X0158746Y0297685D02*
X0152368Y0297685D01*
X0152368Y0298055D01*
X0152368Y0301228D02*
X0152368Y0301598D01*
X0152368Y0304969D02*
X0152368Y0305339D01*
X0152368Y0308512D02*
X0152368Y0308882D01*
X0158746Y0308882D01*
X0158746Y0308512D01*
X0158746Y0305339D02*
X0158746Y0301228D01*
X0175857Y0307833D02*
X0175857Y0308733D01*
X0176757Y0308733D01*
X0179157Y0306933D02*
X0177657Y0305433D01*
X0185357Y0315333D02*
X0185357Y0319333D01*
X0203357Y0308733D02*
X0204257Y0308733D01*
X0204257Y0307833D01*
X0136257Y0302805D02*
X0129851Y0302805D01*
X0129851Y0300670D02*
X0129851Y0304940D01*
X0130919Y0298495D02*
X0129851Y0297427D01*
X0129851Y0295292D01*
X0130919Y0294224D01*
X0131987Y0294224D01*
X0133054Y0295292D01*
X0133054Y0297427D01*
X0134122Y0298495D01*
X0135189Y0298495D01*
X0136257Y0297427D01*
X0136257Y0295292D01*
X0135189Y0294224D01*
X0135189Y0292049D02*
X0130919Y0292049D01*
X0129851Y0290982D01*
X0129851Y0288847D01*
X0130919Y0287779D01*
X0135189Y0287779D01*
X0136257Y0288847D01*
X0136257Y0290982D01*
X0135189Y0292049D01*
X0136257Y0285604D02*
X0129851Y0285604D01*
X0133054Y0285604D02*
X0133054Y0281333D01*
X0136257Y0281333D02*
X0129851Y0281333D01*
X0096451Y0325333D02*
X0093248Y0325333D01*
X0093248Y0331739D01*
X0096451Y0331739D01*
X0097518Y0330671D01*
X0097518Y0326401D01*
X0096451Y0325333D01*
X0091073Y0325333D02*
X0091073Y0331739D01*
X0088937Y0334833D02*
X0086802Y0336969D01*
X0086802Y0341239D01*
X0084627Y0341239D02*
X0080357Y0341239D01*
X0080357Y0338036D01*
X0082492Y0339104D01*
X0083560Y0339104D01*
X0084627Y0338036D01*
X0084627Y0335901D01*
X0083560Y0334833D01*
X0081424Y0334833D01*
X0080357Y0335901D01*
X0081424Y0331739D02*
X0080357Y0330671D01*
X0080357Y0326401D01*
X0081424Y0325333D01*
X0083560Y0325333D01*
X0084627Y0326401D01*
X0084627Y0328536D01*
X0082492Y0328536D01*
X0084627Y0330671D02*
X0083560Y0331739D01*
X0081424Y0331739D01*
X0086802Y0331739D02*
X0091073Y0325333D01*
X0086802Y0325333D02*
X0086802Y0331739D01*
X0088937Y0334833D02*
X0091073Y0336969D01*
X0091073Y0341239D01*
X0075557Y0341533D02*
X0075557Y0336533D01*
X0073057Y0334033D01*
X0075557Y0331533D01*
X0075557Y0326533D01*
X0073057Y0324033D01*
X0068057Y0324033D01*
X0065557Y0326533D01*
X0065557Y0331533D01*
X0068057Y0334033D01*
X0065557Y0336533D01*
X0065557Y0341533D01*
X0068057Y0344033D01*
X0073057Y0344033D01*
X0075557Y0341533D01*
X0073057Y0334033D02*
X0068057Y0334033D01*
X0014557Y0329033D02*
X0014561Y0329364D01*
X0014573Y0329695D01*
X0014594Y0330026D01*
X0014622Y0330356D01*
X0014659Y0330686D01*
X0014703Y0331014D01*
X0014756Y0331341D01*
X0014816Y0331667D01*
X0014885Y0331991D01*
X0014962Y0332313D01*
X0015046Y0332634D01*
X0015138Y0332952D01*
X0015238Y0333268D01*
X0015346Y0333581D01*
X0015462Y0333892D01*
X0015585Y0334199D01*
X0015715Y0334504D01*
X0015853Y0334805D01*
X0015998Y0335103D01*
X0016151Y0335397D01*
X0016311Y0335687D01*
X0016478Y0335973D01*
X0016651Y0336255D01*
X0016832Y0336533D01*
X0017020Y0336806D01*
X0017214Y0337075D01*
X0017414Y0337339D01*
X0017621Y0337597D01*
X0017835Y0337851D01*
X0018054Y0338099D01*
X0018280Y0338342D01*
X0018511Y0338579D01*
X0018748Y0338810D01*
X0018991Y0339036D01*
X0019239Y0339255D01*
X0019493Y0339469D01*
X0019751Y0339676D01*
X0020015Y0339876D01*
X0020284Y0340070D01*
X0020557Y0340258D01*
X0020835Y0340439D01*
X0021117Y0340612D01*
X0021403Y0340779D01*
X0021693Y0340939D01*
X0021987Y0341092D01*
X0022285Y0341237D01*
X0022586Y0341375D01*
X0022891Y0341505D01*
X0023198Y0341628D01*
X0023509Y0341744D01*
X0023822Y0341852D01*
X0024138Y0341952D01*
X0024456Y0342044D01*
X0024777Y0342128D01*
X0025099Y0342205D01*
X0025423Y0342274D01*
X0025749Y0342334D01*
X0026076Y0342387D01*
X0026404Y0342431D01*
X0026734Y0342468D01*
X0027064Y0342496D01*
X0027395Y0342517D01*
X0027726Y0342529D01*
X0028057Y0342533D01*
X0028388Y0342529D01*
X0028719Y0342517D01*
X0029050Y0342496D01*
X0029380Y0342468D01*
X0029710Y0342431D01*
X0030038Y0342387D01*
X0030365Y0342334D01*
X0030691Y0342274D01*
X0031015Y0342205D01*
X0031337Y0342128D01*
X0031658Y0342044D01*
X0031976Y0341952D01*
X0032292Y0341852D01*
X0032605Y0341744D01*
X0032916Y0341628D01*
X0033223Y0341505D01*
X0033528Y0341375D01*
X0033829Y0341237D01*
X0034127Y0341092D01*
X0034421Y0340939D01*
X0034711Y0340779D01*
X0034997Y0340612D01*
X0035279Y0340439D01*
X0035557Y0340258D01*
X0035830Y0340070D01*
X0036099Y0339876D01*
X0036363Y0339676D01*
X0036621Y0339469D01*
X0036875Y0339255D01*
X0037123Y0339036D01*
X0037366Y0338810D01*
X0037603Y0338579D01*
X0037834Y0338342D01*
X0038060Y0338099D01*
X0038279Y0337851D01*
X0038493Y0337597D01*
X0038700Y0337339D01*
X0038900Y0337075D01*
X0039094Y0336806D01*
X0039282Y0336533D01*
X0039463Y0336255D01*
X0039636Y0335973D01*
X0039803Y0335687D01*
X0039963Y0335397D01*
X0040116Y0335103D01*
X0040261Y0334805D01*
X0040399Y0334504D01*
X0040529Y0334199D01*
X0040652Y0333892D01*
X0040768Y0333581D01*
X0040876Y0333268D01*
X0040976Y0332952D01*
X0041068Y0332634D01*
X0041152Y0332313D01*
X0041229Y0331991D01*
X0041298Y0331667D01*
X0041358Y0331341D01*
X0041411Y0331014D01*
X0041455Y0330686D01*
X0041492Y0330356D01*
X0041520Y0330026D01*
X0041541Y0329695D01*
X0041553Y0329364D01*
X0041557Y0329033D01*
X0041553Y0328702D01*
X0041541Y0328371D01*
X0041520Y0328040D01*
X0041492Y0327710D01*
X0041455Y0327380D01*
X0041411Y0327052D01*
X0041358Y0326725D01*
X0041298Y0326399D01*
X0041229Y0326075D01*
X0041152Y0325753D01*
X0041068Y0325432D01*
X0040976Y0325114D01*
X0040876Y0324798D01*
X0040768Y0324485D01*
X0040652Y0324174D01*
X0040529Y0323867D01*
X0040399Y0323562D01*
X0040261Y0323261D01*
X0040116Y0322963D01*
X0039963Y0322669D01*
X0039803Y0322379D01*
X0039636Y0322093D01*
X0039463Y0321811D01*
X0039282Y0321533D01*
X0039094Y0321260D01*
X0038900Y0320991D01*
X0038700Y0320727D01*
X0038493Y0320469D01*
X0038279Y0320215D01*
X0038060Y0319967D01*
X0037834Y0319724D01*
X0037603Y0319487D01*
X0037366Y0319256D01*
X0037123Y0319030D01*
X0036875Y0318811D01*
X0036621Y0318597D01*
X0036363Y0318390D01*
X0036099Y0318190D01*
X0035830Y0317996D01*
X0035557Y0317808D01*
X0035279Y0317627D01*
X0034997Y0317454D01*
X0034711Y0317287D01*
X0034421Y0317127D01*
X0034127Y0316974D01*
X0033829Y0316829D01*
X0033528Y0316691D01*
X0033223Y0316561D01*
X0032916Y0316438D01*
X0032605Y0316322D01*
X0032292Y0316214D01*
X0031976Y0316114D01*
X0031658Y0316022D01*
X0031337Y0315938D01*
X0031015Y0315861D01*
X0030691Y0315792D01*
X0030365Y0315732D01*
X0030038Y0315679D01*
X0029710Y0315635D01*
X0029380Y0315598D01*
X0029050Y0315570D01*
X0028719Y0315549D01*
X0028388Y0315537D01*
X0028057Y0315533D01*
X0027726Y0315537D01*
X0027395Y0315549D01*
X0027064Y0315570D01*
X0026734Y0315598D01*
X0026404Y0315635D01*
X0026076Y0315679D01*
X0025749Y0315732D01*
X0025423Y0315792D01*
X0025099Y0315861D01*
X0024777Y0315938D01*
X0024456Y0316022D01*
X0024138Y0316114D01*
X0023822Y0316214D01*
X0023509Y0316322D01*
X0023198Y0316438D01*
X0022891Y0316561D01*
X0022586Y0316691D01*
X0022285Y0316829D01*
X0021987Y0316974D01*
X0021693Y0317127D01*
X0021403Y0317287D01*
X0021117Y0317454D01*
X0020835Y0317627D01*
X0020557Y0317808D01*
X0020284Y0317996D01*
X0020015Y0318190D01*
X0019751Y0318390D01*
X0019493Y0318597D01*
X0019239Y0318811D01*
X0018991Y0319030D01*
X0018748Y0319256D01*
X0018511Y0319487D01*
X0018280Y0319724D01*
X0018054Y0319967D01*
X0017835Y0320215D01*
X0017621Y0320469D01*
X0017414Y0320727D01*
X0017214Y0320991D01*
X0017020Y0321260D01*
X0016832Y0321533D01*
X0016651Y0321811D01*
X0016478Y0322093D01*
X0016311Y0322379D01*
X0016151Y0322669D01*
X0015998Y0322963D01*
X0015853Y0323261D01*
X0015715Y0323562D01*
X0015585Y0323867D01*
X0015462Y0324174D01*
X0015346Y0324485D01*
X0015238Y0324798D01*
X0015138Y0325114D01*
X0015046Y0325432D01*
X0014962Y0325753D01*
X0014885Y0326075D01*
X0014816Y0326399D01*
X0014756Y0326725D01*
X0014703Y0327052D01*
X0014659Y0327380D01*
X0014622Y0327710D01*
X0014594Y0328040D01*
X0014573Y0328371D01*
X0014561Y0328702D01*
X0014557Y0329033D01*
X0019351Y0272019D02*
X0019351Y0267749D01*
X0019351Y0269884D02*
X0025757Y0269884D01*
X0024689Y0265574D02*
X0019351Y0265574D01*
X0019351Y0261303D02*
X0024689Y0261303D01*
X0025757Y0262371D01*
X0025757Y0264506D01*
X0024689Y0265574D01*
X0024689Y0259128D02*
X0020419Y0259128D01*
X0019351Y0258061D01*
X0019351Y0255926D01*
X0020419Y0254858D01*
X0024689Y0254858D01*
X0025757Y0255926D01*
X0025757Y0258061D01*
X0024689Y0259128D01*
X0026824Y0252683D02*
X0026824Y0248412D01*
X0025757Y0244102D02*
X0022554Y0244102D01*
X0020419Y0246237D01*
X0019351Y0246237D01*
X0022554Y0244102D02*
X0020419Y0241967D01*
X0019351Y0241967D01*
X0020419Y0239792D02*
X0019351Y0238724D01*
X0019351Y0236589D01*
X0020419Y0235521D01*
X0021487Y0235521D01*
X0022554Y0236589D01*
X0022554Y0238724D01*
X0023622Y0239792D01*
X0024689Y0239792D01*
X0025757Y0238724D01*
X0025757Y0236589D01*
X0024689Y0235521D01*
X0025757Y0233360D02*
X0025757Y0231224D01*
X0025757Y0232292D02*
X0019351Y0232292D01*
X0019351Y0231224D02*
X0019351Y0233360D01*
X0021487Y0229049D02*
X0025757Y0229049D01*
X0022554Y0229049D02*
X0022554Y0224779D01*
X0021487Y0224779D02*
X0019351Y0226914D01*
X0021487Y0229049D01*
X0021487Y0224779D02*
X0025757Y0224779D01*
X0024689Y0222604D02*
X0020419Y0222604D01*
X0019351Y0221536D01*
X0019351Y0218333D01*
X0025757Y0218333D01*
X0025757Y0221536D01*
X0024689Y0222604D01*
X0358351Y0223414D02*
X0360487Y0225549D01*
X0364757Y0225549D01*
X0364757Y0227724D02*
X0364757Y0229860D01*
X0364757Y0228792D02*
X0358351Y0228792D01*
X0358351Y0227724D02*
X0358351Y0229860D01*
X0359419Y0232021D02*
X0360487Y0232021D01*
X0361554Y0233089D01*
X0361554Y0235224D01*
X0362622Y0236292D01*
X0363689Y0236292D01*
X0364757Y0235224D01*
X0364757Y0233089D01*
X0363689Y0232021D01*
X0359419Y0232021D02*
X0358351Y0233089D01*
X0358351Y0235224D01*
X0359419Y0236292D01*
X0359419Y0238467D02*
X0361554Y0240602D01*
X0364757Y0240602D01*
X0361554Y0240602D02*
X0359419Y0242737D01*
X0358351Y0242737D01*
X0358351Y0238467D02*
X0359419Y0238467D01*
X0365824Y0244912D02*
X0365824Y0249183D01*
X0364757Y0251358D02*
X0364757Y0253493D01*
X0364757Y0252426D02*
X0358351Y0252426D01*
X0358351Y0253493D02*
X0358351Y0251358D01*
X0358351Y0255655D02*
X0364757Y0259925D01*
X0358351Y0259925D01*
X0358351Y0255655D02*
X0364757Y0255655D01*
X0361554Y0225549D02*
X0361554Y0221279D01*
X0360487Y0221279D02*
X0358351Y0223414D01*
X0360487Y0221279D02*
X0364757Y0221279D01*
X0363689Y0219104D02*
X0359419Y0219104D01*
X0358351Y0218036D01*
X0358351Y0214833D01*
X0364757Y0214833D01*
X0364757Y0218036D01*
X0363689Y0219104D01*
D12*
X0324034Y0198320D02*
X0324034Y0195251D01*
X0323267Y0194483D01*
X0321732Y0194483D01*
X0320965Y0195251D01*
X0319430Y0195251D02*
X0319430Y0198320D01*
X0318663Y0199087D01*
X0317128Y0199087D01*
X0316361Y0198320D01*
X0316361Y0197553D01*
X0317128Y0196785D01*
X0319430Y0196785D01*
X0317972Y0196535D02*
X0317205Y0197303D01*
X0316438Y0197303D01*
X0314903Y0196535D01*
X0314903Y0198837D01*
X0317972Y0198837D01*
X0317972Y0196535D02*
X0317972Y0195001D01*
X0317205Y0194233D01*
X0315670Y0194233D01*
X0314903Y0195001D01*
X0314826Y0195251D02*
X0314059Y0194483D01*
X0312524Y0194483D01*
X0311757Y0195251D01*
X0311757Y0198320D01*
X0312524Y0199087D01*
X0314059Y0199087D01*
X0314826Y0198320D01*
X0313368Y0198070D02*
X0312601Y0198837D01*
X0311066Y0198837D01*
X0310299Y0198070D01*
X0310299Y0197303D01*
X0311066Y0196535D01*
X0313368Y0196535D01*
X0313368Y0195001D02*
X0313368Y0198070D01*
X0313368Y0195001D02*
X0312601Y0194233D01*
X0311066Y0194233D01*
X0310299Y0195001D01*
X0308764Y0195001D02*
X0307997Y0194233D01*
X0306462Y0194233D01*
X0305695Y0195001D01*
X0305695Y0198070D01*
X0306462Y0198837D01*
X0307997Y0198837D01*
X0308764Y0198070D01*
X0316361Y0195251D02*
X0317128Y0194483D01*
X0318663Y0194483D01*
X0319430Y0195251D01*
X0320965Y0197553D02*
X0321732Y0196785D01*
X0324034Y0196785D01*
X0324034Y0198320D02*
X0323267Y0199087D01*
X0321732Y0199087D01*
X0320965Y0198320D01*
X0320965Y0197553D01*
X0317705Y0215733D02*
X0317705Y0220337D01*
X0315403Y0218035D01*
X0318472Y0218035D01*
X0313868Y0218035D02*
X0311566Y0218035D01*
X0310799Y0218803D01*
X0310799Y0219570D01*
X0311566Y0220337D01*
X0313101Y0220337D01*
X0313868Y0219570D01*
X0313868Y0216501D01*
X0313101Y0215733D01*
X0311566Y0215733D01*
X0310799Y0216501D01*
X0309264Y0216501D02*
X0308497Y0215733D01*
X0306962Y0215733D01*
X0306195Y0216501D01*
X0306195Y0219570D01*
X0306962Y0220337D01*
X0308497Y0220337D01*
X0309264Y0219570D01*
X0322020Y0176699D02*
X0321253Y0175931D01*
X0321253Y0174397D01*
X0322020Y0173630D01*
X0322020Y0172095D02*
X0321253Y0171328D01*
X0321253Y0169793D01*
X0322020Y0169026D01*
X0322788Y0169026D01*
X0323555Y0169793D01*
X0323555Y0172095D01*
X0325090Y0172095D02*
X0322020Y0172095D01*
X0325090Y0172095D02*
X0325857Y0171328D01*
X0325857Y0169793D01*
X0325090Y0169026D01*
X0325090Y0167491D02*
X0325857Y0166724D01*
X0325857Y0165189D01*
X0325090Y0164422D01*
X0322020Y0164422D01*
X0321253Y0165189D01*
X0321253Y0166724D01*
X0322020Y0167491D01*
X0325857Y0173630D02*
X0322788Y0176699D01*
X0322020Y0176699D01*
X0325857Y0176699D02*
X0325857Y0173630D01*
X0329253Y0150449D02*
X0329253Y0147380D01*
X0331555Y0147380D01*
X0330788Y0148914D01*
X0330788Y0149681D01*
X0331555Y0150449D01*
X0333090Y0150449D01*
X0333857Y0149681D01*
X0333857Y0148147D01*
X0333090Y0147380D01*
X0333090Y0145845D02*
X0333857Y0145078D01*
X0333857Y0143543D01*
X0333090Y0142776D01*
X0330020Y0145845D01*
X0333090Y0145845D01*
X0333090Y0142776D02*
X0330020Y0142776D01*
X0329253Y0143543D01*
X0329253Y0145078D01*
X0330020Y0145845D01*
X0333857Y0141241D02*
X0333857Y0138172D01*
X0333857Y0139706D02*
X0329253Y0139706D01*
X0330788Y0138172D01*
X0330020Y0136637D02*
X0329253Y0135870D01*
X0329253Y0134335D01*
X0330020Y0133568D01*
X0333090Y0133568D01*
X0333857Y0134335D01*
X0333857Y0135870D01*
X0333090Y0136637D01*
X0312999Y0105837D02*
X0312999Y0101233D01*
X0311465Y0101233D02*
X0314534Y0101233D01*
X0311465Y0104303D02*
X0312999Y0105837D01*
X0308395Y0105837D02*
X0308395Y0101233D01*
X0306861Y0101233D02*
X0309930Y0101233D01*
X0306861Y0104303D02*
X0308395Y0105837D01*
X0305326Y0105070D02*
X0305326Y0103535D01*
X0304559Y0102768D01*
X0302257Y0102768D01*
X0302257Y0101233D02*
X0302257Y0105837D01*
X0304559Y0105837D01*
X0305326Y0105070D01*
X0304559Y0080837D02*
X0305326Y0080070D01*
X0305326Y0078535D01*
X0304559Y0077768D01*
X0302257Y0077768D01*
X0302257Y0076233D02*
X0302257Y0080837D01*
X0304559Y0080837D01*
X0306861Y0079303D02*
X0308395Y0080837D01*
X0308395Y0076233D01*
X0306861Y0076233D02*
X0309930Y0076233D01*
X0311465Y0076233D02*
X0314534Y0079303D01*
X0314534Y0080070D01*
X0313767Y0080837D01*
X0312232Y0080837D01*
X0311465Y0080070D01*
X0311465Y0076233D02*
X0314534Y0076233D01*
X0259534Y0077001D02*
X0258767Y0076233D01*
X0257232Y0076233D01*
X0256465Y0077001D01*
X0259534Y0080070D01*
X0259534Y0077001D01*
X0259534Y0080070D02*
X0258767Y0080837D01*
X0257232Y0080837D01*
X0256465Y0080070D01*
X0256465Y0077001D01*
X0254930Y0076233D02*
X0251861Y0076233D01*
X0253395Y0076233D02*
X0253395Y0080837D01*
X0251861Y0079303D01*
X0250326Y0080070D02*
X0250326Y0078535D01*
X0249559Y0077768D01*
X0247257Y0077768D01*
X0247257Y0076233D02*
X0247257Y0080837D01*
X0249559Y0080837D01*
X0250326Y0080070D01*
X0249757Y0101233D02*
X0249757Y0105837D01*
X0252059Y0105837D01*
X0252826Y0105070D01*
X0252826Y0103535D01*
X0252059Y0102768D01*
X0249757Y0102768D01*
X0254361Y0102001D02*
X0255128Y0101233D01*
X0256663Y0101233D01*
X0257430Y0102001D01*
X0257430Y0105070D01*
X0256663Y0105837D01*
X0255128Y0105837D01*
X0254361Y0105070D01*
X0254361Y0104303D01*
X0255128Y0103535D01*
X0257430Y0103535D01*
X0283520Y0133568D02*
X0286590Y0133568D01*
X0287357Y0134335D01*
X0287357Y0135870D01*
X0286590Y0136637D01*
X0287357Y0138172D02*
X0287357Y0141241D01*
X0287357Y0142776D02*
X0287357Y0145845D01*
X0287357Y0144310D02*
X0282753Y0144310D01*
X0284288Y0142776D01*
X0282753Y0139706D02*
X0287357Y0139706D01*
X0284288Y0138172D02*
X0282753Y0139706D01*
X0283520Y0136637D02*
X0282753Y0135870D01*
X0282753Y0134335D01*
X0283520Y0133568D01*
X0282753Y0147380D02*
X0285055Y0147380D01*
X0284288Y0148914D01*
X0284288Y0149681D01*
X0285055Y0150449D01*
X0286590Y0150449D01*
X0287357Y0149681D01*
X0287357Y0148147D01*
X0286590Y0147380D01*
X0282753Y0147380D02*
X0282753Y0150449D01*
X0278590Y0159818D02*
X0275520Y0159818D01*
X0274753Y0160585D01*
X0274753Y0162120D01*
X0275520Y0162887D01*
X0276288Y0164422D02*
X0274753Y0165956D01*
X0279357Y0165956D01*
X0279357Y0164422D02*
X0279357Y0167491D01*
X0279357Y0169026D02*
X0279357Y0172095D01*
X0279357Y0170560D02*
X0274753Y0170560D01*
X0276288Y0169026D01*
X0275520Y0173630D02*
X0274753Y0174397D01*
X0274753Y0175931D01*
X0275520Y0176699D01*
X0278590Y0173630D01*
X0279357Y0174397D01*
X0279357Y0175931D01*
X0278590Y0176699D01*
X0275520Y0176699D01*
X0275520Y0173630D02*
X0278590Y0173630D01*
X0278590Y0162887D02*
X0279357Y0162120D01*
X0279357Y0160585D01*
X0278590Y0159818D01*
X0223857Y0149681D02*
X0223857Y0148147D01*
X0223090Y0147380D01*
X0220020Y0150449D01*
X0223090Y0150449D01*
X0223857Y0149681D01*
X0223090Y0147380D02*
X0220020Y0147380D01*
X0219253Y0148147D01*
X0219253Y0149681D01*
X0220020Y0150449D01*
X0220020Y0145845D02*
X0223090Y0142776D01*
X0223857Y0142776D01*
X0223090Y0141241D02*
X0223857Y0140474D01*
X0223857Y0138939D01*
X0223090Y0138172D01*
X0220020Y0138172D01*
X0219253Y0138939D01*
X0219253Y0140474D01*
X0220020Y0141241D01*
X0219253Y0142776D02*
X0219253Y0145845D01*
X0220020Y0145845D01*
X0215090Y0164422D02*
X0212020Y0164422D01*
X0211253Y0165189D01*
X0211253Y0166724D01*
X0212020Y0167491D01*
X0211253Y0169026D02*
X0213555Y0169026D01*
X0212788Y0170560D01*
X0212788Y0171328D01*
X0213555Y0172095D01*
X0215090Y0172095D01*
X0215857Y0171328D01*
X0215857Y0169793D01*
X0215090Y0169026D01*
X0215090Y0167491D02*
X0215857Y0166724D01*
X0215857Y0165189D01*
X0215090Y0164422D01*
X0211253Y0169026D02*
X0211253Y0172095D01*
X0211253Y0173630D02*
X0211253Y0176699D01*
X0212020Y0176699D01*
X0215090Y0173630D01*
X0215857Y0173630D01*
X0213267Y0194483D02*
X0213267Y0199087D01*
X0210965Y0196785D01*
X0214034Y0196785D01*
X0209430Y0196018D02*
X0208663Y0196785D01*
X0206361Y0196785D01*
X0206361Y0195251D01*
X0207128Y0194483D01*
X0208663Y0194483D01*
X0209430Y0195251D01*
X0209430Y0196018D01*
X0207972Y0195001D02*
X0207205Y0194233D01*
X0205670Y0194233D01*
X0204903Y0195001D01*
X0207972Y0198070D01*
X0207972Y0195001D01*
X0206361Y0196785D02*
X0207895Y0198320D01*
X0209430Y0199087D01*
X0207972Y0198070D02*
X0207205Y0198837D01*
X0205670Y0198837D01*
X0204903Y0198070D01*
X0204903Y0195001D01*
X0204826Y0195251D02*
X0204059Y0194483D01*
X0202524Y0194483D01*
X0201757Y0195251D01*
X0201757Y0198320D01*
X0202524Y0199087D01*
X0204059Y0199087D01*
X0204826Y0198320D01*
X0203368Y0198837D02*
X0201834Y0198070D01*
X0200299Y0196535D01*
X0202601Y0196535D01*
X0203368Y0195768D01*
X0203368Y0195001D01*
X0202601Y0194233D01*
X0201066Y0194233D01*
X0200299Y0195001D01*
X0200299Y0196535D01*
X0198764Y0195001D02*
X0197997Y0194233D01*
X0196462Y0194233D01*
X0195695Y0195001D01*
X0195695Y0198070D01*
X0196462Y0198837D01*
X0197997Y0198837D01*
X0198764Y0198070D01*
X0198497Y0215733D02*
X0196962Y0215733D01*
X0196195Y0216501D01*
X0196195Y0219570D01*
X0196962Y0220337D01*
X0198497Y0220337D01*
X0199264Y0219570D01*
X0200799Y0220337D02*
X0200799Y0218035D01*
X0202334Y0218803D01*
X0203101Y0218803D01*
X0203868Y0218035D01*
X0203868Y0216501D01*
X0203101Y0215733D01*
X0201566Y0215733D01*
X0200799Y0216501D01*
X0199264Y0216501D02*
X0198497Y0215733D01*
X0200799Y0220337D02*
X0203868Y0220337D01*
X0205403Y0219570D02*
X0205403Y0218803D01*
X0206170Y0218035D01*
X0208472Y0218035D01*
X0208472Y0216501D02*
X0208472Y0219570D01*
X0207705Y0220337D01*
X0206170Y0220337D01*
X0205403Y0219570D01*
X0205403Y0216501D02*
X0206170Y0215733D01*
X0207705Y0215733D01*
X0208472Y0216501D01*
X0168590Y0176699D02*
X0169357Y0175931D01*
X0169357Y0174397D01*
X0168590Y0173630D01*
X0167055Y0173630D02*
X0166288Y0175164D01*
X0166288Y0175931D01*
X0167055Y0176699D01*
X0168590Y0176699D01*
X0167055Y0173630D02*
X0164753Y0173630D01*
X0164753Y0176699D01*
X0164753Y0172095D02*
X0165520Y0172095D01*
X0168590Y0169026D01*
X0169357Y0169026D01*
X0168590Y0167491D02*
X0169357Y0166724D01*
X0169357Y0165189D01*
X0168590Y0164422D01*
X0165520Y0164422D01*
X0164753Y0165189D01*
X0164753Y0166724D01*
X0165520Y0167491D01*
X0164753Y0169026D02*
X0164753Y0172095D01*
X0173520Y0150449D02*
X0176590Y0147380D01*
X0177357Y0148147D01*
X0177357Y0149681D01*
X0176590Y0150449D01*
X0173520Y0150449D01*
X0172753Y0149681D01*
X0172753Y0148147D01*
X0173520Y0147380D01*
X0176590Y0147380D01*
X0176590Y0145845D02*
X0177357Y0145078D01*
X0177357Y0143543D01*
X0176590Y0142776D01*
X0175822Y0142776D01*
X0175055Y0143543D01*
X0175055Y0145078D01*
X0175822Y0145845D01*
X0176590Y0145845D01*
X0175055Y0145078D02*
X0174288Y0145845D01*
X0173520Y0145845D01*
X0172753Y0145078D01*
X0172753Y0143543D01*
X0173520Y0142776D01*
X0174288Y0142776D01*
X0175055Y0143543D01*
X0176590Y0141241D02*
X0177357Y0140474D01*
X0177357Y0138939D01*
X0176590Y0138172D01*
X0173520Y0138172D01*
X0172753Y0138939D01*
X0172753Y0140474D01*
X0173520Y0141241D01*
X0194757Y0105837D02*
X0197059Y0105837D01*
X0197826Y0105070D01*
X0197826Y0103535D01*
X0197059Y0102768D01*
X0194757Y0102768D01*
X0194757Y0101233D02*
X0194757Y0105837D01*
X0199361Y0105837D02*
X0202430Y0105837D01*
X0202430Y0105070D01*
X0199361Y0102001D01*
X0199361Y0101233D01*
X0200128Y0080837D02*
X0201663Y0080837D01*
X0202430Y0080070D01*
X0202430Y0079303D01*
X0201663Y0078535D01*
X0200128Y0078535D01*
X0199361Y0079303D01*
X0199361Y0080070D01*
X0200128Y0080837D01*
X0200128Y0078535D02*
X0199361Y0077768D01*
X0199361Y0077001D01*
X0200128Y0076233D01*
X0201663Y0076233D01*
X0202430Y0077001D01*
X0202430Y0077768D01*
X0201663Y0078535D01*
X0197826Y0078535D02*
X0197059Y0077768D01*
X0194757Y0077768D01*
X0194757Y0076233D02*
X0194757Y0080837D01*
X0197059Y0080837D01*
X0197826Y0080070D01*
X0197826Y0078535D01*
X0147430Y0077768D02*
X0147430Y0077001D01*
X0146663Y0076233D01*
X0145128Y0076233D01*
X0144361Y0077001D01*
X0144361Y0078535D01*
X0146663Y0078535D01*
X0147430Y0077768D01*
X0145895Y0080070D02*
X0147430Y0080837D01*
X0145895Y0080070D02*
X0144361Y0078535D01*
X0142826Y0078535D02*
X0142059Y0077768D01*
X0139757Y0077768D01*
X0139757Y0076233D02*
X0139757Y0080837D01*
X0142059Y0080837D01*
X0142826Y0080070D01*
X0142826Y0078535D01*
X0145128Y0101233D02*
X0144361Y0102001D01*
X0145128Y0101233D02*
X0146663Y0101233D01*
X0147430Y0102001D01*
X0147430Y0103535D01*
X0146663Y0104303D01*
X0145895Y0104303D01*
X0144361Y0103535D01*
X0144361Y0105837D01*
X0147430Y0105837D01*
X0142826Y0105070D02*
X0142826Y0103535D01*
X0142059Y0102768D01*
X0139757Y0102768D01*
X0139757Y0101233D02*
X0139757Y0105837D01*
X0142059Y0105837D01*
X0142826Y0105070D01*
X0113090Y0138172D02*
X0110020Y0138172D01*
X0109253Y0138939D01*
X0109253Y0140474D01*
X0110020Y0141241D01*
X0110020Y0142776D02*
X0109253Y0143543D01*
X0109253Y0145078D01*
X0110020Y0145845D01*
X0110788Y0145845D01*
X0113857Y0142776D01*
X0113857Y0145845D01*
X0111555Y0147380D02*
X0111555Y0150449D01*
X0113857Y0149681D02*
X0109253Y0149681D01*
X0111555Y0147380D01*
X0113090Y0141241D02*
X0113857Y0140474D01*
X0113857Y0138939D01*
X0113090Y0138172D01*
X0105090Y0164422D02*
X0102020Y0164422D01*
X0101253Y0165189D01*
X0101253Y0166724D01*
X0102020Y0167491D01*
X0102788Y0169026D02*
X0101253Y0170560D01*
X0105857Y0170560D01*
X0105857Y0169026D02*
X0105857Y0172095D01*
X0105090Y0173630D02*
X0104322Y0173630D01*
X0103555Y0174397D01*
X0103555Y0175931D01*
X0104322Y0176699D01*
X0105090Y0176699D01*
X0105857Y0175931D01*
X0105857Y0174397D01*
X0105090Y0173630D01*
X0103555Y0174397D02*
X0102788Y0173630D01*
X0102020Y0173630D01*
X0101253Y0174397D01*
X0101253Y0175931D01*
X0102020Y0176699D01*
X0102788Y0176699D01*
X0103555Y0175931D01*
X0105090Y0167491D02*
X0105857Y0166724D01*
X0105857Y0165189D01*
X0105090Y0164422D01*
X0103267Y0194483D02*
X0101732Y0194483D01*
X0100965Y0195251D01*
X0102499Y0196785D02*
X0103267Y0196785D01*
X0104034Y0196018D01*
X0104034Y0195251D01*
X0103267Y0194483D01*
X0103267Y0196785D02*
X0104034Y0197553D01*
X0104034Y0198320D01*
X0103267Y0199087D01*
X0101732Y0199087D01*
X0100965Y0198320D01*
X0099430Y0196785D02*
X0096361Y0196785D01*
X0098663Y0199087D01*
X0098663Y0194483D01*
X0097972Y0195001D02*
X0097972Y0198070D01*
X0097205Y0198837D01*
X0095670Y0198837D01*
X0094903Y0198070D01*
X0094903Y0197303D01*
X0095670Y0196535D01*
X0097972Y0196535D01*
X0097972Y0195001D02*
X0097205Y0194233D01*
X0095670Y0194233D01*
X0094903Y0195001D01*
X0094826Y0195251D02*
X0094059Y0194483D01*
X0092524Y0194483D01*
X0091757Y0195251D01*
X0091757Y0198320D01*
X0092524Y0199087D01*
X0094059Y0199087D01*
X0094826Y0198320D01*
X0093368Y0198070D02*
X0093368Y0197303D01*
X0092601Y0196535D01*
X0093368Y0195768D01*
X0093368Y0195001D01*
X0092601Y0194233D01*
X0091066Y0194233D01*
X0090299Y0195001D01*
X0088764Y0195001D02*
X0087997Y0194233D01*
X0086462Y0194233D01*
X0085695Y0195001D01*
X0085695Y0198070D01*
X0086462Y0198837D01*
X0087997Y0198837D01*
X0088764Y0198070D01*
X0090299Y0198070D02*
X0091066Y0198837D01*
X0092601Y0198837D01*
X0093368Y0198070D01*
X0092601Y0196535D02*
X0091834Y0196535D01*
X0091566Y0215733D02*
X0090799Y0216501D01*
X0091566Y0215733D02*
X0093101Y0215733D01*
X0093868Y0216501D01*
X0093868Y0217268D01*
X0093101Y0218035D01*
X0092334Y0218035D01*
X0093101Y0218035D02*
X0093868Y0218803D01*
X0093868Y0219570D01*
X0093101Y0220337D01*
X0091566Y0220337D01*
X0090799Y0219570D01*
X0089264Y0219570D02*
X0088497Y0220337D01*
X0086962Y0220337D01*
X0086195Y0219570D01*
X0086195Y0216501D01*
X0086962Y0215733D01*
X0088497Y0215733D01*
X0089264Y0216501D01*
X0095403Y0216501D02*
X0095403Y0217268D01*
X0096170Y0218035D01*
X0097705Y0218035D01*
X0098472Y0217268D01*
X0098472Y0216501D01*
X0097705Y0215733D01*
X0096170Y0215733D01*
X0095403Y0216501D01*
X0096170Y0218035D02*
X0095403Y0218803D01*
X0095403Y0219570D01*
X0096170Y0220337D01*
X0097705Y0220337D01*
X0098472Y0219570D01*
X0098472Y0218803D01*
X0097705Y0218035D01*
X0058590Y0176699D02*
X0055520Y0176699D01*
X0054753Y0175931D01*
X0054753Y0174397D01*
X0055520Y0173630D01*
X0056288Y0173630D01*
X0057055Y0174397D01*
X0057055Y0176699D01*
X0058590Y0176699D02*
X0059357Y0175931D01*
X0059357Y0174397D01*
X0058590Y0173630D01*
X0059357Y0172095D02*
X0059357Y0169026D01*
X0056288Y0172095D01*
X0055520Y0172095D01*
X0054753Y0171328D01*
X0054753Y0169793D01*
X0055520Y0169026D01*
X0055520Y0167491D02*
X0054753Y0166724D01*
X0054753Y0165189D01*
X0055520Y0164422D01*
X0058590Y0164422D01*
X0059357Y0165189D01*
X0059357Y0166724D01*
X0058590Y0167491D01*
X0065055Y0150449D02*
X0065055Y0147380D01*
X0062753Y0149681D01*
X0067357Y0149681D01*
X0066590Y0145845D02*
X0067357Y0145078D01*
X0067357Y0143543D01*
X0066590Y0142776D01*
X0066590Y0141241D02*
X0067357Y0140474D01*
X0067357Y0138939D01*
X0066590Y0138172D01*
X0063520Y0138172D01*
X0062753Y0138939D01*
X0062753Y0140474D01*
X0063520Y0141241D01*
X0063520Y0142776D02*
X0062753Y0143543D01*
X0062753Y0145078D01*
X0063520Y0145845D01*
X0064288Y0145845D01*
X0065055Y0145078D01*
X0065822Y0145845D01*
X0066590Y0145845D01*
X0065055Y0145078D02*
X0065055Y0144310D01*
X0084757Y0105837D02*
X0087059Y0105837D01*
X0087826Y0105070D01*
X0087826Y0103535D01*
X0087059Y0102768D01*
X0084757Y0102768D01*
X0084757Y0101233D02*
X0084757Y0105837D01*
X0089361Y0105070D02*
X0090128Y0105837D01*
X0091663Y0105837D01*
X0092430Y0105070D01*
X0092430Y0104303D01*
X0091663Y0103535D01*
X0092430Y0102768D01*
X0092430Y0102001D01*
X0091663Y0101233D01*
X0090128Y0101233D01*
X0089361Y0102001D01*
X0090895Y0103535D02*
X0091663Y0103535D01*
X0091663Y0080837D02*
X0089361Y0078535D01*
X0092430Y0078535D01*
X0091663Y0076233D02*
X0091663Y0080837D01*
X0087826Y0080070D02*
X0087826Y0078535D01*
X0087059Y0077768D01*
X0084757Y0077768D01*
X0084757Y0076233D02*
X0084757Y0080837D01*
X0087059Y0080837D01*
X0087826Y0080070D01*
X0037430Y0080070D02*
X0036663Y0080837D01*
X0035128Y0080837D01*
X0034361Y0080070D01*
X0032826Y0080070D02*
X0032826Y0078535D01*
X0032059Y0077768D01*
X0029757Y0077768D01*
X0029757Y0076233D02*
X0029757Y0080837D01*
X0032059Y0080837D01*
X0032826Y0080070D01*
X0034361Y0076233D02*
X0037430Y0079303D01*
X0037430Y0080070D01*
X0037430Y0076233D02*
X0034361Y0076233D01*
X0034361Y0101233D02*
X0037430Y0101233D01*
X0035895Y0101233D02*
X0035895Y0105837D01*
X0034361Y0104303D01*
X0032826Y0105070D02*
X0032826Y0103535D01*
X0032059Y0102768D01*
X0029757Y0102768D01*
X0029757Y0101233D02*
X0029757Y0105837D01*
X0032059Y0105837D01*
X0032826Y0105070D01*
X0007467Y0251826D02*
X0002863Y0251826D01*
X0002863Y0254128D01*
X0003630Y0254895D01*
X0006699Y0254895D01*
X0007467Y0254128D01*
X0007467Y0251826D01*
X0007467Y0256430D02*
X0004397Y0256430D01*
X0002863Y0257964D01*
X0004397Y0259499D01*
X0007467Y0259499D01*
X0007467Y0261033D02*
X0007467Y0262568D01*
X0007467Y0261801D02*
X0002863Y0261801D01*
X0002863Y0262568D02*
X0002863Y0261033D01*
X0005165Y0259499D02*
X0005165Y0256430D01*
X0004397Y0264103D02*
X0003630Y0264103D01*
X0002863Y0264870D01*
X0002863Y0266405D01*
X0003630Y0267172D01*
X0003630Y0268707D02*
X0005165Y0270241D01*
X0007467Y0270241D01*
X0005165Y0270241D02*
X0003630Y0271776D01*
X0002863Y0271776D01*
X0002863Y0268707D02*
X0003630Y0268707D01*
X0005165Y0266405D02*
X0005932Y0267172D01*
X0006699Y0267172D01*
X0007467Y0266405D01*
X0007467Y0264870D01*
X0006699Y0264103D01*
X0005165Y0264870D02*
X0005165Y0266405D01*
X0005165Y0264870D02*
X0004397Y0264103D01*
X0008234Y0273311D02*
X0008234Y0276380D01*
X0006699Y0277914D02*
X0007467Y0278682D01*
X0007467Y0280216D01*
X0006699Y0280984D01*
X0003630Y0280984D01*
X0002863Y0280216D01*
X0002863Y0278682D01*
X0003630Y0277914D01*
X0006699Y0277914D01*
X0006699Y0282518D02*
X0002863Y0282518D01*
X0002863Y0285588D02*
X0006699Y0285588D01*
X0007467Y0284820D01*
X0007467Y0283286D01*
X0006699Y0282518D01*
X0002863Y0287122D02*
X0002863Y0290192D01*
X0002863Y0288657D02*
X0007467Y0288657D01*
X0068257Y0290001D02*
X0069024Y0289233D01*
X0070559Y0289233D01*
X0071326Y0290001D01*
X0072861Y0290001D02*
X0073628Y0289233D01*
X0075163Y0289233D01*
X0075930Y0290001D01*
X0075930Y0290768D01*
X0075163Y0291535D01*
X0074395Y0291535D01*
X0075163Y0291535D02*
X0075930Y0292303D01*
X0075930Y0293070D01*
X0075163Y0293837D01*
X0073628Y0293837D01*
X0072861Y0293070D01*
X0071326Y0293070D02*
X0070559Y0293837D01*
X0069024Y0293837D01*
X0068257Y0293070D01*
X0068257Y0290001D01*
X0069024Y0297733D02*
X0070559Y0297733D01*
X0071326Y0298501D01*
X0072861Y0297733D02*
X0075930Y0300803D01*
X0075930Y0301570D01*
X0075163Y0302337D01*
X0073628Y0302337D01*
X0072861Y0301570D01*
X0071326Y0301570D02*
X0070559Y0302337D01*
X0069024Y0302337D01*
X0068257Y0301570D01*
X0068257Y0298501D01*
X0069024Y0297733D01*
X0072861Y0297733D02*
X0075930Y0297733D01*
X0087049Y0286570D02*
X0087049Y0283501D01*
X0087816Y0282733D01*
X0089351Y0282733D01*
X0090118Y0283501D01*
X0091653Y0283501D02*
X0091653Y0285035D01*
X0093955Y0285035D01*
X0094722Y0284268D01*
X0094722Y0283501D01*
X0093955Y0282733D01*
X0092420Y0282733D01*
X0091653Y0283501D01*
X0091653Y0285035D02*
X0093188Y0286570D01*
X0094722Y0287337D01*
X0090118Y0286570D02*
X0089351Y0287337D01*
X0087816Y0287337D01*
X0087049Y0286570D01*
X0087816Y0278837D02*
X0087049Y0278070D01*
X0087049Y0275001D01*
X0087816Y0274233D01*
X0089351Y0274233D01*
X0090118Y0275001D01*
X0091653Y0275001D02*
X0094722Y0278070D01*
X0094722Y0278837D01*
X0091653Y0278837D01*
X0090118Y0278070D02*
X0089351Y0278837D01*
X0087816Y0278837D01*
X0091653Y0275001D02*
X0091653Y0274233D01*
X0101520Y0301026D02*
X0104590Y0301026D01*
X0105357Y0301793D01*
X0105357Y0303328D01*
X0104590Y0304095D01*
X0103055Y0305630D02*
X0100753Y0307931D01*
X0105357Y0307931D01*
X0103055Y0308699D02*
X0103055Y0305630D01*
X0101520Y0304095D02*
X0100753Y0303328D01*
X0100753Y0301793D01*
X0101520Y0301026D01*
X0125048Y0298837D02*
X0129652Y0298837D01*
X0129652Y0301906D01*
X0128885Y0303441D02*
X0129652Y0304208D01*
X0129652Y0305743D01*
X0128885Y0306510D01*
X0128117Y0306510D01*
X0127350Y0305743D01*
X0127350Y0304975D01*
X0127350Y0305743D02*
X0126583Y0306510D01*
X0125815Y0306510D01*
X0125048Y0305743D01*
X0125048Y0304208D01*
X0125815Y0303441D01*
X0125753Y0304233D02*
X0125753Y0306535D01*
X0126520Y0307303D01*
X0128055Y0307303D01*
X0128822Y0306535D01*
X0128822Y0304233D01*
X0130357Y0304233D02*
X0125753Y0304233D01*
X0125549Y0307483D02*
X0125549Y0312087D01*
X0127851Y0312087D01*
X0128618Y0311320D01*
X0128618Y0309785D01*
X0127851Y0309018D01*
X0125549Y0309018D01*
X0125753Y0310372D02*
X0130357Y0310372D01*
X0130153Y0310553D02*
X0130153Y0311320D01*
X0130920Y0312087D01*
X0132455Y0312087D01*
X0133222Y0311320D01*
X0133222Y0310553D01*
X0132455Y0309785D01*
X0130920Y0309785D01*
X0130153Y0310553D01*
X0130920Y0309785D02*
X0130153Y0309018D01*
X0130153Y0308251D01*
X0130920Y0307483D01*
X0132455Y0307483D01*
X0133222Y0308251D01*
X0133222Y0309018D01*
X0132455Y0309785D01*
X0130357Y0308837D02*
X0130357Y0311907D01*
X0127288Y0308837D02*
X0125753Y0310372D01*
X0127084Y0309018D02*
X0128618Y0307483D01*
X0128822Y0305768D02*
X0130357Y0307303D01*
X0150757Y0301070D02*
X0150757Y0298001D01*
X0151524Y0297233D01*
X0153059Y0297233D01*
X0153826Y0298001D01*
X0155361Y0298001D02*
X0156128Y0297233D01*
X0157663Y0297233D01*
X0158430Y0298001D01*
X0158430Y0298768D01*
X0157663Y0299535D01*
X0156895Y0299535D01*
X0157663Y0299535D02*
X0158430Y0300303D01*
X0158430Y0301070D01*
X0157663Y0301837D01*
X0156128Y0301837D01*
X0155361Y0301070D01*
X0153826Y0301070D02*
X0153059Y0301837D01*
X0151524Y0301837D01*
X0150757Y0301070D01*
X0159965Y0301837D02*
X0163034Y0301837D01*
X0163034Y0301070D01*
X0159965Y0298001D01*
X0159965Y0297233D01*
X0163253Y0301776D02*
X0163253Y0304078D01*
X0164020Y0304845D01*
X0167090Y0304845D01*
X0167857Y0304078D01*
X0167857Y0301776D01*
X0163253Y0301776D01*
X0164788Y0306380D02*
X0163253Y0307914D01*
X0167857Y0307914D01*
X0167857Y0306380D02*
X0167857Y0309449D01*
X0165722Y0308768D02*
X0164955Y0309535D01*
X0162653Y0309535D01*
X0162653Y0308001D01*
X0163420Y0307233D01*
X0164955Y0307233D01*
X0165722Y0308001D01*
X0165722Y0308768D01*
X0164188Y0311070D02*
X0162653Y0309535D01*
X0161118Y0309535D02*
X0160351Y0308768D01*
X0158049Y0308768D01*
X0158049Y0307233D02*
X0158049Y0311837D01*
X0160351Y0311837D01*
X0161118Y0311070D01*
X0161118Y0309535D01*
X0159584Y0308768D02*
X0161118Y0307233D01*
X0164188Y0311070D02*
X0165722Y0311837D01*
X0165989Y0343707D02*
X0165222Y0344475D01*
X0165222Y0347544D01*
X0165989Y0348311D01*
X0167524Y0348311D01*
X0168291Y0347544D01*
X0168291Y0344475D01*
X0167524Y0343707D01*
X0165989Y0343707D01*
X0166757Y0345242D02*
X0168291Y0343707D01*
X0169826Y0343707D02*
X0172895Y0346777D01*
X0172895Y0347544D01*
X0172128Y0348311D01*
X0170593Y0348311D01*
X0169826Y0347544D01*
X0169826Y0343707D02*
X0172895Y0343707D01*
X0156722Y0278337D02*
X0153653Y0278337D01*
X0152118Y0277570D02*
X0152118Y0276035D01*
X0151351Y0275268D01*
X0149049Y0275268D01*
X0149049Y0273733D02*
X0149049Y0278337D01*
X0151351Y0278337D01*
X0152118Y0277570D01*
X0150584Y0275268D02*
X0152118Y0273733D01*
X0153653Y0273733D02*
X0153653Y0274501D01*
X0156722Y0277570D01*
X0156722Y0278337D01*
X0294299Y0302233D02*
X0296601Y0302233D01*
X0297368Y0303001D01*
X0297368Y0306070D01*
X0296601Y0306837D01*
X0294299Y0306837D01*
X0294299Y0302233D01*
X0298903Y0302233D02*
X0301972Y0305303D01*
X0301972Y0306070D01*
X0301205Y0306837D01*
X0299670Y0306837D01*
X0298903Y0306070D01*
X0298903Y0302233D02*
X0301972Y0302233D01*
X0338662Y0314607D02*
X0340964Y0314607D01*
X0341732Y0315375D01*
X0341732Y0318444D01*
X0340964Y0319211D01*
X0338662Y0319211D01*
X0338662Y0314607D01*
X0343266Y0314607D02*
X0343266Y0317677D01*
X0344801Y0319211D01*
X0346336Y0317677D01*
X0346336Y0314607D01*
X0347870Y0314607D02*
X0349405Y0314607D01*
X0348637Y0314607D02*
X0348637Y0319211D01*
X0347870Y0319211D02*
X0349405Y0319211D01*
X0350939Y0318444D02*
X0350939Y0317677D01*
X0351707Y0316909D01*
X0353241Y0316909D01*
X0354009Y0316142D01*
X0354009Y0315375D01*
X0353241Y0314607D01*
X0351707Y0314607D01*
X0350939Y0315375D01*
X0350939Y0318444D02*
X0351707Y0319211D01*
X0353241Y0319211D01*
X0354009Y0318444D01*
X0355543Y0318444D02*
X0357078Y0316909D01*
X0357078Y0314607D01*
X0357078Y0316909D02*
X0358613Y0318444D01*
X0358613Y0319211D01*
X0355543Y0319211D02*
X0355543Y0318444D01*
X0360147Y0313840D02*
X0363217Y0313840D01*
X0364751Y0314607D02*
X0366286Y0314607D01*
X0365519Y0314607D02*
X0365519Y0319211D01*
X0366286Y0319211D02*
X0364751Y0319211D01*
X0367821Y0319211D02*
X0370890Y0314607D01*
X0370890Y0319211D01*
X0367821Y0319211D02*
X0367821Y0314607D01*
X0346336Y0316909D02*
X0343266Y0316909D01*
D13*
X0338738Y0312596D02*
X0372202Y0312596D01*
X0372202Y0270628D01*
X0338738Y0270628D01*
X0338738Y0312596D01*
X0338462Y0308502D02*
X0336494Y0308502D01*
X0336494Y0304565D01*
X0338462Y0304565D01*
X0338462Y0298659D02*
X0336494Y0298659D01*
X0336494Y0294722D01*
X0338462Y0294722D01*
X0338462Y0288817D02*
X0336494Y0288817D01*
X0336494Y0284880D01*
X0338462Y0284880D01*
X0338462Y0278974D02*
X0336494Y0278974D01*
X0336494Y0275037D01*
X0338462Y0275037D01*
X0318706Y0291634D02*
X0318706Y0292028D01*
X0318706Y0291634D02*
X0312407Y0291634D01*
X0312407Y0292028D01*
X0312407Y0297539D02*
X0312407Y0297933D01*
X0318706Y0297933D01*
X0318706Y0297539D01*
X0302307Y0319533D02*
X0302309Y0319577D01*
X0302315Y0319621D01*
X0302325Y0319664D01*
X0302338Y0319706D01*
X0302355Y0319747D01*
X0302376Y0319786D01*
X0302400Y0319823D01*
X0302427Y0319858D01*
X0302457Y0319890D01*
X0302490Y0319920D01*
X0302526Y0319946D01*
X0302563Y0319970D01*
X0302603Y0319989D01*
X0302644Y0320006D01*
X0302687Y0320018D01*
X0302730Y0320027D01*
X0302774Y0320032D01*
X0302818Y0320033D01*
X0302862Y0320030D01*
X0302906Y0320023D01*
X0302949Y0320012D01*
X0302991Y0319998D01*
X0303031Y0319980D01*
X0303070Y0319958D01*
X0303106Y0319934D01*
X0303140Y0319906D01*
X0303172Y0319875D01*
X0303201Y0319841D01*
X0303227Y0319805D01*
X0303249Y0319767D01*
X0303268Y0319727D01*
X0303283Y0319685D01*
X0303295Y0319643D01*
X0303303Y0319599D01*
X0303307Y0319555D01*
X0303307Y0319511D01*
X0303303Y0319467D01*
X0303295Y0319423D01*
X0303283Y0319381D01*
X0303268Y0319339D01*
X0303249Y0319299D01*
X0303227Y0319261D01*
X0303201Y0319225D01*
X0303172Y0319191D01*
X0303140Y0319160D01*
X0303106Y0319132D01*
X0303070Y0319108D01*
X0303031Y0319086D01*
X0302991Y0319068D01*
X0302949Y0319054D01*
X0302906Y0319043D01*
X0302862Y0319036D01*
X0302818Y0319033D01*
X0302774Y0319034D01*
X0302730Y0319039D01*
X0302687Y0319048D01*
X0302644Y0319060D01*
X0302603Y0319077D01*
X0302563Y0319096D01*
X0302526Y0319120D01*
X0302490Y0319146D01*
X0302457Y0319176D01*
X0302427Y0319208D01*
X0302400Y0319243D01*
X0302376Y0319280D01*
X0302355Y0319319D01*
X0302338Y0319360D01*
X0302325Y0319402D01*
X0302315Y0319445D01*
X0302309Y0319489D01*
X0302307Y0319533D01*
X0302100Y0319533D02*
X0302102Y0319586D01*
X0302108Y0319638D01*
X0302118Y0319690D01*
X0302131Y0319741D01*
X0302149Y0319791D01*
X0302170Y0319840D01*
X0302195Y0319887D01*
X0302223Y0319931D01*
X0302254Y0319974D01*
X0302289Y0320014D01*
X0302326Y0320051D01*
X0302366Y0320086D01*
X0302409Y0320117D01*
X0302454Y0320145D01*
X0302500Y0320170D01*
X0302549Y0320191D01*
X0302599Y0320209D01*
X0302650Y0320222D01*
X0302702Y0320232D01*
X0302754Y0320238D01*
X0302807Y0320240D01*
X0302860Y0320238D01*
X0302912Y0320232D01*
X0302964Y0320222D01*
X0303015Y0320209D01*
X0303065Y0320191D01*
X0303114Y0320170D01*
X0303161Y0320145D01*
X0303205Y0320117D01*
X0303248Y0320086D01*
X0303288Y0320051D01*
X0303325Y0320014D01*
X0303360Y0319974D01*
X0303391Y0319931D01*
X0303419Y0319886D01*
X0303444Y0319840D01*
X0303465Y0319791D01*
X0303483Y0319741D01*
X0303496Y0319690D01*
X0303506Y0319638D01*
X0303512Y0319586D01*
X0303514Y0319533D01*
X0303512Y0319480D01*
X0303506Y0319428D01*
X0303496Y0319376D01*
X0303483Y0319325D01*
X0303465Y0319275D01*
X0303444Y0319226D01*
X0303419Y0319179D01*
X0303391Y0319135D01*
X0303360Y0319092D01*
X0303325Y0319052D01*
X0303288Y0319015D01*
X0303248Y0318980D01*
X0303205Y0318949D01*
X0303160Y0318921D01*
X0303114Y0318896D01*
X0303065Y0318875D01*
X0303015Y0318857D01*
X0302964Y0318844D01*
X0302912Y0318834D01*
X0302860Y0318828D01*
X0302807Y0318826D01*
X0302754Y0318828D01*
X0302702Y0318834D01*
X0302650Y0318844D01*
X0302599Y0318857D01*
X0302549Y0318875D01*
X0302500Y0318896D01*
X0302453Y0318921D01*
X0302409Y0318949D01*
X0302366Y0318980D01*
X0302326Y0319015D01*
X0302289Y0319052D01*
X0302254Y0319092D01*
X0302223Y0319135D01*
X0302195Y0319180D01*
X0302170Y0319226D01*
X0302149Y0319275D01*
X0302131Y0319325D01*
X0302118Y0319376D01*
X0302108Y0319428D01*
X0302102Y0319480D01*
X0302100Y0319533D01*
X0302307Y0319533D02*
X0302309Y0319577D01*
X0302315Y0319621D01*
X0302325Y0319664D01*
X0302338Y0319706D01*
X0302355Y0319747D01*
X0302376Y0319786D01*
X0302400Y0319823D01*
X0302427Y0319858D01*
X0302457Y0319890D01*
X0302490Y0319920D01*
X0302526Y0319946D01*
X0302563Y0319970D01*
X0302603Y0319989D01*
X0302644Y0320006D01*
X0302687Y0320018D01*
X0302730Y0320027D01*
X0302774Y0320032D01*
X0302818Y0320033D01*
X0302862Y0320030D01*
X0302906Y0320023D01*
X0302949Y0320012D01*
X0302991Y0319998D01*
X0303031Y0319980D01*
X0303070Y0319958D01*
X0303106Y0319934D01*
X0303140Y0319906D01*
X0303172Y0319875D01*
X0303201Y0319841D01*
X0303227Y0319805D01*
X0303249Y0319767D01*
X0303268Y0319727D01*
X0303283Y0319685D01*
X0303295Y0319643D01*
X0303303Y0319599D01*
X0303307Y0319555D01*
X0303307Y0319511D01*
X0303303Y0319467D01*
X0303295Y0319423D01*
X0303283Y0319381D01*
X0303268Y0319339D01*
X0303249Y0319299D01*
X0303227Y0319261D01*
X0303201Y0319225D01*
X0303172Y0319191D01*
X0303140Y0319160D01*
X0303106Y0319132D01*
X0303070Y0319108D01*
X0303031Y0319086D01*
X0302991Y0319068D01*
X0302949Y0319054D01*
X0302906Y0319043D01*
X0302862Y0319036D01*
X0302818Y0319033D01*
X0302774Y0319034D01*
X0302730Y0319039D01*
X0302687Y0319048D01*
X0302644Y0319060D01*
X0302603Y0319077D01*
X0302563Y0319096D01*
X0302526Y0319120D01*
X0302490Y0319146D01*
X0302457Y0319176D01*
X0302427Y0319208D01*
X0302400Y0319243D01*
X0302376Y0319280D01*
X0302355Y0319319D01*
X0302338Y0319360D01*
X0302325Y0319402D01*
X0302315Y0319445D01*
X0302309Y0319489D01*
X0302307Y0319533D01*
X0301807Y0319533D02*
X0301809Y0319596D01*
X0301815Y0319658D01*
X0301825Y0319720D01*
X0301838Y0319782D01*
X0301856Y0319842D01*
X0301877Y0319901D01*
X0301902Y0319959D01*
X0301931Y0320015D01*
X0301963Y0320069D01*
X0301998Y0320121D01*
X0302036Y0320170D01*
X0302078Y0320218D01*
X0302122Y0320262D01*
X0302170Y0320304D01*
X0302219Y0320342D01*
X0302271Y0320377D01*
X0302325Y0320409D01*
X0302381Y0320438D01*
X0302439Y0320463D01*
X0302498Y0320484D01*
X0302558Y0320502D01*
X0302620Y0320515D01*
X0302682Y0320525D01*
X0302744Y0320531D01*
X0302807Y0320533D01*
X0302870Y0320531D01*
X0302932Y0320525D01*
X0302994Y0320515D01*
X0303056Y0320502D01*
X0303116Y0320484D01*
X0303175Y0320463D01*
X0303233Y0320438D01*
X0303289Y0320409D01*
X0303343Y0320377D01*
X0303395Y0320342D01*
X0303444Y0320304D01*
X0303492Y0320262D01*
X0303536Y0320218D01*
X0303578Y0320170D01*
X0303616Y0320121D01*
X0303651Y0320069D01*
X0303683Y0320015D01*
X0303712Y0319959D01*
X0303737Y0319901D01*
X0303758Y0319842D01*
X0303776Y0319782D01*
X0303789Y0319720D01*
X0303799Y0319658D01*
X0303805Y0319596D01*
X0303807Y0319533D01*
X0303805Y0319470D01*
X0303799Y0319408D01*
X0303789Y0319346D01*
X0303776Y0319284D01*
X0303758Y0319224D01*
X0303737Y0319165D01*
X0303712Y0319107D01*
X0303683Y0319051D01*
X0303651Y0318997D01*
X0303616Y0318945D01*
X0303578Y0318896D01*
X0303536Y0318848D01*
X0303492Y0318804D01*
X0303444Y0318762D01*
X0303395Y0318724D01*
X0303343Y0318689D01*
X0303289Y0318657D01*
X0303233Y0318628D01*
X0303175Y0318603D01*
X0303116Y0318582D01*
X0303056Y0318564D01*
X0302994Y0318551D01*
X0302932Y0318541D01*
X0302870Y0318535D01*
X0302807Y0318533D01*
X0302744Y0318535D01*
X0302682Y0318541D01*
X0302620Y0318551D01*
X0302558Y0318564D01*
X0302498Y0318582D01*
X0302439Y0318603D01*
X0302381Y0318628D01*
X0302325Y0318657D01*
X0302271Y0318689D01*
X0302219Y0318724D01*
X0302170Y0318762D01*
X0302122Y0318804D01*
X0302078Y0318848D01*
X0302036Y0318896D01*
X0301998Y0318945D01*
X0301963Y0318997D01*
X0301931Y0319051D01*
X0301902Y0319107D01*
X0301877Y0319165D01*
X0301856Y0319224D01*
X0301838Y0319284D01*
X0301825Y0319346D01*
X0301815Y0319408D01*
X0301809Y0319470D01*
X0301807Y0319533D01*
X0150057Y0310283D02*
X0150059Y0310327D01*
X0150065Y0310371D01*
X0150075Y0310414D01*
X0150088Y0310456D01*
X0150105Y0310497D01*
X0150126Y0310536D01*
X0150150Y0310573D01*
X0150177Y0310608D01*
X0150207Y0310640D01*
X0150240Y0310670D01*
X0150276Y0310696D01*
X0150313Y0310720D01*
X0150353Y0310739D01*
X0150394Y0310756D01*
X0150437Y0310768D01*
X0150480Y0310777D01*
X0150524Y0310782D01*
X0150568Y0310783D01*
X0150612Y0310780D01*
X0150656Y0310773D01*
X0150699Y0310762D01*
X0150741Y0310748D01*
X0150781Y0310730D01*
X0150820Y0310708D01*
X0150856Y0310684D01*
X0150890Y0310656D01*
X0150922Y0310625D01*
X0150951Y0310591D01*
X0150977Y0310555D01*
X0150999Y0310517D01*
X0151018Y0310477D01*
X0151033Y0310435D01*
X0151045Y0310393D01*
X0151053Y0310349D01*
X0151057Y0310305D01*
X0151057Y0310261D01*
X0151053Y0310217D01*
X0151045Y0310173D01*
X0151033Y0310131D01*
X0151018Y0310089D01*
X0150999Y0310049D01*
X0150977Y0310011D01*
X0150951Y0309975D01*
X0150922Y0309941D01*
X0150890Y0309910D01*
X0150856Y0309882D01*
X0150820Y0309858D01*
X0150781Y0309836D01*
X0150741Y0309818D01*
X0150699Y0309804D01*
X0150656Y0309793D01*
X0150612Y0309786D01*
X0150568Y0309783D01*
X0150524Y0309784D01*
X0150480Y0309789D01*
X0150437Y0309798D01*
X0150394Y0309810D01*
X0150353Y0309827D01*
X0150313Y0309846D01*
X0150276Y0309870D01*
X0150240Y0309896D01*
X0150207Y0309926D01*
X0150177Y0309958D01*
X0150150Y0309993D01*
X0150126Y0310030D01*
X0150105Y0310069D01*
X0150088Y0310110D01*
X0150075Y0310152D01*
X0150065Y0310195D01*
X0150059Y0310239D01*
X0150057Y0310283D01*
X0149850Y0310283D02*
X0149852Y0310336D01*
X0149858Y0310388D01*
X0149868Y0310440D01*
X0149881Y0310491D01*
X0149899Y0310541D01*
X0149920Y0310590D01*
X0149945Y0310637D01*
X0149973Y0310681D01*
X0150004Y0310724D01*
X0150039Y0310764D01*
X0150076Y0310801D01*
X0150116Y0310836D01*
X0150159Y0310867D01*
X0150204Y0310895D01*
X0150250Y0310920D01*
X0150299Y0310941D01*
X0150349Y0310959D01*
X0150400Y0310972D01*
X0150452Y0310982D01*
X0150504Y0310988D01*
X0150557Y0310990D01*
X0150610Y0310988D01*
X0150662Y0310982D01*
X0150714Y0310972D01*
X0150765Y0310959D01*
X0150815Y0310941D01*
X0150864Y0310920D01*
X0150911Y0310895D01*
X0150955Y0310867D01*
X0150998Y0310836D01*
X0151038Y0310801D01*
X0151075Y0310764D01*
X0151110Y0310724D01*
X0151141Y0310681D01*
X0151169Y0310636D01*
X0151194Y0310590D01*
X0151215Y0310541D01*
X0151233Y0310491D01*
X0151246Y0310440D01*
X0151256Y0310388D01*
X0151262Y0310336D01*
X0151264Y0310283D01*
X0151262Y0310230D01*
X0151256Y0310178D01*
X0151246Y0310126D01*
X0151233Y0310075D01*
X0151215Y0310025D01*
X0151194Y0309976D01*
X0151169Y0309929D01*
X0151141Y0309885D01*
X0151110Y0309842D01*
X0151075Y0309802D01*
X0151038Y0309765D01*
X0150998Y0309730D01*
X0150955Y0309699D01*
X0150910Y0309671D01*
X0150864Y0309646D01*
X0150815Y0309625D01*
X0150765Y0309607D01*
X0150714Y0309594D01*
X0150662Y0309584D01*
X0150610Y0309578D01*
X0150557Y0309576D01*
X0150504Y0309578D01*
X0150452Y0309584D01*
X0150400Y0309594D01*
X0150349Y0309607D01*
X0150299Y0309625D01*
X0150250Y0309646D01*
X0150203Y0309671D01*
X0150159Y0309699D01*
X0150116Y0309730D01*
X0150076Y0309765D01*
X0150039Y0309802D01*
X0150004Y0309842D01*
X0149973Y0309885D01*
X0149945Y0309930D01*
X0149920Y0309976D01*
X0149899Y0310025D01*
X0149881Y0310075D01*
X0149868Y0310126D01*
X0149858Y0310178D01*
X0149852Y0310230D01*
X0149850Y0310283D01*
X0150057Y0310283D02*
X0150059Y0310327D01*
X0150065Y0310371D01*
X0150075Y0310414D01*
X0150088Y0310456D01*
X0150105Y0310497D01*
X0150126Y0310536D01*
X0150150Y0310573D01*
X0150177Y0310608D01*
X0150207Y0310640D01*
X0150240Y0310670D01*
X0150276Y0310696D01*
X0150313Y0310720D01*
X0150353Y0310739D01*
X0150394Y0310756D01*
X0150437Y0310768D01*
X0150480Y0310777D01*
X0150524Y0310782D01*
X0150568Y0310783D01*
X0150612Y0310780D01*
X0150656Y0310773D01*
X0150699Y0310762D01*
X0150741Y0310748D01*
X0150781Y0310730D01*
X0150820Y0310708D01*
X0150856Y0310684D01*
X0150890Y0310656D01*
X0150922Y0310625D01*
X0150951Y0310591D01*
X0150977Y0310555D01*
X0150999Y0310517D01*
X0151018Y0310477D01*
X0151033Y0310435D01*
X0151045Y0310393D01*
X0151053Y0310349D01*
X0151057Y0310305D01*
X0151057Y0310261D01*
X0151053Y0310217D01*
X0151045Y0310173D01*
X0151033Y0310131D01*
X0151018Y0310089D01*
X0150999Y0310049D01*
X0150977Y0310011D01*
X0150951Y0309975D01*
X0150922Y0309941D01*
X0150890Y0309910D01*
X0150856Y0309882D01*
X0150820Y0309858D01*
X0150781Y0309836D01*
X0150741Y0309818D01*
X0150699Y0309804D01*
X0150656Y0309793D01*
X0150612Y0309786D01*
X0150568Y0309783D01*
X0150524Y0309784D01*
X0150480Y0309789D01*
X0150437Y0309798D01*
X0150394Y0309810D01*
X0150353Y0309827D01*
X0150313Y0309846D01*
X0150276Y0309870D01*
X0150240Y0309896D01*
X0150207Y0309926D01*
X0150177Y0309958D01*
X0150150Y0309993D01*
X0150126Y0310030D01*
X0150105Y0310069D01*
X0150088Y0310110D01*
X0150075Y0310152D01*
X0150065Y0310195D01*
X0150059Y0310239D01*
X0150057Y0310283D01*
X0149557Y0310283D02*
X0149559Y0310346D01*
X0149565Y0310408D01*
X0149575Y0310470D01*
X0149588Y0310532D01*
X0149606Y0310592D01*
X0149627Y0310651D01*
X0149652Y0310709D01*
X0149681Y0310765D01*
X0149713Y0310819D01*
X0149748Y0310871D01*
X0149786Y0310920D01*
X0149828Y0310968D01*
X0149872Y0311012D01*
X0149920Y0311054D01*
X0149969Y0311092D01*
X0150021Y0311127D01*
X0150075Y0311159D01*
X0150131Y0311188D01*
X0150189Y0311213D01*
X0150248Y0311234D01*
X0150308Y0311252D01*
X0150370Y0311265D01*
X0150432Y0311275D01*
X0150494Y0311281D01*
X0150557Y0311283D01*
X0150620Y0311281D01*
X0150682Y0311275D01*
X0150744Y0311265D01*
X0150806Y0311252D01*
X0150866Y0311234D01*
X0150925Y0311213D01*
X0150983Y0311188D01*
X0151039Y0311159D01*
X0151093Y0311127D01*
X0151145Y0311092D01*
X0151194Y0311054D01*
X0151242Y0311012D01*
X0151286Y0310968D01*
X0151328Y0310920D01*
X0151366Y0310871D01*
X0151401Y0310819D01*
X0151433Y0310765D01*
X0151462Y0310709D01*
X0151487Y0310651D01*
X0151508Y0310592D01*
X0151526Y0310532D01*
X0151539Y0310470D01*
X0151549Y0310408D01*
X0151555Y0310346D01*
X0151557Y0310283D01*
X0151555Y0310220D01*
X0151549Y0310158D01*
X0151539Y0310096D01*
X0151526Y0310034D01*
X0151508Y0309974D01*
X0151487Y0309915D01*
X0151462Y0309857D01*
X0151433Y0309801D01*
X0151401Y0309747D01*
X0151366Y0309695D01*
X0151328Y0309646D01*
X0151286Y0309598D01*
X0151242Y0309554D01*
X0151194Y0309512D01*
X0151145Y0309474D01*
X0151093Y0309439D01*
X0151039Y0309407D01*
X0150983Y0309378D01*
X0150925Y0309353D01*
X0150866Y0309332D01*
X0150806Y0309314D01*
X0150744Y0309301D01*
X0150682Y0309291D01*
X0150620Y0309285D01*
X0150557Y0309283D01*
X0150494Y0309285D01*
X0150432Y0309291D01*
X0150370Y0309301D01*
X0150308Y0309314D01*
X0150248Y0309332D01*
X0150189Y0309353D01*
X0150131Y0309378D01*
X0150075Y0309407D01*
X0150021Y0309439D01*
X0149969Y0309474D01*
X0149920Y0309512D01*
X0149872Y0309554D01*
X0149828Y0309598D01*
X0149786Y0309646D01*
X0149748Y0309695D01*
X0149713Y0309747D01*
X0149681Y0309801D01*
X0149652Y0309857D01*
X0149627Y0309915D01*
X0149606Y0309974D01*
X0149588Y0310034D01*
X0149575Y0310096D01*
X0149565Y0310158D01*
X0149559Y0310220D01*
X0149557Y0310283D01*
X0137307Y0328199D02*
X0135807Y0328199D01*
X0144321Y0333033D02*
X0144321Y0335033D01*
X0144321Y0344931D02*
X0139891Y0344931D01*
X0135954Y0344931D02*
X0131525Y0344931D01*
X0127588Y0344931D02*
X0123159Y0344931D01*
X0119222Y0344931D02*
X0114793Y0344931D01*
X0114793Y0335033D02*
X0114793Y0333033D01*
X0122057Y0328199D02*
X0123307Y0328199D01*
X0122293Y0303120D02*
X0123868Y0301545D01*
X0123868Y0290522D01*
X0122293Y0288947D01*
X0101821Y0288947D02*
X0100246Y0290522D01*
X0100246Y0301545D01*
X0101821Y0303120D01*
X0082507Y0323098D02*
X0078003Y0323098D01*
X0078003Y0325350D01*
X0078754Y0326101D01*
X0080255Y0326101D01*
X0081006Y0325350D01*
X0081006Y0323098D01*
X0082507Y0327702D02*
X0078003Y0327702D01*
X0078003Y0330705D02*
X0082507Y0330705D01*
X0081006Y0329204D01*
X0082507Y0327702D01*
X0082507Y0332306D02*
X0078003Y0332306D01*
X0078003Y0334558D01*
X0078754Y0335309D01*
X0080255Y0335309D01*
X0081006Y0334558D01*
X0081006Y0332306D01*
X0081006Y0333808D02*
X0082507Y0335309D01*
X0082507Y0336910D02*
X0082507Y0338411D01*
X0082507Y0337661D02*
X0078003Y0337661D01*
X0078003Y0338411D02*
X0078003Y0336910D01*
X0078003Y0339979D02*
X0082507Y0342982D01*
X0078003Y0342982D01*
X0078003Y0339979D02*
X0082507Y0339979D01*
X0021765Y0310915D02*
X0021828Y0270911D01*
X0012242Y0270915D01*
X0012242Y0310915D01*
X0021765Y0310915D01*
D14*
X0124106Y0322971D02*
X0124256Y0322821D01*
X0124857Y0322821D01*
X0125007Y0322971D01*
X0125007Y0323271D01*
X0124857Y0323422D01*
X0124556Y0323422D01*
X0124556Y0323121D01*
X0124256Y0323422D02*
X0124106Y0323271D01*
X0124106Y0322971D01*
X0124106Y0323742D02*
X0125007Y0324342D01*
X0124106Y0324342D01*
X0124106Y0324663D02*
X0124106Y0325113D01*
X0124256Y0325263D01*
X0124857Y0325263D01*
X0125007Y0325113D01*
X0125007Y0324663D01*
X0124106Y0324663D01*
X0124106Y0323742D02*
X0125007Y0323742D01*
X0126606Y0324049D02*
X0126606Y0324349D01*
X0126606Y0324199D02*
X0127507Y0324199D01*
X0127507Y0324049D02*
X0127507Y0324349D01*
X0127507Y0324663D02*
X0127507Y0325113D01*
X0127357Y0325263D01*
X0126756Y0325263D01*
X0126606Y0325113D01*
X0126606Y0324663D01*
X0127507Y0324663D01*
X0129106Y0324192D02*
X0129106Y0323742D01*
X0130007Y0323742D01*
X0130007Y0324192D01*
X0129857Y0324342D01*
X0129256Y0324342D01*
X0129106Y0324192D01*
X0129556Y0324663D02*
X0129556Y0325263D01*
X0129256Y0324963D02*
X0129857Y0324963D01*
X0131606Y0324192D02*
X0131606Y0323742D01*
X0132507Y0323742D01*
X0132507Y0324192D01*
X0132357Y0324342D01*
X0131756Y0324342D01*
X0131606Y0324192D01*
X0132056Y0324663D02*
X0132056Y0325263D01*
X0134606Y0325263D02*
X0135207Y0325263D01*
X0135507Y0324963D01*
X0135207Y0324663D01*
X0134606Y0324663D01*
X0177557Y0304533D02*
X0177559Y0304632D01*
X0177565Y0304732D01*
X0177575Y0304831D01*
X0177589Y0304929D01*
X0177606Y0305027D01*
X0177628Y0305124D01*
X0177653Y0305220D01*
X0177682Y0305315D01*
X0177715Y0305409D01*
X0177752Y0305501D01*
X0177792Y0305592D01*
X0177836Y0305681D01*
X0177884Y0305769D01*
X0177935Y0305854D01*
X0177989Y0305937D01*
X0178046Y0306019D01*
X0178107Y0306097D01*
X0178171Y0306174D01*
X0178237Y0306247D01*
X0178307Y0306318D01*
X0178379Y0306386D01*
X0178454Y0306452D01*
X0178532Y0306514D01*
X0178612Y0306573D01*
X0178694Y0306629D01*
X0178778Y0306681D01*
X0178865Y0306730D01*
X0178953Y0306776D01*
X0179043Y0306818D01*
X0179135Y0306857D01*
X0179228Y0306892D01*
X0179322Y0306923D01*
X0179418Y0306950D01*
X0179515Y0306973D01*
X0179612Y0306993D01*
X0179710Y0307009D01*
X0179809Y0307021D01*
X0179908Y0307029D01*
X0180007Y0307033D01*
X0180107Y0307033D01*
X0180206Y0307029D01*
X0180305Y0307021D01*
X0180404Y0307009D01*
X0180502Y0306993D01*
X0180599Y0306973D01*
X0180696Y0306950D01*
X0180792Y0306923D01*
X0180886Y0306892D01*
X0180979Y0306857D01*
X0181071Y0306818D01*
X0181161Y0306776D01*
X0181249Y0306730D01*
X0181336Y0306681D01*
X0181420Y0306629D01*
X0181502Y0306573D01*
X0181582Y0306514D01*
X0181660Y0306452D01*
X0181735Y0306386D01*
X0181807Y0306318D01*
X0181877Y0306247D01*
X0181943Y0306174D01*
X0182007Y0306097D01*
X0182068Y0306019D01*
X0182125Y0305937D01*
X0182179Y0305854D01*
X0182230Y0305769D01*
X0182278Y0305681D01*
X0182322Y0305592D01*
X0182362Y0305501D01*
X0182399Y0305409D01*
X0182432Y0305315D01*
X0182461Y0305220D01*
X0182486Y0305124D01*
X0182508Y0305027D01*
X0182525Y0304929D01*
X0182539Y0304831D01*
X0182549Y0304732D01*
X0182555Y0304632D01*
X0182557Y0304533D01*
X0182555Y0304434D01*
X0182549Y0304334D01*
X0182539Y0304235D01*
X0182525Y0304137D01*
X0182508Y0304039D01*
X0182486Y0303942D01*
X0182461Y0303846D01*
X0182432Y0303751D01*
X0182399Y0303657D01*
X0182362Y0303565D01*
X0182322Y0303474D01*
X0182278Y0303385D01*
X0182230Y0303297D01*
X0182179Y0303212D01*
X0182125Y0303129D01*
X0182068Y0303047D01*
X0182007Y0302969D01*
X0181943Y0302892D01*
X0181877Y0302819D01*
X0181807Y0302748D01*
X0181735Y0302680D01*
X0181660Y0302614D01*
X0181582Y0302552D01*
X0181502Y0302493D01*
X0181420Y0302437D01*
X0181336Y0302385D01*
X0181249Y0302336D01*
X0181161Y0302290D01*
X0181071Y0302248D01*
X0180979Y0302209D01*
X0180886Y0302174D01*
X0180792Y0302143D01*
X0180696Y0302116D01*
X0180599Y0302093D01*
X0180502Y0302073D01*
X0180404Y0302057D01*
X0180305Y0302045D01*
X0180206Y0302037D01*
X0180107Y0302033D01*
X0180007Y0302033D01*
X0179908Y0302037D01*
X0179809Y0302045D01*
X0179710Y0302057D01*
X0179612Y0302073D01*
X0179515Y0302093D01*
X0179418Y0302116D01*
X0179322Y0302143D01*
X0179228Y0302174D01*
X0179135Y0302209D01*
X0179043Y0302248D01*
X0178953Y0302290D01*
X0178865Y0302336D01*
X0178778Y0302385D01*
X0178694Y0302437D01*
X0178612Y0302493D01*
X0178532Y0302552D01*
X0178454Y0302614D01*
X0178379Y0302680D01*
X0178307Y0302748D01*
X0178237Y0302819D01*
X0178171Y0302892D01*
X0178107Y0302969D01*
X0178046Y0303047D01*
X0177989Y0303129D01*
X0177935Y0303212D01*
X0177884Y0303297D01*
X0177836Y0303385D01*
X0177792Y0303474D01*
X0177752Y0303565D01*
X0177715Y0303657D01*
X0177682Y0303751D01*
X0177653Y0303846D01*
X0177628Y0303942D01*
X0177606Y0304039D01*
X0177589Y0304137D01*
X0177575Y0304235D01*
X0177565Y0304334D01*
X0177559Y0304434D01*
X0177557Y0304533D01*
D15*
X0178091Y0322433D02*
X0178091Y0329840D01*
X0176857Y0329840D02*
X0179326Y0329840D01*
X0181890Y0328605D02*
X0181890Y0323668D01*
X0183125Y0322433D01*
X0185594Y0322433D01*
X0186828Y0323668D01*
X0189441Y0323668D02*
X0190675Y0322433D01*
X0193144Y0322433D01*
X0194378Y0323668D01*
X0194378Y0324902D01*
X0193144Y0326137D01*
X0191910Y0326137D01*
X0193144Y0326137D02*
X0194378Y0327371D01*
X0194378Y0328605D01*
X0193144Y0329840D01*
X0190675Y0329840D01*
X0189441Y0328605D01*
X0186828Y0328605D02*
X0185594Y0329840D01*
X0183125Y0329840D01*
X0181890Y0328605D01*
X0179326Y0322433D02*
X0176857Y0322433D01*
X0083569Y0310545D02*
X0083569Y0299522D01*
X0072545Y0299522D01*
X0072545Y0310545D01*
X0083569Y0310545D01*
X0021364Y0329033D02*
X0021366Y0329197D01*
X0021372Y0329361D01*
X0021382Y0329525D01*
X0021396Y0329689D01*
X0021414Y0329852D01*
X0021436Y0330015D01*
X0021463Y0330177D01*
X0021493Y0330339D01*
X0021527Y0330499D01*
X0021565Y0330659D01*
X0021606Y0330818D01*
X0021652Y0330976D01*
X0021702Y0331132D01*
X0021755Y0331288D01*
X0021812Y0331442D01*
X0021873Y0331594D01*
X0021938Y0331745D01*
X0022007Y0331895D01*
X0022079Y0332042D01*
X0022154Y0332188D01*
X0022234Y0332332D01*
X0022316Y0332474D01*
X0022402Y0332614D01*
X0022492Y0332751D01*
X0022585Y0332887D01*
X0022681Y0333020D01*
X0022781Y0333151D01*
X0022883Y0333279D01*
X0022989Y0333405D01*
X0023098Y0333528D01*
X0023210Y0333648D01*
X0023324Y0333766D01*
X0023442Y0333880D01*
X0023562Y0333992D01*
X0023685Y0334101D01*
X0023811Y0334207D01*
X0023939Y0334309D01*
X0024070Y0334409D01*
X0024203Y0334505D01*
X0024339Y0334598D01*
X0024476Y0334688D01*
X0024616Y0334774D01*
X0024758Y0334856D01*
X0024902Y0334936D01*
X0025048Y0335011D01*
X0025195Y0335083D01*
X0025345Y0335152D01*
X0025496Y0335217D01*
X0025648Y0335278D01*
X0025802Y0335335D01*
X0025958Y0335388D01*
X0026114Y0335438D01*
X0026272Y0335484D01*
X0026431Y0335525D01*
X0026591Y0335563D01*
X0026751Y0335597D01*
X0026913Y0335627D01*
X0027075Y0335654D01*
X0027238Y0335676D01*
X0027401Y0335694D01*
X0027565Y0335708D01*
X0027729Y0335718D01*
X0027893Y0335724D01*
X0028057Y0335726D01*
X0028221Y0335724D01*
X0028385Y0335718D01*
X0028549Y0335708D01*
X0028713Y0335694D01*
X0028876Y0335676D01*
X0029039Y0335654D01*
X0029201Y0335627D01*
X0029363Y0335597D01*
X0029523Y0335563D01*
X0029683Y0335525D01*
X0029842Y0335484D01*
X0030000Y0335438D01*
X0030156Y0335388D01*
X0030312Y0335335D01*
X0030466Y0335278D01*
X0030618Y0335217D01*
X0030769Y0335152D01*
X0030919Y0335083D01*
X0031066Y0335011D01*
X0031212Y0334936D01*
X0031356Y0334856D01*
X0031498Y0334774D01*
X0031638Y0334688D01*
X0031775Y0334598D01*
X0031911Y0334505D01*
X0032044Y0334409D01*
X0032175Y0334309D01*
X0032303Y0334207D01*
X0032429Y0334101D01*
X0032552Y0333992D01*
X0032672Y0333880D01*
X0032790Y0333766D01*
X0032904Y0333648D01*
X0033016Y0333528D01*
X0033125Y0333405D01*
X0033231Y0333279D01*
X0033333Y0333151D01*
X0033433Y0333020D01*
X0033529Y0332887D01*
X0033622Y0332751D01*
X0033712Y0332614D01*
X0033798Y0332474D01*
X0033880Y0332332D01*
X0033960Y0332188D01*
X0034035Y0332042D01*
X0034107Y0331895D01*
X0034176Y0331745D01*
X0034241Y0331594D01*
X0034302Y0331442D01*
X0034359Y0331288D01*
X0034412Y0331132D01*
X0034462Y0330976D01*
X0034508Y0330818D01*
X0034549Y0330659D01*
X0034587Y0330499D01*
X0034621Y0330339D01*
X0034651Y0330177D01*
X0034678Y0330015D01*
X0034700Y0329852D01*
X0034718Y0329689D01*
X0034732Y0329525D01*
X0034742Y0329361D01*
X0034748Y0329197D01*
X0034750Y0329033D01*
X0034748Y0328869D01*
X0034742Y0328705D01*
X0034732Y0328541D01*
X0034718Y0328377D01*
X0034700Y0328214D01*
X0034678Y0328051D01*
X0034651Y0327889D01*
X0034621Y0327727D01*
X0034587Y0327567D01*
X0034549Y0327407D01*
X0034508Y0327248D01*
X0034462Y0327090D01*
X0034412Y0326934D01*
X0034359Y0326778D01*
X0034302Y0326624D01*
X0034241Y0326472D01*
X0034176Y0326321D01*
X0034107Y0326171D01*
X0034035Y0326024D01*
X0033960Y0325878D01*
X0033880Y0325734D01*
X0033798Y0325592D01*
X0033712Y0325452D01*
X0033622Y0325315D01*
X0033529Y0325179D01*
X0033433Y0325046D01*
X0033333Y0324915D01*
X0033231Y0324787D01*
X0033125Y0324661D01*
X0033016Y0324538D01*
X0032904Y0324418D01*
X0032790Y0324300D01*
X0032672Y0324186D01*
X0032552Y0324074D01*
X0032429Y0323965D01*
X0032303Y0323859D01*
X0032175Y0323757D01*
X0032044Y0323657D01*
X0031911Y0323561D01*
X0031775Y0323468D01*
X0031638Y0323378D01*
X0031498Y0323292D01*
X0031356Y0323210D01*
X0031212Y0323130D01*
X0031066Y0323055D01*
X0030919Y0322983D01*
X0030769Y0322914D01*
X0030618Y0322849D01*
X0030466Y0322788D01*
X0030312Y0322731D01*
X0030156Y0322678D01*
X0030000Y0322628D01*
X0029842Y0322582D01*
X0029683Y0322541D01*
X0029523Y0322503D01*
X0029363Y0322469D01*
X0029201Y0322439D01*
X0029039Y0322412D01*
X0028876Y0322390D01*
X0028713Y0322372D01*
X0028549Y0322358D01*
X0028385Y0322348D01*
X0028221Y0322342D01*
X0028057Y0322340D01*
X0027893Y0322342D01*
X0027729Y0322348D01*
X0027565Y0322358D01*
X0027401Y0322372D01*
X0027238Y0322390D01*
X0027075Y0322412D01*
X0026913Y0322439D01*
X0026751Y0322469D01*
X0026591Y0322503D01*
X0026431Y0322541D01*
X0026272Y0322582D01*
X0026114Y0322628D01*
X0025958Y0322678D01*
X0025802Y0322731D01*
X0025648Y0322788D01*
X0025496Y0322849D01*
X0025345Y0322914D01*
X0025195Y0322983D01*
X0025048Y0323055D01*
X0024902Y0323130D01*
X0024758Y0323210D01*
X0024616Y0323292D01*
X0024476Y0323378D01*
X0024339Y0323468D01*
X0024203Y0323561D01*
X0024070Y0323657D01*
X0023939Y0323757D01*
X0023811Y0323859D01*
X0023685Y0323965D01*
X0023562Y0324074D01*
X0023442Y0324186D01*
X0023324Y0324300D01*
X0023210Y0324418D01*
X0023098Y0324538D01*
X0022989Y0324661D01*
X0022883Y0324787D01*
X0022781Y0324915D01*
X0022681Y0325046D01*
X0022585Y0325179D01*
X0022492Y0325315D01*
X0022402Y0325452D01*
X0022316Y0325592D01*
X0022234Y0325734D01*
X0022154Y0325878D01*
X0022079Y0326024D01*
X0022007Y0326171D01*
X0021938Y0326321D01*
X0021873Y0326472D01*
X0021812Y0326624D01*
X0021755Y0326778D01*
X0021702Y0326934D01*
X0021652Y0327090D01*
X0021606Y0327248D01*
X0021565Y0327407D01*
X0021527Y0327567D01*
X0021493Y0327727D01*
X0021463Y0327889D01*
X0021436Y0328051D01*
X0021414Y0328214D01*
X0021396Y0328377D01*
X0021382Y0328541D01*
X0021372Y0328705D01*
X0021366Y0328869D01*
X0021364Y0329033D01*
X0349364Y0329033D02*
X0349366Y0329197D01*
X0349372Y0329361D01*
X0349382Y0329525D01*
X0349396Y0329689D01*
X0349414Y0329852D01*
X0349436Y0330015D01*
X0349463Y0330177D01*
X0349493Y0330339D01*
X0349527Y0330499D01*
X0349565Y0330659D01*
X0349606Y0330818D01*
X0349652Y0330976D01*
X0349702Y0331132D01*
X0349755Y0331288D01*
X0349812Y0331442D01*
X0349873Y0331594D01*
X0349938Y0331745D01*
X0350007Y0331895D01*
X0350079Y0332042D01*
X0350154Y0332188D01*
X0350234Y0332332D01*
X0350316Y0332474D01*
X0350402Y0332614D01*
X0350492Y0332751D01*
X0350585Y0332887D01*
X0350681Y0333020D01*
X0350781Y0333151D01*
X0350883Y0333279D01*
X0350989Y0333405D01*
X0351098Y0333528D01*
X0351210Y0333648D01*
X0351324Y0333766D01*
X0351442Y0333880D01*
X0351562Y0333992D01*
X0351685Y0334101D01*
X0351811Y0334207D01*
X0351939Y0334309D01*
X0352070Y0334409D01*
X0352203Y0334505D01*
X0352339Y0334598D01*
X0352476Y0334688D01*
X0352616Y0334774D01*
X0352758Y0334856D01*
X0352902Y0334936D01*
X0353048Y0335011D01*
X0353195Y0335083D01*
X0353345Y0335152D01*
X0353496Y0335217D01*
X0353648Y0335278D01*
X0353802Y0335335D01*
X0353958Y0335388D01*
X0354114Y0335438D01*
X0354272Y0335484D01*
X0354431Y0335525D01*
X0354591Y0335563D01*
X0354751Y0335597D01*
X0354913Y0335627D01*
X0355075Y0335654D01*
X0355238Y0335676D01*
X0355401Y0335694D01*
X0355565Y0335708D01*
X0355729Y0335718D01*
X0355893Y0335724D01*
X0356057Y0335726D01*
X0356221Y0335724D01*
X0356385Y0335718D01*
X0356549Y0335708D01*
X0356713Y0335694D01*
X0356876Y0335676D01*
X0357039Y0335654D01*
X0357201Y0335627D01*
X0357363Y0335597D01*
X0357523Y0335563D01*
X0357683Y0335525D01*
X0357842Y0335484D01*
X0358000Y0335438D01*
X0358156Y0335388D01*
X0358312Y0335335D01*
X0358466Y0335278D01*
X0358618Y0335217D01*
X0358769Y0335152D01*
X0358919Y0335083D01*
X0359066Y0335011D01*
X0359212Y0334936D01*
X0359356Y0334856D01*
X0359498Y0334774D01*
X0359638Y0334688D01*
X0359775Y0334598D01*
X0359911Y0334505D01*
X0360044Y0334409D01*
X0360175Y0334309D01*
X0360303Y0334207D01*
X0360429Y0334101D01*
X0360552Y0333992D01*
X0360672Y0333880D01*
X0360790Y0333766D01*
X0360904Y0333648D01*
X0361016Y0333528D01*
X0361125Y0333405D01*
X0361231Y0333279D01*
X0361333Y0333151D01*
X0361433Y0333020D01*
X0361529Y0332887D01*
X0361622Y0332751D01*
X0361712Y0332614D01*
X0361798Y0332474D01*
X0361880Y0332332D01*
X0361960Y0332188D01*
X0362035Y0332042D01*
X0362107Y0331895D01*
X0362176Y0331745D01*
X0362241Y0331594D01*
X0362302Y0331442D01*
X0362359Y0331288D01*
X0362412Y0331132D01*
X0362462Y0330976D01*
X0362508Y0330818D01*
X0362549Y0330659D01*
X0362587Y0330499D01*
X0362621Y0330339D01*
X0362651Y0330177D01*
X0362678Y0330015D01*
X0362700Y0329852D01*
X0362718Y0329689D01*
X0362732Y0329525D01*
X0362742Y0329361D01*
X0362748Y0329197D01*
X0362750Y0329033D01*
X0362748Y0328869D01*
X0362742Y0328705D01*
X0362732Y0328541D01*
X0362718Y0328377D01*
X0362700Y0328214D01*
X0362678Y0328051D01*
X0362651Y0327889D01*
X0362621Y0327727D01*
X0362587Y0327567D01*
X0362549Y0327407D01*
X0362508Y0327248D01*
X0362462Y0327090D01*
X0362412Y0326934D01*
X0362359Y0326778D01*
X0362302Y0326624D01*
X0362241Y0326472D01*
X0362176Y0326321D01*
X0362107Y0326171D01*
X0362035Y0326024D01*
X0361960Y0325878D01*
X0361880Y0325734D01*
X0361798Y0325592D01*
X0361712Y0325452D01*
X0361622Y0325315D01*
X0361529Y0325179D01*
X0361433Y0325046D01*
X0361333Y0324915D01*
X0361231Y0324787D01*
X0361125Y0324661D01*
X0361016Y0324538D01*
X0360904Y0324418D01*
X0360790Y0324300D01*
X0360672Y0324186D01*
X0360552Y0324074D01*
X0360429Y0323965D01*
X0360303Y0323859D01*
X0360175Y0323757D01*
X0360044Y0323657D01*
X0359911Y0323561D01*
X0359775Y0323468D01*
X0359638Y0323378D01*
X0359498Y0323292D01*
X0359356Y0323210D01*
X0359212Y0323130D01*
X0359066Y0323055D01*
X0358919Y0322983D01*
X0358769Y0322914D01*
X0358618Y0322849D01*
X0358466Y0322788D01*
X0358312Y0322731D01*
X0358156Y0322678D01*
X0358000Y0322628D01*
X0357842Y0322582D01*
X0357683Y0322541D01*
X0357523Y0322503D01*
X0357363Y0322469D01*
X0357201Y0322439D01*
X0357039Y0322412D01*
X0356876Y0322390D01*
X0356713Y0322372D01*
X0356549Y0322358D01*
X0356385Y0322348D01*
X0356221Y0322342D01*
X0356057Y0322340D01*
X0355893Y0322342D01*
X0355729Y0322348D01*
X0355565Y0322358D01*
X0355401Y0322372D01*
X0355238Y0322390D01*
X0355075Y0322412D01*
X0354913Y0322439D01*
X0354751Y0322469D01*
X0354591Y0322503D01*
X0354431Y0322541D01*
X0354272Y0322582D01*
X0354114Y0322628D01*
X0353958Y0322678D01*
X0353802Y0322731D01*
X0353648Y0322788D01*
X0353496Y0322849D01*
X0353345Y0322914D01*
X0353195Y0322983D01*
X0353048Y0323055D01*
X0352902Y0323130D01*
X0352758Y0323210D01*
X0352616Y0323292D01*
X0352476Y0323378D01*
X0352339Y0323468D01*
X0352203Y0323561D01*
X0352070Y0323657D01*
X0351939Y0323757D01*
X0351811Y0323859D01*
X0351685Y0323965D01*
X0351562Y0324074D01*
X0351442Y0324186D01*
X0351324Y0324300D01*
X0351210Y0324418D01*
X0351098Y0324538D01*
X0350989Y0324661D01*
X0350883Y0324787D01*
X0350781Y0324915D01*
X0350681Y0325046D01*
X0350585Y0325179D01*
X0350492Y0325315D01*
X0350402Y0325452D01*
X0350316Y0325592D01*
X0350234Y0325734D01*
X0350154Y0325878D01*
X0350079Y0326024D01*
X0350007Y0326171D01*
X0349938Y0326321D01*
X0349873Y0326472D01*
X0349812Y0326624D01*
X0349755Y0326778D01*
X0349702Y0326934D01*
X0349652Y0327090D01*
X0349606Y0327248D01*
X0349565Y0327407D01*
X0349527Y0327567D01*
X0349493Y0327727D01*
X0349463Y0327889D01*
X0349436Y0328051D01*
X0349414Y0328214D01*
X0349396Y0328377D01*
X0349382Y0328541D01*
X0349372Y0328705D01*
X0349366Y0328869D01*
X0349364Y0329033D01*
D16*
X0074120Y0308970D03*
D17*
X0078794Y0307262D02*
X0082497Y0307262D01*
X0082497Y0306028D02*
X0082497Y0308497D01*
X0080029Y0306028D02*
X0078794Y0307262D01*
X0079411Y0304813D02*
X0078794Y0304196D01*
X0078794Y0302962D01*
X0079411Y0302345D01*
X0081880Y0302345D01*
X0082497Y0302962D01*
X0082497Y0304196D01*
X0081880Y0304813D01*
X0082497Y0301124D02*
X0082497Y0299889D01*
X0082497Y0300506D02*
X0078794Y0300506D01*
X0078794Y0299889D02*
X0078794Y0301124D01*
X0165907Y0307067D02*
X0169043Y0310203D01*
X0169043Y0308635D02*
X0165907Y0308635D01*
X0165907Y0310203D02*
X0169043Y0307067D01*
X0167475Y0307067D02*
X0167475Y0310203D01*
X0309408Y0301773D02*
X0310859Y0301773D01*
X0311343Y0301289D01*
X0311343Y0300322D01*
X0310859Y0299838D01*
X0309408Y0299838D01*
X0310375Y0299838D02*
X0311343Y0298870D01*
X0312354Y0298870D02*
X0312354Y0301773D01*
X0314289Y0298870D01*
X0314289Y0301773D01*
X0315301Y0301289D02*
X0315784Y0301773D01*
X0316752Y0301773D01*
X0317236Y0301289D01*
X0317236Y0300805D01*
X0315301Y0298870D01*
X0317236Y0298870D01*
X0309408Y0298870D02*
X0309408Y0301773D01*
M02*
