%
M48
M72
T01C0.01200
T02C0.01575
T03C0.02362
T04C0.03543
T05C0.04000
T06C0.04016
T07C0.04331
T08C0.06299
T09C0.12598
T10C0.13200
%
T01
X51800Y118533
X57800Y128133
X52550Y130033
X51300Y133233
X53800Y135533
X51300Y138033
X44800Y138333
X52050Y150533
X57900Y160133
X50300Y165033
X47800Y162533
X48300Y168033
X44800Y169283
X52800Y168033
X67300Y170333
X69300Y167833
X69300Y172933
X67300Y175533
X77800Y186033
X83753Y184033
X81784Y197033
X84721Y198783
X87690Y197033
X91627Y197033
X96050Y205283
X98300Y207644
X94550Y211033
X92300Y208533
X80300Y212033
X78800Y198783
X68005Y197033
X63800Y206783
X63800Y210533
X51550Y207675
X51550Y203707
X57300Y191533
X46550Y188783
X35550Y192783
X35550Y200783
X39060Y217533
X43050Y221793
X42800Y229283
X42800Y238533
X60550Y250533
X68005Y243533
X76050Y243533
X78550Y245533
X91595Y243033
X93040Y250543
X82300Y269033
X71300Y269033
X83050Y288283
X64300Y306063
X64300Y309533
X53800Y302033
X66036Y232033
X73910Y232033
X84800Y232283
X88290Y230533
X91627Y232283
X93050Y229283
X95564Y232297
X97050Y226329
X97050Y222783
X109284Y213549
X114050Y212533
X145550Y200783
X145550Y192783
X156550Y188783
X167300Y191533
X178005Y197033
X173800Y206783
X173800Y210533
X161550Y207675
X161550Y203707
X149060Y217533
X153050Y221793
X152800Y229283
X152800Y238533
X170550Y250533
X178005Y243533
X186050Y243533
X188550Y245533
X201595Y243033
X209300Y235533
X205564Y232297
X203050Y229283
X201627Y232283
X198290Y230533
X194800Y232283
X183910Y232033
X176036Y232033
X190300Y212033
X202300Y208533
X204550Y211033
X208300Y207644
X206050Y205283
X201627Y197033
X197690Y197033
X194721Y198783
X191784Y197033
X188800Y198783
X187800Y186033
X193753Y184033
X201300Y169283
X204800Y168033
X208300Y168533
X206800Y165033
X204300Y162533
X214300Y160133
X208550Y150533
X207800Y138033
X210300Y135533
X207800Y133233
X209050Y130033
X214300Y128133
X208300Y118533
X201300Y138333
X179300Y135833
X177300Y138333
X179300Y140933
X177300Y143533
X163800Y135533
X161300Y133233
X162550Y130033
X167800Y128133
X161800Y118533
X161300Y138033
X154800Y138333
X162050Y150533
X167900Y160133
X160300Y165033
X157800Y162533
X158300Y168033
X154800Y169283
X162800Y168033
X177300Y170333
X179300Y167833
X179300Y172933
X177300Y175533
X219284Y213549
X224050Y212533
X207050Y222783
X207050Y226329
X203040Y250543
X206800Y259533
X192300Y269033
X181300Y269033
X153550Y303283
X165300Y309033
X175100Y318533
X178200Y317033
X169540Y326533
X190800Y333533
X280550Y250533
X288005Y243533
X296050Y243533
X298550Y245533
X311595Y243033
X313040Y250543
X302300Y269033
X291300Y269033
X261418Y243533
X262800Y238533
X262800Y229283
X263050Y221793
X259060Y217533
X271550Y207675
X271550Y203707
X277300Y191533
X266550Y188783
X255550Y192783
X255550Y200783
X283800Y206783
X283800Y210533
X288005Y197033
X298800Y198783
X301784Y197033
X304721Y198783
X307690Y197033
X311627Y197033
X316050Y205283
X318300Y207644
X314550Y211033
X312300Y208533
X300300Y212033
X317050Y222783
X317050Y226329
X313050Y229283
X311627Y232283
X308290Y230533
X304800Y232283
X315564Y232297
X329284Y213549
X334050Y212533
X303753Y184033
X297800Y186033
X287300Y175533
X289300Y172933
X287300Y170333
X289300Y167833
X277900Y160133
X270300Y165033
X267800Y162533
X268300Y168033
X264800Y169283
X272800Y168033
X272050Y150533
X271300Y138033
X273800Y135533
X271300Y133233
X272550Y130033
X277800Y128133
X271800Y118533
X264800Y138333
X287300Y138333
X289300Y135833
X289300Y140933
X287300Y143533
X311300Y138333
X317800Y138033
X320300Y135533
X317800Y133233
X319050Y130033
X324300Y128133
X318300Y118533
X335800Y135833
X333800Y138333
X335800Y140933
X333800Y143533
X318550Y150533
X324300Y160133
X316800Y165033
X314300Y162533
X314800Y168033
X318300Y168533
X311300Y169283
X333800Y170333
X335800Y167833
X335800Y172933
X333800Y175533
X293910Y232033
X286036Y232033
X223800Y175533
X225800Y172933
X223800Y170333
X225800Y167833
X223800Y143533
X225800Y140933
X223800Y138333
X225800Y135833
X115800Y135833
X113800Y138333
X115800Y140933
X113800Y143533
X100300Y135533
X97800Y133233
X99050Y130033
X104300Y128133
X98300Y118533
X97800Y138033
X91300Y138333
X98550Y150533
X104300Y160133
X96800Y165033
X94300Y162533
X94800Y168033
X98300Y168533
X91300Y169283
X113800Y170333
X115800Y167833
X115800Y172933
X113800Y175533
X69300Y140933
X67300Y138333
X69300Y135833
X67300Y143533
X285550Y306283
T02
X87800Y278533
X84300Y278533
X71800Y282533
X71800Y286533
X71800Y290533
X71800Y294533
T03
X135800Y281533
X169800Y270033
X169300Y300533
X195800Y320033
X203800Y285033
T04
X206800Y104433
X196800Y104433
X191800Y94433
X201800Y94433
X211800Y94433
X221800Y94433
X216800Y104433
X226800Y104433
X246800Y94433
X256800Y94433
X266800Y94433
X276800Y94433
X271800Y104433
X261800Y104433
X251800Y104433
X251800Y79333
X261800Y79333
X271800Y79333
X281800Y79333
X276800Y69333
X266800Y69333
X256800Y69333
X246800Y69333
X226800Y79333
X216800Y79333
X206800Y79333
X196800Y79333
X191800Y69333
X201800Y69333
X211800Y69333
X221800Y69333
X171800Y79333
X161800Y79333
X151800Y79333
X141800Y79333
X136800Y69333
X146800Y69333
X156800Y69333
X166800Y69333
X166800Y94433
X156800Y94433
X146800Y94433
X136800Y94433
X141800Y104433
X151800Y104433
X161800Y104433
X171800Y104433
X116800Y104433
X106800Y104433
X96800Y104433
X86800Y104433
X81800Y94433
X91800Y94433
X101800Y94433
X111800Y94433
X106800Y79333
X96800Y79333
X86800Y79333
X81800Y69333
X91800Y69333
X101800Y69333
X111800Y69333
X116800Y79333
X61800Y79333
X51800Y79333
X41800Y79333
X31800Y79333
X26800Y69333
X36800Y69333
X46800Y69333
X56800Y69333
X56800Y94433
X46800Y94433
X36800Y94433
X26800Y94433
X31800Y104433
X41800Y104433
X51800Y104433
X61800Y104433
X281800Y104433
X301800Y94433
X311800Y94433
X321800Y94433
X331800Y94433
X326800Y104433
X316800Y104433
X306800Y104433
X306800Y79333
X316800Y79333
X326800Y79333
X336800Y79333
X331800Y69333
X321800Y69333
X311800Y69333
X301800Y69333
X336800Y104433
T05
X60300Y329033
X60300Y339033
T06
X322300Y306533
X322300Y296533
X322300Y286533
X322300Y276533
T07
X22300Y276033
X22300Y286033
X22300Y296033
X22300Y306033
T08
X10800Y25533
X13400Y79533
X10800Y104533
X71800Y111533
X181800Y111533
X291800Y111533
X347600Y66633
X352800Y88333
X352800Y25533
T09
X345800Y329033
X17800Y329033
T10
X21800Y43533
X341800Y43533
M30
