G75*
%MOIN*%
%OFA0B0*%
%FSLAX25Y25*%
%IPPOS*%
%LPD*%
%AMOC8*
5,1,8,0,0,1.08239X$1,22.5*
%
%ADD10C,0.00000*%
D10*
X0001800Y0020033D02*
X0001800Y0345033D01*
X0361800Y0345033D01*
X0361800Y0020033D01*
X0001800Y0020033D01*
X0015200Y0043533D02*
X0015202Y0043695D01*
X0015208Y0043857D01*
X0015218Y0044019D01*
X0015232Y0044180D01*
X0015250Y0044341D01*
X0015271Y0044501D01*
X0015297Y0044661D01*
X0015327Y0044821D01*
X0015360Y0044979D01*
X0015398Y0045137D01*
X0015439Y0045293D01*
X0015484Y0045449D01*
X0015533Y0045603D01*
X0015586Y0045756D01*
X0015642Y0045908D01*
X0015702Y0046059D01*
X0015766Y0046208D01*
X0015834Y0046355D01*
X0015905Y0046500D01*
X0015979Y0046644D01*
X0016057Y0046786D01*
X0016139Y0046926D01*
X0016224Y0047064D01*
X0016312Y0047200D01*
X0016404Y0047333D01*
X0016499Y0047465D01*
X0016597Y0047594D01*
X0016698Y0047720D01*
X0016802Y0047844D01*
X0016910Y0047965D01*
X0017020Y0048084D01*
X0017133Y0048200D01*
X0017249Y0048313D01*
X0017368Y0048423D01*
X0017489Y0048531D01*
X0017613Y0048635D01*
X0017739Y0048736D01*
X0017868Y0048834D01*
X0018000Y0048929D01*
X0018133Y0049021D01*
X0018269Y0049109D01*
X0018407Y0049194D01*
X0018547Y0049276D01*
X0018689Y0049354D01*
X0018833Y0049428D01*
X0018978Y0049499D01*
X0019125Y0049567D01*
X0019274Y0049631D01*
X0019425Y0049691D01*
X0019577Y0049747D01*
X0019730Y0049800D01*
X0019884Y0049849D01*
X0020040Y0049894D01*
X0020196Y0049935D01*
X0020354Y0049973D01*
X0020512Y0050006D01*
X0020672Y0050036D01*
X0020832Y0050062D01*
X0020992Y0050083D01*
X0021153Y0050101D01*
X0021314Y0050115D01*
X0021476Y0050125D01*
X0021638Y0050131D01*
X0021800Y0050133D01*
X0021962Y0050131D01*
X0022124Y0050125D01*
X0022286Y0050115D01*
X0022447Y0050101D01*
X0022608Y0050083D01*
X0022768Y0050062D01*
X0022928Y0050036D01*
X0023088Y0050006D01*
X0023246Y0049973D01*
X0023404Y0049935D01*
X0023560Y0049894D01*
X0023716Y0049849D01*
X0023870Y0049800D01*
X0024023Y0049747D01*
X0024175Y0049691D01*
X0024326Y0049631D01*
X0024475Y0049567D01*
X0024622Y0049499D01*
X0024767Y0049428D01*
X0024911Y0049354D01*
X0025053Y0049276D01*
X0025193Y0049194D01*
X0025331Y0049109D01*
X0025467Y0049021D01*
X0025600Y0048929D01*
X0025732Y0048834D01*
X0025861Y0048736D01*
X0025987Y0048635D01*
X0026111Y0048531D01*
X0026232Y0048423D01*
X0026351Y0048313D01*
X0026467Y0048200D01*
X0026580Y0048084D01*
X0026690Y0047965D01*
X0026798Y0047844D01*
X0026902Y0047720D01*
X0027003Y0047594D01*
X0027101Y0047465D01*
X0027196Y0047333D01*
X0027288Y0047200D01*
X0027376Y0047064D01*
X0027461Y0046926D01*
X0027543Y0046786D01*
X0027621Y0046644D01*
X0027695Y0046500D01*
X0027766Y0046355D01*
X0027834Y0046208D01*
X0027898Y0046059D01*
X0027958Y0045908D01*
X0028014Y0045756D01*
X0028067Y0045603D01*
X0028116Y0045449D01*
X0028161Y0045293D01*
X0028202Y0045137D01*
X0028240Y0044979D01*
X0028273Y0044821D01*
X0028303Y0044661D01*
X0028329Y0044501D01*
X0028350Y0044341D01*
X0028368Y0044180D01*
X0028382Y0044019D01*
X0028392Y0043857D01*
X0028398Y0043695D01*
X0028400Y0043533D01*
X0028398Y0043371D01*
X0028392Y0043209D01*
X0028382Y0043047D01*
X0028368Y0042886D01*
X0028350Y0042725D01*
X0028329Y0042565D01*
X0028303Y0042405D01*
X0028273Y0042245D01*
X0028240Y0042087D01*
X0028202Y0041929D01*
X0028161Y0041773D01*
X0028116Y0041617D01*
X0028067Y0041463D01*
X0028014Y0041310D01*
X0027958Y0041158D01*
X0027898Y0041007D01*
X0027834Y0040858D01*
X0027766Y0040711D01*
X0027695Y0040566D01*
X0027621Y0040422D01*
X0027543Y0040280D01*
X0027461Y0040140D01*
X0027376Y0040002D01*
X0027288Y0039866D01*
X0027196Y0039733D01*
X0027101Y0039601D01*
X0027003Y0039472D01*
X0026902Y0039346D01*
X0026798Y0039222D01*
X0026690Y0039101D01*
X0026580Y0038982D01*
X0026467Y0038866D01*
X0026351Y0038753D01*
X0026232Y0038643D01*
X0026111Y0038535D01*
X0025987Y0038431D01*
X0025861Y0038330D01*
X0025732Y0038232D01*
X0025600Y0038137D01*
X0025467Y0038045D01*
X0025331Y0037957D01*
X0025193Y0037872D01*
X0025053Y0037790D01*
X0024911Y0037712D01*
X0024767Y0037638D01*
X0024622Y0037567D01*
X0024475Y0037499D01*
X0024326Y0037435D01*
X0024175Y0037375D01*
X0024023Y0037319D01*
X0023870Y0037266D01*
X0023716Y0037217D01*
X0023560Y0037172D01*
X0023404Y0037131D01*
X0023246Y0037093D01*
X0023088Y0037060D01*
X0022928Y0037030D01*
X0022768Y0037004D01*
X0022608Y0036983D01*
X0022447Y0036965D01*
X0022286Y0036951D01*
X0022124Y0036941D01*
X0021962Y0036935D01*
X0021800Y0036933D01*
X0021638Y0036935D01*
X0021476Y0036941D01*
X0021314Y0036951D01*
X0021153Y0036965D01*
X0020992Y0036983D01*
X0020832Y0037004D01*
X0020672Y0037030D01*
X0020512Y0037060D01*
X0020354Y0037093D01*
X0020196Y0037131D01*
X0020040Y0037172D01*
X0019884Y0037217D01*
X0019730Y0037266D01*
X0019577Y0037319D01*
X0019425Y0037375D01*
X0019274Y0037435D01*
X0019125Y0037499D01*
X0018978Y0037567D01*
X0018833Y0037638D01*
X0018689Y0037712D01*
X0018547Y0037790D01*
X0018407Y0037872D01*
X0018269Y0037957D01*
X0018133Y0038045D01*
X0018000Y0038137D01*
X0017868Y0038232D01*
X0017739Y0038330D01*
X0017613Y0038431D01*
X0017489Y0038535D01*
X0017368Y0038643D01*
X0017249Y0038753D01*
X0017133Y0038866D01*
X0017020Y0038982D01*
X0016910Y0039101D01*
X0016802Y0039222D01*
X0016698Y0039346D01*
X0016597Y0039472D01*
X0016499Y0039601D01*
X0016404Y0039733D01*
X0016312Y0039866D01*
X0016224Y0040002D01*
X0016139Y0040140D01*
X0016057Y0040280D01*
X0015979Y0040422D01*
X0015905Y0040566D01*
X0015834Y0040711D01*
X0015766Y0040858D01*
X0015702Y0041007D01*
X0015642Y0041158D01*
X0015586Y0041310D01*
X0015533Y0041463D01*
X0015484Y0041617D01*
X0015439Y0041773D01*
X0015398Y0041929D01*
X0015360Y0042087D01*
X0015327Y0042245D01*
X0015297Y0042405D01*
X0015271Y0042565D01*
X0015250Y0042725D01*
X0015232Y0042886D01*
X0015218Y0043047D01*
X0015208Y0043209D01*
X0015202Y0043371D01*
X0015200Y0043533D01*
X0011501Y0329033D02*
X0011503Y0329191D01*
X0011509Y0329349D01*
X0011519Y0329507D01*
X0011533Y0329665D01*
X0011551Y0329822D01*
X0011572Y0329979D01*
X0011598Y0330135D01*
X0011628Y0330291D01*
X0011661Y0330446D01*
X0011699Y0330599D01*
X0011740Y0330752D01*
X0011785Y0330904D01*
X0011834Y0331055D01*
X0011887Y0331204D01*
X0011943Y0331352D01*
X0012003Y0331498D01*
X0012067Y0331643D01*
X0012135Y0331786D01*
X0012206Y0331928D01*
X0012280Y0332068D01*
X0012358Y0332205D01*
X0012440Y0332341D01*
X0012524Y0332475D01*
X0012613Y0332606D01*
X0012704Y0332735D01*
X0012799Y0332862D01*
X0012896Y0332987D01*
X0012997Y0333109D01*
X0013101Y0333228D01*
X0013208Y0333345D01*
X0013318Y0333459D01*
X0013431Y0333570D01*
X0013546Y0333679D01*
X0013664Y0333784D01*
X0013785Y0333886D01*
X0013908Y0333986D01*
X0014034Y0334082D01*
X0014162Y0334175D01*
X0014292Y0334265D01*
X0014425Y0334351D01*
X0014560Y0334435D01*
X0014696Y0334514D01*
X0014835Y0334591D01*
X0014976Y0334663D01*
X0015118Y0334733D01*
X0015262Y0334798D01*
X0015408Y0334860D01*
X0015555Y0334918D01*
X0015704Y0334973D01*
X0015854Y0335024D01*
X0016005Y0335071D01*
X0016157Y0335114D01*
X0016310Y0335153D01*
X0016465Y0335189D01*
X0016620Y0335220D01*
X0016776Y0335248D01*
X0016932Y0335272D01*
X0017089Y0335292D01*
X0017247Y0335308D01*
X0017404Y0335320D01*
X0017563Y0335328D01*
X0017721Y0335332D01*
X0017879Y0335332D01*
X0018037Y0335328D01*
X0018196Y0335320D01*
X0018353Y0335308D01*
X0018511Y0335292D01*
X0018668Y0335272D01*
X0018824Y0335248D01*
X0018980Y0335220D01*
X0019135Y0335189D01*
X0019290Y0335153D01*
X0019443Y0335114D01*
X0019595Y0335071D01*
X0019746Y0335024D01*
X0019896Y0334973D01*
X0020045Y0334918D01*
X0020192Y0334860D01*
X0020338Y0334798D01*
X0020482Y0334733D01*
X0020624Y0334663D01*
X0020765Y0334591D01*
X0020904Y0334514D01*
X0021040Y0334435D01*
X0021175Y0334351D01*
X0021308Y0334265D01*
X0021438Y0334175D01*
X0021566Y0334082D01*
X0021692Y0333986D01*
X0021815Y0333886D01*
X0021936Y0333784D01*
X0022054Y0333679D01*
X0022169Y0333570D01*
X0022282Y0333459D01*
X0022392Y0333345D01*
X0022499Y0333228D01*
X0022603Y0333109D01*
X0022704Y0332987D01*
X0022801Y0332862D01*
X0022896Y0332735D01*
X0022987Y0332606D01*
X0023076Y0332475D01*
X0023160Y0332341D01*
X0023242Y0332205D01*
X0023320Y0332068D01*
X0023394Y0331928D01*
X0023465Y0331786D01*
X0023533Y0331643D01*
X0023597Y0331498D01*
X0023657Y0331352D01*
X0023713Y0331204D01*
X0023766Y0331055D01*
X0023815Y0330904D01*
X0023860Y0330752D01*
X0023901Y0330599D01*
X0023939Y0330446D01*
X0023972Y0330291D01*
X0024002Y0330135D01*
X0024028Y0329979D01*
X0024049Y0329822D01*
X0024067Y0329665D01*
X0024081Y0329507D01*
X0024091Y0329349D01*
X0024097Y0329191D01*
X0024099Y0329033D01*
X0024097Y0328875D01*
X0024091Y0328717D01*
X0024081Y0328559D01*
X0024067Y0328401D01*
X0024049Y0328244D01*
X0024028Y0328087D01*
X0024002Y0327931D01*
X0023972Y0327775D01*
X0023939Y0327620D01*
X0023901Y0327467D01*
X0023860Y0327314D01*
X0023815Y0327162D01*
X0023766Y0327011D01*
X0023713Y0326862D01*
X0023657Y0326714D01*
X0023597Y0326568D01*
X0023533Y0326423D01*
X0023465Y0326280D01*
X0023394Y0326138D01*
X0023320Y0325998D01*
X0023242Y0325861D01*
X0023160Y0325725D01*
X0023076Y0325591D01*
X0022987Y0325460D01*
X0022896Y0325331D01*
X0022801Y0325204D01*
X0022704Y0325079D01*
X0022603Y0324957D01*
X0022499Y0324838D01*
X0022392Y0324721D01*
X0022282Y0324607D01*
X0022169Y0324496D01*
X0022054Y0324387D01*
X0021936Y0324282D01*
X0021815Y0324180D01*
X0021692Y0324080D01*
X0021566Y0323984D01*
X0021438Y0323891D01*
X0021308Y0323801D01*
X0021175Y0323715D01*
X0021040Y0323631D01*
X0020904Y0323552D01*
X0020765Y0323475D01*
X0020624Y0323403D01*
X0020482Y0323333D01*
X0020338Y0323268D01*
X0020192Y0323206D01*
X0020045Y0323148D01*
X0019896Y0323093D01*
X0019746Y0323042D01*
X0019595Y0322995D01*
X0019443Y0322952D01*
X0019290Y0322913D01*
X0019135Y0322877D01*
X0018980Y0322846D01*
X0018824Y0322818D01*
X0018668Y0322794D01*
X0018511Y0322774D01*
X0018353Y0322758D01*
X0018196Y0322746D01*
X0018037Y0322738D01*
X0017879Y0322734D01*
X0017721Y0322734D01*
X0017563Y0322738D01*
X0017404Y0322746D01*
X0017247Y0322758D01*
X0017089Y0322774D01*
X0016932Y0322794D01*
X0016776Y0322818D01*
X0016620Y0322846D01*
X0016465Y0322877D01*
X0016310Y0322913D01*
X0016157Y0322952D01*
X0016005Y0322995D01*
X0015854Y0323042D01*
X0015704Y0323093D01*
X0015555Y0323148D01*
X0015408Y0323206D01*
X0015262Y0323268D01*
X0015118Y0323333D01*
X0014976Y0323403D01*
X0014835Y0323475D01*
X0014696Y0323552D01*
X0014560Y0323631D01*
X0014425Y0323715D01*
X0014292Y0323801D01*
X0014162Y0323891D01*
X0014034Y0323984D01*
X0013908Y0324080D01*
X0013785Y0324180D01*
X0013664Y0324282D01*
X0013546Y0324387D01*
X0013431Y0324496D01*
X0013318Y0324607D01*
X0013208Y0324721D01*
X0013101Y0324838D01*
X0012997Y0324957D01*
X0012896Y0325079D01*
X0012799Y0325204D01*
X0012704Y0325331D01*
X0012613Y0325460D01*
X0012524Y0325591D01*
X0012440Y0325725D01*
X0012358Y0325861D01*
X0012280Y0325998D01*
X0012206Y0326138D01*
X0012135Y0326280D01*
X0012067Y0326423D01*
X0012003Y0326568D01*
X0011943Y0326714D01*
X0011887Y0326862D01*
X0011834Y0327011D01*
X0011785Y0327162D01*
X0011740Y0327314D01*
X0011699Y0327467D01*
X0011661Y0327620D01*
X0011628Y0327775D01*
X0011598Y0327931D01*
X0011572Y0328087D01*
X0011551Y0328244D01*
X0011533Y0328401D01*
X0011519Y0328559D01*
X0011509Y0328717D01*
X0011503Y0328875D01*
X0011501Y0329033D01*
X0335200Y0043533D02*
X0335202Y0043695D01*
X0335208Y0043857D01*
X0335218Y0044019D01*
X0335232Y0044180D01*
X0335250Y0044341D01*
X0335271Y0044501D01*
X0335297Y0044661D01*
X0335327Y0044821D01*
X0335360Y0044979D01*
X0335398Y0045137D01*
X0335439Y0045293D01*
X0335484Y0045449D01*
X0335533Y0045603D01*
X0335586Y0045756D01*
X0335642Y0045908D01*
X0335702Y0046059D01*
X0335766Y0046208D01*
X0335834Y0046355D01*
X0335905Y0046500D01*
X0335979Y0046644D01*
X0336057Y0046786D01*
X0336139Y0046926D01*
X0336224Y0047064D01*
X0336312Y0047200D01*
X0336404Y0047333D01*
X0336499Y0047465D01*
X0336597Y0047594D01*
X0336698Y0047720D01*
X0336802Y0047844D01*
X0336910Y0047965D01*
X0337020Y0048084D01*
X0337133Y0048200D01*
X0337249Y0048313D01*
X0337368Y0048423D01*
X0337489Y0048531D01*
X0337613Y0048635D01*
X0337739Y0048736D01*
X0337868Y0048834D01*
X0338000Y0048929D01*
X0338133Y0049021D01*
X0338269Y0049109D01*
X0338407Y0049194D01*
X0338547Y0049276D01*
X0338689Y0049354D01*
X0338833Y0049428D01*
X0338978Y0049499D01*
X0339125Y0049567D01*
X0339274Y0049631D01*
X0339425Y0049691D01*
X0339577Y0049747D01*
X0339730Y0049800D01*
X0339884Y0049849D01*
X0340040Y0049894D01*
X0340196Y0049935D01*
X0340354Y0049973D01*
X0340512Y0050006D01*
X0340672Y0050036D01*
X0340832Y0050062D01*
X0340992Y0050083D01*
X0341153Y0050101D01*
X0341314Y0050115D01*
X0341476Y0050125D01*
X0341638Y0050131D01*
X0341800Y0050133D01*
X0341962Y0050131D01*
X0342124Y0050125D01*
X0342286Y0050115D01*
X0342447Y0050101D01*
X0342608Y0050083D01*
X0342768Y0050062D01*
X0342928Y0050036D01*
X0343088Y0050006D01*
X0343246Y0049973D01*
X0343404Y0049935D01*
X0343560Y0049894D01*
X0343716Y0049849D01*
X0343870Y0049800D01*
X0344023Y0049747D01*
X0344175Y0049691D01*
X0344326Y0049631D01*
X0344475Y0049567D01*
X0344622Y0049499D01*
X0344767Y0049428D01*
X0344911Y0049354D01*
X0345053Y0049276D01*
X0345193Y0049194D01*
X0345331Y0049109D01*
X0345467Y0049021D01*
X0345600Y0048929D01*
X0345732Y0048834D01*
X0345861Y0048736D01*
X0345987Y0048635D01*
X0346111Y0048531D01*
X0346232Y0048423D01*
X0346351Y0048313D01*
X0346467Y0048200D01*
X0346580Y0048084D01*
X0346690Y0047965D01*
X0346798Y0047844D01*
X0346902Y0047720D01*
X0347003Y0047594D01*
X0347101Y0047465D01*
X0347196Y0047333D01*
X0347288Y0047200D01*
X0347376Y0047064D01*
X0347461Y0046926D01*
X0347543Y0046786D01*
X0347621Y0046644D01*
X0347695Y0046500D01*
X0347766Y0046355D01*
X0347834Y0046208D01*
X0347898Y0046059D01*
X0347958Y0045908D01*
X0348014Y0045756D01*
X0348067Y0045603D01*
X0348116Y0045449D01*
X0348161Y0045293D01*
X0348202Y0045137D01*
X0348240Y0044979D01*
X0348273Y0044821D01*
X0348303Y0044661D01*
X0348329Y0044501D01*
X0348350Y0044341D01*
X0348368Y0044180D01*
X0348382Y0044019D01*
X0348392Y0043857D01*
X0348398Y0043695D01*
X0348400Y0043533D01*
X0348398Y0043371D01*
X0348392Y0043209D01*
X0348382Y0043047D01*
X0348368Y0042886D01*
X0348350Y0042725D01*
X0348329Y0042565D01*
X0348303Y0042405D01*
X0348273Y0042245D01*
X0348240Y0042087D01*
X0348202Y0041929D01*
X0348161Y0041773D01*
X0348116Y0041617D01*
X0348067Y0041463D01*
X0348014Y0041310D01*
X0347958Y0041158D01*
X0347898Y0041007D01*
X0347834Y0040858D01*
X0347766Y0040711D01*
X0347695Y0040566D01*
X0347621Y0040422D01*
X0347543Y0040280D01*
X0347461Y0040140D01*
X0347376Y0040002D01*
X0347288Y0039866D01*
X0347196Y0039733D01*
X0347101Y0039601D01*
X0347003Y0039472D01*
X0346902Y0039346D01*
X0346798Y0039222D01*
X0346690Y0039101D01*
X0346580Y0038982D01*
X0346467Y0038866D01*
X0346351Y0038753D01*
X0346232Y0038643D01*
X0346111Y0038535D01*
X0345987Y0038431D01*
X0345861Y0038330D01*
X0345732Y0038232D01*
X0345600Y0038137D01*
X0345467Y0038045D01*
X0345331Y0037957D01*
X0345193Y0037872D01*
X0345053Y0037790D01*
X0344911Y0037712D01*
X0344767Y0037638D01*
X0344622Y0037567D01*
X0344475Y0037499D01*
X0344326Y0037435D01*
X0344175Y0037375D01*
X0344023Y0037319D01*
X0343870Y0037266D01*
X0343716Y0037217D01*
X0343560Y0037172D01*
X0343404Y0037131D01*
X0343246Y0037093D01*
X0343088Y0037060D01*
X0342928Y0037030D01*
X0342768Y0037004D01*
X0342608Y0036983D01*
X0342447Y0036965D01*
X0342286Y0036951D01*
X0342124Y0036941D01*
X0341962Y0036935D01*
X0341800Y0036933D01*
X0341638Y0036935D01*
X0341476Y0036941D01*
X0341314Y0036951D01*
X0341153Y0036965D01*
X0340992Y0036983D01*
X0340832Y0037004D01*
X0340672Y0037030D01*
X0340512Y0037060D01*
X0340354Y0037093D01*
X0340196Y0037131D01*
X0340040Y0037172D01*
X0339884Y0037217D01*
X0339730Y0037266D01*
X0339577Y0037319D01*
X0339425Y0037375D01*
X0339274Y0037435D01*
X0339125Y0037499D01*
X0338978Y0037567D01*
X0338833Y0037638D01*
X0338689Y0037712D01*
X0338547Y0037790D01*
X0338407Y0037872D01*
X0338269Y0037957D01*
X0338133Y0038045D01*
X0338000Y0038137D01*
X0337868Y0038232D01*
X0337739Y0038330D01*
X0337613Y0038431D01*
X0337489Y0038535D01*
X0337368Y0038643D01*
X0337249Y0038753D01*
X0337133Y0038866D01*
X0337020Y0038982D01*
X0336910Y0039101D01*
X0336802Y0039222D01*
X0336698Y0039346D01*
X0336597Y0039472D01*
X0336499Y0039601D01*
X0336404Y0039733D01*
X0336312Y0039866D01*
X0336224Y0040002D01*
X0336139Y0040140D01*
X0336057Y0040280D01*
X0335979Y0040422D01*
X0335905Y0040566D01*
X0335834Y0040711D01*
X0335766Y0040858D01*
X0335702Y0041007D01*
X0335642Y0041158D01*
X0335586Y0041310D01*
X0335533Y0041463D01*
X0335484Y0041617D01*
X0335439Y0041773D01*
X0335398Y0041929D01*
X0335360Y0042087D01*
X0335327Y0042245D01*
X0335297Y0042405D01*
X0335271Y0042565D01*
X0335250Y0042725D01*
X0335232Y0042886D01*
X0335218Y0043047D01*
X0335208Y0043209D01*
X0335202Y0043371D01*
X0335200Y0043533D01*
X0339501Y0329033D02*
X0339503Y0329191D01*
X0339509Y0329349D01*
X0339519Y0329507D01*
X0339533Y0329665D01*
X0339551Y0329822D01*
X0339572Y0329979D01*
X0339598Y0330135D01*
X0339628Y0330291D01*
X0339661Y0330446D01*
X0339699Y0330599D01*
X0339740Y0330752D01*
X0339785Y0330904D01*
X0339834Y0331055D01*
X0339887Y0331204D01*
X0339943Y0331352D01*
X0340003Y0331498D01*
X0340067Y0331643D01*
X0340135Y0331786D01*
X0340206Y0331928D01*
X0340280Y0332068D01*
X0340358Y0332205D01*
X0340440Y0332341D01*
X0340524Y0332475D01*
X0340613Y0332606D01*
X0340704Y0332735D01*
X0340799Y0332862D01*
X0340896Y0332987D01*
X0340997Y0333109D01*
X0341101Y0333228D01*
X0341208Y0333345D01*
X0341318Y0333459D01*
X0341431Y0333570D01*
X0341546Y0333679D01*
X0341664Y0333784D01*
X0341785Y0333886D01*
X0341908Y0333986D01*
X0342034Y0334082D01*
X0342162Y0334175D01*
X0342292Y0334265D01*
X0342425Y0334351D01*
X0342560Y0334435D01*
X0342696Y0334514D01*
X0342835Y0334591D01*
X0342976Y0334663D01*
X0343118Y0334733D01*
X0343262Y0334798D01*
X0343408Y0334860D01*
X0343555Y0334918D01*
X0343704Y0334973D01*
X0343854Y0335024D01*
X0344005Y0335071D01*
X0344157Y0335114D01*
X0344310Y0335153D01*
X0344465Y0335189D01*
X0344620Y0335220D01*
X0344776Y0335248D01*
X0344932Y0335272D01*
X0345089Y0335292D01*
X0345247Y0335308D01*
X0345404Y0335320D01*
X0345563Y0335328D01*
X0345721Y0335332D01*
X0345879Y0335332D01*
X0346037Y0335328D01*
X0346196Y0335320D01*
X0346353Y0335308D01*
X0346511Y0335292D01*
X0346668Y0335272D01*
X0346824Y0335248D01*
X0346980Y0335220D01*
X0347135Y0335189D01*
X0347290Y0335153D01*
X0347443Y0335114D01*
X0347595Y0335071D01*
X0347746Y0335024D01*
X0347896Y0334973D01*
X0348045Y0334918D01*
X0348192Y0334860D01*
X0348338Y0334798D01*
X0348482Y0334733D01*
X0348624Y0334663D01*
X0348765Y0334591D01*
X0348904Y0334514D01*
X0349040Y0334435D01*
X0349175Y0334351D01*
X0349308Y0334265D01*
X0349438Y0334175D01*
X0349566Y0334082D01*
X0349692Y0333986D01*
X0349815Y0333886D01*
X0349936Y0333784D01*
X0350054Y0333679D01*
X0350169Y0333570D01*
X0350282Y0333459D01*
X0350392Y0333345D01*
X0350499Y0333228D01*
X0350603Y0333109D01*
X0350704Y0332987D01*
X0350801Y0332862D01*
X0350896Y0332735D01*
X0350987Y0332606D01*
X0351076Y0332475D01*
X0351160Y0332341D01*
X0351242Y0332205D01*
X0351320Y0332068D01*
X0351394Y0331928D01*
X0351465Y0331786D01*
X0351533Y0331643D01*
X0351597Y0331498D01*
X0351657Y0331352D01*
X0351713Y0331204D01*
X0351766Y0331055D01*
X0351815Y0330904D01*
X0351860Y0330752D01*
X0351901Y0330599D01*
X0351939Y0330446D01*
X0351972Y0330291D01*
X0352002Y0330135D01*
X0352028Y0329979D01*
X0352049Y0329822D01*
X0352067Y0329665D01*
X0352081Y0329507D01*
X0352091Y0329349D01*
X0352097Y0329191D01*
X0352099Y0329033D01*
X0352097Y0328875D01*
X0352091Y0328717D01*
X0352081Y0328559D01*
X0352067Y0328401D01*
X0352049Y0328244D01*
X0352028Y0328087D01*
X0352002Y0327931D01*
X0351972Y0327775D01*
X0351939Y0327620D01*
X0351901Y0327467D01*
X0351860Y0327314D01*
X0351815Y0327162D01*
X0351766Y0327011D01*
X0351713Y0326862D01*
X0351657Y0326714D01*
X0351597Y0326568D01*
X0351533Y0326423D01*
X0351465Y0326280D01*
X0351394Y0326138D01*
X0351320Y0325998D01*
X0351242Y0325861D01*
X0351160Y0325725D01*
X0351076Y0325591D01*
X0350987Y0325460D01*
X0350896Y0325331D01*
X0350801Y0325204D01*
X0350704Y0325079D01*
X0350603Y0324957D01*
X0350499Y0324838D01*
X0350392Y0324721D01*
X0350282Y0324607D01*
X0350169Y0324496D01*
X0350054Y0324387D01*
X0349936Y0324282D01*
X0349815Y0324180D01*
X0349692Y0324080D01*
X0349566Y0323984D01*
X0349438Y0323891D01*
X0349308Y0323801D01*
X0349175Y0323715D01*
X0349040Y0323631D01*
X0348904Y0323552D01*
X0348765Y0323475D01*
X0348624Y0323403D01*
X0348482Y0323333D01*
X0348338Y0323268D01*
X0348192Y0323206D01*
X0348045Y0323148D01*
X0347896Y0323093D01*
X0347746Y0323042D01*
X0347595Y0322995D01*
X0347443Y0322952D01*
X0347290Y0322913D01*
X0347135Y0322877D01*
X0346980Y0322846D01*
X0346824Y0322818D01*
X0346668Y0322794D01*
X0346511Y0322774D01*
X0346353Y0322758D01*
X0346196Y0322746D01*
X0346037Y0322738D01*
X0345879Y0322734D01*
X0345721Y0322734D01*
X0345563Y0322738D01*
X0345404Y0322746D01*
X0345247Y0322758D01*
X0345089Y0322774D01*
X0344932Y0322794D01*
X0344776Y0322818D01*
X0344620Y0322846D01*
X0344465Y0322877D01*
X0344310Y0322913D01*
X0344157Y0322952D01*
X0344005Y0322995D01*
X0343854Y0323042D01*
X0343704Y0323093D01*
X0343555Y0323148D01*
X0343408Y0323206D01*
X0343262Y0323268D01*
X0343118Y0323333D01*
X0342976Y0323403D01*
X0342835Y0323475D01*
X0342696Y0323552D01*
X0342560Y0323631D01*
X0342425Y0323715D01*
X0342292Y0323801D01*
X0342162Y0323891D01*
X0342034Y0323984D01*
X0341908Y0324080D01*
X0341785Y0324180D01*
X0341664Y0324282D01*
X0341546Y0324387D01*
X0341431Y0324496D01*
X0341318Y0324607D01*
X0341208Y0324721D01*
X0341101Y0324838D01*
X0340997Y0324957D01*
X0340896Y0325079D01*
X0340799Y0325204D01*
X0340704Y0325331D01*
X0340613Y0325460D01*
X0340524Y0325591D01*
X0340440Y0325725D01*
X0340358Y0325861D01*
X0340280Y0325998D01*
X0340206Y0326138D01*
X0340135Y0326280D01*
X0340067Y0326423D01*
X0340003Y0326568D01*
X0339943Y0326714D01*
X0339887Y0326862D01*
X0339834Y0327011D01*
X0339785Y0327162D01*
X0339740Y0327314D01*
X0339699Y0327467D01*
X0339661Y0327620D01*
X0339628Y0327775D01*
X0339598Y0327931D01*
X0339572Y0328087D01*
X0339551Y0328244D01*
X0339533Y0328401D01*
X0339519Y0328559D01*
X0339509Y0328717D01*
X0339503Y0328875D01*
X0339501Y0329033D01*
M02*
