G75*
%MOIN*%
%OFA0B0*%
%FSLAX25Y25*%
%IPPOS*%
%LPD*%
%AMOC8*
5,1,8,0,0,1.08239X$1,22.5*
%
%ADD10C,0.00000*%
%ADD11R,0.05118X0.05906*%
%ADD12R,0.05906X0.05118*%
%ADD13R,0.04724X0.04500*%
%ADD14R,0.00984X0.07000*%
%ADD15R,0.07000X0.00984*%
%ADD16R,0.05800X0.01400*%
%ADD17R,0.05512X0.04724*%
D10*
X0012057Y0020033D02*
X0012057Y0345033D01*
X0372057Y0345033D01*
X0372057Y0020033D01*
X0012057Y0020033D01*
X0025457Y0043533D02*
X0025459Y0043695D01*
X0025465Y0043857D01*
X0025475Y0044019D01*
X0025489Y0044180D01*
X0025507Y0044341D01*
X0025528Y0044501D01*
X0025554Y0044661D01*
X0025584Y0044821D01*
X0025617Y0044979D01*
X0025655Y0045137D01*
X0025696Y0045293D01*
X0025741Y0045449D01*
X0025790Y0045603D01*
X0025843Y0045756D01*
X0025899Y0045908D01*
X0025959Y0046059D01*
X0026023Y0046208D01*
X0026091Y0046355D01*
X0026162Y0046500D01*
X0026236Y0046644D01*
X0026314Y0046786D01*
X0026396Y0046926D01*
X0026481Y0047064D01*
X0026569Y0047200D01*
X0026661Y0047333D01*
X0026756Y0047465D01*
X0026854Y0047594D01*
X0026955Y0047720D01*
X0027059Y0047844D01*
X0027167Y0047965D01*
X0027277Y0048084D01*
X0027390Y0048200D01*
X0027506Y0048313D01*
X0027625Y0048423D01*
X0027746Y0048531D01*
X0027870Y0048635D01*
X0027996Y0048736D01*
X0028125Y0048834D01*
X0028257Y0048929D01*
X0028390Y0049021D01*
X0028526Y0049109D01*
X0028664Y0049194D01*
X0028804Y0049276D01*
X0028946Y0049354D01*
X0029090Y0049428D01*
X0029235Y0049499D01*
X0029382Y0049567D01*
X0029531Y0049631D01*
X0029682Y0049691D01*
X0029834Y0049747D01*
X0029987Y0049800D01*
X0030141Y0049849D01*
X0030297Y0049894D01*
X0030453Y0049935D01*
X0030611Y0049973D01*
X0030769Y0050006D01*
X0030929Y0050036D01*
X0031089Y0050062D01*
X0031249Y0050083D01*
X0031410Y0050101D01*
X0031571Y0050115D01*
X0031733Y0050125D01*
X0031895Y0050131D01*
X0032057Y0050133D01*
X0032219Y0050131D01*
X0032381Y0050125D01*
X0032543Y0050115D01*
X0032704Y0050101D01*
X0032865Y0050083D01*
X0033025Y0050062D01*
X0033185Y0050036D01*
X0033345Y0050006D01*
X0033503Y0049973D01*
X0033661Y0049935D01*
X0033817Y0049894D01*
X0033973Y0049849D01*
X0034127Y0049800D01*
X0034280Y0049747D01*
X0034432Y0049691D01*
X0034583Y0049631D01*
X0034732Y0049567D01*
X0034879Y0049499D01*
X0035024Y0049428D01*
X0035168Y0049354D01*
X0035310Y0049276D01*
X0035450Y0049194D01*
X0035588Y0049109D01*
X0035724Y0049021D01*
X0035857Y0048929D01*
X0035989Y0048834D01*
X0036118Y0048736D01*
X0036244Y0048635D01*
X0036368Y0048531D01*
X0036489Y0048423D01*
X0036608Y0048313D01*
X0036724Y0048200D01*
X0036837Y0048084D01*
X0036947Y0047965D01*
X0037055Y0047844D01*
X0037159Y0047720D01*
X0037260Y0047594D01*
X0037358Y0047465D01*
X0037453Y0047333D01*
X0037545Y0047200D01*
X0037633Y0047064D01*
X0037718Y0046926D01*
X0037800Y0046786D01*
X0037878Y0046644D01*
X0037952Y0046500D01*
X0038023Y0046355D01*
X0038091Y0046208D01*
X0038155Y0046059D01*
X0038215Y0045908D01*
X0038271Y0045756D01*
X0038324Y0045603D01*
X0038373Y0045449D01*
X0038418Y0045293D01*
X0038459Y0045137D01*
X0038497Y0044979D01*
X0038530Y0044821D01*
X0038560Y0044661D01*
X0038586Y0044501D01*
X0038607Y0044341D01*
X0038625Y0044180D01*
X0038639Y0044019D01*
X0038649Y0043857D01*
X0038655Y0043695D01*
X0038657Y0043533D01*
X0038655Y0043371D01*
X0038649Y0043209D01*
X0038639Y0043047D01*
X0038625Y0042886D01*
X0038607Y0042725D01*
X0038586Y0042565D01*
X0038560Y0042405D01*
X0038530Y0042245D01*
X0038497Y0042087D01*
X0038459Y0041929D01*
X0038418Y0041773D01*
X0038373Y0041617D01*
X0038324Y0041463D01*
X0038271Y0041310D01*
X0038215Y0041158D01*
X0038155Y0041007D01*
X0038091Y0040858D01*
X0038023Y0040711D01*
X0037952Y0040566D01*
X0037878Y0040422D01*
X0037800Y0040280D01*
X0037718Y0040140D01*
X0037633Y0040002D01*
X0037545Y0039866D01*
X0037453Y0039733D01*
X0037358Y0039601D01*
X0037260Y0039472D01*
X0037159Y0039346D01*
X0037055Y0039222D01*
X0036947Y0039101D01*
X0036837Y0038982D01*
X0036724Y0038866D01*
X0036608Y0038753D01*
X0036489Y0038643D01*
X0036368Y0038535D01*
X0036244Y0038431D01*
X0036118Y0038330D01*
X0035989Y0038232D01*
X0035857Y0038137D01*
X0035724Y0038045D01*
X0035588Y0037957D01*
X0035450Y0037872D01*
X0035310Y0037790D01*
X0035168Y0037712D01*
X0035024Y0037638D01*
X0034879Y0037567D01*
X0034732Y0037499D01*
X0034583Y0037435D01*
X0034432Y0037375D01*
X0034280Y0037319D01*
X0034127Y0037266D01*
X0033973Y0037217D01*
X0033817Y0037172D01*
X0033661Y0037131D01*
X0033503Y0037093D01*
X0033345Y0037060D01*
X0033185Y0037030D01*
X0033025Y0037004D01*
X0032865Y0036983D01*
X0032704Y0036965D01*
X0032543Y0036951D01*
X0032381Y0036941D01*
X0032219Y0036935D01*
X0032057Y0036933D01*
X0031895Y0036935D01*
X0031733Y0036941D01*
X0031571Y0036951D01*
X0031410Y0036965D01*
X0031249Y0036983D01*
X0031089Y0037004D01*
X0030929Y0037030D01*
X0030769Y0037060D01*
X0030611Y0037093D01*
X0030453Y0037131D01*
X0030297Y0037172D01*
X0030141Y0037217D01*
X0029987Y0037266D01*
X0029834Y0037319D01*
X0029682Y0037375D01*
X0029531Y0037435D01*
X0029382Y0037499D01*
X0029235Y0037567D01*
X0029090Y0037638D01*
X0028946Y0037712D01*
X0028804Y0037790D01*
X0028664Y0037872D01*
X0028526Y0037957D01*
X0028390Y0038045D01*
X0028257Y0038137D01*
X0028125Y0038232D01*
X0027996Y0038330D01*
X0027870Y0038431D01*
X0027746Y0038535D01*
X0027625Y0038643D01*
X0027506Y0038753D01*
X0027390Y0038866D01*
X0027277Y0038982D01*
X0027167Y0039101D01*
X0027059Y0039222D01*
X0026955Y0039346D01*
X0026854Y0039472D01*
X0026756Y0039601D01*
X0026661Y0039733D01*
X0026569Y0039866D01*
X0026481Y0040002D01*
X0026396Y0040140D01*
X0026314Y0040280D01*
X0026236Y0040422D01*
X0026162Y0040566D01*
X0026091Y0040711D01*
X0026023Y0040858D01*
X0025959Y0041007D01*
X0025899Y0041158D01*
X0025843Y0041310D01*
X0025790Y0041463D01*
X0025741Y0041617D01*
X0025696Y0041773D01*
X0025655Y0041929D01*
X0025617Y0042087D01*
X0025584Y0042245D01*
X0025554Y0042405D01*
X0025528Y0042565D01*
X0025507Y0042725D01*
X0025489Y0042886D01*
X0025475Y0043047D01*
X0025465Y0043209D01*
X0025459Y0043371D01*
X0025457Y0043533D01*
X0021758Y0329033D02*
X0021760Y0329191D01*
X0021766Y0329349D01*
X0021776Y0329507D01*
X0021790Y0329665D01*
X0021808Y0329822D01*
X0021829Y0329979D01*
X0021855Y0330135D01*
X0021885Y0330291D01*
X0021918Y0330446D01*
X0021956Y0330599D01*
X0021997Y0330752D01*
X0022042Y0330904D01*
X0022091Y0331055D01*
X0022144Y0331204D01*
X0022200Y0331352D01*
X0022260Y0331498D01*
X0022324Y0331643D01*
X0022392Y0331786D01*
X0022463Y0331928D01*
X0022537Y0332068D01*
X0022615Y0332205D01*
X0022697Y0332341D01*
X0022781Y0332475D01*
X0022870Y0332606D01*
X0022961Y0332735D01*
X0023056Y0332862D01*
X0023153Y0332987D01*
X0023254Y0333109D01*
X0023358Y0333228D01*
X0023465Y0333345D01*
X0023575Y0333459D01*
X0023688Y0333570D01*
X0023803Y0333679D01*
X0023921Y0333784D01*
X0024042Y0333886D01*
X0024165Y0333986D01*
X0024291Y0334082D01*
X0024419Y0334175D01*
X0024549Y0334265D01*
X0024682Y0334351D01*
X0024817Y0334435D01*
X0024953Y0334514D01*
X0025092Y0334591D01*
X0025233Y0334663D01*
X0025375Y0334733D01*
X0025519Y0334798D01*
X0025665Y0334860D01*
X0025812Y0334918D01*
X0025961Y0334973D01*
X0026111Y0335024D01*
X0026262Y0335071D01*
X0026414Y0335114D01*
X0026567Y0335153D01*
X0026722Y0335189D01*
X0026877Y0335220D01*
X0027033Y0335248D01*
X0027189Y0335272D01*
X0027346Y0335292D01*
X0027504Y0335308D01*
X0027661Y0335320D01*
X0027820Y0335328D01*
X0027978Y0335332D01*
X0028136Y0335332D01*
X0028294Y0335328D01*
X0028453Y0335320D01*
X0028610Y0335308D01*
X0028768Y0335292D01*
X0028925Y0335272D01*
X0029081Y0335248D01*
X0029237Y0335220D01*
X0029392Y0335189D01*
X0029547Y0335153D01*
X0029700Y0335114D01*
X0029852Y0335071D01*
X0030003Y0335024D01*
X0030153Y0334973D01*
X0030302Y0334918D01*
X0030449Y0334860D01*
X0030595Y0334798D01*
X0030739Y0334733D01*
X0030881Y0334663D01*
X0031022Y0334591D01*
X0031161Y0334514D01*
X0031297Y0334435D01*
X0031432Y0334351D01*
X0031565Y0334265D01*
X0031695Y0334175D01*
X0031823Y0334082D01*
X0031949Y0333986D01*
X0032072Y0333886D01*
X0032193Y0333784D01*
X0032311Y0333679D01*
X0032426Y0333570D01*
X0032539Y0333459D01*
X0032649Y0333345D01*
X0032756Y0333228D01*
X0032860Y0333109D01*
X0032961Y0332987D01*
X0033058Y0332862D01*
X0033153Y0332735D01*
X0033244Y0332606D01*
X0033333Y0332475D01*
X0033417Y0332341D01*
X0033499Y0332205D01*
X0033577Y0332068D01*
X0033651Y0331928D01*
X0033722Y0331786D01*
X0033790Y0331643D01*
X0033854Y0331498D01*
X0033914Y0331352D01*
X0033970Y0331204D01*
X0034023Y0331055D01*
X0034072Y0330904D01*
X0034117Y0330752D01*
X0034158Y0330599D01*
X0034196Y0330446D01*
X0034229Y0330291D01*
X0034259Y0330135D01*
X0034285Y0329979D01*
X0034306Y0329822D01*
X0034324Y0329665D01*
X0034338Y0329507D01*
X0034348Y0329349D01*
X0034354Y0329191D01*
X0034356Y0329033D01*
X0034354Y0328875D01*
X0034348Y0328717D01*
X0034338Y0328559D01*
X0034324Y0328401D01*
X0034306Y0328244D01*
X0034285Y0328087D01*
X0034259Y0327931D01*
X0034229Y0327775D01*
X0034196Y0327620D01*
X0034158Y0327467D01*
X0034117Y0327314D01*
X0034072Y0327162D01*
X0034023Y0327011D01*
X0033970Y0326862D01*
X0033914Y0326714D01*
X0033854Y0326568D01*
X0033790Y0326423D01*
X0033722Y0326280D01*
X0033651Y0326138D01*
X0033577Y0325998D01*
X0033499Y0325861D01*
X0033417Y0325725D01*
X0033333Y0325591D01*
X0033244Y0325460D01*
X0033153Y0325331D01*
X0033058Y0325204D01*
X0032961Y0325079D01*
X0032860Y0324957D01*
X0032756Y0324838D01*
X0032649Y0324721D01*
X0032539Y0324607D01*
X0032426Y0324496D01*
X0032311Y0324387D01*
X0032193Y0324282D01*
X0032072Y0324180D01*
X0031949Y0324080D01*
X0031823Y0323984D01*
X0031695Y0323891D01*
X0031565Y0323801D01*
X0031432Y0323715D01*
X0031297Y0323631D01*
X0031161Y0323552D01*
X0031022Y0323475D01*
X0030881Y0323403D01*
X0030739Y0323333D01*
X0030595Y0323268D01*
X0030449Y0323206D01*
X0030302Y0323148D01*
X0030153Y0323093D01*
X0030003Y0323042D01*
X0029852Y0322995D01*
X0029700Y0322952D01*
X0029547Y0322913D01*
X0029392Y0322877D01*
X0029237Y0322846D01*
X0029081Y0322818D01*
X0028925Y0322794D01*
X0028768Y0322774D01*
X0028610Y0322758D01*
X0028453Y0322746D01*
X0028294Y0322738D01*
X0028136Y0322734D01*
X0027978Y0322734D01*
X0027820Y0322738D01*
X0027661Y0322746D01*
X0027504Y0322758D01*
X0027346Y0322774D01*
X0027189Y0322794D01*
X0027033Y0322818D01*
X0026877Y0322846D01*
X0026722Y0322877D01*
X0026567Y0322913D01*
X0026414Y0322952D01*
X0026262Y0322995D01*
X0026111Y0323042D01*
X0025961Y0323093D01*
X0025812Y0323148D01*
X0025665Y0323206D01*
X0025519Y0323268D01*
X0025375Y0323333D01*
X0025233Y0323403D01*
X0025092Y0323475D01*
X0024953Y0323552D01*
X0024817Y0323631D01*
X0024682Y0323715D01*
X0024549Y0323801D01*
X0024419Y0323891D01*
X0024291Y0323984D01*
X0024165Y0324080D01*
X0024042Y0324180D01*
X0023921Y0324282D01*
X0023803Y0324387D01*
X0023688Y0324496D01*
X0023575Y0324607D01*
X0023465Y0324721D01*
X0023358Y0324838D01*
X0023254Y0324957D01*
X0023153Y0325079D01*
X0023056Y0325204D01*
X0022961Y0325331D01*
X0022870Y0325460D01*
X0022781Y0325591D01*
X0022697Y0325725D01*
X0022615Y0325861D01*
X0022537Y0325998D01*
X0022463Y0326138D01*
X0022392Y0326280D01*
X0022324Y0326423D01*
X0022260Y0326568D01*
X0022200Y0326714D01*
X0022144Y0326862D01*
X0022091Y0327011D01*
X0022042Y0327162D01*
X0021997Y0327314D01*
X0021956Y0327467D01*
X0021918Y0327620D01*
X0021885Y0327775D01*
X0021855Y0327931D01*
X0021829Y0328087D01*
X0021808Y0328244D01*
X0021790Y0328401D01*
X0021776Y0328559D01*
X0021766Y0328717D01*
X0021760Y0328875D01*
X0021758Y0329033D01*
X0345457Y0043533D02*
X0345459Y0043695D01*
X0345465Y0043857D01*
X0345475Y0044019D01*
X0345489Y0044180D01*
X0345507Y0044341D01*
X0345528Y0044501D01*
X0345554Y0044661D01*
X0345584Y0044821D01*
X0345617Y0044979D01*
X0345655Y0045137D01*
X0345696Y0045293D01*
X0345741Y0045449D01*
X0345790Y0045603D01*
X0345843Y0045756D01*
X0345899Y0045908D01*
X0345959Y0046059D01*
X0346023Y0046208D01*
X0346091Y0046355D01*
X0346162Y0046500D01*
X0346236Y0046644D01*
X0346314Y0046786D01*
X0346396Y0046926D01*
X0346481Y0047064D01*
X0346569Y0047200D01*
X0346661Y0047333D01*
X0346756Y0047465D01*
X0346854Y0047594D01*
X0346955Y0047720D01*
X0347059Y0047844D01*
X0347167Y0047965D01*
X0347277Y0048084D01*
X0347390Y0048200D01*
X0347506Y0048313D01*
X0347625Y0048423D01*
X0347746Y0048531D01*
X0347870Y0048635D01*
X0347996Y0048736D01*
X0348125Y0048834D01*
X0348257Y0048929D01*
X0348390Y0049021D01*
X0348526Y0049109D01*
X0348664Y0049194D01*
X0348804Y0049276D01*
X0348946Y0049354D01*
X0349090Y0049428D01*
X0349235Y0049499D01*
X0349382Y0049567D01*
X0349531Y0049631D01*
X0349682Y0049691D01*
X0349834Y0049747D01*
X0349987Y0049800D01*
X0350141Y0049849D01*
X0350297Y0049894D01*
X0350453Y0049935D01*
X0350611Y0049973D01*
X0350769Y0050006D01*
X0350929Y0050036D01*
X0351089Y0050062D01*
X0351249Y0050083D01*
X0351410Y0050101D01*
X0351571Y0050115D01*
X0351733Y0050125D01*
X0351895Y0050131D01*
X0352057Y0050133D01*
X0352219Y0050131D01*
X0352381Y0050125D01*
X0352543Y0050115D01*
X0352704Y0050101D01*
X0352865Y0050083D01*
X0353025Y0050062D01*
X0353185Y0050036D01*
X0353345Y0050006D01*
X0353503Y0049973D01*
X0353661Y0049935D01*
X0353817Y0049894D01*
X0353973Y0049849D01*
X0354127Y0049800D01*
X0354280Y0049747D01*
X0354432Y0049691D01*
X0354583Y0049631D01*
X0354732Y0049567D01*
X0354879Y0049499D01*
X0355024Y0049428D01*
X0355168Y0049354D01*
X0355310Y0049276D01*
X0355450Y0049194D01*
X0355588Y0049109D01*
X0355724Y0049021D01*
X0355857Y0048929D01*
X0355989Y0048834D01*
X0356118Y0048736D01*
X0356244Y0048635D01*
X0356368Y0048531D01*
X0356489Y0048423D01*
X0356608Y0048313D01*
X0356724Y0048200D01*
X0356837Y0048084D01*
X0356947Y0047965D01*
X0357055Y0047844D01*
X0357159Y0047720D01*
X0357260Y0047594D01*
X0357358Y0047465D01*
X0357453Y0047333D01*
X0357545Y0047200D01*
X0357633Y0047064D01*
X0357718Y0046926D01*
X0357800Y0046786D01*
X0357878Y0046644D01*
X0357952Y0046500D01*
X0358023Y0046355D01*
X0358091Y0046208D01*
X0358155Y0046059D01*
X0358215Y0045908D01*
X0358271Y0045756D01*
X0358324Y0045603D01*
X0358373Y0045449D01*
X0358418Y0045293D01*
X0358459Y0045137D01*
X0358497Y0044979D01*
X0358530Y0044821D01*
X0358560Y0044661D01*
X0358586Y0044501D01*
X0358607Y0044341D01*
X0358625Y0044180D01*
X0358639Y0044019D01*
X0358649Y0043857D01*
X0358655Y0043695D01*
X0358657Y0043533D01*
X0358655Y0043371D01*
X0358649Y0043209D01*
X0358639Y0043047D01*
X0358625Y0042886D01*
X0358607Y0042725D01*
X0358586Y0042565D01*
X0358560Y0042405D01*
X0358530Y0042245D01*
X0358497Y0042087D01*
X0358459Y0041929D01*
X0358418Y0041773D01*
X0358373Y0041617D01*
X0358324Y0041463D01*
X0358271Y0041310D01*
X0358215Y0041158D01*
X0358155Y0041007D01*
X0358091Y0040858D01*
X0358023Y0040711D01*
X0357952Y0040566D01*
X0357878Y0040422D01*
X0357800Y0040280D01*
X0357718Y0040140D01*
X0357633Y0040002D01*
X0357545Y0039866D01*
X0357453Y0039733D01*
X0357358Y0039601D01*
X0357260Y0039472D01*
X0357159Y0039346D01*
X0357055Y0039222D01*
X0356947Y0039101D01*
X0356837Y0038982D01*
X0356724Y0038866D01*
X0356608Y0038753D01*
X0356489Y0038643D01*
X0356368Y0038535D01*
X0356244Y0038431D01*
X0356118Y0038330D01*
X0355989Y0038232D01*
X0355857Y0038137D01*
X0355724Y0038045D01*
X0355588Y0037957D01*
X0355450Y0037872D01*
X0355310Y0037790D01*
X0355168Y0037712D01*
X0355024Y0037638D01*
X0354879Y0037567D01*
X0354732Y0037499D01*
X0354583Y0037435D01*
X0354432Y0037375D01*
X0354280Y0037319D01*
X0354127Y0037266D01*
X0353973Y0037217D01*
X0353817Y0037172D01*
X0353661Y0037131D01*
X0353503Y0037093D01*
X0353345Y0037060D01*
X0353185Y0037030D01*
X0353025Y0037004D01*
X0352865Y0036983D01*
X0352704Y0036965D01*
X0352543Y0036951D01*
X0352381Y0036941D01*
X0352219Y0036935D01*
X0352057Y0036933D01*
X0351895Y0036935D01*
X0351733Y0036941D01*
X0351571Y0036951D01*
X0351410Y0036965D01*
X0351249Y0036983D01*
X0351089Y0037004D01*
X0350929Y0037030D01*
X0350769Y0037060D01*
X0350611Y0037093D01*
X0350453Y0037131D01*
X0350297Y0037172D01*
X0350141Y0037217D01*
X0349987Y0037266D01*
X0349834Y0037319D01*
X0349682Y0037375D01*
X0349531Y0037435D01*
X0349382Y0037499D01*
X0349235Y0037567D01*
X0349090Y0037638D01*
X0348946Y0037712D01*
X0348804Y0037790D01*
X0348664Y0037872D01*
X0348526Y0037957D01*
X0348390Y0038045D01*
X0348257Y0038137D01*
X0348125Y0038232D01*
X0347996Y0038330D01*
X0347870Y0038431D01*
X0347746Y0038535D01*
X0347625Y0038643D01*
X0347506Y0038753D01*
X0347390Y0038866D01*
X0347277Y0038982D01*
X0347167Y0039101D01*
X0347059Y0039222D01*
X0346955Y0039346D01*
X0346854Y0039472D01*
X0346756Y0039601D01*
X0346661Y0039733D01*
X0346569Y0039866D01*
X0346481Y0040002D01*
X0346396Y0040140D01*
X0346314Y0040280D01*
X0346236Y0040422D01*
X0346162Y0040566D01*
X0346091Y0040711D01*
X0346023Y0040858D01*
X0345959Y0041007D01*
X0345899Y0041158D01*
X0345843Y0041310D01*
X0345790Y0041463D01*
X0345741Y0041617D01*
X0345696Y0041773D01*
X0345655Y0041929D01*
X0345617Y0042087D01*
X0345584Y0042245D01*
X0345554Y0042405D01*
X0345528Y0042565D01*
X0345507Y0042725D01*
X0345489Y0042886D01*
X0345475Y0043047D01*
X0345465Y0043209D01*
X0345459Y0043371D01*
X0345457Y0043533D01*
X0349758Y0329033D02*
X0349760Y0329191D01*
X0349766Y0329349D01*
X0349776Y0329507D01*
X0349790Y0329665D01*
X0349808Y0329822D01*
X0349829Y0329979D01*
X0349855Y0330135D01*
X0349885Y0330291D01*
X0349918Y0330446D01*
X0349956Y0330599D01*
X0349997Y0330752D01*
X0350042Y0330904D01*
X0350091Y0331055D01*
X0350144Y0331204D01*
X0350200Y0331352D01*
X0350260Y0331498D01*
X0350324Y0331643D01*
X0350392Y0331786D01*
X0350463Y0331928D01*
X0350537Y0332068D01*
X0350615Y0332205D01*
X0350697Y0332341D01*
X0350781Y0332475D01*
X0350870Y0332606D01*
X0350961Y0332735D01*
X0351056Y0332862D01*
X0351153Y0332987D01*
X0351254Y0333109D01*
X0351358Y0333228D01*
X0351465Y0333345D01*
X0351575Y0333459D01*
X0351688Y0333570D01*
X0351803Y0333679D01*
X0351921Y0333784D01*
X0352042Y0333886D01*
X0352165Y0333986D01*
X0352291Y0334082D01*
X0352419Y0334175D01*
X0352549Y0334265D01*
X0352682Y0334351D01*
X0352817Y0334435D01*
X0352953Y0334514D01*
X0353092Y0334591D01*
X0353233Y0334663D01*
X0353375Y0334733D01*
X0353519Y0334798D01*
X0353665Y0334860D01*
X0353812Y0334918D01*
X0353961Y0334973D01*
X0354111Y0335024D01*
X0354262Y0335071D01*
X0354414Y0335114D01*
X0354567Y0335153D01*
X0354722Y0335189D01*
X0354877Y0335220D01*
X0355033Y0335248D01*
X0355189Y0335272D01*
X0355346Y0335292D01*
X0355504Y0335308D01*
X0355661Y0335320D01*
X0355820Y0335328D01*
X0355978Y0335332D01*
X0356136Y0335332D01*
X0356294Y0335328D01*
X0356453Y0335320D01*
X0356610Y0335308D01*
X0356768Y0335292D01*
X0356925Y0335272D01*
X0357081Y0335248D01*
X0357237Y0335220D01*
X0357392Y0335189D01*
X0357547Y0335153D01*
X0357700Y0335114D01*
X0357852Y0335071D01*
X0358003Y0335024D01*
X0358153Y0334973D01*
X0358302Y0334918D01*
X0358449Y0334860D01*
X0358595Y0334798D01*
X0358739Y0334733D01*
X0358881Y0334663D01*
X0359022Y0334591D01*
X0359161Y0334514D01*
X0359297Y0334435D01*
X0359432Y0334351D01*
X0359565Y0334265D01*
X0359695Y0334175D01*
X0359823Y0334082D01*
X0359949Y0333986D01*
X0360072Y0333886D01*
X0360193Y0333784D01*
X0360311Y0333679D01*
X0360426Y0333570D01*
X0360539Y0333459D01*
X0360649Y0333345D01*
X0360756Y0333228D01*
X0360860Y0333109D01*
X0360961Y0332987D01*
X0361058Y0332862D01*
X0361153Y0332735D01*
X0361244Y0332606D01*
X0361333Y0332475D01*
X0361417Y0332341D01*
X0361499Y0332205D01*
X0361577Y0332068D01*
X0361651Y0331928D01*
X0361722Y0331786D01*
X0361790Y0331643D01*
X0361854Y0331498D01*
X0361914Y0331352D01*
X0361970Y0331204D01*
X0362023Y0331055D01*
X0362072Y0330904D01*
X0362117Y0330752D01*
X0362158Y0330599D01*
X0362196Y0330446D01*
X0362229Y0330291D01*
X0362259Y0330135D01*
X0362285Y0329979D01*
X0362306Y0329822D01*
X0362324Y0329665D01*
X0362338Y0329507D01*
X0362348Y0329349D01*
X0362354Y0329191D01*
X0362356Y0329033D01*
X0362354Y0328875D01*
X0362348Y0328717D01*
X0362338Y0328559D01*
X0362324Y0328401D01*
X0362306Y0328244D01*
X0362285Y0328087D01*
X0362259Y0327931D01*
X0362229Y0327775D01*
X0362196Y0327620D01*
X0362158Y0327467D01*
X0362117Y0327314D01*
X0362072Y0327162D01*
X0362023Y0327011D01*
X0361970Y0326862D01*
X0361914Y0326714D01*
X0361854Y0326568D01*
X0361790Y0326423D01*
X0361722Y0326280D01*
X0361651Y0326138D01*
X0361577Y0325998D01*
X0361499Y0325861D01*
X0361417Y0325725D01*
X0361333Y0325591D01*
X0361244Y0325460D01*
X0361153Y0325331D01*
X0361058Y0325204D01*
X0360961Y0325079D01*
X0360860Y0324957D01*
X0360756Y0324838D01*
X0360649Y0324721D01*
X0360539Y0324607D01*
X0360426Y0324496D01*
X0360311Y0324387D01*
X0360193Y0324282D01*
X0360072Y0324180D01*
X0359949Y0324080D01*
X0359823Y0323984D01*
X0359695Y0323891D01*
X0359565Y0323801D01*
X0359432Y0323715D01*
X0359297Y0323631D01*
X0359161Y0323552D01*
X0359022Y0323475D01*
X0358881Y0323403D01*
X0358739Y0323333D01*
X0358595Y0323268D01*
X0358449Y0323206D01*
X0358302Y0323148D01*
X0358153Y0323093D01*
X0358003Y0323042D01*
X0357852Y0322995D01*
X0357700Y0322952D01*
X0357547Y0322913D01*
X0357392Y0322877D01*
X0357237Y0322846D01*
X0357081Y0322818D01*
X0356925Y0322794D01*
X0356768Y0322774D01*
X0356610Y0322758D01*
X0356453Y0322746D01*
X0356294Y0322738D01*
X0356136Y0322734D01*
X0355978Y0322734D01*
X0355820Y0322738D01*
X0355661Y0322746D01*
X0355504Y0322758D01*
X0355346Y0322774D01*
X0355189Y0322794D01*
X0355033Y0322818D01*
X0354877Y0322846D01*
X0354722Y0322877D01*
X0354567Y0322913D01*
X0354414Y0322952D01*
X0354262Y0322995D01*
X0354111Y0323042D01*
X0353961Y0323093D01*
X0353812Y0323148D01*
X0353665Y0323206D01*
X0353519Y0323268D01*
X0353375Y0323333D01*
X0353233Y0323403D01*
X0353092Y0323475D01*
X0352953Y0323552D01*
X0352817Y0323631D01*
X0352682Y0323715D01*
X0352549Y0323801D01*
X0352419Y0323891D01*
X0352291Y0323984D01*
X0352165Y0324080D01*
X0352042Y0324180D01*
X0351921Y0324282D01*
X0351803Y0324387D01*
X0351688Y0324496D01*
X0351575Y0324607D01*
X0351465Y0324721D01*
X0351358Y0324838D01*
X0351254Y0324957D01*
X0351153Y0325079D01*
X0351056Y0325204D01*
X0350961Y0325331D01*
X0350870Y0325460D01*
X0350781Y0325591D01*
X0350697Y0325725D01*
X0350615Y0325861D01*
X0350537Y0325998D01*
X0350463Y0326138D01*
X0350392Y0326280D01*
X0350324Y0326423D01*
X0350260Y0326568D01*
X0350200Y0326714D01*
X0350144Y0326862D01*
X0350091Y0327011D01*
X0350042Y0327162D01*
X0349997Y0327314D01*
X0349956Y0327467D01*
X0349918Y0327620D01*
X0349885Y0327775D01*
X0349855Y0327931D01*
X0349829Y0328087D01*
X0349808Y0328244D01*
X0349790Y0328401D01*
X0349776Y0328559D01*
X0349766Y0328717D01*
X0349760Y0328875D01*
X0349758Y0329033D01*
D11*
X0319797Y0250533D03*
X0312317Y0250533D03*
X0301797Y0250533D03*
X0294317Y0250533D03*
X0284297Y0238533D03*
X0276817Y0238533D03*
X0276797Y0213533D03*
X0269317Y0213533D03*
X0269317Y0200783D03*
X0276797Y0200783D03*
X0276797Y0192783D03*
X0269317Y0192783D03*
X0270317Y0150533D03*
X0277797Y0150533D03*
X0286317Y0150533D03*
X0293797Y0150533D03*
X0316817Y0150533D03*
X0324297Y0150533D03*
X0332817Y0150533D03*
X0340297Y0150533D03*
X0340297Y0118533D03*
X0332817Y0118533D03*
X0324297Y0118533D03*
X0316817Y0118533D03*
X0293797Y0118533D03*
X0286317Y0118533D03*
X0277797Y0118533D03*
X0270317Y0118533D03*
X0230297Y0118533D03*
X0222817Y0118533D03*
X0214297Y0118533D03*
X0206817Y0118533D03*
X0183797Y0118533D03*
X0176317Y0118533D03*
X0167797Y0118533D03*
X0160317Y0118533D03*
X0160317Y0150533D03*
X0167797Y0150533D03*
X0176317Y0150533D03*
X0183797Y0150533D03*
X0206817Y0150533D03*
X0214297Y0150533D03*
X0222817Y0150533D03*
X0230297Y0150533D03*
X0166797Y0192783D03*
X0159317Y0192783D03*
X0159317Y0200783D03*
X0166797Y0200783D03*
X0166797Y0213533D03*
X0159317Y0213533D03*
X0166817Y0238533D03*
X0174297Y0238533D03*
X0184317Y0250533D03*
X0191797Y0250533D03*
X0202317Y0250533D03*
X0209797Y0250533D03*
X0192547Y0301783D03*
X0185067Y0301783D03*
X0179797Y0321533D03*
X0172317Y0321533D03*
X0188317Y0333533D03*
X0195797Y0333533D03*
X0205817Y0333533D03*
X0213297Y0333533D03*
X0200047Y0321533D03*
X0192567Y0321533D03*
X0099797Y0250533D03*
X0092317Y0250533D03*
X0081797Y0250533D03*
X0074317Y0250533D03*
X0064297Y0238533D03*
X0056817Y0238533D03*
X0056797Y0213533D03*
X0049317Y0213533D03*
X0049317Y0200783D03*
X0056797Y0200783D03*
X0056797Y0192783D03*
X0049317Y0192783D03*
X0050317Y0150533D03*
X0057797Y0150533D03*
X0066317Y0150533D03*
X0073797Y0150533D03*
X0096817Y0150533D03*
X0104297Y0150533D03*
X0112817Y0150533D03*
X0120297Y0150533D03*
X0120297Y0118533D03*
X0112817Y0118533D03*
X0104297Y0118533D03*
X0096817Y0118533D03*
X0073797Y0118533D03*
X0066317Y0118533D03*
X0057797Y0118533D03*
X0050317Y0118533D03*
D12*
X0041057Y0120793D03*
X0041057Y0128274D03*
X0041057Y0137293D03*
X0041057Y0144774D03*
X0041057Y0152793D03*
X0041057Y0160274D03*
X0041057Y0169293D03*
X0041057Y0176774D03*
X0087557Y0176774D03*
X0087557Y0169293D03*
X0087557Y0160274D03*
X0087557Y0152793D03*
X0087557Y0144774D03*
X0087557Y0137293D03*
X0087557Y0128274D03*
X0087557Y0120793D03*
X0151057Y0120793D03*
X0151057Y0128274D03*
X0151057Y0137293D03*
X0151057Y0144774D03*
X0151057Y0152793D03*
X0151057Y0160274D03*
X0151057Y0169293D03*
X0151057Y0176774D03*
X0124307Y0200793D03*
X0124307Y0208274D03*
X0124307Y0216793D03*
X0124307Y0224274D03*
X0092557Y0257793D03*
X0092557Y0265274D03*
X0081557Y0265274D03*
X0081557Y0257793D03*
X0057307Y0229274D03*
X0057307Y0221793D03*
X0074557Y0294043D03*
X0074557Y0301524D03*
X0083057Y0301293D03*
X0083057Y0308774D03*
X0091557Y0308774D03*
X0091557Y0301293D03*
X0167307Y0229274D03*
X0167307Y0221793D03*
X0191557Y0257793D03*
X0191557Y0265274D03*
X0202557Y0265274D03*
X0202557Y0257793D03*
X0234307Y0224274D03*
X0234307Y0216793D03*
X0234307Y0208274D03*
X0234307Y0200793D03*
X0261057Y0176774D03*
X0261057Y0169293D03*
X0261057Y0160274D03*
X0261057Y0152793D03*
X0261057Y0144774D03*
X0261057Y0137293D03*
X0261057Y0128274D03*
X0261057Y0120793D03*
X0307557Y0120793D03*
X0307557Y0128274D03*
X0307557Y0137293D03*
X0307557Y0144774D03*
X0307557Y0152793D03*
X0307557Y0160274D03*
X0307557Y0169293D03*
X0307557Y0176774D03*
X0344307Y0200793D03*
X0344307Y0208274D03*
X0344307Y0216793D03*
X0344307Y0224274D03*
X0312557Y0257793D03*
X0312557Y0265274D03*
X0301557Y0265274D03*
X0301557Y0257793D03*
X0277307Y0229274D03*
X0277307Y0221793D03*
X0257557Y0253793D03*
X0257557Y0261274D03*
X0197557Y0176774D03*
X0197557Y0169293D03*
X0197557Y0160274D03*
X0197557Y0152793D03*
X0197557Y0144774D03*
X0197557Y0137293D03*
X0197557Y0128274D03*
X0197557Y0120793D03*
D13*
X0210557Y0258236D03*
X0210557Y0264831D03*
X0183557Y0264831D03*
X0183557Y0258236D03*
X0100557Y0258236D03*
X0100557Y0264831D03*
X0073557Y0264831D03*
X0073557Y0258236D03*
X0293557Y0258236D03*
X0293557Y0264831D03*
X0320557Y0264831D03*
X0320557Y0258236D03*
D14*
X0319915Y0237581D03*
X0317947Y0237581D03*
X0315978Y0237581D03*
X0314010Y0237581D03*
X0312041Y0237581D03*
X0310073Y0237581D03*
X0308104Y0237581D03*
X0306136Y0237581D03*
X0304167Y0237581D03*
X0302199Y0237581D03*
X0300230Y0237581D03*
X0298262Y0237581D03*
X0296293Y0237581D03*
X0321884Y0237581D03*
X0323852Y0237581D03*
X0325821Y0237581D03*
X0325821Y0191486D03*
X0323852Y0191486D03*
X0321884Y0191486D03*
X0319915Y0191486D03*
X0317947Y0191486D03*
X0315978Y0191486D03*
X0314010Y0191486D03*
X0312041Y0191486D03*
X0310073Y0191486D03*
X0308104Y0191486D03*
X0306136Y0191486D03*
X0304167Y0191486D03*
X0302199Y0191486D03*
X0300230Y0191486D03*
X0298262Y0191486D03*
X0296293Y0191486D03*
X0215821Y0191486D03*
X0213852Y0191486D03*
X0211884Y0191486D03*
X0209915Y0191486D03*
X0207947Y0191486D03*
X0205978Y0191486D03*
X0204010Y0191486D03*
X0202041Y0191486D03*
X0200073Y0191486D03*
X0198104Y0191486D03*
X0196136Y0191486D03*
X0194167Y0191486D03*
X0192199Y0191486D03*
X0190230Y0191486D03*
X0188262Y0191486D03*
X0186293Y0191486D03*
X0186293Y0237581D03*
X0188262Y0237581D03*
X0190230Y0237581D03*
X0192199Y0237581D03*
X0194167Y0237581D03*
X0196136Y0237581D03*
X0198104Y0237581D03*
X0200073Y0237581D03*
X0202041Y0237581D03*
X0204010Y0237581D03*
X0205978Y0237581D03*
X0207947Y0237581D03*
X0209915Y0237581D03*
X0211884Y0237581D03*
X0213852Y0237581D03*
X0215821Y0237581D03*
X0105821Y0237581D03*
X0103852Y0237581D03*
X0101884Y0237581D03*
X0099915Y0237581D03*
X0097947Y0237581D03*
X0095978Y0237581D03*
X0094010Y0237581D03*
X0092041Y0237581D03*
X0090073Y0237581D03*
X0088104Y0237581D03*
X0086136Y0237581D03*
X0084167Y0237581D03*
X0082199Y0237581D03*
X0080230Y0237581D03*
X0078262Y0237581D03*
X0076293Y0237581D03*
X0076293Y0191486D03*
X0078262Y0191486D03*
X0080230Y0191486D03*
X0082199Y0191486D03*
X0084167Y0191486D03*
X0086136Y0191486D03*
X0088104Y0191486D03*
X0090073Y0191486D03*
X0092041Y0191486D03*
X0094010Y0191486D03*
X0095978Y0191486D03*
X0097947Y0191486D03*
X0099915Y0191486D03*
X0101884Y0191486D03*
X0103852Y0191486D03*
X0105821Y0191486D03*
D15*
X0114104Y0199770D03*
X0114104Y0201738D03*
X0114104Y0203707D03*
X0114104Y0205675D03*
X0114104Y0207644D03*
X0114104Y0209612D03*
X0114104Y0211581D03*
X0114104Y0213549D03*
X0114104Y0215518D03*
X0114104Y0217486D03*
X0114104Y0219455D03*
X0114104Y0221423D03*
X0114104Y0223392D03*
X0114104Y0225360D03*
X0114104Y0227329D03*
X0114104Y0229297D03*
X0068010Y0229297D03*
X0068010Y0227329D03*
X0068010Y0225360D03*
X0068010Y0223392D03*
X0068010Y0221423D03*
X0068010Y0219455D03*
X0068010Y0217486D03*
X0068010Y0215518D03*
X0068010Y0213549D03*
X0068010Y0211581D03*
X0068010Y0209612D03*
X0068010Y0207644D03*
X0068010Y0205675D03*
X0068010Y0203707D03*
X0068010Y0201738D03*
X0068010Y0199770D03*
X0178010Y0199770D03*
X0178010Y0201738D03*
X0178010Y0203707D03*
X0178010Y0205675D03*
X0178010Y0207644D03*
X0178010Y0209612D03*
X0178010Y0211581D03*
X0178010Y0213549D03*
X0178010Y0215518D03*
X0178010Y0217486D03*
X0178010Y0219455D03*
X0178010Y0221423D03*
X0178010Y0223392D03*
X0178010Y0225360D03*
X0178010Y0227329D03*
X0178010Y0229297D03*
X0224104Y0229297D03*
X0224104Y0227329D03*
X0224104Y0225360D03*
X0224104Y0223392D03*
X0224104Y0221423D03*
X0224104Y0219455D03*
X0224104Y0217486D03*
X0224104Y0215518D03*
X0224104Y0213549D03*
X0224104Y0211581D03*
X0224104Y0209612D03*
X0224104Y0207644D03*
X0224104Y0205675D03*
X0224104Y0203707D03*
X0224104Y0201738D03*
X0224104Y0199770D03*
X0288010Y0199770D03*
X0288010Y0201738D03*
X0288010Y0203707D03*
X0288010Y0205675D03*
X0288010Y0207644D03*
X0288010Y0209612D03*
X0288010Y0211581D03*
X0288010Y0213549D03*
X0288010Y0215518D03*
X0288010Y0217486D03*
X0288010Y0219455D03*
X0288010Y0221423D03*
X0288010Y0223392D03*
X0288010Y0225360D03*
X0288010Y0227329D03*
X0288010Y0229297D03*
X0334104Y0229297D03*
X0334104Y0227329D03*
X0334104Y0225360D03*
X0334104Y0223392D03*
X0334104Y0221423D03*
X0334104Y0219455D03*
X0334104Y0217486D03*
X0334104Y0215518D03*
X0334104Y0213549D03*
X0334104Y0211581D03*
X0334104Y0209612D03*
X0334104Y0207644D03*
X0334104Y0205675D03*
X0334104Y0203707D03*
X0334104Y0201738D03*
X0334104Y0199770D03*
D16*
X0339557Y0175533D03*
X0339557Y0172933D03*
X0339557Y0170333D03*
X0339557Y0167833D03*
X0339557Y0165233D03*
X0339557Y0162733D03*
X0339557Y0160133D03*
X0339557Y0157533D03*
X0339557Y0143533D03*
X0339557Y0140933D03*
X0339557Y0138333D03*
X0339557Y0135833D03*
X0339557Y0133233D03*
X0339557Y0130733D03*
X0339557Y0128133D03*
X0339557Y0125533D03*
X0316557Y0125533D03*
X0316557Y0128133D03*
X0316557Y0130733D03*
X0316557Y0133233D03*
X0316557Y0135833D03*
X0316557Y0138333D03*
X0316557Y0140933D03*
X0316557Y0143533D03*
X0316557Y0157533D03*
X0316557Y0160133D03*
X0316557Y0162733D03*
X0316557Y0165233D03*
X0316557Y0167833D03*
X0316557Y0170333D03*
X0316557Y0172933D03*
X0316557Y0175533D03*
X0293057Y0175533D03*
X0293057Y0172933D03*
X0293057Y0170333D03*
X0293057Y0167833D03*
X0293057Y0165233D03*
X0293057Y0162733D03*
X0293057Y0160133D03*
X0293057Y0157533D03*
X0293057Y0143533D03*
X0293057Y0140933D03*
X0293057Y0138333D03*
X0293057Y0135833D03*
X0293057Y0133233D03*
X0293057Y0130733D03*
X0293057Y0128133D03*
X0293057Y0125533D03*
X0270057Y0125533D03*
X0270057Y0128133D03*
X0270057Y0130733D03*
X0270057Y0133233D03*
X0270057Y0135833D03*
X0270057Y0138333D03*
X0270057Y0140933D03*
X0270057Y0143533D03*
X0270057Y0157533D03*
X0270057Y0160133D03*
X0270057Y0162733D03*
X0270057Y0165233D03*
X0270057Y0167833D03*
X0270057Y0170333D03*
X0270057Y0172933D03*
X0270057Y0175533D03*
X0229557Y0175533D03*
X0229557Y0172933D03*
X0229557Y0170333D03*
X0229557Y0167833D03*
X0229557Y0165233D03*
X0229557Y0162733D03*
X0229557Y0160133D03*
X0229557Y0157533D03*
X0229557Y0143533D03*
X0229557Y0140933D03*
X0229557Y0138333D03*
X0229557Y0135833D03*
X0229557Y0133233D03*
X0229557Y0130733D03*
X0229557Y0128133D03*
X0229557Y0125533D03*
X0206557Y0125533D03*
X0206557Y0128133D03*
X0206557Y0130733D03*
X0206557Y0133233D03*
X0206557Y0135833D03*
X0206557Y0138333D03*
X0206557Y0140933D03*
X0206557Y0143533D03*
X0206557Y0157533D03*
X0206557Y0160133D03*
X0206557Y0162733D03*
X0206557Y0165233D03*
X0206557Y0167833D03*
X0206557Y0170333D03*
X0206557Y0172933D03*
X0206557Y0175533D03*
X0183057Y0175533D03*
X0183057Y0172933D03*
X0183057Y0170333D03*
X0183057Y0167833D03*
X0183057Y0165233D03*
X0183057Y0162733D03*
X0183057Y0160133D03*
X0183057Y0157533D03*
X0183057Y0143533D03*
X0183057Y0140933D03*
X0183057Y0138333D03*
X0183057Y0135833D03*
X0183057Y0133233D03*
X0183057Y0130733D03*
X0183057Y0128133D03*
X0183057Y0125533D03*
X0160057Y0125533D03*
X0160057Y0128133D03*
X0160057Y0130733D03*
X0160057Y0133233D03*
X0160057Y0135833D03*
X0160057Y0138333D03*
X0160057Y0140933D03*
X0160057Y0143533D03*
X0160057Y0157533D03*
X0160057Y0160133D03*
X0160057Y0162733D03*
X0160057Y0165233D03*
X0160057Y0167833D03*
X0160057Y0170333D03*
X0160057Y0172933D03*
X0160057Y0175533D03*
X0119557Y0175533D03*
X0119557Y0172933D03*
X0119557Y0170333D03*
X0119557Y0167833D03*
X0119557Y0165233D03*
X0119557Y0162733D03*
X0119557Y0160133D03*
X0119557Y0157533D03*
X0119557Y0143533D03*
X0119557Y0140933D03*
X0119557Y0138333D03*
X0119557Y0135833D03*
X0119557Y0133233D03*
X0119557Y0130733D03*
X0119557Y0128133D03*
X0119557Y0125533D03*
X0096557Y0125533D03*
X0096557Y0128133D03*
X0096557Y0130733D03*
X0096557Y0133233D03*
X0096557Y0135833D03*
X0096557Y0138333D03*
X0096557Y0140933D03*
X0096557Y0143533D03*
X0096557Y0157533D03*
X0096557Y0160133D03*
X0096557Y0162733D03*
X0096557Y0165233D03*
X0096557Y0167833D03*
X0096557Y0170333D03*
X0096557Y0172933D03*
X0096557Y0175533D03*
X0073057Y0175533D03*
X0073057Y0172933D03*
X0073057Y0170333D03*
X0073057Y0167833D03*
X0073057Y0165233D03*
X0073057Y0162733D03*
X0073057Y0160133D03*
X0073057Y0157533D03*
X0073057Y0143533D03*
X0073057Y0140933D03*
X0073057Y0138333D03*
X0073057Y0135833D03*
X0073057Y0133233D03*
X0073057Y0130733D03*
X0073057Y0128133D03*
X0073057Y0125533D03*
X0050057Y0125533D03*
X0050057Y0128133D03*
X0050057Y0130733D03*
X0050057Y0133233D03*
X0050057Y0135833D03*
X0050057Y0138333D03*
X0050057Y0140933D03*
X0050057Y0143533D03*
X0050057Y0157533D03*
X0050057Y0160133D03*
X0050057Y0162733D03*
X0050057Y0165233D03*
X0050057Y0167833D03*
X0050057Y0170333D03*
X0050057Y0172933D03*
X0050057Y0175533D03*
D17*
X0267439Y0252703D03*
X0267439Y0261364D03*
X0277675Y0261364D03*
X0277675Y0252703D03*
M02*
