G75*
%MOIN*%
%OFA0B0*%
%FSLAX25Y25*%
%IPPOS*%
%LPD*%
%AMOC8*
5,1,8,0,0,1.08239X$1,22.5*
%
%ADD10C,0.00000*%
%ADD11C,0.00400*%
%ADD12C,0.00500*%
%ADD13C,0.00100*%
%ADD14C,0.00800*%
%ADD15C,0.01000*%
%ADD16C,0.00300*%
%ADD17C,0.00600*%
D10*
X0001800Y0020033D02*
X0001800Y0345033D01*
X0361800Y0345033D01*
X0361800Y0020033D01*
X0001800Y0020033D01*
X0015200Y0043533D02*
X0015202Y0043695D01*
X0015208Y0043857D01*
X0015218Y0044019D01*
X0015232Y0044180D01*
X0015250Y0044341D01*
X0015271Y0044501D01*
X0015297Y0044661D01*
X0015327Y0044821D01*
X0015360Y0044979D01*
X0015398Y0045137D01*
X0015439Y0045293D01*
X0015484Y0045449D01*
X0015533Y0045603D01*
X0015586Y0045756D01*
X0015642Y0045908D01*
X0015702Y0046059D01*
X0015766Y0046208D01*
X0015834Y0046355D01*
X0015905Y0046500D01*
X0015979Y0046644D01*
X0016057Y0046786D01*
X0016139Y0046926D01*
X0016224Y0047064D01*
X0016312Y0047200D01*
X0016404Y0047333D01*
X0016499Y0047465D01*
X0016597Y0047594D01*
X0016698Y0047720D01*
X0016802Y0047844D01*
X0016910Y0047965D01*
X0017020Y0048084D01*
X0017133Y0048200D01*
X0017249Y0048313D01*
X0017368Y0048423D01*
X0017489Y0048531D01*
X0017613Y0048635D01*
X0017739Y0048736D01*
X0017868Y0048834D01*
X0018000Y0048929D01*
X0018133Y0049021D01*
X0018269Y0049109D01*
X0018407Y0049194D01*
X0018547Y0049276D01*
X0018689Y0049354D01*
X0018833Y0049428D01*
X0018978Y0049499D01*
X0019125Y0049567D01*
X0019274Y0049631D01*
X0019425Y0049691D01*
X0019577Y0049747D01*
X0019730Y0049800D01*
X0019884Y0049849D01*
X0020040Y0049894D01*
X0020196Y0049935D01*
X0020354Y0049973D01*
X0020512Y0050006D01*
X0020672Y0050036D01*
X0020832Y0050062D01*
X0020992Y0050083D01*
X0021153Y0050101D01*
X0021314Y0050115D01*
X0021476Y0050125D01*
X0021638Y0050131D01*
X0021800Y0050133D01*
X0021962Y0050131D01*
X0022124Y0050125D01*
X0022286Y0050115D01*
X0022447Y0050101D01*
X0022608Y0050083D01*
X0022768Y0050062D01*
X0022928Y0050036D01*
X0023088Y0050006D01*
X0023246Y0049973D01*
X0023404Y0049935D01*
X0023560Y0049894D01*
X0023716Y0049849D01*
X0023870Y0049800D01*
X0024023Y0049747D01*
X0024175Y0049691D01*
X0024326Y0049631D01*
X0024475Y0049567D01*
X0024622Y0049499D01*
X0024767Y0049428D01*
X0024911Y0049354D01*
X0025053Y0049276D01*
X0025193Y0049194D01*
X0025331Y0049109D01*
X0025467Y0049021D01*
X0025600Y0048929D01*
X0025732Y0048834D01*
X0025861Y0048736D01*
X0025987Y0048635D01*
X0026111Y0048531D01*
X0026232Y0048423D01*
X0026351Y0048313D01*
X0026467Y0048200D01*
X0026580Y0048084D01*
X0026690Y0047965D01*
X0026798Y0047844D01*
X0026902Y0047720D01*
X0027003Y0047594D01*
X0027101Y0047465D01*
X0027196Y0047333D01*
X0027288Y0047200D01*
X0027376Y0047064D01*
X0027461Y0046926D01*
X0027543Y0046786D01*
X0027621Y0046644D01*
X0027695Y0046500D01*
X0027766Y0046355D01*
X0027834Y0046208D01*
X0027898Y0046059D01*
X0027958Y0045908D01*
X0028014Y0045756D01*
X0028067Y0045603D01*
X0028116Y0045449D01*
X0028161Y0045293D01*
X0028202Y0045137D01*
X0028240Y0044979D01*
X0028273Y0044821D01*
X0028303Y0044661D01*
X0028329Y0044501D01*
X0028350Y0044341D01*
X0028368Y0044180D01*
X0028382Y0044019D01*
X0028392Y0043857D01*
X0028398Y0043695D01*
X0028400Y0043533D01*
X0028398Y0043371D01*
X0028392Y0043209D01*
X0028382Y0043047D01*
X0028368Y0042886D01*
X0028350Y0042725D01*
X0028329Y0042565D01*
X0028303Y0042405D01*
X0028273Y0042245D01*
X0028240Y0042087D01*
X0028202Y0041929D01*
X0028161Y0041773D01*
X0028116Y0041617D01*
X0028067Y0041463D01*
X0028014Y0041310D01*
X0027958Y0041158D01*
X0027898Y0041007D01*
X0027834Y0040858D01*
X0027766Y0040711D01*
X0027695Y0040566D01*
X0027621Y0040422D01*
X0027543Y0040280D01*
X0027461Y0040140D01*
X0027376Y0040002D01*
X0027288Y0039866D01*
X0027196Y0039733D01*
X0027101Y0039601D01*
X0027003Y0039472D01*
X0026902Y0039346D01*
X0026798Y0039222D01*
X0026690Y0039101D01*
X0026580Y0038982D01*
X0026467Y0038866D01*
X0026351Y0038753D01*
X0026232Y0038643D01*
X0026111Y0038535D01*
X0025987Y0038431D01*
X0025861Y0038330D01*
X0025732Y0038232D01*
X0025600Y0038137D01*
X0025467Y0038045D01*
X0025331Y0037957D01*
X0025193Y0037872D01*
X0025053Y0037790D01*
X0024911Y0037712D01*
X0024767Y0037638D01*
X0024622Y0037567D01*
X0024475Y0037499D01*
X0024326Y0037435D01*
X0024175Y0037375D01*
X0024023Y0037319D01*
X0023870Y0037266D01*
X0023716Y0037217D01*
X0023560Y0037172D01*
X0023404Y0037131D01*
X0023246Y0037093D01*
X0023088Y0037060D01*
X0022928Y0037030D01*
X0022768Y0037004D01*
X0022608Y0036983D01*
X0022447Y0036965D01*
X0022286Y0036951D01*
X0022124Y0036941D01*
X0021962Y0036935D01*
X0021800Y0036933D01*
X0021638Y0036935D01*
X0021476Y0036941D01*
X0021314Y0036951D01*
X0021153Y0036965D01*
X0020992Y0036983D01*
X0020832Y0037004D01*
X0020672Y0037030D01*
X0020512Y0037060D01*
X0020354Y0037093D01*
X0020196Y0037131D01*
X0020040Y0037172D01*
X0019884Y0037217D01*
X0019730Y0037266D01*
X0019577Y0037319D01*
X0019425Y0037375D01*
X0019274Y0037435D01*
X0019125Y0037499D01*
X0018978Y0037567D01*
X0018833Y0037638D01*
X0018689Y0037712D01*
X0018547Y0037790D01*
X0018407Y0037872D01*
X0018269Y0037957D01*
X0018133Y0038045D01*
X0018000Y0038137D01*
X0017868Y0038232D01*
X0017739Y0038330D01*
X0017613Y0038431D01*
X0017489Y0038535D01*
X0017368Y0038643D01*
X0017249Y0038753D01*
X0017133Y0038866D01*
X0017020Y0038982D01*
X0016910Y0039101D01*
X0016802Y0039222D01*
X0016698Y0039346D01*
X0016597Y0039472D01*
X0016499Y0039601D01*
X0016404Y0039733D01*
X0016312Y0039866D01*
X0016224Y0040002D01*
X0016139Y0040140D01*
X0016057Y0040280D01*
X0015979Y0040422D01*
X0015905Y0040566D01*
X0015834Y0040711D01*
X0015766Y0040858D01*
X0015702Y0041007D01*
X0015642Y0041158D01*
X0015586Y0041310D01*
X0015533Y0041463D01*
X0015484Y0041617D01*
X0015439Y0041773D01*
X0015398Y0041929D01*
X0015360Y0042087D01*
X0015327Y0042245D01*
X0015297Y0042405D01*
X0015271Y0042565D01*
X0015250Y0042725D01*
X0015232Y0042886D01*
X0015218Y0043047D01*
X0015208Y0043209D01*
X0015202Y0043371D01*
X0015200Y0043533D01*
X0050100Y0124533D02*
X0050102Y0124602D01*
X0050108Y0124670D01*
X0050118Y0124738D01*
X0050131Y0124805D01*
X0050149Y0124871D01*
X0050170Y0124936D01*
X0050195Y0125000D01*
X0050223Y0125062D01*
X0050255Y0125123D01*
X0050290Y0125182D01*
X0050329Y0125238D01*
X0050371Y0125293D01*
X0050416Y0125344D01*
X0050464Y0125394D01*
X0050514Y0125440D01*
X0050567Y0125483D01*
X0050623Y0125524D01*
X0050680Y0125561D01*
X0050740Y0125594D01*
X0050802Y0125625D01*
X0050865Y0125651D01*
X0050929Y0125674D01*
X0050995Y0125694D01*
X0051062Y0125709D01*
X0051129Y0125721D01*
X0051197Y0125729D01*
X0051266Y0125733D01*
X0051334Y0125733D01*
X0051403Y0125729D01*
X0051471Y0125721D01*
X0051538Y0125709D01*
X0051605Y0125694D01*
X0051671Y0125674D01*
X0051735Y0125651D01*
X0051798Y0125625D01*
X0051860Y0125594D01*
X0051920Y0125561D01*
X0051977Y0125524D01*
X0052033Y0125483D01*
X0052086Y0125440D01*
X0052136Y0125394D01*
X0052184Y0125344D01*
X0052229Y0125293D01*
X0052271Y0125238D01*
X0052310Y0125182D01*
X0052345Y0125123D01*
X0052377Y0125062D01*
X0052405Y0125000D01*
X0052430Y0124936D01*
X0052451Y0124871D01*
X0052469Y0124805D01*
X0052482Y0124738D01*
X0052492Y0124670D01*
X0052498Y0124602D01*
X0052500Y0124533D01*
X0052500Y0156533D02*
X0052498Y0156602D01*
X0052492Y0156670D01*
X0052482Y0156738D01*
X0052469Y0156805D01*
X0052451Y0156871D01*
X0052430Y0156936D01*
X0052405Y0157000D01*
X0052377Y0157062D01*
X0052345Y0157123D01*
X0052310Y0157182D01*
X0052271Y0157238D01*
X0052229Y0157293D01*
X0052184Y0157344D01*
X0052136Y0157394D01*
X0052086Y0157440D01*
X0052033Y0157483D01*
X0051977Y0157524D01*
X0051920Y0157561D01*
X0051860Y0157594D01*
X0051798Y0157625D01*
X0051735Y0157651D01*
X0051671Y0157674D01*
X0051605Y0157694D01*
X0051538Y0157709D01*
X0051471Y0157721D01*
X0051403Y0157729D01*
X0051334Y0157733D01*
X0051266Y0157733D01*
X0051197Y0157729D01*
X0051129Y0157721D01*
X0051062Y0157709D01*
X0050995Y0157694D01*
X0050929Y0157674D01*
X0050865Y0157651D01*
X0050802Y0157625D01*
X0050740Y0157594D01*
X0050680Y0157561D01*
X0050623Y0157524D01*
X0050567Y0157483D01*
X0050514Y0157440D01*
X0050464Y0157394D01*
X0050416Y0157344D01*
X0050371Y0157293D01*
X0050329Y0157238D01*
X0050290Y0157182D01*
X0050255Y0157123D01*
X0050223Y0157062D01*
X0050195Y0157000D01*
X0050170Y0156936D01*
X0050149Y0156871D01*
X0050131Y0156805D01*
X0050118Y0156738D01*
X0050108Y0156670D01*
X0050102Y0156602D01*
X0050100Y0156533D01*
X0096600Y0156533D02*
X0096602Y0156602D01*
X0096608Y0156670D01*
X0096618Y0156738D01*
X0096631Y0156805D01*
X0096649Y0156871D01*
X0096670Y0156936D01*
X0096695Y0157000D01*
X0096723Y0157062D01*
X0096755Y0157123D01*
X0096790Y0157182D01*
X0096829Y0157238D01*
X0096871Y0157293D01*
X0096916Y0157344D01*
X0096964Y0157394D01*
X0097014Y0157440D01*
X0097067Y0157483D01*
X0097123Y0157524D01*
X0097180Y0157561D01*
X0097240Y0157594D01*
X0097302Y0157625D01*
X0097365Y0157651D01*
X0097429Y0157674D01*
X0097495Y0157694D01*
X0097562Y0157709D01*
X0097629Y0157721D01*
X0097697Y0157729D01*
X0097766Y0157733D01*
X0097834Y0157733D01*
X0097903Y0157729D01*
X0097971Y0157721D01*
X0098038Y0157709D01*
X0098105Y0157694D01*
X0098171Y0157674D01*
X0098235Y0157651D01*
X0098298Y0157625D01*
X0098360Y0157594D01*
X0098420Y0157561D01*
X0098477Y0157524D01*
X0098533Y0157483D01*
X0098586Y0157440D01*
X0098636Y0157394D01*
X0098684Y0157344D01*
X0098729Y0157293D01*
X0098771Y0157238D01*
X0098810Y0157182D01*
X0098845Y0157123D01*
X0098877Y0157062D01*
X0098905Y0157000D01*
X0098930Y0156936D01*
X0098951Y0156871D01*
X0098969Y0156805D01*
X0098982Y0156738D01*
X0098992Y0156670D01*
X0098998Y0156602D01*
X0099000Y0156533D01*
X0099000Y0124533D02*
X0098998Y0124602D01*
X0098992Y0124670D01*
X0098982Y0124738D01*
X0098969Y0124805D01*
X0098951Y0124871D01*
X0098930Y0124936D01*
X0098905Y0125000D01*
X0098877Y0125062D01*
X0098845Y0125123D01*
X0098810Y0125182D01*
X0098771Y0125238D01*
X0098729Y0125293D01*
X0098684Y0125344D01*
X0098636Y0125394D01*
X0098586Y0125440D01*
X0098533Y0125483D01*
X0098477Y0125524D01*
X0098420Y0125561D01*
X0098360Y0125594D01*
X0098298Y0125625D01*
X0098235Y0125651D01*
X0098171Y0125674D01*
X0098105Y0125694D01*
X0098038Y0125709D01*
X0097971Y0125721D01*
X0097903Y0125729D01*
X0097834Y0125733D01*
X0097766Y0125733D01*
X0097697Y0125729D01*
X0097629Y0125721D01*
X0097562Y0125709D01*
X0097495Y0125694D01*
X0097429Y0125674D01*
X0097365Y0125651D01*
X0097302Y0125625D01*
X0097240Y0125594D01*
X0097180Y0125561D01*
X0097123Y0125524D01*
X0097067Y0125483D01*
X0097014Y0125440D01*
X0096964Y0125394D01*
X0096916Y0125344D01*
X0096871Y0125293D01*
X0096829Y0125238D01*
X0096790Y0125182D01*
X0096755Y0125123D01*
X0096723Y0125062D01*
X0096695Y0125000D01*
X0096670Y0124936D01*
X0096649Y0124871D01*
X0096631Y0124805D01*
X0096618Y0124738D01*
X0096608Y0124670D01*
X0096602Y0124602D01*
X0096600Y0124533D01*
X0160100Y0124533D02*
X0160102Y0124602D01*
X0160108Y0124670D01*
X0160118Y0124738D01*
X0160131Y0124805D01*
X0160149Y0124871D01*
X0160170Y0124936D01*
X0160195Y0125000D01*
X0160223Y0125062D01*
X0160255Y0125123D01*
X0160290Y0125182D01*
X0160329Y0125238D01*
X0160371Y0125293D01*
X0160416Y0125344D01*
X0160464Y0125394D01*
X0160514Y0125440D01*
X0160567Y0125483D01*
X0160623Y0125524D01*
X0160680Y0125561D01*
X0160740Y0125594D01*
X0160802Y0125625D01*
X0160865Y0125651D01*
X0160929Y0125674D01*
X0160995Y0125694D01*
X0161062Y0125709D01*
X0161129Y0125721D01*
X0161197Y0125729D01*
X0161266Y0125733D01*
X0161334Y0125733D01*
X0161403Y0125729D01*
X0161471Y0125721D01*
X0161538Y0125709D01*
X0161605Y0125694D01*
X0161671Y0125674D01*
X0161735Y0125651D01*
X0161798Y0125625D01*
X0161860Y0125594D01*
X0161920Y0125561D01*
X0161977Y0125524D01*
X0162033Y0125483D01*
X0162086Y0125440D01*
X0162136Y0125394D01*
X0162184Y0125344D01*
X0162229Y0125293D01*
X0162271Y0125238D01*
X0162310Y0125182D01*
X0162345Y0125123D01*
X0162377Y0125062D01*
X0162405Y0125000D01*
X0162430Y0124936D01*
X0162451Y0124871D01*
X0162469Y0124805D01*
X0162482Y0124738D01*
X0162492Y0124670D01*
X0162498Y0124602D01*
X0162500Y0124533D01*
X0162500Y0156533D02*
X0162498Y0156602D01*
X0162492Y0156670D01*
X0162482Y0156738D01*
X0162469Y0156805D01*
X0162451Y0156871D01*
X0162430Y0156936D01*
X0162405Y0157000D01*
X0162377Y0157062D01*
X0162345Y0157123D01*
X0162310Y0157182D01*
X0162271Y0157238D01*
X0162229Y0157293D01*
X0162184Y0157344D01*
X0162136Y0157394D01*
X0162086Y0157440D01*
X0162033Y0157483D01*
X0161977Y0157524D01*
X0161920Y0157561D01*
X0161860Y0157594D01*
X0161798Y0157625D01*
X0161735Y0157651D01*
X0161671Y0157674D01*
X0161605Y0157694D01*
X0161538Y0157709D01*
X0161471Y0157721D01*
X0161403Y0157729D01*
X0161334Y0157733D01*
X0161266Y0157733D01*
X0161197Y0157729D01*
X0161129Y0157721D01*
X0161062Y0157709D01*
X0160995Y0157694D01*
X0160929Y0157674D01*
X0160865Y0157651D01*
X0160802Y0157625D01*
X0160740Y0157594D01*
X0160680Y0157561D01*
X0160623Y0157524D01*
X0160567Y0157483D01*
X0160514Y0157440D01*
X0160464Y0157394D01*
X0160416Y0157344D01*
X0160371Y0157293D01*
X0160329Y0157238D01*
X0160290Y0157182D01*
X0160255Y0157123D01*
X0160223Y0157062D01*
X0160195Y0157000D01*
X0160170Y0156936D01*
X0160149Y0156871D01*
X0160131Y0156805D01*
X0160118Y0156738D01*
X0160108Y0156670D01*
X0160102Y0156602D01*
X0160100Y0156533D01*
X0206600Y0156533D02*
X0206602Y0156602D01*
X0206608Y0156670D01*
X0206618Y0156738D01*
X0206631Y0156805D01*
X0206649Y0156871D01*
X0206670Y0156936D01*
X0206695Y0157000D01*
X0206723Y0157062D01*
X0206755Y0157123D01*
X0206790Y0157182D01*
X0206829Y0157238D01*
X0206871Y0157293D01*
X0206916Y0157344D01*
X0206964Y0157394D01*
X0207014Y0157440D01*
X0207067Y0157483D01*
X0207123Y0157524D01*
X0207180Y0157561D01*
X0207240Y0157594D01*
X0207302Y0157625D01*
X0207365Y0157651D01*
X0207429Y0157674D01*
X0207495Y0157694D01*
X0207562Y0157709D01*
X0207629Y0157721D01*
X0207697Y0157729D01*
X0207766Y0157733D01*
X0207834Y0157733D01*
X0207903Y0157729D01*
X0207971Y0157721D01*
X0208038Y0157709D01*
X0208105Y0157694D01*
X0208171Y0157674D01*
X0208235Y0157651D01*
X0208298Y0157625D01*
X0208360Y0157594D01*
X0208420Y0157561D01*
X0208477Y0157524D01*
X0208533Y0157483D01*
X0208586Y0157440D01*
X0208636Y0157394D01*
X0208684Y0157344D01*
X0208729Y0157293D01*
X0208771Y0157238D01*
X0208810Y0157182D01*
X0208845Y0157123D01*
X0208877Y0157062D01*
X0208905Y0157000D01*
X0208930Y0156936D01*
X0208951Y0156871D01*
X0208969Y0156805D01*
X0208982Y0156738D01*
X0208992Y0156670D01*
X0208998Y0156602D01*
X0209000Y0156533D01*
X0209000Y0124533D02*
X0208998Y0124602D01*
X0208992Y0124670D01*
X0208982Y0124738D01*
X0208969Y0124805D01*
X0208951Y0124871D01*
X0208930Y0124936D01*
X0208905Y0125000D01*
X0208877Y0125062D01*
X0208845Y0125123D01*
X0208810Y0125182D01*
X0208771Y0125238D01*
X0208729Y0125293D01*
X0208684Y0125344D01*
X0208636Y0125394D01*
X0208586Y0125440D01*
X0208533Y0125483D01*
X0208477Y0125524D01*
X0208420Y0125561D01*
X0208360Y0125594D01*
X0208298Y0125625D01*
X0208235Y0125651D01*
X0208171Y0125674D01*
X0208105Y0125694D01*
X0208038Y0125709D01*
X0207971Y0125721D01*
X0207903Y0125729D01*
X0207834Y0125733D01*
X0207766Y0125733D01*
X0207697Y0125729D01*
X0207629Y0125721D01*
X0207562Y0125709D01*
X0207495Y0125694D01*
X0207429Y0125674D01*
X0207365Y0125651D01*
X0207302Y0125625D01*
X0207240Y0125594D01*
X0207180Y0125561D01*
X0207123Y0125524D01*
X0207067Y0125483D01*
X0207014Y0125440D01*
X0206964Y0125394D01*
X0206916Y0125344D01*
X0206871Y0125293D01*
X0206829Y0125238D01*
X0206790Y0125182D01*
X0206755Y0125123D01*
X0206723Y0125062D01*
X0206695Y0125000D01*
X0206670Y0124936D01*
X0206649Y0124871D01*
X0206631Y0124805D01*
X0206618Y0124738D01*
X0206608Y0124670D01*
X0206602Y0124602D01*
X0206600Y0124533D01*
X0270100Y0124533D02*
X0270102Y0124602D01*
X0270108Y0124670D01*
X0270118Y0124738D01*
X0270131Y0124805D01*
X0270149Y0124871D01*
X0270170Y0124936D01*
X0270195Y0125000D01*
X0270223Y0125062D01*
X0270255Y0125123D01*
X0270290Y0125182D01*
X0270329Y0125238D01*
X0270371Y0125293D01*
X0270416Y0125344D01*
X0270464Y0125394D01*
X0270514Y0125440D01*
X0270567Y0125483D01*
X0270623Y0125524D01*
X0270680Y0125561D01*
X0270740Y0125594D01*
X0270802Y0125625D01*
X0270865Y0125651D01*
X0270929Y0125674D01*
X0270995Y0125694D01*
X0271062Y0125709D01*
X0271129Y0125721D01*
X0271197Y0125729D01*
X0271266Y0125733D01*
X0271334Y0125733D01*
X0271403Y0125729D01*
X0271471Y0125721D01*
X0271538Y0125709D01*
X0271605Y0125694D01*
X0271671Y0125674D01*
X0271735Y0125651D01*
X0271798Y0125625D01*
X0271860Y0125594D01*
X0271920Y0125561D01*
X0271977Y0125524D01*
X0272033Y0125483D01*
X0272086Y0125440D01*
X0272136Y0125394D01*
X0272184Y0125344D01*
X0272229Y0125293D01*
X0272271Y0125238D01*
X0272310Y0125182D01*
X0272345Y0125123D01*
X0272377Y0125062D01*
X0272405Y0125000D01*
X0272430Y0124936D01*
X0272451Y0124871D01*
X0272469Y0124805D01*
X0272482Y0124738D01*
X0272492Y0124670D01*
X0272498Y0124602D01*
X0272500Y0124533D01*
X0272500Y0156533D02*
X0272498Y0156602D01*
X0272492Y0156670D01*
X0272482Y0156738D01*
X0272469Y0156805D01*
X0272451Y0156871D01*
X0272430Y0156936D01*
X0272405Y0157000D01*
X0272377Y0157062D01*
X0272345Y0157123D01*
X0272310Y0157182D01*
X0272271Y0157238D01*
X0272229Y0157293D01*
X0272184Y0157344D01*
X0272136Y0157394D01*
X0272086Y0157440D01*
X0272033Y0157483D01*
X0271977Y0157524D01*
X0271920Y0157561D01*
X0271860Y0157594D01*
X0271798Y0157625D01*
X0271735Y0157651D01*
X0271671Y0157674D01*
X0271605Y0157694D01*
X0271538Y0157709D01*
X0271471Y0157721D01*
X0271403Y0157729D01*
X0271334Y0157733D01*
X0271266Y0157733D01*
X0271197Y0157729D01*
X0271129Y0157721D01*
X0271062Y0157709D01*
X0270995Y0157694D01*
X0270929Y0157674D01*
X0270865Y0157651D01*
X0270802Y0157625D01*
X0270740Y0157594D01*
X0270680Y0157561D01*
X0270623Y0157524D01*
X0270567Y0157483D01*
X0270514Y0157440D01*
X0270464Y0157394D01*
X0270416Y0157344D01*
X0270371Y0157293D01*
X0270329Y0157238D01*
X0270290Y0157182D01*
X0270255Y0157123D01*
X0270223Y0157062D01*
X0270195Y0157000D01*
X0270170Y0156936D01*
X0270149Y0156871D01*
X0270131Y0156805D01*
X0270118Y0156738D01*
X0270108Y0156670D01*
X0270102Y0156602D01*
X0270100Y0156533D01*
X0316600Y0156533D02*
X0316602Y0156602D01*
X0316608Y0156670D01*
X0316618Y0156738D01*
X0316631Y0156805D01*
X0316649Y0156871D01*
X0316670Y0156936D01*
X0316695Y0157000D01*
X0316723Y0157062D01*
X0316755Y0157123D01*
X0316790Y0157182D01*
X0316829Y0157238D01*
X0316871Y0157293D01*
X0316916Y0157344D01*
X0316964Y0157394D01*
X0317014Y0157440D01*
X0317067Y0157483D01*
X0317123Y0157524D01*
X0317180Y0157561D01*
X0317240Y0157594D01*
X0317302Y0157625D01*
X0317365Y0157651D01*
X0317429Y0157674D01*
X0317495Y0157694D01*
X0317562Y0157709D01*
X0317629Y0157721D01*
X0317697Y0157729D01*
X0317766Y0157733D01*
X0317834Y0157733D01*
X0317903Y0157729D01*
X0317971Y0157721D01*
X0318038Y0157709D01*
X0318105Y0157694D01*
X0318171Y0157674D01*
X0318235Y0157651D01*
X0318298Y0157625D01*
X0318360Y0157594D01*
X0318420Y0157561D01*
X0318477Y0157524D01*
X0318533Y0157483D01*
X0318586Y0157440D01*
X0318636Y0157394D01*
X0318684Y0157344D01*
X0318729Y0157293D01*
X0318771Y0157238D01*
X0318810Y0157182D01*
X0318845Y0157123D01*
X0318877Y0157062D01*
X0318905Y0157000D01*
X0318930Y0156936D01*
X0318951Y0156871D01*
X0318969Y0156805D01*
X0318982Y0156738D01*
X0318992Y0156670D01*
X0318998Y0156602D01*
X0319000Y0156533D01*
X0319000Y0124533D02*
X0318998Y0124602D01*
X0318992Y0124670D01*
X0318982Y0124738D01*
X0318969Y0124805D01*
X0318951Y0124871D01*
X0318930Y0124936D01*
X0318905Y0125000D01*
X0318877Y0125062D01*
X0318845Y0125123D01*
X0318810Y0125182D01*
X0318771Y0125238D01*
X0318729Y0125293D01*
X0318684Y0125344D01*
X0318636Y0125394D01*
X0318586Y0125440D01*
X0318533Y0125483D01*
X0318477Y0125524D01*
X0318420Y0125561D01*
X0318360Y0125594D01*
X0318298Y0125625D01*
X0318235Y0125651D01*
X0318171Y0125674D01*
X0318105Y0125694D01*
X0318038Y0125709D01*
X0317971Y0125721D01*
X0317903Y0125729D01*
X0317834Y0125733D01*
X0317766Y0125733D01*
X0317697Y0125729D01*
X0317629Y0125721D01*
X0317562Y0125709D01*
X0317495Y0125694D01*
X0317429Y0125674D01*
X0317365Y0125651D01*
X0317302Y0125625D01*
X0317240Y0125594D01*
X0317180Y0125561D01*
X0317123Y0125524D01*
X0317067Y0125483D01*
X0317014Y0125440D01*
X0316964Y0125394D01*
X0316916Y0125344D01*
X0316871Y0125293D01*
X0316829Y0125238D01*
X0316790Y0125182D01*
X0316755Y0125123D01*
X0316723Y0125062D01*
X0316695Y0125000D01*
X0316670Y0124936D01*
X0316649Y0124871D01*
X0316631Y0124805D01*
X0316618Y0124738D01*
X0316608Y0124670D01*
X0316602Y0124602D01*
X0316600Y0124533D01*
X0335200Y0043533D02*
X0335202Y0043695D01*
X0335208Y0043857D01*
X0335218Y0044019D01*
X0335232Y0044180D01*
X0335250Y0044341D01*
X0335271Y0044501D01*
X0335297Y0044661D01*
X0335327Y0044821D01*
X0335360Y0044979D01*
X0335398Y0045137D01*
X0335439Y0045293D01*
X0335484Y0045449D01*
X0335533Y0045603D01*
X0335586Y0045756D01*
X0335642Y0045908D01*
X0335702Y0046059D01*
X0335766Y0046208D01*
X0335834Y0046355D01*
X0335905Y0046500D01*
X0335979Y0046644D01*
X0336057Y0046786D01*
X0336139Y0046926D01*
X0336224Y0047064D01*
X0336312Y0047200D01*
X0336404Y0047333D01*
X0336499Y0047465D01*
X0336597Y0047594D01*
X0336698Y0047720D01*
X0336802Y0047844D01*
X0336910Y0047965D01*
X0337020Y0048084D01*
X0337133Y0048200D01*
X0337249Y0048313D01*
X0337368Y0048423D01*
X0337489Y0048531D01*
X0337613Y0048635D01*
X0337739Y0048736D01*
X0337868Y0048834D01*
X0338000Y0048929D01*
X0338133Y0049021D01*
X0338269Y0049109D01*
X0338407Y0049194D01*
X0338547Y0049276D01*
X0338689Y0049354D01*
X0338833Y0049428D01*
X0338978Y0049499D01*
X0339125Y0049567D01*
X0339274Y0049631D01*
X0339425Y0049691D01*
X0339577Y0049747D01*
X0339730Y0049800D01*
X0339884Y0049849D01*
X0340040Y0049894D01*
X0340196Y0049935D01*
X0340354Y0049973D01*
X0340512Y0050006D01*
X0340672Y0050036D01*
X0340832Y0050062D01*
X0340992Y0050083D01*
X0341153Y0050101D01*
X0341314Y0050115D01*
X0341476Y0050125D01*
X0341638Y0050131D01*
X0341800Y0050133D01*
X0341962Y0050131D01*
X0342124Y0050125D01*
X0342286Y0050115D01*
X0342447Y0050101D01*
X0342608Y0050083D01*
X0342768Y0050062D01*
X0342928Y0050036D01*
X0343088Y0050006D01*
X0343246Y0049973D01*
X0343404Y0049935D01*
X0343560Y0049894D01*
X0343716Y0049849D01*
X0343870Y0049800D01*
X0344023Y0049747D01*
X0344175Y0049691D01*
X0344326Y0049631D01*
X0344475Y0049567D01*
X0344622Y0049499D01*
X0344767Y0049428D01*
X0344911Y0049354D01*
X0345053Y0049276D01*
X0345193Y0049194D01*
X0345331Y0049109D01*
X0345467Y0049021D01*
X0345600Y0048929D01*
X0345732Y0048834D01*
X0345861Y0048736D01*
X0345987Y0048635D01*
X0346111Y0048531D01*
X0346232Y0048423D01*
X0346351Y0048313D01*
X0346467Y0048200D01*
X0346580Y0048084D01*
X0346690Y0047965D01*
X0346798Y0047844D01*
X0346902Y0047720D01*
X0347003Y0047594D01*
X0347101Y0047465D01*
X0347196Y0047333D01*
X0347288Y0047200D01*
X0347376Y0047064D01*
X0347461Y0046926D01*
X0347543Y0046786D01*
X0347621Y0046644D01*
X0347695Y0046500D01*
X0347766Y0046355D01*
X0347834Y0046208D01*
X0347898Y0046059D01*
X0347958Y0045908D01*
X0348014Y0045756D01*
X0348067Y0045603D01*
X0348116Y0045449D01*
X0348161Y0045293D01*
X0348202Y0045137D01*
X0348240Y0044979D01*
X0348273Y0044821D01*
X0348303Y0044661D01*
X0348329Y0044501D01*
X0348350Y0044341D01*
X0348368Y0044180D01*
X0348382Y0044019D01*
X0348392Y0043857D01*
X0348398Y0043695D01*
X0348400Y0043533D01*
X0348398Y0043371D01*
X0348392Y0043209D01*
X0348382Y0043047D01*
X0348368Y0042886D01*
X0348350Y0042725D01*
X0348329Y0042565D01*
X0348303Y0042405D01*
X0348273Y0042245D01*
X0348240Y0042087D01*
X0348202Y0041929D01*
X0348161Y0041773D01*
X0348116Y0041617D01*
X0348067Y0041463D01*
X0348014Y0041310D01*
X0347958Y0041158D01*
X0347898Y0041007D01*
X0347834Y0040858D01*
X0347766Y0040711D01*
X0347695Y0040566D01*
X0347621Y0040422D01*
X0347543Y0040280D01*
X0347461Y0040140D01*
X0347376Y0040002D01*
X0347288Y0039866D01*
X0347196Y0039733D01*
X0347101Y0039601D01*
X0347003Y0039472D01*
X0346902Y0039346D01*
X0346798Y0039222D01*
X0346690Y0039101D01*
X0346580Y0038982D01*
X0346467Y0038866D01*
X0346351Y0038753D01*
X0346232Y0038643D01*
X0346111Y0038535D01*
X0345987Y0038431D01*
X0345861Y0038330D01*
X0345732Y0038232D01*
X0345600Y0038137D01*
X0345467Y0038045D01*
X0345331Y0037957D01*
X0345193Y0037872D01*
X0345053Y0037790D01*
X0344911Y0037712D01*
X0344767Y0037638D01*
X0344622Y0037567D01*
X0344475Y0037499D01*
X0344326Y0037435D01*
X0344175Y0037375D01*
X0344023Y0037319D01*
X0343870Y0037266D01*
X0343716Y0037217D01*
X0343560Y0037172D01*
X0343404Y0037131D01*
X0343246Y0037093D01*
X0343088Y0037060D01*
X0342928Y0037030D01*
X0342768Y0037004D01*
X0342608Y0036983D01*
X0342447Y0036965D01*
X0342286Y0036951D01*
X0342124Y0036941D01*
X0341962Y0036935D01*
X0341800Y0036933D01*
X0341638Y0036935D01*
X0341476Y0036941D01*
X0341314Y0036951D01*
X0341153Y0036965D01*
X0340992Y0036983D01*
X0340832Y0037004D01*
X0340672Y0037030D01*
X0340512Y0037060D01*
X0340354Y0037093D01*
X0340196Y0037131D01*
X0340040Y0037172D01*
X0339884Y0037217D01*
X0339730Y0037266D01*
X0339577Y0037319D01*
X0339425Y0037375D01*
X0339274Y0037435D01*
X0339125Y0037499D01*
X0338978Y0037567D01*
X0338833Y0037638D01*
X0338689Y0037712D01*
X0338547Y0037790D01*
X0338407Y0037872D01*
X0338269Y0037957D01*
X0338133Y0038045D01*
X0338000Y0038137D01*
X0337868Y0038232D01*
X0337739Y0038330D01*
X0337613Y0038431D01*
X0337489Y0038535D01*
X0337368Y0038643D01*
X0337249Y0038753D01*
X0337133Y0038866D01*
X0337020Y0038982D01*
X0336910Y0039101D01*
X0336802Y0039222D01*
X0336698Y0039346D01*
X0336597Y0039472D01*
X0336499Y0039601D01*
X0336404Y0039733D01*
X0336312Y0039866D01*
X0336224Y0040002D01*
X0336139Y0040140D01*
X0336057Y0040280D01*
X0335979Y0040422D01*
X0335905Y0040566D01*
X0335834Y0040711D01*
X0335766Y0040858D01*
X0335702Y0041007D01*
X0335642Y0041158D01*
X0335586Y0041310D01*
X0335533Y0041463D01*
X0335484Y0041617D01*
X0335439Y0041773D01*
X0335398Y0041929D01*
X0335360Y0042087D01*
X0335327Y0042245D01*
X0335297Y0042405D01*
X0335271Y0042565D01*
X0335250Y0042725D01*
X0335232Y0042886D01*
X0335218Y0043047D01*
X0335208Y0043209D01*
X0335202Y0043371D01*
X0335200Y0043533D01*
X0339501Y0329033D02*
X0339503Y0329191D01*
X0339509Y0329349D01*
X0339519Y0329507D01*
X0339533Y0329665D01*
X0339551Y0329822D01*
X0339572Y0329979D01*
X0339598Y0330135D01*
X0339628Y0330291D01*
X0339661Y0330446D01*
X0339699Y0330599D01*
X0339740Y0330752D01*
X0339785Y0330904D01*
X0339834Y0331055D01*
X0339887Y0331204D01*
X0339943Y0331352D01*
X0340003Y0331498D01*
X0340067Y0331643D01*
X0340135Y0331786D01*
X0340206Y0331928D01*
X0340280Y0332068D01*
X0340358Y0332205D01*
X0340440Y0332341D01*
X0340524Y0332475D01*
X0340613Y0332606D01*
X0340704Y0332735D01*
X0340799Y0332862D01*
X0340896Y0332987D01*
X0340997Y0333109D01*
X0341101Y0333228D01*
X0341208Y0333345D01*
X0341318Y0333459D01*
X0341431Y0333570D01*
X0341546Y0333679D01*
X0341664Y0333784D01*
X0341785Y0333886D01*
X0341908Y0333986D01*
X0342034Y0334082D01*
X0342162Y0334175D01*
X0342292Y0334265D01*
X0342425Y0334351D01*
X0342560Y0334435D01*
X0342696Y0334514D01*
X0342835Y0334591D01*
X0342976Y0334663D01*
X0343118Y0334733D01*
X0343262Y0334798D01*
X0343408Y0334860D01*
X0343555Y0334918D01*
X0343704Y0334973D01*
X0343854Y0335024D01*
X0344005Y0335071D01*
X0344157Y0335114D01*
X0344310Y0335153D01*
X0344465Y0335189D01*
X0344620Y0335220D01*
X0344776Y0335248D01*
X0344932Y0335272D01*
X0345089Y0335292D01*
X0345247Y0335308D01*
X0345404Y0335320D01*
X0345563Y0335328D01*
X0345721Y0335332D01*
X0345879Y0335332D01*
X0346037Y0335328D01*
X0346196Y0335320D01*
X0346353Y0335308D01*
X0346511Y0335292D01*
X0346668Y0335272D01*
X0346824Y0335248D01*
X0346980Y0335220D01*
X0347135Y0335189D01*
X0347290Y0335153D01*
X0347443Y0335114D01*
X0347595Y0335071D01*
X0347746Y0335024D01*
X0347896Y0334973D01*
X0348045Y0334918D01*
X0348192Y0334860D01*
X0348338Y0334798D01*
X0348482Y0334733D01*
X0348624Y0334663D01*
X0348765Y0334591D01*
X0348904Y0334514D01*
X0349040Y0334435D01*
X0349175Y0334351D01*
X0349308Y0334265D01*
X0349438Y0334175D01*
X0349566Y0334082D01*
X0349692Y0333986D01*
X0349815Y0333886D01*
X0349936Y0333784D01*
X0350054Y0333679D01*
X0350169Y0333570D01*
X0350282Y0333459D01*
X0350392Y0333345D01*
X0350499Y0333228D01*
X0350603Y0333109D01*
X0350704Y0332987D01*
X0350801Y0332862D01*
X0350896Y0332735D01*
X0350987Y0332606D01*
X0351076Y0332475D01*
X0351160Y0332341D01*
X0351242Y0332205D01*
X0351320Y0332068D01*
X0351394Y0331928D01*
X0351465Y0331786D01*
X0351533Y0331643D01*
X0351597Y0331498D01*
X0351657Y0331352D01*
X0351713Y0331204D01*
X0351766Y0331055D01*
X0351815Y0330904D01*
X0351860Y0330752D01*
X0351901Y0330599D01*
X0351939Y0330446D01*
X0351972Y0330291D01*
X0352002Y0330135D01*
X0352028Y0329979D01*
X0352049Y0329822D01*
X0352067Y0329665D01*
X0352081Y0329507D01*
X0352091Y0329349D01*
X0352097Y0329191D01*
X0352099Y0329033D01*
X0352097Y0328875D01*
X0352091Y0328717D01*
X0352081Y0328559D01*
X0352067Y0328401D01*
X0352049Y0328244D01*
X0352028Y0328087D01*
X0352002Y0327931D01*
X0351972Y0327775D01*
X0351939Y0327620D01*
X0351901Y0327467D01*
X0351860Y0327314D01*
X0351815Y0327162D01*
X0351766Y0327011D01*
X0351713Y0326862D01*
X0351657Y0326714D01*
X0351597Y0326568D01*
X0351533Y0326423D01*
X0351465Y0326280D01*
X0351394Y0326138D01*
X0351320Y0325998D01*
X0351242Y0325861D01*
X0351160Y0325725D01*
X0351076Y0325591D01*
X0350987Y0325460D01*
X0350896Y0325331D01*
X0350801Y0325204D01*
X0350704Y0325079D01*
X0350603Y0324957D01*
X0350499Y0324838D01*
X0350392Y0324721D01*
X0350282Y0324607D01*
X0350169Y0324496D01*
X0350054Y0324387D01*
X0349936Y0324282D01*
X0349815Y0324180D01*
X0349692Y0324080D01*
X0349566Y0323984D01*
X0349438Y0323891D01*
X0349308Y0323801D01*
X0349175Y0323715D01*
X0349040Y0323631D01*
X0348904Y0323552D01*
X0348765Y0323475D01*
X0348624Y0323403D01*
X0348482Y0323333D01*
X0348338Y0323268D01*
X0348192Y0323206D01*
X0348045Y0323148D01*
X0347896Y0323093D01*
X0347746Y0323042D01*
X0347595Y0322995D01*
X0347443Y0322952D01*
X0347290Y0322913D01*
X0347135Y0322877D01*
X0346980Y0322846D01*
X0346824Y0322818D01*
X0346668Y0322794D01*
X0346511Y0322774D01*
X0346353Y0322758D01*
X0346196Y0322746D01*
X0346037Y0322738D01*
X0345879Y0322734D01*
X0345721Y0322734D01*
X0345563Y0322738D01*
X0345404Y0322746D01*
X0345247Y0322758D01*
X0345089Y0322774D01*
X0344932Y0322794D01*
X0344776Y0322818D01*
X0344620Y0322846D01*
X0344465Y0322877D01*
X0344310Y0322913D01*
X0344157Y0322952D01*
X0344005Y0322995D01*
X0343854Y0323042D01*
X0343704Y0323093D01*
X0343555Y0323148D01*
X0343408Y0323206D01*
X0343262Y0323268D01*
X0343118Y0323333D01*
X0342976Y0323403D01*
X0342835Y0323475D01*
X0342696Y0323552D01*
X0342560Y0323631D01*
X0342425Y0323715D01*
X0342292Y0323801D01*
X0342162Y0323891D01*
X0342034Y0323984D01*
X0341908Y0324080D01*
X0341785Y0324180D01*
X0341664Y0324282D01*
X0341546Y0324387D01*
X0341431Y0324496D01*
X0341318Y0324607D01*
X0341208Y0324721D01*
X0341101Y0324838D01*
X0340997Y0324957D01*
X0340896Y0325079D01*
X0340799Y0325204D01*
X0340704Y0325331D01*
X0340613Y0325460D01*
X0340524Y0325591D01*
X0340440Y0325725D01*
X0340358Y0325861D01*
X0340280Y0325998D01*
X0340206Y0326138D01*
X0340135Y0326280D01*
X0340067Y0326423D01*
X0340003Y0326568D01*
X0339943Y0326714D01*
X0339887Y0326862D01*
X0339834Y0327011D01*
X0339785Y0327162D01*
X0339740Y0327314D01*
X0339699Y0327467D01*
X0339661Y0327620D01*
X0339628Y0327775D01*
X0339598Y0327931D01*
X0339572Y0328087D01*
X0339551Y0328244D01*
X0339533Y0328401D01*
X0339519Y0328559D01*
X0339509Y0328717D01*
X0339503Y0328875D01*
X0339501Y0329033D01*
X0011501Y0329033D02*
X0011503Y0329191D01*
X0011509Y0329349D01*
X0011519Y0329507D01*
X0011533Y0329665D01*
X0011551Y0329822D01*
X0011572Y0329979D01*
X0011598Y0330135D01*
X0011628Y0330291D01*
X0011661Y0330446D01*
X0011699Y0330599D01*
X0011740Y0330752D01*
X0011785Y0330904D01*
X0011834Y0331055D01*
X0011887Y0331204D01*
X0011943Y0331352D01*
X0012003Y0331498D01*
X0012067Y0331643D01*
X0012135Y0331786D01*
X0012206Y0331928D01*
X0012280Y0332068D01*
X0012358Y0332205D01*
X0012440Y0332341D01*
X0012524Y0332475D01*
X0012613Y0332606D01*
X0012704Y0332735D01*
X0012799Y0332862D01*
X0012896Y0332987D01*
X0012997Y0333109D01*
X0013101Y0333228D01*
X0013208Y0333345D01*
X0013318Y0333459D01*
X0013431Y0333570D01*
X0013546Y0333679D01*
X0013664Y0333784D01*
X0013785Y0333886D01*
X0013908Y0333986D01*
X0014034Y0334082D01*
X0014162Y0334175D01*
X0014292Y0334265D01*
X0014425Y0334351D01*
X0014560Y0334435D01*
X0014696Y0334514D01*
X0014835Y0334591D01*
X0014976Y0334663D01*
X0015118Y0334733D01*
X0015262Y0334798D01*
X0015408Y0334860D01*
X0015555Y0334918D01*
X0015704Y0334973D01*
X0015854Y0335024D01*
X0016005Y0335071D01*
X0016157Y0335114D01*
X0016310Y0335153D01*
X0016465Y0335189D01*
X0016620Y0335220D01*
X0016776Y0335248D01*
X0016932Y0335272D01*
X0017089Y0335292D01*
X0017247Y0335308D01*
X0017404Y0335320D01*
X0017563Y0335328D01*
X0017721Y0335332D01*
X0017879Y0335332D01*
X0018037Y0335328D01*
X0018196Y0335320D01*
X0018353Y0335308D01*
X0018511Y0335292D01*
X0018668Y0335272D01*
X0018824Y0335248D01*
X0018980Y0335220D01*
X0019135Y0335189D01*
X0019290Y0335153D01*
X0019443Y0335114D01*
X0019595Y0335071D01*
X0019746Y0335024D01*
X0019896Y0334973D01*
X0020045Y0334918D01*
X0020192Y0334860D01*
X0020338Y0334798D01*
X0020482Y0334733D01*
X0020624Y0334663D01*
X0020765Y0334591D01*
X0020904Y0334514D01*
X0021040Y0334435D01*
X0021175Y0334351D01*
X0021308Y0334265D01*
X0021438Y0334175D01*
X0021566Y0334082D01*
X0021692Y0333986D01*
X0021815Y0333886D01*
X0021936Y0333784D01*
X0022054Y0333679D01*
X0022169Y0333570D01*
X0022282Y0333459D01*
X0022392Y0333345D01*
X0022499Y0333228D01*
X0022603Y0333109D01*
X0022704Y0332987D01*
X0022801Y0332862D01*
X0022896Y0332735D01*
X0022987Y0332606D01*
X0023076Y0332475D01*
X0023160Y0332341D01*
X0023242Y0332205D01*
X0023320Y0332068D01*
X0023394Y0331928D01*
X0023465Y0331786D01*
X0023533Y0331643D01*
X0023597Y0331498D01*
X0023657Y0331352D01*
X0023713Y0331204D01*
X0023766Y0331055D01*
X0023815Y0330904D01*
X0023860Y0330752D01*
X0023901Y0330599D01*
X0023939Y0330446D01*
X0023972Y0330291D01*
X0024002Y0330135D01*
X0024028Y0329979D01*
X0024049Y0329822D01*
X0024067Y0329665D01*
X0024081Y0329507D01*
X0024091Y0329349D01*
X0024097Y0329191D01*
X0024099Y0329033D01*
X0024097Y0328875D01*
X0024091Y0328717D01*
X0024081Y0328559D01*
X0024067Y0328401D01*
X0024049Y0328244D01*
X0024028Y0328087D01*
X0024002Y0327931D01*
X0023972Y0327775D01*
X0023939Y0327620D01*
X0023901Y0327467D01*
X0023860Y0327314D01*
X0023815Y0327162D01*
X0023766Y0327011D01*
X0023713Y0326862D01*
X0023657Y0326714D01*
X0023597Y0326568D01*
X0023533Y0326423D01*
X0023465Y0326280D01*
X0023394Y0326138D01*
X0023320Y0325998D01*
X0023242Y0325861D01*
X0023160Y0325725D01*
X0023076Y0325591D01*
X0022987Y0325460D01*
X0022896Y0325331D01*
X0022801Y0325204D01*
X0022704Y0325079D01*
X0022603Y0324957D01*
X0022499Y0324838D01*
X0022392Y0324721D01*
X0022282Y0324607D01*
X0022169Y0324496D01*
X0022054Y0324387D01*
X0021936Y0324282D01*
X0021815Y0324180D01*
X0021692Y0324080D01*
X0021566Y0323984D01*
X0021438Y0323891D01*
X0021308Y0323801D01*
X0021175Y0323715D01*
X0021040Y0323631D01*
X0020904Y0323552D01*
X0020765Y0323475D01*
X0020624Y0323403D01*
X0020482Y0323333D01*
X0020338Y0323268D01*
X0020192Y0323206D01*
X0020045Y0323148D01*
X0019896Y0323093D01*
X0019746Y0323042D01*
X0019595Y0322995D01*
X0019443Y0322952D01*
X0019290Y0322913D01*
X0019135Y0322877D01*
X0018980Y0322846D01*
X0018824Y0322818D01*
X0018668Y0322794D01*
X0018511Y0322774D01*
X0018353Y0322758D01*
X0018196Y0322746D01*
X0018037Y0322738D01*
X0017879Y0322734D01*
X0017721Y0322734D01*
X0017563Y0322738D01*
X0017404Y0322746D01*
X0017247Y0322758D01*
X0017089Y0322774D01*
X0016932Y0322794D01*
X0016776Y0322818D01*
X0016620Y0322846D01*
X0016465Y0322877D01*
X0016310Y0322913D01*
X0016157Y0322952D01*
X0016005Y0322995D01*
X0015854Y0323042D01*
X0015704Y0323093D01*
X0015555Y0323148D01*
X0015408Y0323206D01*
X0015262Y0323268D01*
X0015118Y0323333D01*
X0014976Y0323403D01*
X0014835Y0323475D01*
X0014696Y0323552D01*
X0014560Y0323631D01*
X0014425Y0323715D01*
X0014292Y0323801D01*
X0014162Y0323891D01*
X0014034Y0323984D01*
X0013908Y0324080D01*
X0013785Y0324180D01*
X0013664Y0324282D01*
X0013546Y0324387D01*
X0013431Y0324496D01*
X0013318Y0324607D01*
X0013208Y0324721D01*
X0013101Y0324838D01*
X0012997Y0324957D01*
X0012896Y0325079D01*
X0012799Y0325204D01*
X0012704Y0325331D01*
X0012613Y0325460D01*
X0012524Y0325591D01*
X0012440Y0325725D01*
X0012358Y0325861D01*
X0012280Y0325998D01*
X0012206Y0326138D01*
X0012135Y0326280D01*
X0012067Y0326423D01*
X0012003Y0326568D01*
X0011943Y0326714D01*
X0011887Y0326862D01*
X0011834Y0327011D01*
X0011785Y0327162D01*
X0011740Y0327314D01*
X0011699Y0327467D01*
X0011661Y0327620D01*
X0011628Y0327775D01*
X0011598Y0327931D01*
X0011572Y0328087D01*
X0011551Y0328244D01*
X0011533Y0328401D01*
X0011519Y0328559D01*
X0011509Y0328717D01*
X0011503Y0328875D01*
X0011501Y0329033D01*
D11*
X0056000Y0300880D02*
X0060604Y0300880D01*
X0060604Y0303949D01*
X0058302Y0302414D02*
X0058302Y0300880D01*
X0059069Y0299345D02*
X0056000Y0299345D01*
X0056000Y0297043D01*
X0056767Y0296276D01*
X0059069Y0296276D01*
X0056000Y0294741D02*
X0056000Y0291672D01*
X0056000Y0293206D02*
X0060604Y0293206D01*
X0059069Y0291672D01*
X0070000Y0285847D02*
X0074604Y0285847D01*
X0074604Y0288916D01*
X0072302Y0287382D02*
X0072302Y0285847D01*
X0073069Y0284313D02*
X0070000Y0284313D01*
X0070000Y0282011D01*
X0070767Y0281243D01*
X0073069Y0281243D01*
X0073837Y0279709D02*
X0070767Y0276639D01*
X0070000Y0276639D01*
X0070000Y0275105D02*
X0070000Y0274337D01*
X0070767Y0274337D01*
X0070767Y0275105D01*
X0070000Y0275105D01*
X0070000Y0272035D02*
X0074604Y0272035D01*
X0072302Y0269733D01*
X0072302Y0272803D01*
X0074604Y0276639D02*
X0074604Y0279709D01*
X0073837Y0279709D01*
X0081000Y0282011D02*
X0081767Y0281243D01*
X0084069Y0281243D01*
X0084837Y0279709D02*
X0081767Y0276639D01*
X0081000Y0276639D01*
X0081000Y0275105D02*
X0081000Y0274337D01*
X0081767Y0274337D01*
X0081767Y0275105D01*
X0081000Y0275105D01*
X0081000Y0272035D02*
X0085604Y0272035D01*
X0083302Y0269733D01*
X0083302Y0272803D01*
X0085604Y0276639D02*
X0085604Y0279709D01*
X0084837Y0279709D01*
X0081000Y0282011D02*
X0081000Y0284313D01*
X0084069Y0284313D01*
X0083302Y0285847D02*
X0083302Y0287382D01*
X0085604Y0285847D02*
X0085604Y0288916D01*
X0085604Y0285847D02*
X0081000Y0285847D01*
X0085767Y0296233D02*
X0085000Y0297001D01*
X0085000Y0298535D01*
X0085767Y0299303D01*
X0086535Y0299303D01*
X0087302Y0298535D01*
X0087302Y0297768D01*
X0087302Y0298535D02*
X0088069Y0299303D01*
X0088837Y0299303D01*
X0089604Y0298535D01*
X0089604Y0297001D01*
X0088837Y0296233D01*
X0088069Y0300837D02*
X0089604Y0302372D01*
X0085000Y0302372D01*
X0085000Y0300837D02*
X0085000Y0303907D01*
X0085000Y0305441D02*
X0085000Y0306209D01*
X0085767Y0306209D01*
X0085767Y0305441D01*
X0085000Y0305441D01*
X0085767Y0307743D02*
X0085000Y0308511D01*
X0085000Y0310045D01*
X0085767Y0310813D01*
X0086535Y0310813D01*
X0087302Y0310045D01*
X0087302Y0307743D01*
X0085767Y0307743D01*
X0087302Y0307743D02*
X0088837Y0309278D01*
X0089604Y0310813D01*
X0089604Y0312347D02*
X0085000Y0312347D01*
X0086535Y0312347D02*
X0088069Y0314649D01*
X0086535Y0312347D02*
X0085000Y0314649D01*
X0077644Y0314803D02*
X0076110Y0316337D01*
X0076110Y0311733D01*
X0077644Y0311733D02*
X0074575Y0311733D01*
X0073041Y0312501D02*
X0069971Y0315570D01*
X0069971Y0312501D01*
X0070739Y0311733D01*
X0072273Y0311733D01*
X0073041Y0312501D01*
X0073041Y0315570D01*
X0072273Y0316337D01*
X0070739Y0316337D01*
X0069971Y0315570D01*
X0068437Y0316337D02*
X0068437Y0311733D01*
X0068437Y0313268D02*
X0066135Y0311733D01*
X0068437Y0313268D02*
X0066135Y0314803D01*
X0093635Y0252837D02*
X0096704Y0252837D01*
X0096704Y0248233D01*
X0098239Y0248233D02*
X0098239Y0251303D01*
X0096704Y0250535D02*
X0095169Y0250535D01*
X0098239Y0248233D02*
X0100541Y0248233D01*
X0101308Y0249001D01*
X0101308Y0251303D01*
X0104377Y0252837D02*
X0104377Y0248233D01*
X0102843Y0248233D02*
X0105912Y0248233D01*
X0107446Y0248233D02*
X0108214Y0248233D01*
X0108214Y0249001D01*
X0107446Y0249001D01*
X0107446Y0248233D01*
X0109748Y0249001D02*
X0109748Y0252070D01*
X0112818Y0249001D01*
X0112050Y0248233D01*
X0110516Y0248233D01*
X0109748Y0249001D01*
X0109748Y0252070D02*
X0110516Y0252837D01*
X0112050Y0252837D01*
X0112818Y0252070D01*
X0112818Y0249001D01*
X0105912Y0251303D02*
X0104377Y0252837D01*
X0120052Y0232882D02*
X0120052Y0231347D01*
X0120819Y0229813D02*
X0117750Y0229813D01*
X0117750Y0227511D01*
X0118517Y0226743D01*
X0120819Y0226743D01*
X0117750Y0225209D02*
X0117750Y0222139D01*
X0117750Y0220605D02*
X0117750Y0219837D01*
X0118517Y0219837D01*
X0118517Y0220605D01*
X0117750Y0220605D01*
X0118517Y0218303D02*
X0117750Y0217535D01*
X0117750Y0216001D01*
X0118517Y0215233D01*
X0121587Y0218303D01*
X0118517Y0218303D01*
X0118517Y0215233D02*
X0121587Y0215233D01*
X0122354Y0216001D01*
X0122354Y0217535D01*
X0121587Y0218303D01*
X0122354Y0214916D02*
X0122354Y0211847D01*
X0117750Y0211847D01*
X0117750Y0210313D02*
X0120819Y0210313D01*
X0120052Y0211847D02*
X0120052Y0213382D01*
X0117750Y0210313D02*
X0117750Y0208011D01*
X0118517Y0207243D01*
X0120819Y0207243D01*
X0117750Y0205709D02*
X0117750Y0202639D01*
X0117750Y0201105D02*
X0117750Y0200337D01*
X0118517Y0200337D01*
X0118517Y0201105D01*
X0117750Y0201105D01*
X0118517Y0198803D02*
X0117750Y0198035D01*
X0117750Y0196501D01*
X0118517Y0195733D01*
X0121587Y0198803D01*
X0118517Y0198803D01*
X0118517Y0195733D02*
X0121587Y0195733D01*
X0122354Y0196501D01*
X0122354Y0198035D01*
X0121587Y0198803D01*
X0120819Y0202639D02*
X0122354Y0204174D01*
X0117750Y0204174D01*
X0125917Y0203087D02*
X0128986Y0203087D01*
X0128986Y0198483D01*
X0130521Y0198483D02*
X0130521Y0201553D01*
X0128986Y0200785D02*
X0127452Y0200785D01*
X0130521Y0198483D02*
X0132823Y0198483D01*
X0133590Y0199251D01*
X0133590Y0201553D01*
X0136659Y0203087D02*
X0136659Y0198483D01*
X0135125Y0198483D02*
X0138194Y0198483D01*
X0139729Y0198483D02*
X0140496Y0198483D01*
X0140496Y0199251D01*
X0139729Y0199251D01*
X0139729Y0198483D01*
X0142031Y0199251D02*
X0142031Y0202320D01*
X0145100Y0199251D01*
X0144333Y0198483D01*
X0142798Y0198483D01*
X0142031Y0199251D01*
X0145100Y0199251D02*
X0145100Y0202320D01*
X0144333Y0203087D01*
X0142798Y0203087D01*
X0142031Y0202320D01*
X0138194Y0201553D02*
X0136659Y0203087D01*
X0135892Y0195587D02*
X0135125Y0194820D01*
X0135125Y0194053D01*
X0135892Y0193285D01*
X0135125Y0192518D01*
X0135125Y0191751D01*
X0135892Y0190983D01*
X0137427Y0190983D01*
X0138194Y0191751D01*
X0139729Y0191751D02*
X0139729Y0190983D01*
X0140496Y0190983D01*
X0140496Y0191751D01*
X0139729Y0191751D01*
X0142031Y0191751D02*
X0142798Y0190983D01*
X0144333Y0190983D01*
X0145100Y0191751D01*
X0143565Y0193285D02*
X0142798Y0193285D01*
X0142031Y0192518D01*
X0142031Y0191751D01*
X0142798Y0193285D02*
X0142031Y0194053D01*
X0142031Y0194820D01*
X0142798Y0195587D01*
X0144333Y0195587D01*
X0145100Y0194820D01*
X0138194Y0194820D02*
X0137427Y0195587D01*
X0135892Y0195587D01*
X0135892Y0193285D02*
X0136659Y0193285D01*
X0133590Y0194053D02*
X0133590Y0191751D01*
X0132823Y0190983D01*
X0130521Y0190983D01*
X0130521Y0194053D01*
X0128986Y0193285D02*
X0127452Y0193285D01*
X0128986Y0190983D02*
X0128986Y0195587D01*
X0125917Y0195587D01*
X0129486Y0211233D02*
X0129486Y0215837D01*
X0126417Y0215837D01*
X0127952Y0213535D02*
X0129486Y0213535D01*
X0131021Y0214303D02*
X0131021Y0211233D01*
X0133323Y0211233D01*
X0134090Y0212001D01*
X0134090Y0214303D01*
X0137159Y0215837D02*
X0137159Y0211233D01*
X0135625Y0211233D02*
X0138694Y0211233D01*
X0140229Y0211233D02*
X0140996Y0211233D01*
X0140996Y0212001D01*
X0140229Y0212001D01*
X0140229Y0211233D01*
X0142531Y0212001D02*
X0143298Y0211233D01*
X0144833Y0211233D01*
X0145600Y0212001D01*
X0142531Y0215070D01*
X0142531Y0212001D01*
X0145600Y0212001D02*
X0145600Y0215070D01*
X0144833Y0215837D01*
X0143298Y0215837D01*
X0142531Y0215070D01*
X0138694Y0214303D02*
X0137159Y0215837D01*
X0137021Y0224483D02*
X0137021Y0227553D01*
X0135486Y0226785D02*
X0133952Y0226785D01*
X0135486Y0224483D02*
X0135486Y0229087D01*
X0132417Y0229087D01*
X0137021Y0224483D02*
X0139323Y0224483D01*
X0140090Y0225251D01*
X0140090Y0227553D01*
X0143159Y0229087D02*
X0143159Y0224483D01*
X0141625Y0224483D02*
X0144694Y0224483D01*
X0146229Y0224483D02*
X0146996Y0224483D01*
X0146996Y0225251D01*
X0146229Y0225251D01*
X0146229Y0224483D01*
X0148531Y0225251D02*
X0149298Y0224483D01*
X0150833Y0224483D01*
X0151600Y0225251D01*
X0148531Y0228320D01*
X0148531Y0225251D01*
X0151600Y0225251D02*
X0151600Y0228320D01*
X0150833Y0229087D01*
X0149298Y0229087D01*
X0148531Y0228320D01*
X0144694Y0227553D02*
X0143159Y0229087D01*
X0143427Y0236733D02*
X0146496Y0236733D01*
X0143427Y0239803D01*
X0143427Y0240570D01*
X0144194Y0241337D01*
X0145729Y0241337D01*
X0146496Y0240570D01*
X0149565Y0241337D02*
X0149565Y0236733D01*
X0148031Y0236733D02*
X0151100Y0236733D01*
X0151100Y0239803D02*
X0149565Y0241337D01*
X0141892Y0241337D02*
X0141892Y0236733D01*
X0141892Y0238268D02*
X0138823Y0241337D01*
X0141125Y0239035D02*
X0138823Y0236733D01*
X0137288Y0236733D02*
X0134219Y0241337D01*
X0132684Y0239803D02*
X0131150Y0241337D01*
X0131150Y0236733D01*
X0132684Y0236733D02*
X0129615Y0236733D01*
X0128080Y0236733D02*
X0124244Y0241337D01*
X0127313Y0241337D02*
X0127313Y0240570D01*
X0128080Y0240570D01*
X0128080Y0241337D01*
X0127313Y0241337D01*
X0125011Y0237501D02*
X0124244Y0237501D01*
X0124244Y0236733D01*
X0125011Y0236733D01*
X0125011Y0237501D01*
X0122354Y0234416D02*
X0122354Y0231347D01*
X0117750Y0231347D01*
X0117750Y0223674D02*
X0122354Y0223674D01*
X0120819Y0222139D01*
X0164917Y0247337D02*
X0167986Y0247337D01*
X0167986Y0242733D01*
X0169521Y0242733D02*
X0169521Y0245803D01*
X0167986Y0245035D02*
X0166452Y0245035D01*
X0169521Y0242733D02*
X0171823Y0242733D01*
X0172590Y0243501D01*
X0172590Y0245803D01*
X0175659Y0247337D02*
X0175659Y0242733D01*
X0174125Y0242733D02*
X0177194Y0242733D01*
X0178729Y0242733D02*
X0178729Y0243501D01*
X0179496Y0243501D01*
X0179496Y0242733D01*
X0178729Y0242733D01*
X0181031Y0243501D02*
X0181798Y0242733D01*
X0183333Y0242733D01*
X0184100Y0243501D01*
X0181031Y0246570D01*
X0181031Y0243501D01*
X0184100Y0243501D02*
X0184100Y0246570D01*
X0183333Y0247337D01*
X0181798Y0247337D01*
X0181031Y0246570D01*
X0177194Y0245803D02*
X0175659Y0247337D01*
X0182302Y0269233D02*
X0182302Y0272303D01*
X0180767Y0273837D02*
X0180767Y0274605D01*
X0180000Y0274605D01*
X0180000Y0273837D01*
X0180767Y0273837D01*
X0180767Y0276139D02*
X0180000Y0276139D01*
X0180767Y0276139D02*
X0183837Y0279209D01*
X0184604Y0279209D01*
X0184604Y0276139D01*
X0184604Y0271535D02*
X0180000Y0271535D01*
X0182302Y0269233D02*
X0184604Y0271535D01*
X0190500Y0271535D02*
X0195104Y0271535D01*
X0192802Y0269233D01*
X0192802Y0272303D01*
X0191267Y0273837D02*
X0191267Y0274605D01*
X0190500Y0274605D01*
X0190500Y0273837D01*
X0191267Y0273837D01*
X0191267Y0276139D02*
X0190500Y0276139D01*
X0191267Y0276139D02*
X0194337Y0279209D01*
X0195104Y0279209D01*
X0195104Y0276139D01*
X0193569Y0280743D02*
X0191267Y0280743D01*
X0190500Y0281511D01*
X0190500Y0283813D01*
X0193569Y0283813D01*
X0192802Y0285347D02*
X0192802Y0286882D01*
X0195104Y0285347D02*
X0195104Y0288416D01*
X0195104Y0285347D02*
X0190500Y0285347D01*
X0184604Y0285347D02*
X0184604Y0288416D01*
X0182302Y0286882D02*
X0182302Y0285347D01*
X0183069Y0283813D02*
X0180000Y0283813D01*
X0180000Y0281511D01*
X0180767Y0280743D01*
X0183069Y0280743D01*
X0184604Y0285347D02*
X0180000Y0285347D01*
X0181048Y0291983D02*
X0182583Y0291983D01*
X0183350Y0292751D01*
X0180281Y0295820D01*
X0180281Y0292751D01*
X0181048Y0291983D01*
X0178746Y0291983D02*
X0177979Y0291983D01*
X0177979Y0292751D01*
X0178746Y0292751D01*
X0178746Y0291983D01*
X0176444Y0291983D02*
X0173375Y0291983D01*
X0174909Y0291983D02*
X0174909Y0296587D01*
X0176444Y0295053D01*
X0180281Y0295820D02*
X0181048Y0296587D01*
X0182583Y0296587D01*
X0183350Y0295820D01*
X0183350Y0292751D01*
X0171840Y0292751D02*
X0171073Y0291983D01*
X0168771Y0291983D01*
X0168771Y0295053D01*
X0167236Y0294285D02*
X0165702Y0294285D01*
X0167236Y0291983D02*
X0167236Y0296587D01*
X0164167Y0296587D01*
X0171840Y0295053D02*
X0171840Y0292751D01*
X0164808Y0311699D02*
X0164808Y0316303D01*
X0162506Y0316303D01*
X0161739Y0315535D01*
X0161739Y0314001D01*
X0162506Y0313233D01*
X0164808Y0313233D01*
X0166343Y0314001D02*
X0167110Y0313233D01*
X0168645Y0313233D01*
X0169412Y0314001D01*
X0169412Y0314768D01*
X0168645Y0315535D01*
X0167110Y0315535D01*
X0166343Y0314768D01*
X0166343Y0314001D01*
X0167110Y0315535D02*
X0166343Y0316303D01*
X0166343Y0317070D01*
X0167110Y0317837D01*
X0168645Y0317837D01*
X0169412Y0317070D01*
X0169412Y0316303D01*
X0168645Y0315535D01*
X0170946Y0313233D02*
X0174016Y0313233D01*
X0172481Y0313233D02*
X0172481Y0317837D01*
X0174016Y0316303D01*
X0177885Y0317837D02*
X0180954Y0317837D01*
X0180954Y0313233D01*
X0182489Y0313233D02*
X0182489Y0316303D01*
X0180954Y0315535D02*
X0179419Y0315535D01*
X0182489Y0313233D02*
X0184791Y0313233D01*
X0185558Y0314001D01*
X0185558Y0316303D01*
X0188627Y0317837D02*
X0188627Y0313233D01*
X0187093Y0313233D02*
X0190162Y0313233D01*
X0191696Y0313233D02*
X0192464Y0313233D01*
X0192464Y0314001D01*
X0191696Y0314001D01*
X0191696Y0313233D01*
X0193998Y0314001D02*
X0193998Y0317070D01*
X0197068Y0314001D01*
X0196300Y0313233D01*
X0194766Y0313233D01*
X0193998Y0314001D01*
X0193998Y0317070D02*
X0194766Y0317837D01*
X0196300Y0317837D01*
X0197068Y0317070D01*
X0197068Y0314001D01*
X0190162Y0316303D02*
X0188627Y0317837D01*
X0194288Y0325233D02*
X0194288Y0329837D01*
X0191219Y0329837D01*
X0192754Y0327535D02*
X0194288Y0327535D01*
X0195823Y0327535D02*
X0195823Y0326001D01*
X0196590Y0325233D01*
X0198892Y0325233D01*
X0198892Y0323699D02*
X0198892Y0328303D01*
X0196590Y0328303D01*
X0195823Y0327535D01*
X0200427Y0326768D02*
X0200427Y0326001D01*
X0201194Y0325233D01*
X0202729Y0325233D01*
X0203496Y0326001D01*
X0203496Y0326768D01*
X0202729Y0327535D01*
X0201194Y0327535D01*
X0200427Y0326768D01*
X0201194Y0327535D02*
X0200427Y0328303D01*
X0200427Y0329070D01*
X0201194Y0329837D01*
X0202729Y0329837D01*
X0203496Y0329070D01*
X0203496Y0328303D01*
X0202729Y0327535D01*
X0205031Y0325233D02*
X0208100Y0325233D01*
X0206565Y0325233D02*
X0206565Y0329837D01*
X0208100Y0328303D01*
X0189214Y0337233D02*
X0186144Y0337233D01*
X0184610Y0337233D02*
X0183843Y0337233D01*
X0183843Y0338001D01*
X0184610Y0338001D01*
X0184610Y0337233D01*
X0182308Y0338001D02*
X0181541Y0337233D01*
X0180006Y0337233D01*
X0179239Y0338001D01*
X0179239Y0339535D01*
X0180006Y0340303D01*
X0180773Y0340303D01*
X0182308Y0339535D01*
X0182308Y0341837D01*
X0179239Y0341837D01*
X0177704Y0341837D02*
X0177704Y0337233D01*
X0177704Y0338768D02*
X0174635Y0341837D01*
X0176937Y0339535D02*
X0174635Y0337233D01*
X0187679Y0337233D02*
X0187679Y0341837D01*
X0189214Y0340303D01*
X0160204Y0317837D02*
X0160204Y0313233D01*
X0160204Y0315535D02*
X0158669Y0315535D01*
X0160204Y0317837D02*
X0157135Y0317837D01*
X0203135Y0252337D02*
X0206204Y0252337D01*
X0206204Y0247733D01*
X0207739Y0247733D02*
X0207739Y0250803D01*
X0206204Y0250035D02*
X0204669Y0250035D01*
X0207739Y0247733D02*
X0210041Y0247733D01*
X0210808Y0248501D01*
X0210808Y0250803D01*
X0213877Y0252337D02*
X0213877Y0247733D01*
X0212343Y0247733D02*
X0215412Y0247733D01*
X0216946Y0247733D02*
X0217714Y0247733D01*
X0217714Y0248501D01*
X0216946Y0248501D01*
X0216946Y0247733D01*
X0219248Y0248501D02*
X0219248Y0251570D01*
X0222318Y0248501D01*
X0221550Y0247733D01*
X0220016Y0247733D01*
X0219248Y0248501D01*
X0219248Y0251570D02*
X0220016Y0252337D01*
X0221550Y0252337D01*
X0222318Y0251570D01*
X0222318Y0248501D01*
X0215412Y0250803D02*
X0213877Y0252337D01*
X0232354Y0233199D02*
X0232354Y0230129D01*
X0227750Y0230129D01*
X0227750Y0228595D02*
X0230819Y0228595D01*
X0230052Y0230129D02*
X0230052Y0231664D01*
X0227750Y0228595D02*
X0227750Y0226293D01*
X0228517Y0225526D01*
X0230819Y0225526D01*
X0227750Y0223991D02*
X0227750Y0220922D01*
X0227750Y0222456D02*
X0232354Y0222456D01*
X0230819Y0220922D01*
X0228517Y0219387D02*
X0228517Y0218620D01*
X0227750Y0218620D01*
X0227750Y0219387D01*
X0228517Y0219387D01*
X0228517Y0217085D02*
X0227750Y0216318D01*
X0227750Y0214783D01*
X0228517Y0214016D01*
X0231587Y0217085D01*
X0228517Y0217085D01*
X0228517Y0214016D02*
X0231587Y0214016D01*
X0232354Y0214783D01*
X0232354Y0216318D01*
X0231587Y0217085D01*
X0232354Y0213416D02*
X0232354Y0210347D01*
X0227750Y0210347D01*
X0227750Y0208813D02*
X0230819Y0208813D01*
X0230052Y0210347D02*
X0230052Y0211882D01*
X0227750Y0208813D02*
X0227750Y0206511D01*
X0228517Y0205743D01*
X0230819Y0205743D01*
X0227750Y0204209D02*
X0227750Y0201139D01*
X0227750Y0199605D02*
X0227750Y0198837D01*
X0228517Y0198837D01*
X0228517Y0199605D01*
X0227750Y0199605D01*
X0228517Y0197303D02*
X0227750Y0196535D01*
X0227750Y0195001D01*
X0228517Y0194233D01*
X0231587Y0197303D01*
X0228517Y0197303D01*
X0228517Y0194233D02*
X0231587Y0194233D01*
X0232354Y0195001D01*
X0232354Y0196535D01*
X0231587Y0197303D01*
X0230819Y0201139D02*
X0232354Y0202674D01*
X0227750Y0202674D01*
X0235917Y0203087D02*
X0238986Y0203087D01*
X0238986Y0198483D01*
X0240521Y0198483D02*
X0240521Y0201553D01*
X0238986Y0200785D02*
X0237452Y0200785D01*
X0240521Y0198483D02*
X0242823Y0198483D01*
X0243590Y0199251D01*
X0243590Y0201553D01*
X0246659Y0203087D02*
X0246659Y0198483D01*
X0245125Y0198483D02*
X0248194Y0198483D01*
X0249729Y0198483D02*
X0250496Y0198483D01*
X0250496Y0199251D01*
X0249729Y0199251D01*
X0249729Y0198483D01*
X0252031Y0199251D02*
X0252031Y0202320D01*
X0255100Y0199251D01*
X0254333Y0198483D01*
X0252798Y0198483D01*
X0252031Y0199251D01*
X0255100Y0199251D02*
X0255100Y0202320D01*
X0254333Y0203087D01*
X0252798Y0203087D01*
X0252031Y0202320D01*
X0248194Y0201553D02*
X0246659Y0203087D01*
X0246392Y0195087D02*
X0245625Y0194320D01*
X0245625Y0193553D01*
X0246392Y0192785D01*
X0245625Y0192018D01*
X0245625Y0191251D01*
X0246392Y0190483D01*
X0247927Y0190483D01*
X0248694Y0191251D01*
X0250229Y0191251D02*
X0250229Y0190483D01*
X0250996Y0190483D01*
X0250996Y0191251D01*
X0250229Y0191251D01*
X0252531Y0191251D02*
X0253298Y0190483D01*
X0254833Y0190483D01*
X0255600Y0191251D01*
X0254065Y0192785D02*
X0253298Y0192785D01*
X0252531Y0192018D01*
X0252531Y0191251D01*
X0253298Y0192785D02*
X0252531Y0193553D01*
X0252531Y0194320D01*
X0253298Y0195087D01*
X0254833Y0195087D01*
X0255600Y0194320D01*
X0248694Y0194320D02*
X0247927Y0195087D01*
X0246392Y0195087D01*
X0246392Y0192785D02*
X0247159Y0192785D01*
X0244090Y0193553D02*
X0244090Y0191251D01*
X0243323Y0190483D01*
X0241021Y0190483D01*
X0241021Y0193553D01*
X0239486Y0192785D02*
X0237952Y0192785D01*
X0239486Y0190483D02*
X0239486Y0195087D01*
X0236417Y0195087D01*
X0239486Y0211233D02*
X0239486Y0215837D01*
X0236417Y0215837D01*
X0237952Y0213535D02*
X0239486Y0213535D01*
X0241021Y0214303D02*
X0241021Y0211233D01*
X0243323Y0211233D01*
X0244090Y0212001D01*
X0244090Y0214303D01*
X0247159Y0215837D02*
X0247159Y0211233D01*
X0245625Y0211233D02*
X0248694Y0211233D01*
X0250229Y0211233D02*
X0250996Y0211233D01*
X0250996Y0212001D01*
X0250229Y0212001D01*
X0250229Y0211233D01*
X0252531Y0212001D02*
X0253298Y0211233D01*
X0254833Y0211233D01*
X0255600Y0212001D01*
X0252531Y0215070D01*
X0252531Y0212001D01*
X0255600Y0212001D02*
X0255600Y0215070D01*
X0254833Y0215837D01*
X0253298Y0215837D01*
X0252531Y0215070D01*
X0248694Y0214303D02*
X0247159Y0215837D01*
X0247021Y0224483D02*
X0247021Y0227553D01*
X0245486Y0226785D02*
X0243952Y0226785D01*
X0245486Y0224483D02*
X0245486Y0229087D01*
X0242417Y0229087D01*
X0247021Y0224483D02*
X0249323Y0224483D01*
X0250090Y0225251D01*
X0250090Y0227553D01*
X0253159Y0229087D02*
X0253159Y0224483D01*
X0251625Y0224483D02*
X0254694Y0224483D01*
X0256229Y0224483D02*
X0256996Y0224483D01*
X0256996Y0225251D01*
X0256229Y0225251D01*
X0256229Y0224483D01*
X0258531Y0225251D02*
X0258531Y0228320D01*
X0261600Y0225251D01*
X0260833Y0224483D01*
X0259298Y0224483D01*
X0258531Y0225251D01*
X0261600Y0225251D02*
X0261600Y0228320D01*
X0260833Y0229087D01*
X0259298Y0229087D01*
X0258531Y0228320D01*
X0254694Y0227553D02*
X0253159Y0229087D01*
X0253427Y0236733D02*
X0256496Y0236733D01*
X0253427Y0239803D01*
X0253427Y0240570D01*
X0254194Y0241337D01*
X0255729Y0241337D01*
X0256496Y0240570D01*
X0259565Y0241337D02*
X0259565Y0236733D01*
X0258031Y0236733D02*
X0261100Y0236733D01*
X0261100Y0239803D02*
X0259565Y0241337D01*
X0251892Y0241337D02*
X0251892Y0236733D01*
X0251892Y0238268D02*
X0248823Y0241337D01*
X0251125Y0239035D02*
X0248823Y0236733D01*
X0247288Y0236733D02*
X0244219Y0241337D01*
X0242684Y0239803D02*
X0241150Y0241337D01*
X0241150Y0236733D01*
X0242684Y0236733D02*
X0239615Y0236733D01*
X0238080Y0236733D02*
X0234244Y0241337D01*
X0237313Y0241337D02*
X0237313Y0240570D01*
X0238080Y0240570D01*
X0238080Y0241337D01*
X0237313Y0241337D01*
X0235011Y0237501D02*
X0234244Y0237501D01*
X0234244Y0236733D01*
X0235011Y0236733D01*
X0235011Y0237501D01*
X0238267Y0252733D02*
X0241337Y0255803D01*
X0238267Y0255803D01*
X0237500Y0255035D01*
X0237500Y0253501D01*
X0238267Y0252733D01*
X0241337Y0252733D01*
X0242104Y0253501D01*
X0242104Y0255035D01*
X0241337Y0255803D01*
X0238267Y0257337D02*
X0238267Y0258105D01*
X0237500Y0258105D01*
X0237500Y0257337D01*
X0238267Y0257337D01*
X0237500Y0259639D02*
X0237500Y0262709D01*
X0237500Y0261174D02*
X0242104Y0261174D01*
X0240569Y0259639D01*
X0240569Y0264243D02*
X0238267Y0264243D01*
X0237500Y0265011D01*
X0237500Y0267313D01*
X0240569Y0267313D01*
X0239802Y0268847D02*
X0239802Y0270382D01*
X0242104Y0268847D02*
X0242104Y0271916D01*
X0242104Y0268847D02*
X0237500Y0268847D01*
X0274917Y0247337D02*
X0277986Y0247337D01*
X0277986Y0242733D01*
X0279521Y0242733D02*
X0279521Y0245803D01*
X0277986Y0245035D02*
X0276452Y0245035D01*
X0279521Y0242733D02*
X0281823Y0242733D01*
X0282590Y0243501D01*
X0282590Y0245803D01*
X0285659Y0247337D02*
X0285659Y0242733D01*
X0284125Y0242733D02*
X0287194Y0242733D01*
X0288729Y0242733D02*
X0288729Y0243501D01*
X0289496Y0243501D01*
X0289496Y0242733D01*
X0288729Y0242733D01*
X0291031Y0243501D02*
X0291798Y0242733D01*
X0293333Y0242733D01*
X0294100Y0243501D01*
X0291031Y0246570D01*
X0291031Y0243501D01*
X0294100Y0243501D02*
X0294100Y0246570D01*
X0293333Y0247337D01*
X0291798Y0247337D01*
X0291031Y0246570D01*
X0287194Y0245803D02*
X0285659Y0247337D01*
X0291802Y0269733D02*
X0291802Y0272803D01*
X0290267Y0274337D02*
X0290267Y0275105D01*
X0289500Y0275105D01*
X0289500Y0274337D01*
X0290267Y0274337D01*
X0290267Y0276639D02*
X0289500Y0276639D01*
X0290267Y0276639D02*
X0293337Y0279709D01*
X0294104Y0279709D01*
X0294104Y0276639D01*
X0294104Y0272035D02*
X0289500Y0272035D01*
X0291802Y0269733D02*
X0294104Y0272035D01*
X0301000Y0272035D02*
X0305604Y0272035D01*
X0303302Y0269733D01*
X0303302Y0272803D01*
X0301767Y0274337D02*
X0301767Y0275105D01*
X0301000Y0275105D01*
X0301000Y0274337D01*
X0301767Y0274337D01*
X0301767Y0276639D02*
X0301000Y0276639D01*
X0301767Y0276639D02*
X0304837Y0279709D01*
X0305604Y0279709D01*
X0305604Y0276639D01*
X0304069Y0281243D02*
X0301767Y0281243D01*
X0301000Y0282011D01*
X0301000Y0284313D01*
X0304069Y0284313D01*
X0303302Y0285847D02*
X0303302Y0287382D01*
X0305604Y0285847D02*
X0305604Y0288916D01*
X0305604Y0285847D02*
X0301000Y0285847D01*
X0294104Y0285847D02*
X0294104Y0288916D01*
X0291802Y0287382D02*
X0291802Y0285847D01*
X0292569Y0284313D02*
X0289500Y0284313D01*
X0289500Y0282011D01*
X0290267Y0281243D01*
X0292569Y0281243D01*
X0294104Y0285847D02*
X0289500Y0285847D01*
X0312635Y0252837D02*
X0315704Y0252837D01*
X0315704Y0248233D01*
X0317239Y0248233D02*
X0317239Y0251303D01*
X0315704Y0250535D02*
X0314169Y0250535D01*
X0317239Y0248233D02*
X0319541Y0248233D01*
X0320308Y0249001D01*
X0320308Y0251303D01*
X0323377Y0252837D02*
X0323377Y0248233D01*
X0321843Y0248233D02*
X0324912Y0248233D01*
X0326446Y0248233D02*
X0327214Y0248233D01*
X0327214Y0249001D01*
X0326446Y0249001D01*
X0326446Y0248233D01*
X0328748Y0249001D02*
X0328748Y0252070D01*
X0331818Y0249001D01*
X0331050Y0248233D01*
X0329516Y0248233D01*
X0328748Y0249001D01*
X0328748Y0252070D02*
X0329516Y0252837D01*
X0331050Y0252837D01*
X0331818Y0252070D01*
X0331818Y0249001D01*
X0324912Y0251303D02*
X0323377Y0252837D01*
X0338250Y0231129D02*
X0342854Y0231129D01*
X0342854Y0234199D01*
X0340552Y0232664D02*
X0340552Y0231129D01*
X0341319Y0229595D02*
X0338250Y0229595D01*
X0338250Y0227293D01*
X0339017Y0226526D01*
X0341319Y0226526D01*
X0338250Y0224991D02*
X0338250Y0221922D01*
X0338250Y0223456D02*
X0342854Y0223456D01*
X0341319Y0221922D01*
X0339017Y0220387D02*
X0338250Y0220387D01*
X0338250Y0219620D01*
X0339017Y0219620D01*
X0339017Y0220387D01*
X0339017Y0218085D02*
X0338250Y0217318D01*
X0338250Y0215783D01*
X0339017Y0215016D01*
X0342087Y0218085D01*
X0339017Y0218085D01*
X0339017Y0215016D02*
X0342087Y0215016D01*
X0342854Y0215783D01*
X0342854Y0217318D01*
X0342087Y0218085D01*
X0342854Y0213416D02*
X0342854Y0210347D01*
X0338250Y0210347D01*
X0338250Y0208813D02*
X0341319Y0208813D01*
X0340552Y0210347D02*
X0340552Y0211882D01*
X0338250Y0208813D02*
X0338250Y0206511D01*
X0339017Y0205743D01*
X0341319Y0205743D01*
X0338250Y0204209D02*
X0338250Y0201139D01*
X0338250Y0199605D02*
X0338250Y0198837D01*
X0339017Y0198837D01*
X0339017Y0199605D01*
X0338250Y0199605D01*
X0339017Y0197303D02*
X0338250Y0196535D01*
X0338250Y0195001D01*
X0339017Y0194233D01*
X0342087Y0197303D01*
X0339017Y0197303D01*
X0339017Y0194233D02*
X0342087Y0194233D01*
X0342854Y0195001D01*
X0342854Y0196535D01*
X0342087Y0197303D01*
X0341319Y0201139D02*
X0342854Y0202674D01*
X0338250Y0202674D01*
X0150604Y0176699D02*
X0150604Y0173629D01*
X0146000Y0173629D01*
X0146000Y0172095D02*
X0149069Y0172095D01*
X0148302Y0173629D02*
X0148302Y0175164D01*
X0146000Y0172095D02*
X0146000Y0169793D01*
X0146767Y0169026D01*
X0149069Y0169026D01*
X0146000Y0167491D02*
X0146000Y0164422D01*
X0146000Y0165956D02*
X0150604Y0165956D01*
X0149069Y0164422D01*
X0146767Y0162887D02*
X0146000Y0162887D01*
X0146000Y0162120D01*
X0146767Y0162120D01*
X0146767Y0162887D01*
X0146767Y0160585D02*
X0146000Y0159818D01*
X0146000Y0158283D01*
X0146767Y0157516D01*
X0149837Y0160585D01*
X0146767Y0160585D01*
X0146767Y0157516D02*
X0149837Y0157516D01*
X0150604Y0158283D01*
X0150604Y0159818D01*
X0149837Y0160585D01*
X0072833Y0242233D02*
X0071298Y0242233D01*
X0070531Y0243001D01*
X0070531Y0246070D01*
X0073600Y0243001D01*
X0072833Y0242233D01*
X0073600Y0243001D02*
X0073600Y0246070D01*
X0072833Y0246837D01*
X0071298Y0246837D01*
X0070531Y0246070D01*
X0068996Y0243001D02*
X0068229Y0243001D01*
X0068229Y0242233D01*
X0068996Y0242233D01*
X0068996Y0243001D01*
X0066694Y0242233D02*
X0063625Y0242233D01*
X0065159Y0242233D02*
X0065159Y0246837D01*
X0066694Y0245303D01*
X0062090Y0245303D02*
X0062090Y0243001D01*
X0061323Y0242233D01*
X0059021Y0242233D01*
X0059021Y0245303D01*
X0057486Y0244535D02*
X0055952Y0244535D01*
X0057486Y0242233D02*
X0057486Y0246837D01*
X0054417Y0246837D01*
X0041100Y0239803D02*
X0039565Y0241337D01*
X0039565Y0236733D01*
X0038031Y0236733D02*
X0041100Y0236733D01*
X0036496Y0236733D02*
X0033427Y0239803D01*
X0033427Y0240570D01*
X0034194Y0241337D01*
X0035729Y0241337D01*
X0036496Y0240570D01*
X0036496Y0236733D02*
X0033427Y0236733D01*
X0031892Y0236733D02*
X0031892Y0241337D01*
X0031125Y0239035D02*
X0028823Y0236733D01*
X0027288Y0236733D02*
X0024219Y0241337D01*
X0022684Y0239803D02*
X0021150Y0241337D01*
X0021150Y0236733D01*
X0022684Y0236733D02*
X0019615Y0236733D01*
X0018080Y0236733D02*
X0014244Y0241337D01*
X0017313Y0241337D02*
X0017313Y0240570D01*
X0018080Y0240570D01*
X0018080Y0241337D01*
X0017313Y0241337D01*
X0015011Y0237501D02*
X0014244Y0237501D01*
X0014244Y0236733D01*
X0015011Y0236733D01*
X0015011Y0237501D01*
X0022917Y0228587D02*
X0025986Y0228587D01*
X0025986Y0223983D01*
X0027521Y0223983D02*
X0027521Y0227053D01*
X0025986Y0226285D02*
X0024452Y0226285D01*
X0027521Y0223983D02*
X0029823Y0223983D01*
X0030590Y0224751D01*
X0030590Y0227053D01*
X0033659Y0228587D02*
X0033659Y0223983D01*
X0032125Y0223983D02*
X0035194Y0223983D01*
X0036729Y0223983D02*
X0037496Y0223983D01*
X0037496Y0224751D01*
X0036729Y0224751D01*
X0036729Y0223983D01*
X0039031Y0224751D02*
X0039798Y0223983D01*
X0041333Y0223983D01*
X0042100Y0224751D01*
X0039031Y0227820D01*
X0039031Y0224751D01*
X0042100Y0224751D02*
X0042100Y0227820D01*
X0041333Y0228587D01*
X0039798Y0228587D01*
X0039031Y0227820D01*
X0035194Y0227053D02*
X0033659Y0228587D01*
X0031892Y0238268D02*
X0028823Y0241337D01*
X0027159Y0215837D02*
X0027159Y0211233D01*
X0025625Y0211233D02*
X0028694Y0211233D01*
X0030229Y0211233D02*
X0030229Y0212001D01*
X0030996Y0212001D01*
X0030996Y0211233D01*
X0030229Y0211233D01*
X0032531Y0212001D02*
X0033298Y0211233D01*
X0034833Y0211233D01*
X0035600Y0212001D01*
X0032531Y0215070D01*
X0032531Y0212001D01*
X0035600Y0212001D02*
X0035600Y0215070D01*
X0034833Y0215837D01*
X0033298Y0215837D01*
X0032531Y0215070D01*
X0028694Y0214303D02*
X0027159Y0215837D01*
X0024090Y0214303D02*
X0024090Y0212001D01*
X0023323Y0211233D01*
X0021021Y0211233D01*
X0021021Y0214303D01*
X0019486Y0213535D02*
X0017952Y0213535D01*
X0019486Y0211233D02*
X0019486Y0215837D01*
X0016417Y0215837D01*
X0015417Y0203087D02*
X0018486Y0203087D01*
X0018486Y0198483D01*
X0020021Y0198483D02*
X0020021Y0201553D01*
X0018486Y0200785D02*
X0016952Y0200785D01*
X0020021Y0198483D02*
X0022323Y0198483D01*
X0023090Y0199251D01*
X0023090Y0201553D01*
X0026159Y0203087D02*
X0026159Y0198483D01*
X0024625Y0198483D02*
X0027694Y0198483D01*
X0029229Y0198483D02*
X0029996Y0198483D01*
X0029996Y0199251D01*
X0029229Y0199251D01*
X0029229Y0198483D01*
X0031531Y0199251D02*
X0032298Y0198483D01*
X0033833Y0198483D01*
X0034600Y0199251D01*
X0031531Y0202320D01*
X0031531Y0199251D01*
X0034600Y0199251D02*
X0034600Y0202320D01*
X0033833Y0203087D01*
X0032298Y0203087D01*
X0031531Y0202320D01*
X0027694Y0201553D02*
X0026159Y0203087D01*
X0025392Y0195087D02*
X0024625Y0194320D01*
X0024625Y0193553D01*
X0025392Y0192785D01*
X0024625Y0192018D01*
X0024625Y0191251D01*
X0025392Y0190483D01*
X0026927Y0190483D01*
X0027694Y0191251D01*
X0029229Y0191251D02*
X0029229Y0190483D01*
X0029996Y0190483D01*
X0029996Y0191251D01*
X0029229Y0191251D01*
X0031531Y0191251D02*
X0032298Y0190483D01*
X0033833Y0190483D01*
X0034600Y0191251D01*
X0033065Y0192785D02*
X0032298Y0192785D01*
X0031531Y0192018D01*
X0031531Y0191251D01*
X0032298Y0192785D02*
X0031531Y0193553D01*
X0031531Y0194320D01*
X0032298Y0195087D01*
X0033833Y0195087D01*
X0034600Y0194320D01*
X0027694Y0194320D02*
X0026927Y0195087D01*
X0025392Y0195087D01*
X0025392Y0192785D02*
X0026159Y0192785D01*
X0023090Y0193553D02*
X0023090Y0191251D01*
X0022323Y0190483D01*
X0020021Y0190483D01*
X0020021Y0193553D01*
X0018486Y0192785D02*
X0016952Y0192785D01*
X0018486Y0190483D02*
X0018486Y0195087D01*
X0015417Y0195087D01*
D12*
X0060839Y0260943D02*
X0060839Y0262124D01*
X0065761Y0262124D02*
X0065761Y0260943D01*
X0087839Y0260943D02*
X0087839Y0262124D01*
X0092761Y0262124D02*
X0092761Y0260943D01*
X0170839Y0260943D02*
X0170839Y0262124D01*
X0175761Y0262124D02*
X0175761Y0260943D01*
X0197839Y0260943D02*
X0197839Y0262124D01*
X0202761Y0262124D02*
X0202761Y0260943D01*
X0252457Y0263333D02*
X0252457Y0250734D01*
X0254032Y0250734D01*
X0260331Y0250734D02*
X0264269Y0250734D01*
X0270568Y0250734D02*
X0272143Y0250734D01*
X0272143Y0263333D01*
X0270568Y0263333D01*
X0264269Y0263333D02*
X0260331Y0263333D01*
X0254032Y0263333D02*
X0252457Y0263333D01*
X0280839Y0263124D02*
X0280839Y0261943D01*
X0285761Y0261943D02*
X0285761Y0263124D01*
X0307839Y0263124D02*
X0307839Y0261943D01*
X0312761Y0261943D02*
X0312761Y0263124D01*
D13*
X0315843Y0265174D02*
X0316944Y0265174D01*
X0316944Y0265908D01*
X0316944Y0266279D02*
X0316944Y0266830D01*
X0316760Y0267013D01*
X0316577Y0267013D01*
X0316393Y0266830D01*
X0316393Y0266279D01*
X0315843Y0266279D02*
X0316944Y0266279D01*
X0316393Y0266830D02*
X0316210Y0267013D01*
X0316026Y0267013D01*
X0315843Y0266830D01*
X0315843Y0266279D01*
X0316393Y0265541D02*
X0316393Y0265174D01*
X0316026Y0267384D02*
X0315843Y0267568D01*
X0315843Y0267934D01*
X0316026Y0268118D01*
X0316210Y0268118D01*
X0316393Y0267934D01*
X0316393Y0267751D01*
X0316393Y0267934D02*
X0316577Y0268118D01*
X0316760Y0268118D01*
X0316944Y0267934D01*
X0316944Y0267568D01*
X0316760Y0267384D01*
X0277739Y0267568D02*
X0277556Y0267384D01*
X0276822Y0267384D01*
X0277556Y0268118D01*
X0276822Y0268118D01*
X0276638Y0267934D01*
X0276638Y0267568D01*
X0276822Y0267384D01*
X0276822Y0267013D02*
X0276638Y0266830D01*
X0276638Y0266463D01*
X0276822Y0266279D01*
X0276822Y0265908D02*
X0276638Y0265725D01*
X0276638Y0265358D01*
X0276822Y0265174D01*
X0277189Y0265541D02*
X0277189Y0265725D01*
X0277005Y0265908D01*
X0276822Y0265908D01*
X0277189Y0265725D02*
X0277372Y0265908D01*
X0277556Y0265908D01*
X0277739Y0265725D01*
X0277739Y0265358D01*
X0277556Y0265174D01*
X0277556Y0266279D02*
X0277739Y0266463D01*
X0277739Y0266830D01*
X0277556Y0267013D01*
X0277372Y0267013D01*
X0277189Y0266830D01*
X0277005Y0267013D01*
X0276822Y0267013D01*
X0277189Y0266830D02*
X0277189Y0266646D01*
X0277739Y0267568D02*
X0277739Y0267934D01*
X0277556Y0268118D01*
X0206944Y0266934D02*
X0206944Y0266568D01*
X0206760Y0266384D01*
X0206760Y0266013D02*
X0206577Y0266013D01*
X0206393Y0265830D01*
X0206393Y0265279D01*
X0205843Y0265279D02*
X0205843Y0265830D01*
X0206026Y0266013D01*
X0206210Y0266013D01*
X0206393Y0265830D01*
X0206760Y0266013D02*
X0206944Y0265830D01*
X0206944Y0265279D01*
X0205843Y0265279D01*
X0206393Y0264541D02*
X0206393Y0264174D01*
X0205843Y0264174D02*
X0206944Y0264174D01*
X0206944Y0264908D01*
X0205843Y0266384D02*
X0206577Y0267118D01*
X0206760Y0267118D01*
X0206944Y0266934D01*
X0205843Y0267118D02*
X0205843Y0266384D01*
X0167739Y0266568D02*
X0167739Y0266934D01*
X0167556Y0267118D01*
X0166822Y0266384D01*
X0166638Y0266568D01*
X0166638Y0266934D01*
X0166822Y0267118D01*
X0167556Y0267118D01*
X0167739Y0266568D02*
X0167556Y0266384D01*
X0166822Y0266384D01*
X0166822Y0266013D02*
X0166638Y0265830D01*
X0166638Y0265463D01*
X0166822Y0265279D01*
X0166822Y0264908D02*
X0166638Y0264725D01*
X0166638Y0264358D01*
X0166822Y0264174D01*
X0167189Y0264541D02*
X0167189Y0264725D01*
X0167005Y0264908D01*
X0166822Y0264908D01*
X0167189Y0264725D02*
X0167372Y0264908D01*
X0167556Y0264908D01*
X0167739Y0264725D01*
X0167739Y0264358D01*
X0167556Y0264174D01*
X0167556Y0265279D02*
X0167739Y0265463D01*
X0167739Y0265830D01*
X0167556Y0266013D01*
X0167372Y0266013D01*
X0167189Y0265830D01*
X0167005Y0266013D01*
X0166822Y0266013D01*
X0167189Y0265830D02*
X0167189Y0265646D01*
X0096944Y0265830D02*
X0096760Y0266013D01*
X0096577Y0266013D01*
X0096393Y0265830D01*
X0096393Y0265279D01*
X0095843Y0265279D02*
X0095843Y0265830D01*
X0096026Y0266013D01*
X0096210Y0266013D01*
X0096393Y0265830D01*
X0096944Y0265830D02*
X0096944Y0265279D01*
X0095843Y0265279D01*
X0096393Y0264541D02*
X0096393Y0264174D01*
X0095843Y0264174D02*
X0096944Y0264174D01*
X0096944Y0264908D01*
X0096577Y0266384D02*
X0096944Y0266751D01*
X0095843Y0266751D01*
X0095843Y0266384D02*
X0095843Y0267118D01*
X0057739Y0266934D02*
X0057556Y0267118D01*
X0056822Y0266384D01*
X0056638Y0266568D01*
X0056638Y0266934D01*
X0056822Y0267118D01*
X0057556Y0267118D01*
X0057739Y0266934D02*
X0057739Y0266568D01*
X0057556Y0266384D01*
X0056822Y0266384D01*
X0056822Y0266013D02*
X0056638Y0265830D01*
X0056638Y0265463D01*
X0056822Y0265279D01*
X0056822Y0264908D02*
X0056638Y0264725D01*
X0056638Y0264358D01*
X0056822Y0264174D01*
X0057189Y0264541D02*
X0057189Y0264725D01*
X0057005Y0264908D01*
X0056822Y0264908D01*
X0057189Y0264725D02*
X0057372Y0264908D01*
X0057556Y0264908D01*
X0057739Y0264725D01*
X0057739Y0264358D01*
X0057556Y0264174D01*
X0057556Y0265279D02*
X0057739Y0265463D01*
X0057739Y0265830D01*
X0057556Y0266013D01*
X0057372Y0266013D01*
X0057189Y0265830D01*
X0057005Y0266013D01*
X0056822Y0266013D01*
X0057189Y0265830D02*
X0057189Y0265646D01*
X0044800Y0159033D02*
X0044802Y0159110D01*
X0044808Y0159187D01*
X0044818Y0159264D01*
X0044832Y0159340D01*
X0044849Y0159415D01*
X0044871Y0159489D01*
X0044896Y0159562D01*
X0044926Y0159634D01*
X0044958Y0159704D01*
X0044995Y0159772D01*
X0045034Y0159838D01*
X0045077Y0159902D01*
X0045124Y0159964D01*
X0045173Y0160023D01*
X0045226Y0160080D01*
X0045281Y0160134D01*
X0045339Y0160185D01*
X0045400Y0160233D01*
X0045463Y0160278D01*
X0045528Y0160319D01*
X0045595Y0160357D01*
X0045664Y0160392D01*
X0045735Y0160422D01*
X0045807Y0160450D01*
X0045881Y0160473D01*
X0045955Y0160493D01*
X0046031Y0160509D01*
X0046107Y0160521D01*
X0046184Y0160529D01*
X0046261Y0160533D01*
X0046339Y0160533D01*
X0046416Y0160529D01*
X0046493Y0160521D01*
X0046569Y0160509D01*
X0046645Y0160493D01*
X0046719Y0160473D01*
X0046793Y0160450D01*
X0046865Y0160422D01*
X0046936Y0160392D01*
X0047005Y0160357D01*
X0047072Y0160319D01*
X0047137Y0160278D01*
X0047200Y0160233D01*
X0047261Y0160185D01*
X0047319Y0160134D01*
X0047374Y0160080D01*
X0047427Y0160023D01*
X0047476Y0159964D01*
X0047523Y0159902D01*
X0047566Y0159838D01*
X0047605Y0159772D01*
X0047642Y0159704D01*
X0047674Y0159634D01*
X0047704Y0159562D01*
X0047729Y0159489D01*
X0047751Y0159415D01*
X0047768Y0159340D01*
X0047782Y0159264D01*
X0047792Y0159187D01*
X0047798Y0159110D01*
X0047800Y0159033D01*
X0047798Y0158956D01*
X0047792Y0158879D01*
X0047782Y0158802D01*
X0047768Y0158726D01*
X0047751Y0158651D01*
X0047729Y0158577D01*
X0047704Y0158504D01*
X0047674Y0158432D01*
X0047642Y0158362D01*
X0047605Y0158294D01*
X0047566Y0158228D01*
X0047523Y0158164D01*
X0047476Y0158102D01*
X0047427Y0158043D01*
X0047374Y0157986D01*
X0047319Y0157932D01*
X0047261Y0157881D01*
X0047200Y0157833D01*
X0047137Y0157788D01*
X0047072Y0157747D01*
X0047005Y0157709D01*
X0046936Y0157674D01*
X0046865Y0157644D01*
X0046793Y0157616D01*
X0046719Y0157593D01*
X0046645Y0157573D01*
X0046569Y0157557D01*
X0046493Y0157545D01*
X0046416Y0157537D01*
X0046339Y0157533D01*
X0046261Y0157533D01*
X0046184Y0157537D01*
X0046107Y0157545D01*
X0046031Y0157557D01*
X0045955Y0157573D01*
X0045881Y0157593D01*
X0045807Y0157616D01*
X0045735Y0157644D01*
X0045664Y0157674D01*
X0045595Y0157709D01*
X0045528Y0157747D01*
X0045463Y0157788D01*
X0045400Y0157833D01*
X0045339Y0157881D01*
X0045281Y0157932D01*
X0045226Y0157986D01*
X0045173Y0158043D01*
X0045124Y0158102D01*
X0045077Y0158164D01*
X0045034Y0158228D01*
X0044995Y0158294D01*
X0044958Y0158362D01*
X0044926Y0158432D01*
X0044896Y0158504D01*
X0044871Y0158577D01*
X0044849Y0158651D01*
X0044832Y0158726D01*
X0044818Y0158802D01*
X0044808Y0158879D01*
X0044802Y0158956D01*
X0044800Y0159033D01*
X0044800Y0127033D02*
X0044802Y0127110D01*
X0044808Y0127187D01*
X0044818Y0127264D01*
X0044832Y0127340D01*
X0044849Y0127415D01*
X0044871Y0127489D01*
X0044896Y0127562D01*
X0044926Y0127634D01*
X0044958Y0127704D01*
X0044995Y0127772D01*
X0045034Y0127838D01*
X0045077Y0127902D01*
X0045124Y0127964D01*
X0045173Y0128023D01*
X0045226Y0128080D01*
X0045281Y0128134D01*
X0045339Y0128185D01*
X0045400Y0128233D01*
X0045463Y0128278D01*
X0045528Y0128319D01*
X0045595Y0128357D01*
X0045664Y0128392D01*
X0045735Y0128422D01*
X0045807Y0128450D01*
X0045881Y0128473D01*
X0045955Y0128493D01*
X0046031Y0128509D01*
X0046107Y0128521D01*
X0046184Y0128529D01*
X0046261Y0128533D01*
X0046339Y0128533D01*
X0046416Y0128529D01*
X0046493Y0128521D01*
X0046569Y0128509D01*
X0046645Y0128493D01*
X0046719Y0128473D01*
X0046793Y0128450D01*
X0046865Y0128422D01*
X0046936Y0128392D01*
X0047005Y0128357D01*
X0047072Y0128319D01*
X0047137Y0128278D01*
X0047200Y0128233D01*
X0047261Y0128185D01*
X0047319Y0128134D01*
X0047374Y0128080D01*
X0047427Y0128023D01*
X0047476Y0127964D01*
X0047523Y0127902D01*
X0047566Y0127838D01*
X0047605Y0127772D01*
X0047642Y0127704D01*
X0047674Y0127634D01*
X0047704Y0127562D01*
X0047729Y0127489D01*
X0047751Y0127415D01*
X0047768Y0127340D01*
X0047782Y0127264D01*
X0047792Y0127187D01*
X0047798Y0127110D01*
X0047800Y0127033D01*
X0047798Y0126956D01*
X0047792Y0126879D01*
X0047782Y0126802D01*
X0047768Y0126726D01*
X0047751Y0126651D01*
X0047729Y0126577D01*
X0047704Y0126504D01*
X0047674Y0126432D01*
X0047642Y0126362D01*
X0047605Y0126294D01*
X0047566Y0126228D01*
X0047523Y0126164D01*
X0047476Y0126102D01*
X0047427Y0126043D01*
X0047374Y0125986D01*
X0047319Y0125932D01*
X0047261Y0125881D01*
X0047200Y0125833D01*
X0047137Y0125788D01*
X0047072Y0125747D01*
X0047005Y0125709D01*
X0046936Y0125674D01*
X0046865Y0125644D01*
X0046793Y0125616D01*
X0046719Y0125593D01*
X0046645Y0125573D01*
X0046569Y0125557D01*
X0046493Y0125545D01*
X0046416Y0125537D01*
X0046339Y0125533D01*
X0046261Y0125533D01*
X0046184Y0125537D01*
X0046107Y0125545D01*
X0046031Y0125557D01*
X0045955Y0125573D01*
X0045881Y0125593D01*
X0045807Y0125616D01*
X0045735Y0125644D01*
X0045664Y0125674D01*
X0045595Y0125709D01*
X0045528Y0125747D01*
X0045463Y0125788D01*
X0045400Y0125833D01*
X0045339Y0125881D01*
X0045281Y0125932D01*
X0045226Y0125986D01*
X0045173Y0126043D01*
X0045124Y0126102D01*
X0045077Y0126164D01*
X0045034Y0126228D01*
X0044995Y0126294D01*
X0044958Y0126362D01*
X0044926Y0126432D01*
X0044896Y0126504D01*
X0044871Y0126577D01*
X0044849Y0126651D01*
X0044832Y0126726D01*
X0044818Y0126802D01*
X0044808Y0126879D01*
X0044802Y0126956D01*
X0044800Y0127033D01*
X0091300Y0127033D02*
X0091302Y0127110D01*
X0091308Y0127187D01*
X0091318Y0127264D01*
X0091332Y0127340D01*
X0091349Y0127415D01*
X0091371Y0127489D01*
X0091396Y0127562D01*
X0091426Y0127634D01*
X0091458Y0127704D01*
X0091495Y0127772D01*
X0091534Y0127838D01*
X0091577Y0127902D01*
X0091624Y0127964D01*
X0091673Y0128023D01*
X0091726Y0128080D01*
X0091781Y0128134D01*
X0091839Y0128185D01*
X0091900Y0128233D01*
X0091963Y0128278D01*
X0092028Y0128319D01*
X0092095Y0128357D01*
X0092164Y0128392D01*
X0092235Y0128422D01*
X0092307Y0128450D01*
X0092381Y0128473D01*
X0092455Y0128493D01*
X0092531Y0128509D01*
X0092607Y0128521D01*
X0092684Y0128529D01*
X0092761Y0128533D01*
X0092839Y0128533D01*
X0092916Y0128529D01*
X0092993Y0128521D01*
X0093069Y0128509D01*
X0093145Y0128493D01*
X0093219Y0128473D01*
X0093293Y0128450D01*
X0093365Y0128422D01*
X0093436Y0128392D01*
X0093505Y0128357D01*
X0093572Y0128319D01*
X0093637Y0128278D01*
X0093700Y0128233D01*
X0093761Y0128185D01*
X0093819Y0128134D01*
X0093874Y0128080D01*
X0093927Y0128023D01*
X0093976Y0127964D01*
X0094023Y0127902D01*
X0094066Y0127838D01*
X0094105Y0127772D01*
X0094142Y0127704D01*
X0094174Y0127634D01*
X0094204Y0127562D01*
X0094229Y0127489D01*
X0094251Y0127415D01*
X0094268Y0127340D01*
X0094282Y0127264D01*
X0094292Y0127187D01*
X0094298Y0127110D01*
X0094300Y0127033D01*
X0094298Y0126956D01*
X0094292Y0126879D01*
X0094282Y0126802D01*
X0094268Y0126726D01*
X0094251Y0126651D01*
X0094229Y0126577D01*
X0094204Y0126504D01*
X0094174Y0126432D01*
X0094142Y0126362D01*
X0094105Y0126294D01*
X0094066Y0126228D01*
X0094023Y0126164D01*
X0093976Y0126102D01*
X0093927Y0126043D01*
X0093874Y0125986D01*
X0093819Y0125932D01*
X0093761Y0125881D01*
X0093700Y0125833D01*
X0093637Y0125788D01*
X0093572Y0125747D01*
X0093505Y0125709D01*
X0093436Y0125674D01*
X0093365Y0125644D01*
X0093293Y0125616D01*
X0093219Y0125593D01*
X0093145Y0125573D01*
X0093069Y0125557D01*
X0092993Y0125545D01*
X0092916Y0125537D01*
X0092839Y0125533D01*
X0092761Y0125533D01*
X0092684Y0125537D01*
X0092607Y0125545D01*
X0092531Y0125557D01*
X0092455Y0125573D01*
X0092381Y0125593D01*
X0092307Y0125616D01*
X0092235Y0125644D01*
X0092164Y0125674D01*
X0092095Y0125709D01*
X0092028Y0125747D01*
X0091963Y0125788D01*
X0091900Y0125833D01*
X0091839Y0125881D01*
X0091781Y0125932D01*
X0091726Y0125986D01*
X0091673Y0126043D01*
X0091624Y0126102D01*
X0091577Y0126164D01*
X0091534Y0126228D01*
X0091495Y0126294D01*
X0091458Y0126362D01*
X0091426Y0126432D01*
X0091396Y0126504D01*
X0091371Y0126577D01*
X0091349Y0126651D01*
X0091332Y0126726D01*
X0091318Y0126802D01*
X0091308Y0126879D01*
X0091302Y0126956D01*
X0091300Y0127033D01*
X0091300Y0159033D02*
X0091302Y0159110D01*
X0091308Y0159187D01*
X0091318Y0159264D01*
X0091332Y0159340D01*
X0091349Y0159415D01*
X0091371Y0159489D01*
X0091396Y0159562D01*
X0091426Y0159634D01*
X0091458Y0159704D01*
X0091495Y0159772D01*
X0091534Y0159838D01*
X0091577Y0159902D01*
X0091624Y0159964D01*
X0091673Y0160023D01*
X0091726Y0160080D01*
X0091781Y0160134D01*
X0091839Y0160185D01*
X0091900Y0160233D01*
X0091963Y0160278D01*
X0092028Y0160319D01*
X0092095Y0160357D01*
X0092164Y0160392D01*
X0092235Y0160422D01*
X0092307Y0160450D01*
X0092381Y0160473D01*
X0092455Y0160493D01*
X0092531Y0160509D01*
X0092607Y0160521D01*
X0092684Y0160529D01*
X0092761Y0160533D01*
X0092839Y0160533D01*
X0092916Y0160529D01*
X0092993Y0160521D01*
X0093069Y0160509D01*
X0093145Y0160493D01*
X0093219Y0160473D01*
X0093293Y0160450D01*
X0093365Y0160422D01*
X0093436Y0160392D01*
X0093505Y0160357D01*
X0093572Y0160319D01*
X0093637Y0160278D01*
X0093700Y0160233D01*
X0093761Y0160185D01*
X0093819Y0160134D01*
X0093874Y0160080D01*
X0093927Y0160023D01*
X0093976Y0159964D01*
X0094023Y0159902D01*
X0094066Y0159838D01*
X0094105Y0159772D01*
X0094142Y0159704D01*
X0094174Y0159634D01*
X0094204Y0159562D01*
X0094229Y0159489D01*
X0094251Y0159415D01*
X0094268Y0159340D01*
X0094282Y0159264D01*
X0094292Y0159187D01*
X0094298Y0159110D01*
X0094300Y0159033D01*
X0094298Y0158956D01*
X0094292Y0158879D01*
X0094282Y0158802D01*
X0094268Y0158726D01*
X0094251Y0158651D01*
X0094229Y0158577D01*
X0094204Y0158504D01*
X0094174Y0158432D01*
X0094142Y0158362D01*
X0094105Y0158294D01*
X0094066Y0158228D01*
X0094023Y0158164D01*
X0093976Y0158102D01*
X0093927Y0158043D01*
X0093874Y0157986D01*
X0093819Y0157932D01*
X0093761Y0157881D01*
X0093700Y0157833D01*
X0093637Y0157788D01*
X0093572Y0157747D01*
X0093505Y0157709D01*
X0093436Y0157674D01*
X0093365Y0157644D01*
X0093293Y0157616D01*
X0093219Y0157593D01*
X0093145Y0157573D01*
X0093069Y0157557D01*
X0092993Y0157545D01*
X0092916Y0157537D01*
X0092839Y0157533D01*
X0092761Y0157533D01*
X0092684Y0157537D01*
X0092607Y0157545D01*
X0092531Y0157557D01*
X0092455Y0157573D01*
X0092381Y0157593D01*
X0092307Y0157616D01*
X0092235Y0157644D01*
X0092164Y0157674D01*
X0092095Y0157709D01*
X0092028Y0157747D01*
X0091963Y0157788D01*
X0091900Y0157833D01*
X0091839Y0157881D01*
X0091781Y0157932D01*
X0091726Y0157986D01*
X0091673Y0158043D01*
X0091624Y0158102D01*
X0091577Y0158164D01*
X0091534Y0158228D01*
X0091495Y0158294D01*
X0091458Y0158362D01*
X0091426Y0158432D01*
X0091396Y0158504D01*
X0091371Y0158577D01*
X0091349Y0158651D01*
X0091332Y0158726D01*
X0091318Y0158802D01*
X0091308Y0158879D01*
X0091302Y0158956D01*
X0091300Y0159033D01*
X0154800Y0159033D02*
X0154802Y0159110D01*
X0154808Y0159187D01*
X0154818Y0159264D01*
X0154832Y0159340D01*
X0154849Y0159415D01*
X0154871Y0159489D01*
X0154896Y0159562D01*
X0154926Y0159634D01*
X0154958Y0159704D01*
X0154995Y0159772D01*
X0155034Y0159838D01*
X0155077Y0159902D01*
X0155124Y0159964D01*
X0155173Y0160023D01*
X0155226Y0160080D01*
X0155281Y0160134D01*
X0155339Y0160185D01*
X0155400Y0160233D01*
X0155463Y0160278D01*
X0155528Y0160319D01*
X0155595Y0160357D01*
X0155664Y0160392D01*
X0155735Y0160422D01*
X0155807Y0160450D01*
X0155881Y0160473D01*
X0155955Y0160493D01*
X0156031Y0160509D01*
X0156107Y0160521D01*
X0156184Y0160529D01*
X0156261Y0160533D01*
X0156339Y0160533D01*
X0156416Y0160529D01*
X0156493Y0160521D01*
X0156569Y0160509D01*
X0156645Y0160493D01*
X0156719Y0160473D01*
X0156793Y0160450D01*
X0156865Y0160422D01*
X0156936Y0160392D01*
X0157005Y0160357D01*
X0157072Y0160319D01*
X0157137Y0160278D01*
X0157200Y0160233D01*
X0157261Y0160185D01*
X0157319Y0160134D01*
X0157374Y0160080D01*
X0157427Y0160023D01*
X0157476Y0159964D01*
X0157523Y0159902D01*
X0157566Y0159838D01*
X0157605Y0159772D01*
X0157642Y0159704D01*
X0157674Y0159634D01*
X0157704Y0159562D01*
X0157729Y0159489D01*
X0157751Y0159415D01*
X0157768Y0159340D01*
X0157782Y0159264D01*
X0157792Y0159187D01*
X0157798Y0159110D01*
X0157800Y0159033D01*
X0157798Y0158956D01*
X0157792Y0158879D01*
X0157782Y0158802D01*
X0157768Y0158726D01*
X0157751Y0158651D01*
X0157729Y0158577D01*
X0157704Y0158504D01*
X0157674Y0158432D01*
X0157642Y0158362D01*
X0157605Y0158294D01*
X0157566Y0158228D01*
X0157523Y0158164D01*
X0157476Y0158102D01*
X0157427Y0158043D01*
X0157374Y0157986D01*
X0157319Y0157932D01*
X0157261Y0157881D01*
X0157200Y0157833D01*
X0157137Y0157788D01*
X0157072Y0157747D01*
X0157005Y0157709D01*
X0156936Y0157674D01*
X0156865Y0157644D01*
X0156793Y0157616D01*
X0156719Y0157593D01*
X0156645Y0157573D01*
X0156569Y0157557D01*
X0156493Y0157545D01*
X0156416Y0157537D01*
X0156339Y0157533D01*
X0156261Y0157533D01*
X0156184Y0157537D01*
X0156107Y0157545D01*
X0156031Y0157557D01*
X0155955Y0157573D01*
X0155881Y0157593D01*
X0155807Y0157616D01*
X0155735Y0157644D01*
X0155664Y0157674D01*
X0155595Y0157709D01*
X0155528Y0157747D01*
X0155463Y0157788D01*
X0155400Y0157833D01*
X0155339Y0157881D01*
X0155281Y0157932D01*
X0155226Y0157986D01*
X0155173Y0158043D01*
X0155124Y0158102D01*
X0155077Y0158164D01*
X0155034Y0158228D01*
X0154995Y0158294D01*
X0154958Y0158362D01*
X0154926Y0158432D01*
X0154896Y0158504D01*
X0154871Y0158577D01*
X0154849Y0158651D01*
X0154832Y0158726D01*
X0154818Y0158802D01*
X0154808Y0158879D01*
X0154802Y0158956D01*
X0154800Y0159033D01*
X0154800Y0127033D02*
X0154802Y0127110D01*
X0154808Y0127187D01*
X0154818Y0127264D01*
X0154832Y0127340D01*
X0154849Y0127415D01*
X0154871Y0127489D01*
X0154896Y0127562D01*
X0154926Y0127634D01*
X0154958Y0127704D01*
X0154995Y0127772D01*
X0155034Y0127838D01*
X0155077Y0127902D01*
X0155124Y0127964D01*
X0155173Y0128023D01*
X0155226Y0128080D01*
X0155281Y0128134D01*
X0155339Y0128185D01*
X0155400Y0128233D01*
X0155463Y0128278D01*
X0155528Y0128319D01*
X0155595Y0128357D01*
X0155664Y0128392D01*
X0155735Y0128422D01*
X0155807Y0128450D01*
X0155881Y0128473D01*
X0155955Y0128493D01*
X0156031Y0128509D01*
X0156107Y0128521D01*
X0156184Y0128529D01*
X0156261Y0128533D01*
X0156339Y0128533D01*
X0156416Y0128529D01*
X0156493Y0128521D01*
X0156569Y0128509D01*
X0156645Y0128493D01*
X0156719Y0128473D01*
X0156793Y0128450D01*
X0156865Y0128422D01*
X0156936Y0128392D01*
X0157005Y0128357D01*
X0157072Y0128319D01*
X0157137Y0128278D01*
X0157200Y0128233D01*
X0157261Y0128185D01*
X0157319Y0128134D01*
X0157374Y0128080D01*
X0157427Y0128023D01*
X0157476Y0127964D01*
X0157523Y0127902D01*
X0157566Y0127838D01*
X0157605Y0127772D01*
X0157642Y0127704D01*
X0157674Y0127634D01*
X0157704Y0127562D01*
X0157729Y0127489D01*
X0157751Y0127415D01*
X0157768Y0127340D01*
X0157782Y0127264D01*
X0157792Y0127187D01*
X0157798Y0127110D01*
X0157800Y0127033D01*
X0157798Y0126956D01*
X0157792Y0126879D01*
X0157782Y0126802D01*
X0157768Y0126726D01*
X0157751Y0126651D01*
X0157729Y0126577D01*
X0157704Y0126504D01*
X0157674Y0126432D01*
X0157642Y0126362D01*
X0157605Y0126294D01*
X0157566Y0126228D01*
X0157523Y0126164D01*
X0157476Y0126102D01*
X0157427Y0126043D01*
X0157374Y0125986D01*
X0157319Y0125932D01*
X0157261Y0125881D01*
X0157200Y0125833D01*
X0157137Y0125788D01*
X0157072Y0125747D01*
X0157005Y0125709D01*
X0156936Y0125674D01*
X0156865Y0125644D01*
X0156793Y0125616D01*
X0156719Y0125593D01*
X0156645Y0125573D01*
X0156569Y0125557D01*
X0156493Y0125545D01*
X0156416Y0125537D01*
X0156339Y0125533D01*
X0156261Y0125533D01*
X0156184Y0125537D01*
X0156107Y0125545D01*
X0156031Y0125557D01*
X0155955Y0125573D01*
X0155881Y0125593D01*
X0155807Y0125616D01*
X0155735Y0125644D01*
X0155664Y0125674D01*
X0155595Y0125709D01*
X0155528Y0125747D01*
X0155463Y0125788D01*
X0155400Y0125833D01*
X0155339Y0125881D01*
X0155281Y0125932D01*
X0155226Y0125986D01*
X0155173Y0126043D01*
X0155124Y0126102D01*
X0155077Y0126164D01*
X0155034Y0126228D01*
X0154995Y0126294D01*
X0154958Y0126362D01*
X0154926Y0126432D01*
X0154896Y0126504D01*
X0154871Y0126577D01*
X0154849Y0126651D01*
X0154832Y0126726D01*
X0154818Y0126802D01*
X0154808Y0126879D01*
X0154802Y0126956D01*
X0154800Y0127033D01*
X0201300Y0127033D02*
X0201302Y0127110D01*
X0201308Y0127187D01*
X0201318Y0127264D01*
X0201332Y0127340D01*
X0201349Y0127415D01*
X0201371Y0127489D01*
X0201396Y0127562D01*
X0201426Y0127634D01*
X0201458Y0127704D01*
X0201495Y0127772D01*
X0201534Y0127838D01*
X0201577Y0127902D01*
X0201624Y0127964D01*
X0201673Y0128023D01*
X0201726Y0128080D01*
X0201781Y0128134D01*
X0201839Y0128185D01*
X0201900Y0128233D01*
X0201963Y0128278D01*
X0202028Y0128319D01*
X0202095Y0128357D01*
X0202164Y0128392D01*
X0202235Y0128422D01*
X0202307Y0128450D01*
X0202381Y0128473D01*
X0202455Y0128493D01*
X0202531Y0128509D01*
X0202607Y0128521D01*
X0202684Y0128529D01*
X0202761Y0128533D01*
X0202839Y0128533D01*
X0202916Y0128529D01*
X0202993Y0128521D01*
X0203069Y0128509D01*
X0203145Y0128493D01*
X0203219Y0128473D01*
X0203293Y0128450D01*
X0203365Y0128422D01*
X0203436Y0128392D01*
X0203505Y0128357D01*
X0203572Y0128319D01*
X0203637Y0128278D01*
X0203700Y0128233D01*
X0203761Y0128185D01*
X0203819Y0128134D01*
X0203874Y0128080D01*
X0203927Y0128023D01*
X0203976Y0127964D01*
X0204023Y0127902D01*
X0204066Y0127838D01*
X0204105Y0127772D01*
X0204142Y0127704D01*
X0204174Y0127634D01*
X0204204Y0127562D01*
X0204229Y0127489D01*
X0204251Y0127415D01*
X0204268Y0127340D01*
X0204282Y0127264D01*
X0204292Y0127187D01*
X0204298Y0127110D01*
X0204300Y0127033D01*
X0204298Y0126956D01*
X0204292Y0126879D01*
X0204282Y0126802D01*
X0204268Y0126726D01*
X0204251Y0126651D01*
X0204229Y0126577D01*
X0204204Y0126504D01*
X0204174Y0126432D01*
X0204142Y0126362D01*
X0204105Y0126294D01*
X0204066Y0126228D01*
X0204023Y0126164D01*
X0203976Y0126102D01*
X0203927Y0126043D01*
X0203874Y0125986D01*
X0203819Y0125932D01*
X0203761Y0125881D01*
X0203700Y0125833D01*
X0203637Y0125788D01*
X0203572Y0125747D01*
X0203505Y0125709D01*
X0203436Y0125674D01*
X0203365Y0125644D01*
X0203293Y0125616D01*
X0203219Y0125593D01*
X0203145Y0125573D01*
X0203069Y0125557D01*
X0202993Y0125545D01*
X0202916Y0125537D01*
X0202839Y0125533D01*
X0202761Y0125533D01*
X0202684Y0125537D01*
X0202607Y0125545D01*
X0202531Y0125557D01*
X0202455Y0125573D01*
X0202381Y0125593D01*
X0202307Y0125616D01*
X0202235Y0125644D01*
X0202164Y0125674D01*
X0202095Y0125709D01*
X0202028Y0125747D01*
X0201963Y0125788D01*
X0201900Y0125833D01*
X0201839Y0125881D01*
X0201781Y0125932D01*
X0201726Y0125986D01*
X0201673Y0126043D01*
X0201624Y0126102D01*
X0201577Y0126164D01*
X0201534Y0126228D01*
X0201495Y0126294D01*
X0201458Y0126362D01*
X0201426Y0126432D01*
X0201396Y0126504D01*
X0201371Y0126577D01*
X0201349Y0126651D01*
X0201332Y0126726D01*
X0201318Y0126802D01*
X0201308Y0126879D01*
X0201302Y0126956D01*
X0201300Y0127033D01*
X0201300Y0159033D02*
X0201302Y0159110D01*
X0201308Y0159187D01*
X0201318Y0159264D01*
X0201332Y0159340D01*
X0201349Y0159415D01*
X0201371Y0159489D01*
X0201396Y0159562D01*
X0201426Y0159634D01*
X0201458Y0159704D01*
X0201495Y0159772D01*
X0201534Y0159838D01*
X0201577Y0159902D01*
X0201624Y0159964D01*
X0201673Y0160023D01*
X0201726Y0160080D01*
X0201781Y0160134D01*
X0201839Y0160185D01*
X0201900Y0160233D01*
X0201963Y0160278D01*
X0202028Y0160319D01*
X0202095Y0160357D01*
X0202164Y0160392D01*
X0202235Y0160422D01*
X0202307Y0160450D01*
X0202381Y0160473D01*
X0202455Y0160493D01*
X0202531Y0160509D01*
X0202607Y0160521D01*
X0202684Y0160529D01*
X0202761Y0160533D01*
X0202839Y0160533D01*
X0202916Y0160529D01*
X0202993Y0160521D01*
X0203069Y0160509D01*
X0203145Y0160493D01*
X0203219Y0160473D01*
X0203293Y0160450D01*
X0203365Y0160422D01*
X0203436Y0160392D01*
X0203505Y0160357D01*
X0203572Y0160319D01*
X0203637Y0160278D01*
X0203700Y0160233D01*
X0203761Y0160185D01*
X0203819Y0160134D01*
X0203874Y0160080D01*
X0203927Y0160023D01*
X0203976Y0159964D01*
X0204023Y0159902D01*
X0204066Y0159838D01*
X0204105Y0159772D01*
X0204142Y0159704D01*
X0204174Y0159634D01*
X0204204Y0159562D01*
X0204229Y0159489D01*
X0204251Y0159415D01*
X0204268Y0159340D01*
X0204282Y0159264D01*
X0204292Y0159187D01*
X0204298Y0159110D01*
X0204300Y0159033D01*
X0204298Y0158956D01*
X0204292Y0158879D01*
X0204282Y0158802D01*
X0204268Y0158726D01*
X0204251Y0158651D01*
X0204229Y0158577D01*
X0204204Y0158504D01*
X0204174Y0158432D01*
X0204142Y0158362D01*
X0204105Y0158294D01*
X0204066Y0158228D01*
X0204023Y0158164D01*
X0203976Y0158102D01*
X0203927Y0158043D01*
X0203874Y0157986D01*
X0203819Y0157932D01*
X0203761Y0157881D01*
X0203700Y0157833D01*
X0203637Y0157788D01*
X0203572Y0157747D01*
X0203505Y0157709D01*
X0203436Y0157674D01*
X0203365Y0157644D01*
X0203293Y0157616D01*
X0203219Y0157593D01*
X0203145Y0157573D01*
X0203069Y0157557D01*
X0202993Y0157545D01*
X0202916Y0157537D01*
X0202839Y0157533D01*
X0202761Y0157533D01*
X0202684Y0157537D01*
X0202607Y0157545D01*
X0202531Y0157557D01*
X0202455Y0157573D01*
X0202381Y0157593D01*
X0202307Y0157616D01*
X0202235Y0157644D01*
X0202164Y0157674D01*
X0202095Y0157709D01*
X0202028Y0157747D01*
X0201963Y0157788D01*
X0201900Y0157833D01*
X0201839Y0157881D01*
X0201781Y0157932D01*
X0201726Y0157986D01*
X0201673Y0158043D01*
X0201624Y0158102D01*
X0201577Y0158164D01*
X0201534Y0158228D01*
X0201495Y0158294D01*
X0201458Y0158362D01*
X0201426Y0158432D01*
X0201396Y0158504D01*
X0201371Y0158577D01*
X0201349Y0158651D01*
X0201332Y0158726D01*
X0201318Y0158802D01*
X0201308Y0158879D01*
X0201302Y0158956D01*
X0201300Y0159033D01*
X0264800Y0159033D02*
X0264802Y0159110D01*
X0264808Y0159187D01*
X0264818Y0159264D01*
X0264832Y0159340D01*
X0264849Y0159415D01*
X0264871Y0159489D01*
X0264896Y0159562D01*
X0264926Y0159634D01*
X0264958Y0159704D01*
X0264995Y0159772D01*
X0265034Y0159838D01*
X0265077Y0159902D01*
X0265124Y0159964D01*
X0265173Y0160023D01*
X0265226Y0160080D01*
X0265281Y0160134D01*
X0265339Y0160185D01*
X0265400Y0160233D01*
X0265463Y0160278D01*
X0265528Y0160319D01*
X0265595Y0160357D01*
X0265664Y0160392D01*
X0265735Y0160422D01*
X0265807Y0160450D01*
X0265881Y0160473D01*
X0265955Y0160493D01*
X0266031Y0160509D01*
X0266107Y0160521D01*
X0266184Y0160529D01*
X0266261Y0160533D01*
X0266339Y0160533D01*
X0266416Y0160529D01*
X0266493Y0160521D01*
X0266569Y0160509D01*
X0266645Y0160493D01*
X0266719Y0160473D01*
X0266793Y0160450D01*
X0266865Y0160422D01*
X0266936Y0160392D01*
X0267005Y0160357D01*
X0267072Y0160319D01*
X0267137Y0160278D01*
X0267200Y0160233D01*
X0267261Y0160185D01*
X0267319Y0160134D01*
X0267374Y0160080D01*
X0267427Y0160023D01*
X0267476Y0159964D01*
X0267523Y0159902D01*
X0267566Y0159838D01*
X0267605Y0159772D01*
X0267642Y0159704D01*
X0267674Y0159634D01*
X0267704Y0159562D01*
X0267729Y0159489D01*
X0267751Y0159415D01*
X0267768Y0159340D01*
X0267782Y0159264D01*
X0267792Y0159187D01*
X0267798Y0159110D01*
X0267800Y0159033D01*
X0267798Y0158956D01*
X0267792Y0158879D01*
X0267782Y0158802D01*
X0267768Y0158726D01*
X0267751Y0158651D01*
X0267729Y0158577D01*
X0267704Y0158504D01*
X0267674Y0158432D01*
X0267642Y0158362D01*
X0267605Y0158294D01*
X0267566Y0158228D01*
X0267523Y0158164D01*
X0267476Y0158102D01*
X0267427Y0158043D01*
X0267374Y0157986D01*
X0267319Y0157932D01*
X0267261Y0157881D01*
X0267200Y0157833D01*
X0267137Y0157788D01*
X0267072Y0157747D01*
X0267005Y0157709D01*
X0266936Y0157674D01*
X0266865Y0157644D01*
X0266793Y0157616D01*
X0266719Y0157593D01*
X0266645Y0157573D01*
X0266569Y0157557D01*
X0266493Y0157545D01*
X0266416Y0157537D01*
X0266339Y0157533D01*
X0266261Y0157533D01*
X0266184Y0157537D01*
X0266107Y0157545D01*
X0266031Y0157557D01*
X0265955Y0157573D01*
X0265881Y0157593D01*
X0265807Y0157616D01*
X0265735Y0157644D01*
X0265664Y0157674D01*
X0265595Y0157709D01*
X0265528Y0157747D01*
X0265463Y0157788D01*
X0265400Y0157833D01*
X0265339Y0157881D01*
X0265281Y0157932D01*
X0265226Y0157986D01*
X0265173Y0158043D01*
X0265124Y0158102D01*
X0265077Y0158164D01*
X0265034Y0158228D01*
X0264995Y0158294D01*
X0264958Y0158362D01*
X0264926Y0158432D01*
X0264896Y0158504D01*
X0264871Y0158577D01*
X0264849Y0158651D01*
X0264832Y0158726D01*
X0264818Y0158802D01*
X0264808Y0158879D01*
X0264802Y0158956D01*
X0264800Y0159033D01*
X0264800Y0127033D02*
X0264802Y0127110D01*
X0264808Y0127187D01*
X0264818Y0127264D01*
X0264832Y0127340D01*
X0264849Y0127415D01*
X0264871Y0127489D01*
X0264896Y0127562D01*
X0264926Y0127634D01*
X0264958Y0127704D01*
X0264995Y0127772D01*
X0265034Y0127838D01*
X0265077Y0127902D01*
X0265124Y0127964D01*
X0265173Y0128023D01*
X0265226Y0128080D01*
X0265281Y0128134D01*
X0265339Y0128185D01*
X0265400Y0128233D01*
X0265463Y0128278D01*
X0265528Y0128319D01*
X0265595Y0128357D01*
X0265664Y0128392D01*
X0265735Y0128422D01*
X0265807Y0128450D01*
X0265881Y0128473D01*
X0265955Y0128493D01*
X0266031Y0128509D01*
X0266107Y0128521D01*
X0266184Y0128529D01*
X0266261Y0128533D01*
X0266339Y0128533D01*
X0266416Y0128529D01*
X0266493Y0128521D01*
X0266569Y0128509D01*
X0266645Y0128493D01*
X0266719Y0128473D01*
X0266793Y0128450D01*
X0266865Y0128422D01*
X0266936Y0128392D01*
X0267005Y0128357D01*
X0267072Y0128319D01*
X0267137Y0128278D01*
X0267200Y0128233D01*
X0267261Y0128185D01*
X0267319Y0128134D01*
X0267374Y0128080D01*
X0267427Y0128023D01*
X0267476Y0127964D01*
X0267523Y0127902D01*
X0267566Y0127838D01*
X0267605Y0127772D01*
X0267642Y0127704D01*
X0267674Y0127634D01*
X0267704Y0127562D01*
X0267729Y0127489D01*
X0267751Y0127415D01*
X0267768Y0127340D01*
X0267782Y0127264D01*
X0267792Y0127187D01*
X0267798Y0127110D01*
X0267800Y0127033D01*
X0267798Y0126956D01*
X0267792Y0126879D01*
X0267782Y0126802D01*
X0267768Y0126726D01*
X0267751Y0126651D01*
X0267729Y0126577D01*
X0267704Y0126504D01*
X0267674Y0126432D01*
X0267642Y0126362D01*
X0267605Y0126294D01*
X0267566Y0126228D01*
X0267523Y0126164D01*
X0267476Y0126102D01*
X0267427Y0126043D01*
X0267374Y0125986D01*
X0267319Y0125932D01*
X0267261Y0125881D01*
X0267200Y0125833D01*
X0267137Y0125788D01*
X0267072Y0125747D01*
X0267005Y0125709D01*
X0266936Y0125674D01*
X0266865Y0125644D01*
X0266793Y0125616D01*
X0266719Y0125593D01*
X0266645Y0125573D01*
X0266569Y0125557D01*
X0266493Y0125545D01*
X0266416Y0125537D01*
X0266339Y0125533D01*
X0266261Y0125533D01*
X0266184Y0125537D01*
X0266107Y0125545D01*
X0266031Y0125557D01*
X0265955Y0125573D01*
X0265881Y0125593D01*
X0265807Y0125616D01*
X0265735Y0125644D01*
X0265664Y0125674D01*
X0265595Y0125709D01*
X0265528Y0125747D01*
X0265463Y0125788D01*
X0265400Y0125833D01*
X0265339Y0125881D01*
X0265281Y0125932D01*
X0265226Y0125986D01*
X0265173Y0126043D01*
X0265124Y0126102D01*
X0265077Y0126164D01*
X0265034Y0126228D01*
X0264995Y0126294D01*
X0264958Y0126362D01*
X0264926Y0126432D01*
X0264896Y0126504D01*
X0264871Y0126577D01*
X0264849Y0126651D01*
X0264832Y0126726D01*
X0264818Y0126802D01*
X0264808Y0126879D01*
X0264802Y0126956D01*
X0264800Y0127033D01*
X0311300Y0127033D02*
X0311302Y0127110D01*
X0311308Y0127187D01*
X0311318Y0127264D01*
X0311332Y0127340D01*
X0311349Y0127415D01*
X0311371Y0127489D01*
X0311396Y0127562D01*
X0311426Y0127634D01*
X0311458Y0127704D01*
X0311495Y0127772D01*
X0311534Y0127838D01*
X0311577Y0127902D01*
X0311624Y0127964D01*
X0311673Y0128023D01*
X0311726Y0128080D01*
X0311781Y0128134D01*
X0311839Y0128185D01*
X0311900Y0128233D01*
X0311963Y0128278D01*
X0312028Y0128319D01*
X0312095Y0128357D01*
X0312164Y0128392D01*
X0312235Y0128422D01*
X0312307Y0128450D01*
X0312381Y0128473D01*
X0312455Y0128493D01*
X0312531Y0128509D01*
X0312607Y0128521D01*
X0312684Y0128529D01*
X0312761Y0128533D01*
X0312839Y0128533D01*
X0312916Y0128529D01*
X0312993Y0128521D01*
X0313069Y0128509D01*
X0313145Y0128493D01*
X0313219Y0128473D01*
X0313293Y0128450D01*
X0313365Y0128422D01*
X0313436Y0128392D01*
X0313505Y0128357D01*
X0313572Y0128319D01*
X0313637Y0128278D01*
X0313700Y0128233D01*
X0313761Y0128185D01*
X0313819Y0128134D01*
X0313874Y0128080D01*
X0313927Y0128023D01*
X0313976Y0127964D01*
X0314023Y0127902D01*
X0314066Y0127838D01*
X0314105Y0127772D01*
X0314142Y0127704D01*
X0314174Y0127634D01*
X0314204Y0127562D01*
X0314229Y0127489D01*
X0314251Y0127415D01*
X0314268Y0127340D01*
X0314282Y0127264D01*
X0314292Y0127187D01*
X0314298Y0127110D01*
X0314300Y0127033D01*
X0314298Y0126956D01*
X0314292Y0126879D01*
X0314282Y0126802D01*
X0314268Y0126726D01*
X0314251Y0126651D01*
X0314229Y0126577D01*
X0314204Y0126504D01*
X0314174Y0126432D01*
X0314142Y0126362D01*
X0314105Y0126294D01*
X0314066Y0126228D01*
X0314023Y0126164D01*
X0313976Y0126102D01*
X0313927Y0126043D01*
X0313874Y0125986D01*
X0313819Y0125932D01*
X0313761Y0125881D01*
X0313700Y0125833D01*
X0313637Y0125788D01*
X0313572Y0125747D01*
X0313505Y0125709D01*
X0313436Y0125674D01*
X0313365Y0125644D01*
X0313293Y0125616D01*
X0313219Y0125593D01*
X0313145Y0125573D01*
X0313069Y0125557D01*
X0312993Y0125545D01*
X0312916Y0125537D01*
X0312839Y0125533D01*
X0312761Y0125533D01*
X0312684Y0125537D01*
X0312607Y0125545D01*
X0312531Y0125557D01*
X0312455Y0125573D01*
X0312381Y0125593D01*
X0312307Y0125616D01*
X0312235Y0125644D01*
X0312164Y0125674D01*
X0312095Y0125709D01*
X0312028Y0125747D01*
X0311963Y0125788D01*
X0311900Y0125833D01*
X0311839Y0125881D01*
X0311781Y0125932D01*
X0311726Y0125986D01*
X0311673Y0126043D01*
X0311624Y0126102D01*
X0311577Y0126164D01*
X0311534Y0126228D01*
X0311495Y0126294D01*
X0311458Y0126362D01*
X0311426Y0126432D01*
X0311396Y0126504D01*
X0311371Y0126577D01*
X0311349Y0126651D01*
X0311332Y0126726D01*
X0311318Y0126802D01*
X0311308Y0126879D01*
X0311302Y0126956D01*
X0311300Y0127033D01*
X0311300Y0159033D02*
X0311302Y0159110D01*
X0311308Y0159187D01*
X0311318Y0159264D01*
X0311332Y0159340D01*
X0311349Y0159415D01*
X0311371Y0159489D01*
X0311396Y0159562D01*
X0311426Y0159634D01*
X0311458Y0159704D01*
X0311495Y0159772D01*
X0311534Y0159838D01*
X0311577Y0159902D01*
X0311624Y0159964D01*
X0311673Y0160023D01*
X0311726Y0160080D01*
X0311781Y0160134D01*
X0311839Y0160185D01*
X0311900Y0160233D01*
X0311963Y0160278D01*
X0312028Y0160319D01*
X0312095Y0160357D01*
X0312164Y0160392D01*
X0312235Y0160422D01*
X0312307Y0160450D01*
X0312381Y0160473D01*
X0312455Y0160493D01*
X0312531Y0160509D01*
X0312607Y0160521D01*
X0312684Y0160529D01*
X0312761Y0160533D01*
X0312839Y0160533D01*
X0312916Y0160529D01*
X0312993Y0160521D01*
X0313069Y0160509D01*
X0313145Y0160493D01*
X0313219Y0160473D01*
X0313293Y0160450D01*
X0313365Y0160422D01*
X0313436Y0160392D01*
X0313505Y0160357D01*
X0313572Y0160319D01*
X0313637Y0160278D01*
X0313700Y0160233D01*
X0313761Y0160185D01*
X0313819Y0160134D01*
X0313874Y0160080D01*
X0313927Y0160023D01*
X0313976Y0159964D01*
X0314023Y0159902D01*
X0314066Y0159838D01*
X0314105Y0159772D01*
X0314142Y0159704D01*
X0314174Y0159634D01*
X0314204Y0159562D01*
X0314229Y0159489D01*
X0314251Y0159415D01*
X0314268Y0159340D01*
X0314282Y0159264D01*
X0314292Y0159187D01*
X0314298Y0159110D01*
X0314300Y0159033D01*
X0314298Y0158956D01*
X0314292Y0158879D01*
X0314282Y0158802D01*
X0314268Y0158726D01*
X0314251Y0158651D01*
X0314229Y0158577D01*
X0314204Y0158504D01*
X0314174Y0158432D01*
X0314142Y0158362D01*
X0314105Y0158294D01*
X0314066Y0158228D01*
X0314023Y0158164D01*
X0313976Y0158102D01*
X0313927Y0158043D01*
X0313874Y0157986D01*
X0313819Y0157932D01*
X0313761Y0157881D01*
X0313700Y0157833D01*
X0313637Y0157788D01*
X0313572Y0157747D01*
X0313505Y0157709D01*
X0313436Y0157674D01*
X0313365Y0157644D01*
X0313293Y0157616D01*
X0313219Y0157593D01*
X0313145Y0157573D01*
X0313069Y0157557D01*
X0312993Y0157545D01*
X0312916Y0157537D01*
X0312839Y0157533D01*
X0312761Y0157533D01*
X0312684Y0157537D01*
X0312607Y0157545D01*
X0312531Y0157557D01*
X0312455Y0157573D01*
X0312381Y0157593D01*
X0312307Y0157616D01*
X0312235Y0157644D01*
X0312164Y0157674D01*
X0312095Y0157709D01*
X0312028Y0157747D01*
X0311963Y0157788D01*
X0311900Y0157833D01*
X0311839Y0157881D01*
X0311781Y0157932D01*
X0311726Y0157986D01*
X0311673Y0158043D01*
X0311624Y0158102D01*
X0311577Y0158164D01*
X0311534Y0158228D01*
X0311495Y0158294D01*
X0311458Y0158362D01*
X0311426Y0158432D01*
X0311396Y0158504D01*
X0311371Y0158577D01*
X0311349Y0158651D01*
X0311332Y0158726D01*
X0311318Y0158802D01*
X0311308Y0158879D01*
X0311302Y0158956D01*
X0311300Y0159033D01*
D14*
X0315400Y0157737D02*
X0315400Y0155268D01*
X0316634Y0154033D01*
X0319103Y0156502D02*
X0319103Y0157737D01*
X0317869Y0158971D01*
X0316634Y0158971D01*
X0315400Y0157737D01*
X0319103Y0157737D02*
X0320338Y0158971D01*
X0321572Y0158971D01*
X0322806Y0157737D01*
X0322806Y0155268D01*
X0321572Y0154033D01*
X0321072Y0149122D02*
X0319838Y0149122D01*
X0314900Y0144185D01*
X0314900Y0149122D01*
X0321072Y0149122D02*
X0322306Y0147888D01*
X0322306Y0145419D01*
X0321072Y0144185D01*
X0321072Y0141572D02*
X0319838Y0141572D01*
X0318603Y0140338D01*
X0317369Y0141572D01*
X0316134Y0141572D01*
X0314900Y0140338D01*
X0314900Y0137869D01*
X0316134Y0136634D01*
X0314900Y0134021D02*
X0314900Y0129084D01*
X0319838Y0134021D01*
X0321072Y0134021D01*
X0322306Y0132787D01*
X0322306Y0130318D01*
X0321072Y0129084D01*
X0321072Y0126471D02*
X0319838Y0126471D01*
X0318603Y0125237D01*
X0317369Y0126471D01*
X0316134Y0126471D01*
X0314900Y0125237D01*
X0314900Y0122768D01*
X0316134Y0121533D01*
X0318603Y0124002D02*
X0318603Y0125237D01*
X0321072Y0126471D02*
X0322306Y0125237D01*
X0322306Y0122768D01*
X0321072Y0121533D01*
X0321072Y0136634D02*
X0322306Y0137869D01*
X0322306Y0140338D01*
X0321072Y0141572D01*
X0318603Y0140338D02*
X0318603Y0139103D01*
X0321572Y0161584D02*
X0322806Y0162818D01*
X0322806Y0165287D01*
X0321572Y0166521D01*
X0320338Y0166521D01*
X0315400Y0161584D01*
X0315400Y0166521D01*
X0316634Y0169134D02*
X0315400Y0170369D01*
X0315400Y0172838D01*
X0316634Y0174072D01*
X0317869Y0174072D01*
X0319103Y0172838D01*
X0319103Y0171603D01*
X0319103Y0172838D02*
X0320338Y0174072D01*
X0321572Y0174072D01*
X0322806Y0172838D01*
X0322806Y0170369D01*
X0321572Y0169134D01*
X0321572Y0176685D02*
X0322806Y0177919D01*
X0322806Y0180388D01*
X0321572Y0181622D01*
X0320338Y0181622D01*
X0315400Y0176685D01*
X0315400Y0181622D01*
X0319343Y0195990D02*
X0319343Y0233077D01*
X0282217Y0233077D01*
X0282217Y0195990D01*
X0319343Y0195990D01*
X0275806Y0181388D02*
X0275806Y0178919D01*
X0274572Y0177685D01*
X0274572Y0175072D02*
X0273338Y0175072D01*
X0272103Y0173838D01*
X0270869Y0175072D01*
X0269634Y0175072D01*
X0268400Y0173838D01*
X0268400Y0171369D01*
X0269634Y0170134D01*
X0268400Y0167521D02*
X0268400Y0162584D01*
X0273338Y0167521D01*
X0274572Y0167521D01*
X0275806Y0166287D01*
X0275806Y0163818D01*
X0274572Y0162584D01*
X0274572Y0159971D02*
X0273338Y0159971D01*
X0272103Y0158737D01*
X0270869Y0159971D01*
X0269634Y0159971D01*
X0268400Y0158737D01*
X0268400Y0156268D01*
X0269634Y0155033D01*
X0272103Y0157502D02*
X0272103Y0158737D01*
X0274572Y0159971D02*
X0275806Y0158737D01*
X0275806Y0156268D01*
X0274572Y0155033D01*
X0274338Y0149622D02*
X0275572Y0149622D01*
X0276806Y0148388D01*
X0276806Y0145919D01*
X0275572Y0144685D01*
X0275572Y0142072D02*
X0274338Y0142072D01*
X0273103Y0140838D01*
X0271869Y0142072D01*
X0270634Y0142072D01*
X0269400Y0140838D01*
X0269400Y0138369D01*
X0270634Y0137134D01*
X0269400Y0134521D02*
X0269400Y0129584D01*
X0274338Y0134521D01*
X0275572Y0134521D01*
X0276806Y0133287D01*
X0276806Y0130818D01*
X0275572Y0129584D01*
X0275572Y0126971D02*
X0274338Y0126971D01*
X0273103Y0125737D01*
X0271869Y0126971D01*
X0270634Y0126971D01*
X0269400Y0125737D01*
X0269400Y0123268D01*
X0270634Y0122033D01*
X0273103Y0124502D02*
X0273103Y0125737D01*
X0275572Y0126971D02*
X0276806Y0125737D01*
X0276806Y0123268D01*
X0275572Y0122033D01*
X0275572Y0137134D02*
X0276806Y0138369D01*
X0276806Y0140838D01*
X0275572Y0142072D01*
X0273103Y0140838D02*
X0273103Y0139603D01*
X0269400Y0144685D02*
X0274338Y0149622D01*
X0269400Y0149622D02*
X0269400Y0144685D01*
X0274572Y0170134D02*
X0275806Y0171369D01*
X0275806Y0173838D01*
X0274572Y0175072D01*
X0272103Y0173838D02*
X0272103Y0172603D01*
X0268400Y0177685D02*
X0273338Y0182622D01*
X0274572Y0182622D01*
X0275806Y0181388D01*
X0268400Y0182622D02*
X0268400Y0177685D01*
X0211806Y0178419D02*
X0210572Y0177185D01*
X0211806Y0178419D02*
X0211806Y0180888D01*
X0210572Y0182122D01*
X0209338Y0182122D01*
X0204400Y0177185D01*
X0204400Y0182122D01*
X0205634Y0174572D02*
X0204400Y0173338D01*
X0204400Y0170869D01*
X0205634Y0169634D01*
X0204400Y0167021D02*
X0204400Y0162084D01*
X0209338Y0167021D01*
X0210572Y0167021D01*
X0211806Y0165787D01*
X0211806Y0163318D01*
X0210572Y0162084D01*
X0210572Y0159471D02*
X0209338Y0159471D01*
X0208103Y0158237D01*
X0206869Y0159471D01*
X0205634Y0159471D01*
X0204400Y0158237D01*
X0204400Y0155768D01*
X0205634Y0154533D01*
X0208103Y0157002D02*
X0208103Y0158237D01*
X0210572Y0159471D02*
X0211806Y0158237D01*
X0211806Y0155768D01*
X0210572Y0154533D01*
X0211072Y0150122D02*
X0209838Y0150122D01*
X0204900Y0145185D01*
X0204900Y0150122D01*
X0211072Y0150122D02*
X0212306Y0148888D01*
X0212306Y0146419D01*
X0211072Y0145185D01*
X0211072Y0142572D02*
X0209838Y0142572D01*
X0208603Y0141338D01*
X0207369Y0142572D01*
X0206134Y0142572D01*
X0204900Y0141338D01*
X0204900Y0138869D01*
X0206134Y0137634D01*
X0204900Y0135021D02*
X0204900Y0130084D01*
X0209838Y0135021D01*
X0211072Y0135021D01*
X0212306Y0133787D01*
X0212306Y0131318D01*
X0211072Y0130084D01*
X0211072Y0127471D02*
X0209838Y0127471D01*
X0208603Y0126237D01*
X0207369Y0127471D01*
X0206134Y0127471D01*
X0204900Y0126237D01*
X0204900Y0123768D01*
X0206134Y0122533D01*
X0208603Y0125002D02*
X0208603Y0126237D01*
X0211072Y0127471D02*
X0212306Y0126237D01*
X0212306Y0123768D01*
X0211072Y0122533D01*
X0211072Y0137634D02*
X0212306Y0138869D01*
X0212306Y0141338D01*
X0211072Y0142572D01*
X0208603Y0141338D02*
X0208603Y0140103D01*
X0210572Y0169634D02*
X0211806Y0170869D01*
X0211806Y0173338D01*
X0210572Y0174572D01*
X0209338Y0174572D01*
X0208103Y0173338D01*
X0206869Y0174572D01*
X0205634Y0174572D01*
X0208103Y0173338D02*
X0208103Y0172103D01*
X0209343Y0195990D02*
X0209343Y0233077D01*
X0172217Y0233077D01*
X0172217Y0195990D01*
X0209343Y0195990D01*
X0165806Y0180888D02*
X0165806Y0178419D01*
X0164572Y0177185D01*
X0164572Y0174572D02*
X0163338Y0174572D01*
X0162103Y0173338D01*
X0160869Y0174572D01*
X0159634Y0174572D01*
X0158400Y0173338D01*
X0158400Y0170869D01*
X0159634Y0169634D01*
X0158400Y0167021D02*
X0158400Y0162084D01*
X0163338Y0167021D01*
X0164572Y0167021D01*
X0165806Y0165787D01*
X0165806Y0163318D01*
X0164572Y0162084D01*
X0164572Y0159471D02*
X0163338Y0159471D01*
X0162103Y0158237D01*
X0160869Y0159471D01*
X0159634Y0159471D01*
X0158400Y0158237D01*
X0158400Y0155768D01*
X0159634Y0154533D01*
X0162103Y0157002D02*
X0162103Y0158237D01*
X0164572Y0159471D02*
X0165806Y0158237D01*
X0165806Y0155768D01*
X0164572Y0154533D01*
X0164572Y0149622D02*
X0163338Y0149622D01*
X0158400Y0144685D01*
X0158400Y0149622D01*
X0164572Y0149622D02*
X0165806Y0148388D01*
X0165806Y0145919D01*
X0164572Y0144685D01*
X0164572Y0142072D02*
X0163338Y0142072D01*
X0162103Y0140838D01*
X0160869Y0142072D01*
X0159634Y0142072D01*
X0158400Y0140838D01*
X0158400Y0138369D01*
X0159634Y0137134D01*
X0158400Y0134521D02*
X0158400Y0129584D01*
X0163338Y0134521D01*
X0164572Y0134521D01*
X0165806Y0133287D01*
X0165806Y0130818D01*
X0164572Y0129584D01*
X0164572Y0126971D02*
X0163338Y0126971D01*
X0162103Y0125737D01*
X0160869Y0126971D01*
X0159634Y0126971D01*
X0158400Y0125737D01*
X0158400Y0123268D01*
X0159634Y0122033D01*
X0162103Y0124502D02*
X0162103Y0125737D01*
X0164572Y0126971D02*
X0165806Y0125737D01*
X0165806Y0123268D01*
X0164572Y0122033D01*
X0164572Y0137134D02*
X0165806Y0138369D01*
X0165806Y0140838D01*
X0164572Y0142072D01*
X0162103Y0140838D02*
X0162103Y0139603D01*
X0164572Y0169634D02*
X0165806Y0170869D01*
X0165806Y0173338D01*
X0164572Y0174572D01*
X0162103Y0173338D02*
X0162103Y0172103D01*
X0158400Y0177185D02*
X0163338Y0182122D01*
X0164572Y0182122D01*
X0165806Y0180888D01*
X0158400Y0182122D02*
X0158400Y0177185D01*
X0102306Y0178919D02*
X0101072Y0177685D01*
X0102306Y0178919D02*
X0102306Y0181388D01*
X0101072Y0182622D01*
X0099838Y0182622D01*
X0094900Y0177685D01*
X0094900Y0182622D01*
X0096134Y0175072D02*
X0094900Y0173838D01*
X0094900Y0171369D01*
X0096134Y0170134D01*
X0094900Y0167521D02*
X0094900Y0162584D01*
X0099838Y0167521D01*
X0101072Y0167521D01*
X0102306Y0166287D01*
X0102306Y0163818D01*
X0101072Y0162584D01*
X0101072Y0159971D02*
X0099838Y0159971D01*
X0098603Y0158737D01*
X0097369Y0159971D01*
X0096134Y0159971D01*
X0094900Y0158737D01*
X0094900Y0156268D01*
X0096134Y0155033D01*
X0098603Y0157502D02*
X0098603Y0158737D01*
X0101072Y0159971D02*
X0102306Y0158737D01*
X0102306Y0156268D01*
X0101072Y0155033D01*
X0100072Y0148622D02*
X0101306Y0147388D01*
X0101306Y0144919D01*
X0100072Y0143685D01*
X0100072Y0141072D02*
X0098838Y0141072D01*
X0097603Y0139838D01*
X0096369Y0141072D01*
X0095134Y0141072D01*
X0093900Y0139838D01*
X0093900Y0137369D01*
X0095134Y0136134D01*
X0093900Y0133521D02*
X0093900Y0128584D01*
X0098838Y0133521D01*
X0100072Y0133521D01*
X0101306Y0132287D01*
X0101306Y0129818D01*
X0100072Y0128584D01*
X0100072Y0125971D02*
X0098838Y0125971D01*
X0097603Y0124737D01*
X0096369Y0125971D01*
X0095134Y0125971D01*
X0093900Y0124737D01*
X0093900Y0122268D01*
X0095134Y0121033D01*
X0097603Y0123502D02*
X0097603Y0124737D01*
X0100072Y0125971D02*
X0101306Y0124737D01*
X0101306Y0122268D01*
X0100072Y0121033D01*
X0100072Y0136134D02*
X0101306Y0137369D01*
X0101306Y0139838D01*
X0100072Y0141072D01*
X0097603Y0139838D02*
X0097603Y0138603D01*
X0093900Y0143685D02*
X0098838Y0148622D01*
X0100072Y0148622D01*
X0093900Y0148622D02*
X0093900Y0143685D01*
X0101072Y0170134D02*
X0102306Y0171369D01*
X0102306Y0173838D01*
X0101072Y0175072D01*
X0099838Y0175072D01*
X0098603Y0173838D01*
X0097369Y0175072D01*
X0096134Y0175072D01*
X0098603Y0173838D02*
X0098603Y0172603D01*
X0099343Y0195990D02*
X0099343Y0233077D01*
X0062217Y0233077D01*
X0062217Y0195990D01*
X0099343Y0195990D01*
X0055806Y0181388D02*
X0055806Y0178919D01*
X0054572Y0177685D01*
X0054572Y0175072D02*
X0053338Y0175072D01*
X0052103Y0173838D01*
X0050869Y0175072D01*
X0049634Y0175072D01*
X0048400Y0173838D01*
X0048400Y0171369D01*
X0049634Y0170134D01*
X0048400Y0167521D02*
X0048400Y0162584D01*
X0053338Y0167521D01*
X0054572Y0167521D01*
X0055806Y0166287D01*
X0055806Y0163818D01*
X0054572Y0162584D01*
X0054572Y0159971D02*
X0053338Y0159971D01*
X0052103Y0158737D01*
X0050869Y0159971D01*
X0049634Y0159971D01*
X0048400Y0158737D01*
X0048400Y0156268D01*
X0049634Y0155033D01*
X0052103Y0157502D02*
X0052103Y0158737D01*
X0054572Y0159971D02*
X0055806Y0158737D01*
X0055806Y0156268D01*
X0054572Y0155033D01*
X0054572Y0149122D02*
X0053338Y0149122D01*
X0048400Y0144185D01*
X0048400Y0149122D01*
X0054572Y0149122D02*
X0055806Y0147888D01*
X0055806Y0145419D01*
X0054572Y0144185D01*
X0054572Y0141572D02*
X0053338Y0141572D01*
X0052103Y0140338D01*
X0050869Y0141572D01*
X0049634Y0141572D01*
X0048400Y0140338D01*
X0048400Y0137869D01*
X0049634Y0136634D01*
X0048400Y0134021D02*
X0048400Y0129084D01*
X0053338Y0134021D01*
X0054572Y0134021D01*
X0055806Y0132787D01*
X0055806Y0130318D01*
X0054572Y0129084D01*
X0054572Y0126471D02*
X0053338Y0126471D01*
X0052103Y0125237D01*
X0050869Y0126471D01*
X0049634Y0126471D01*
X0048400Y0125237D01*
X0048400Y0122768D01*
X0049634Y0121533D01*
X0052103Y0124002D02*
X0052103Y0125237D01*
X0054572Y0126471D02*
X0055806Y0125237D01*
X0055806Y0122768D01*
X0054572Y0121533D01*
X0054572Y0136634D02*
X0055806Y0137869D01*
X0055806Y0140338D01*
X0054572Y0141572D01*
X0052103Y0140338D02*
X0052103Y0139103D01*
X0054572Y0170134D02*
X0055806Y0171369D01*
X0055806Y0173838D01*
X0054572Y0175072D01*
X0052103Y0173838D02*
X0052103Y0172603D01*
X0048400Y0177685D02*
X0053338Y0182622D01*
X0054572Y0182622D01*
X0055806Y0181388D01*
X0048400Y0182622D02*
X0048400Y0177685D01*
D15*
X0064067Y0229298D02*
X0064069Y0229386D01*
X0064075Y0229474D01*
X0064085Y0229562D01*
X0064099Y0229650D01*
X0064116Y0229736D01*
X0064138Y0229822D01*
X0064163Y0229906D01*
X0064193Y0229990D01*
X0064225Y0230072D01*
X0064262Y0230152D01*
X0064302Y0230231D01*
X0064346Y0230308D01*
X0064393Y0230383D01*
X0064443Y0230455D01*
X0064497Y0230526D01*
X0064553Y0230593D01*
X0064613Y0230659D01*
X0064675Y0230721D01*
X0064741Y0230781D01*
X0064808Y0230837D01*
X0064879Y0230891D01*
X0064951Y0230941D01*
X0065026Y0230988D01*
X0065103Y0231032D01*
X0065182Y0231072D01*
X0065262Y0231109D01*
X0065344Y0231141D01*
X0065428Y0231171D01*
X0065512Y0231196D01*
X0065598Y0231218D01*
X0065684Y0231235D01*
X0065772Y0231249D01*
X0065860Y0231259D01*
X0065948Y0231265D01*
X0066036Y0231267D01*
X0066124Y0231265D01*
X0066212Y0231259D01*
X0066300Y0231249D01*
X0066388Y0231235D01*
X0066474Y0231218D01*
X0066560Y0231196D01*
X0066644Y0231171D01*
X0066728Y0231141D01*
X0066810Y0231109D01*
X0066890Y0231072D01*
X0066969Y0231032D01*
X0067046Y0230988D01*
X0067121Y0230941D01*
X0067193Y0230891D01*
X0067264Y0230837D01*
X0067331Y0230781D01*
X0067397Y0230721D01*
X0067459Y0230659D01*
X0067519Y0230593D01*
X0067575Y0230526D01*
X0067629Y0230455D01*
X0067679Y0230383D01*
X0067726Y0230308D01*
X0067770Y0230231D01*
X0067810Y0230152D01*
X0067847Y0230072D01*
X0067879Y0229990D01*
X0067909Y0229906D01*
X0067934Y0229822D01*
X0067956Y0229736D01*
X0067973Y0229650D01*
X0067987Y0229562D01*
X0067997Y0229474D01*
X0068003Y0229386D01*
X0068005Y0229298D01*
X0068003Y0229210D01*
X0067997Y0229122D01*
X0067987Y0229034D01*
X0067973Y0228946D01*
X0067956Y0228860D01*
X0067934Y0228774D01*
X0067909Y0228690D01*
X0067879Y0228606D01*
X0067847Y0228524D01*
X0067810Y0228444D01*
X0067770Y0228365D01*
X0067726Y0228288D01*
X0067679Y0228213D01*
X0067629Y0228141D01*
X0067575Y0228070D01*
X0067519Y0228003D01*
X0067459Y0227937D01*
X0067397Y0227875D01*
X0067331Y0227815D01*
X0067264Y0227759D01*
X0067193Y0227705D01*
X0067121Y0227655D01*
X0067046Y0227608D01*
X0066969Y0227564D01*
X0066890Y0227524D01*
X0066810Y0227487D01*
X0066728Y0227455D01*
X0066644Y0227425D01*
X0066560Y0227400D01*
X0066474Y0227378D01*
X0066388Y0227361D01*
X0066300Y0227347D01*
X0066212Y0227337D01*
X0066124Y0227331D01*
X0066036Y0227329D01*
X0065948Y0227331D01*
X0065860Y0227337D01*
X0065772Y0227347D01*
X0065684Y0227361D01*
X0065598Y0227378D01*
X0065512Y0227400D01*
X0065428Y0227425D01*
X0065344Y0227455D01*
X0065262Y0227487D01*
X0065182Y0227524D01*
X0065103Y0227564D01*
X0065026Y0227608D01*
X0064951Y0227655D01*
X0064879Y0227705D01*
X0064808Y0227759D01*
X0064741Y0227815D01*
X0064675Y0227875D01*
X0064613Y0227937D01*
X0064553Y0228003D01*
X0064497Y0228070D01*
X0064443Y0228141D01*
X0064393Y0228213D01*
X0064346Y0228288D01*
X0064302Y0228365D01*
X0064262Y0228444D01*
X0064225Y0228524D01*
X0064193Y0228606D01*
X0064163Y0228690D01*
X0064138Y0228774D01*
X0064116Y0228860D01*
X0064099Y0228946D01*
X0064085Y0229034D01*
X0064075Y0229122D01*
X0064069Y0229210D01*
X0064067Y0229298D01*
X0174067Y0229298D02*
X0174069Y0229386D01*
X0174075Y0229474D01*
X0174085Y0229562D01*
X0174099Y0229650D01*
X0174116Y0229736D01*
X0174138Y0229822D01*
X0174163Y0229906D01*
X0174193Y0229990D01*
X0174225Y0230072D01*
X0174262Y0230152D01*
X0174302Y0230231D01*
X0174346Y0230308D01*
X0174393Y0230383D01*
X0174443Y0230455D01*
X0174497Y0230526D01*
X0174553Y0230593D01*
X0174613Y0230659D01*
X0174675Y0230721D01*
X0174741Y0230781D01*
X0174808Y0230837D01*
X0174879Y0230891D01*
X0174951Y0230941D01*
X0175026Y0230988D01*
X0175103Y0231032D01*
X0175182Y0231072D01*
X0175262Y0231109D01*
X0175344Y0231141D01*
X0175428Y0231171D01*
X0175512Y0231196D01*
X0175598Y0231218D01*
X0175684Y0231235D01*
X0175772Y0231249D01*
X0175860Y0231259D01*
X0175948Y0231265D01*
X0176036Y0231267D01*
X0176124Y0231265D01*
X0176212Y0231259D01*
X0176300Y0231249D01*
X0176388Y0231235D01*
X0176474Y0231218D01*
X0176560Y0231196D01*
X0176644Y0231171D01*
X0176728Y0231141D01*
X0176810Y0231109D01*
X0176890Y0231072D01*
X0176969Y0231032D01*
X0177046Y0230988D01*
X0177121Y0230941D01*
X0177193Y0230891D01*
X0177264Y0230837D01*
X0177331Y0230781D01*
X0177397Y0230721D01*
X0177459Y0230659D01*
X0177519Y0230593D01*
X0177575Y0230526D01*
X0177629Y0230455D01*
X0177679Y0230383D01*
X0177726Y0230308D01*
X0177770Y0230231D01*
X0177810Y0230152D01*
X0177847Y0230072D01*
X0177879Y0229990D01*
X0177909Y0229906D01*
X0177934Y0229822D01*
X0177956Y0229736D01*
X0177973Y0229650D01*
X0177987Y0229562D01*
X0177997Y0229474D01*
X0178003Y0229386D01*
X0178005Y0229298D01*
X0178003Y0229210D01*
X0177997Y0229122D01*
X0177987Y0229034D01*
X0177973Y0228946D01*
X0177956Y0228860D01*
X0177934Y0228774D01*
X0177909Y0228690D01*
X0177879Y0228606D01*
X0177847Y0228524D01*
X0177810Y0228444D01*
X0177770Y0228365D01*
X0177726Y0228288D01*
X0177679Y0228213D01*
X0177629Y0228141D01*
X0177575Y0228070D01*
X0177519Y0228003D01*
X0177459Y0227937D01*
X0177397Y0227875D01*
X0177331Y0227815D01*
X0177264Y0227759D01*
X0177193Y0227705D01*
X0177121Y0227655D01*
X0177046Y0227608D01*
X0176969Y0227564D01*
X0176890Y0227524D01*
X0176810Y0227487D01*
X0176728Y0227455D01*
X0176644Y0227425D01*
X0176560Y0227400D01*
X0176474Y0227378D01*
X0176388Y0227361D01*
X0176300Y0227347D01*
X0176212Y0227337D01*
X0176124Y0227331D01*
X0176036Y0227329D01*
X0175948Y0227331D01*
X0175860Y0227337D01*
X0175772Y0227347D01*
X0175684Y0227361D01*
X0175598Y0227378D01*
X0175512Y0227400D01*
X0175428Y0227425D01*
X0175344Y0227455D01*
X0175262Y0227487D01*
X0175182Y0227524D01*
X0175103Y0227564D01*
X0175026Y0227608D01*
X0174951Y0227655D01*
X0174879Y0227705D01*
X0174808Y0227759D01*
X0174741Y0227815D01*
X0174675Y0227875D01*
X0174613Y0227937D01*
X0174553Y0228003D01*
X0174497Y0228070D01*
X0174443Y0228141D01*
X0174393Y0228213D01*
X0174346Y0228288D01*
X0174302Y0228365D01*
X0174262Y0228444D01*
X0174225Y0228524D01*
X0174193Y0228606D01*
X0174163Y0228690D01*
X0174138Y0228774D01*
X0174116Y0228860D01*
X0174099Y0228946D01*
X0174085Y0229034D01*
X0174075Y0229122D01*
X0174069Y0229210D01*
X0174067Y0229298D01*
X0284067Y0229298D02*
X0284069Y0229386D01*
X0284075Y0229474D01*
X0284085Y0229562D01*
X0284099Y0229650D01*
X0284116Y0229736D01*
X0284138Y0229822D01*
X0284163Y0229906D01*
X0284193Y0229990D01*
X0284225Y0230072D01*
X0284262Y0230152D01*
X0284302Y0230231D01*
X0284346Y0230308D01*
X0284393Y0230383D01*
X0284443Y0230455D01*
X0284497Y0230526D01*
X0284553Y0230593D01*
X0284613Y0230659D01*
X0284675Y0230721D01*
X0284741Y0230781D01*
X0284808Y0230837D01*
X0284879Y0230891D01*
X0284951Y0230941D01*
X0285026Y0230988D01*
X0285103Y0231032D01*
X0285182Y0231072D01*
X0285262Y0231109D01*
X0285344Y0231141D01*
X0285428Y0231171D01*
X0285512Y0231196D01*
X0285598Y0231218D01*
X0285684Y0231235D01*
X0285772Y0231249D01*
X0285860Y0231259D01*
X0285948Y0231265D01*
X0286036Y0231267D01*
X0286124Y0231265D01*
X0286212Y0231259D01*
X0286300Y0231249D01*
X0286388Y0231235D01*
X0286474Y0231218D01*
X0286560Y0231196D01*
X0286644Y0231171D01*
X0286728Y0231141D01*
X0286810Y0231109D01*
X0286890Y0231072D01*
X0286969Y0231032D01*
X0287046Y0230988D01*
X0287121Y0230941D01*
X0287193Y0230891D01*
X0287264Y0230837D01*
X0287331Y0230781D01*
X0287397Y0230721D01*
X0287459Y0230659D01*
X0287519Y0230593D01*
X0287575Y0230526D01*
X0287629Y0230455D01*
X0287679Y0230383D01*
X0287726Y0230308D01*
X0287770Y0230231D01*
X0287810Y0230152D01*
X0287847Y0230072D01*
X0287879Y0229990D01*
X0287909Y0229906D01*
X0287934Y0229822D01*
X0287956Y0229736D01*
X0287973Y0229650D01*
X0287987Y0229562D01*
X0287997Y0229474D01*
X0288003Y0229386D01*
X0288005Y0229298D01*
X0288003Y0229210D01*
X0287997Y0229122D01*
X0287987Y0229034D01*
X0287973Y0228946D01*
X0287956Y0228860D01*
X0287934Y0228774D01*
X0287909Y0228690D01*
X0287879Y0228606D01*
X0287847Y0228524D01*
X0287810Y0228444D01*
X0287770Y0228365D01*
X0287726Y0228288D01*
X0287679Y0228213D01*
X0287629Y0228141D01*
X0287575Y0228070D01*
X0287519Y0228003D01*
X0287459Y0227937D01*
X0287397Y0227875D01*
X0287331Y0227815D01*
X0287264Y0227759D01*
X0287193Y0227705D01*
X0287121Y0227655D01*
X0287046Y0227608D01*
X0286969Y0227564D01*
X0286890Y0227524D01*
X0286810Y0227487D01*
X0286728Y0227455D01*
X0286644Y0227425D01*
X0286560Y0227400D01*
X0286474Y0227378D01*
X0286388Y0227361D01*
X0286300Y0227347D01*
X0286212Y0227337D01*
X0286124Y0227331D01*
X0286036Y0227329D01*
X0285948Y0227331D01*
X0285860Y0227337D01*
X0285772Y0227347D01*
X0285684Y0227361D01*
X0285598Y0227378D01*
X0285512Y0227400D01*
X0285428Y0227425D01*
X0285344Y0227455D01*
X0285262Y0227487D01*
X0285182Y0227524D01*
X0285103Y0227564D01*
X0285026Y0227608D01*
X0284951Y0227655D01*
X0284879Y0227705D01*
X0284808Y0227759D01*
X0284741Y0227815D01*
X0284675Y0227875D01*
X0284613Y0227937D01*
X0284553Y0228003D01*
X0284497Y0228070D01*
X0284443Y0228141D01*
X0284393Y0228213D01*
X0284346Y0228288D01*
X0284302Y0228365D01*
X0284262Y0228444D01*
X0284225Y0228524D01*
X0284193Y0228606D01*
X0284163Y0228690D01*
X0284138Y0228774D01*
X0284116Y0228860D01*
X0284099Y0228946D01*
X0284085Y0229034D01*
X0284075Y0229122D01*
X0284069Y0229210D01*
X0284067Y0229298D01*
D16*
X0290887Y0228806D02*
X0291504Y0228188D01*
X0290887Y0228806D02*
X0290887Y0230040D01*
X0291504Y0230657D01*
X0292121Y0230657D01*
X0292739Y0230040D01*
X0292739Y0229423D01*
X0292739Y0230040D02*
X0293356Y0230657D01*
X0293973Y0230657D01*
X0294590Y0230040D01*
X0294590Y0228806D01*
X0293973Y0228188D01*
X0294590Y0226967D02*
X0294590Y0225733D01*
X0294590Y0226350D02*
X0290887Y0226350D01*
X0290887Y0225733D02*
X0290887Y0226967D01*
X0291504Y0224519D02*
X0293973Y0224519D01*
X0294590Y0223901D01*
X0294590Y0222050D01*
X0290887Y0222050D01*
X0290887Y0223901D01*
X0291504Y0224519D01*
X0294590Y0220835D02*
X0294590Y0218367D01*
X0294590Y0217152D02*
X0294590Y0214683D01*
X0290887Y0214683D01*
X0292739Y0214683D02*
X0292739Y0215918D01*
X0294590Y0219601D02*
X0290887Y0219601D01*
X0272449Y0247010D02*
X0272449Y0248945D01*
X0271482Y0249913D01*
X0270514Y0248945D01*
X0270514Y0247010D01*
X0269503Y0247494D02*
X0269019Y0247010D01*
X0268051Y0247010D01*
X0267568Y0247494D01*
X0267568Y0247978D01*
X0268051Y0248461D01*
X0269019Y0248461D01*
X0269503Y0248945D01*
X0269503Y0249429D01*
X0269019Y0249913D01*
X0268051Y0249913D01*
X0267568Y0249429D01*
X0266556Y0249913D02*
X0264621Y0249913D01*
X0263610Y0249913D02*
X0263610Y0247010D01*
X0261675Y0247010D01*
X0260663Y0247010D02*
X0258728Y0247010D01*
X0259696Y0247010D02*
X0259696Y0249913D01*
X0260663Y0248945D01*
X0257717Y0248461D02*
X0255782Y0248461D01*
X0254770Y0248945D02*
X0253803Y0249913D01*
X0253803Y0247010D01*
X0254770Y0247010D02*
X0252835Y0247010D01*
X0251824Y0247010D02*
X0249889Y0248945D01*
X0249889Y0249429D01*
X0250372Y0249913D01*
X0251340Y0249913D01*
X0251824Y0249429D01*
X0251824Y0247010D02*
X0249889Y0247010D01*
X0248877Y0247010D02*
X0248393Y0247010D01*
X0248393Y0247494D01*
X0248877Y0247494D01*
X0248877Y0247010D01*
X0247404Y0247494D02*
X0245469Y0249429D01*
X0245469Y0247494D01*
X0245953Y0247010D01*
X0246920Y0247010D01*
X0247404Y0247494D01*
X0247404Y0249429D01*
X0246920Y0249913D01*
X0245953Y0249913D01*
X0245469Y0249429D01*
X0244457Y0249429D02*
X0243974Y0249913D01*
X0243006Y0249913D01*
X0242522Y0249429D01*
X0244457Y0247494D01*
X0243974Y0247010D01*
X0243006Y0247010D01*
X0242522Y0247494D01*
X0242522Y0249429D01*
X0241511Y0249429D02*
X0241027Y0249913D01*
X0240060Y0249913D01*
X0239576Y0249429D01*
X0241511Y0247494D01*
X0241027Y0247010D01*
X0240060Y0247010D01*
X0239576Y0247494D01*
X0239576Y0249429D01*
X0241511Y0249429D02*
X0241511Y0247494D01*
X0244457Y0247494D02*
X0244457Y0249429D01*
X0265589Y0248461D02*
X0266556Y0248461D01*
X0266556Y0247010D02*
X0266556Y0249913D01*
X0270514Y0248461D02*
X0272449Y0248461D01*
X0183090Y0230540D02*
X0183090Y0229306D01*
X0182473Y0228688D01*
X0183090Y0227467D02*
X0183090Y0226233D01*
X0183090Y0226850D02*
X0179387Y0226850D01*
X0179387Y0226233D02*
X0179387Y0227467D01*
X0179387Y0228688D02*
X0181856Y0231157D01*
X0182473Y0231157D01*
X0183090Y0230540D01*
X0179387Y0231157D02*
X0179387Y0228688D01*
X0180004Y0225019D02*
X0182473Y0225019D01*
X0183090Y0224401D01*
X0183090Y0222550D01*
X0179387Y0222550D01*
X0179387Y0224401D01*
X0180004Y0225019D01*
X0183090Y0221335D02*
X0183090Y0218867D01*
X0183090Y0217652D02*
X0183090Y0215183D01*
X0179387Y0215183D01*
X0181239Y0215183D02*
X0181239Y0216418D01*
X0183090Y0220101D02*
X0179387Y0220101D01*
X0193150Y0155799D02*
X0196286Y0152663D01*
X0194718Y0152663D02*
X0194718Y0155799D01*
X0196286Y0155799D02*
X0193150Y0152663D01*
X0193150Y0154231D02*
X0196286Y0154231D01*
X0196286Y0123799D02*
X0193150Y0120663D01*
X0194718Y0120663D02*
X0194718Y0123799D01*
X0193150Y0123799D02*
X0196286Y0120663D01*
X0196286Y0122231D02*
X0193150Y0122231D01*
X0149786Y0122231D02*
X0146650Y0122231D01*
X0146650Y0120663D02*
X0149786Y0123799D01*
X0148218Y0123799D02*
X0148218Y0120663D01*
X0149786Y0120663D02*
X0146650Y0123799D01*
X0146650Y0152663D02*
X0149786Y0155799D01*
X0149786Y0154231D02*
X0146650Y0154231D01*
X0146650Y0155799D02*
X0149786Y0152663D01*
X0148218Y0152663D02*
X0148218Y0155799D01*
X0086286Y0155799D02*
X0083150Y0152663D01*
X0084718Y0152663D02*
X0084718Y0155799D01*
X0083150Y0155799D02*
X0086286Y0152663D01*
X0086286Y0154231D02*
X0083150Y0154231D01*
X0083150Y0123799D02*
X0086286Y0120663D01*
X0084718Y0120663D02*
X0084718Y0123799D01*
X0086286Y0123799D02*
X0083150Y0120663D01*
X0083150Y0122231D02*
X0086286Y0122231D01*
X0039786Y0122231D02*
X0036650Y0122231D01*
X0036650Y0120663D02*
X0039786Y0123799D01*
X0038218Y0123799D02*
X0038218Y0120663D01*
X0039786Y0120663D02*
X0036650Y0123799D01*
X0036650Y0152663D02*
X0039786Y0155799D01*
X0039786Y0154231D02*
X0036650Y0154231D01*
X0036650Y0155799D02*
X0039786Y0152663D01*
X0038218Y0152663D02*
X0038218Y0155799D01*
X0069387Y0214183D02*
X0073090Y0214183D01*
X0073090Y0216652D01*
X0073090Y0217867D02*
X0073090Y0220335D01*
X0073090Y0221550D02*
X0073090Y0223401D01*
X0072473Y0224019D01*
X0070004Y0224019D01*
X0069387Y0223401D01*
X0069387Y0221550D01*
X0073090Y0221550D01*
X0073090Y0219101D02*
X0069387Y0219101D01*
X0071239Y0215418D02*
X0071239Y0214183D01*
X0073090Y0225233D02*
X0073090Y0226467D01*
X0073090Y0225850D02*
X0069387Y0225850D01*
X0069387Y0225233D02*
X0069387Y0226467D01*
X0069387Y0227688D02*
X0069387Y0230157D01*
X0069387Y0228923D02*
X0073090Y0228923D01*
X0071856Y0227688D01*
X0256650Y0155799D02*
X0259786Y0152663D01*
X0258218Y0152663D02*
X0258218Y0155799D01*
X0259786Y0155799D02*
X0256650Y0152663D01*
X0256650Y0154231D02*
X0259786Y0154231D01*
X0259786Y0123799D02*
X0256650Y0120663D01*
X0258218Y0120663D02*
X0258218Y0123799D01*
X0256650Y0123799D02*
X0259786Y0120663D01*
X0259786Y0122231D02*
X0256650Y0122231D01*
X0303150Y0122231D02*
X0306286Y0122231D01*
X0306286Y0120663D02*
X0303150Y0123799D01*
X0304718Y0123799D02*
X0304718Y0120663D01*
X0303150Y0120663D02*
X0306286Y0123799D01*
X0306286Y0152663D02*
X0303150Y0155799D01*
X0303150Y0154231D02*
X0306286Y0154231D01*
X0306286Y0155799D02*
X0303150Y0152663D01*
X0304718Y0152663D02*
X0304718Y0155799D01*
D17*
X0310400Y0156533D02*
X0316600Y0156533D01*
X0319000Y0156533D01*
X0325200Y0156533D01*
X0325200Y0144533D02*
X0310400Y0144533D01*
X0310400Y0124533D02*
X0316600Y0124533D01*
X0319000Y0124533D01*
X0325200Y0124533D01*
X0333200Y0140133D02*
X0333200Y0141633D01*
X0334200Y0141633D01*
X0334200Y0140133D01*
X0334200Y0172133D02*
X0334200Y0173633D01*
X0333200Y0173633D01*
X0333200Y0172133D01*
X0325200Y0176533D02*
X0310400Y0176533D01*
X0287700Y0173633D02*
X0286700Y0173633D01*
X0286700Y0172133D01*
X0287700Y0172133D02*
X0287700Y0173633D01*
X0278700Y0176533D02*
X0263900Y0176533D01*
X0263900Y0156533D02*
X0270100Y0156533D01*
X0272500Y0156533D01*
X0278700Y0156533D01*
X0278700Y0144533D02*
X0263900Y0144533D01*
X0263900Y0124533D02*
X0270100Y0124533D01*
X0272500Y0124533D01*
X0278700Y0124533D01*
X0286700Y0140133D02*
X0286700Y0141633D01*
X0287700Y0141633D01*
X0287700Y0140133D01*
X0224200Y0140133D02*
X0224200Y0141633D01*
X0223200Y0141633D01*
X0223200Y0140133D01*
X0215200Y0144533D02*
X0200400Y0144533D01*
X0200400Y0156533D02*
X0206600Y0156533D01*
X0209000Y0156533D01*
X0215200Y0156533D01*
X0223200Y0172133D02*
X0223200Y0173633D01*
X0224200Y0173633D01*
X0224200Y0172133D01*
X0215200Y0176533D02*
X0200400Y0176533D01*
X0177700Y0173633D02*
X0176700Y0173633D01*
X0176700Y0172133D01*
X0177700Y0172133D02*
X0177700Y0173633D01*
X0168700Y0176533D02*
X0153900Y0176533D01*
X0153900Y0156533D02*
X0160100Y0156533D01*
X0162500Y0156533D01*
X0168700Y0156533D01*
X0168700Y0144533D02*
X0153900Y0144533D01*
X0153900Y0124533D02*
X0160100Y0124533D01*
X0162500Y0124533D01*
X0168700Y0124533D01*
X0176700Y0140133D02*
X0176700Y0141633D01*
X0177700Y0141633D01*
X0177700Y0140133D01*
X0200400Y0124533D02*
X0206600Y0124533D01*
X0209000Y0124533D01*
X0215200Y0124533D01*
X0114200Y0140133D02*
X0114200Y0141633D01*
X0113200Y0141633D01*
X0113200Y0140133D01*
X0105200Y0144533D02*
X0090400Y0144533D01*
X0090400Y0156533D02*
X0096600Y0156533D01*
X0099000Y0156533D01*
X0105200Y0156533D01*
X0113200Y0172133D02*
X0113200Y0173633D01*
X0114200Y0173633D01*
X0114200Y0172133D01*
X0105200Y0176533D02*
X0090400Y0176533D01*
X0067700Y0173633D02*
X0066700Y0173633D01*
X0066700Y0172133D01*
X0067700Y0172133D02*
X0067700Y0173633D01*
X0058700Y0176533D02*
X0043900Y0176533D01*
X0043900Y0156533D02*
X0050100Y0156533D01*
X0052500Y0156533D01*
X0058700Y0156533D01*
X0058700Y0144533D02*
X0043900Y0144533D01*
X0043900Y0124533D02*
X0050100Y0124533D01*
X0052500Y0124533D01*
X0058700Y0124533D01*
X0066700Y0140133D02*
X0066700Y0141633D01*
X0067700Y0141633D01*
X0067700Y0140133D01*
X0090400Y0124533D02*
X0096600Y0124533D01*
X0099000Y0124533D01*
X0105200Y0124533D01*
M02*
