G75*
%MOIN*%
%OFA0B0*%
%FSLAX25Y25*%
%IPPOS*%
%LPD*%
%AMOC8*
5,1,8,0,0,1.08239X$1,22.5*
%
%ADD10C,0.00000*%
%ADD11OC8,0.06000*%
%ADD12C,0.13398*%
D10*
X0058548Y0001256D02*
X0058548Y0119327D01*
X0090792Y0119327D01*
X0090792Y0001256D01*
X0058548Y0001256D01*
X0068390Y0017398D02*
X0068392Y0017556D01*
X0068398Y0017714D01*
X0068408Y0017872D01*
X0068422Y0018030D01*
X0068440Y0018187D01*
X0068461Y0018344D01*
X0068487Y0018500D01*
X0068517Y0018656D01*
X0068550Y0018811D01*
X0068588Y0018964D01*
X0068629Y0019117D01*
X0068674Y0019269D01*
X0068723Y0019420D01*
X0068776Y0019569D01*
X0068832Y0019717D01*
X0068892Y0019863D01*
X0068956Y0020008D01*
X0069024Y0020151D01*
X0069095Y0020293D01*
X0069169Y0020433D01*
X0069247Y0020570D01*
X0069329Y0020706D01*
X0069413Y0020840D01*
X0069502Y0020971D01*
X0069593Y0021100D01*
X0069688Y0021227D01*
X0069785Y0021352D01*
X0069886Y0021474D01*
X0069990Y0021593D01*
X0070097Y0021710D01*
X0070207Y0021824D01*
X0070320Y0021935D01*
X0070435Y0022044D01*
X0070553Y0022149D01*
X0070674Y0022251D01*
X0070797Y0022351D01*
X0070923Y0022447D01*
X0071051Y0022540D01*
X0071181Y0022630D01*
X0071314Y0022716D01*
X0071449Y0022800D01*
X0071585Y0022879D01*
X0071724Y0022956D01*
X0071865Y0023028D01*
X0072007Y0023098D01*
X0072151Y0023163D01*
X0072297Y0023225D01*
X0072444Y0023283D01*
X0072593Y0023338D01*
X0072743Y0023389D01*
X0072894Y0023436D01*
X0073046Y0023479D01*
X0073199Y0023518D01*
X0073354Y0023554D01*
X0073509Y0023585D01*
X0073665Y0023613D01*
X0073821Y0023637D01*
X0073978Y0023657D01*
X0074136Y0023673D01*
X0074293Y0023685D01*
X0074452Y0023693D01*
X0074610Y0023697D01*
X0074768Y0023697D01*
X0074926Y0023693D01*
X0075085Y0023685D01*
X0075242Y0023673D01*
X0075400Y0023657D01*
X0075557Y0023637D01*
X0075713Y0023613D01*
X0075869Y0023585D01*
X0076024Y0023554D01*
X0076179Y0023518D01*
X0076332Y0023479D01*
X0076484Y0023436D01*
X0076635Y0023389D01*
X0076785Y0023338D01*
X0076934Y0023283D01*
X0077081Y0023225D01*
X0077227Y0023163D01*
X0077371Y0023098D01*
X0077513Y0023028D01*
X0077654Y0022956D01*
X0077793Y0022879D01*
X0077929Y0022800D01*
X0078064Y0022716D01*
X0078197Y0022630D01*
X0078327Y0022540D01*
X0078455Y0022447D01*
X0078581Y0022351D01*
X0078704Y0022251D01*
X0078825Y0022149D01*
X0078943Y0022044D01*
X0079058Y0021935D01*
X0079171Y0021824D01*
X0079281Y0021710D01*
X0079388Y0021593D01*
X0079492Y0021474D01*
X0079593Y0021352D01*
X0079690Y0021227D01*
X0079785Y0021100D01*
X0079876Y0020971D01*
X0079965Y0020840D01*
X0080049Y0020706D01*
X0080131Y0020570D01*
X0080209Y0020433D01*
X0080283Y0020293D01*
X0080354Y0020151D01*
X0080422Y0020008D01*
X0080486Y0019863D01*
X0080546Y0019717D01*
X0080602Y0019569D01*
X0080655Y0019420D01*
X0080704Y0019269D01*
X0080749Y0019117D01*
X0080790Y0018964D01*
X0080828Y0018811D01*
X0080861Y0018656D01*
X0080891Y0018500D01*
X0080917Y0018344D01*
X0080938Y0018187D01*
X0080956Y0018030D01*
X0080970Y0017872D01*
X0080980Y0017714D01*
X0080986Y0017556D01*
X0080988Y0017398D01*
X0080986Y0017240D01*
X0080980Y0017082D01*
X0080970Y0016924D01*
X0080956Y0016766D01*
X0080938Y0016609D01*
X0080917Y0016452D01*
X0080891Y0016296D01*
X0080861Y0016140D01*
X0080828Y0015985D01*
X0080790Y0015832D01*
X0080749Y0015679D01*
X0080704Y0015527D01*
X0080655Y0015376D01*
X0080602Y0015227D01*
X0080546Y0015079D01*
X0080486Y0014933D01*
X0080422Y0014788D01*
X0080354Y0014645D01*
X0080283Y0014503D01*
X0080209Y0014363D01*
X0080131Y0014226D01*
X0080049Y0014090D01*
X0079965Y0013956D01*
X0079876Y0013825D01*
X0079785Y0013696D01*
X0079690Y0013569D01*
X0079593Y0013444D01*
X0079492Y0013322D01*
X0079388Y0013203D01*
X0079281Y0013086D01*
X0079171Y0012972D01*
X0079058Y0012861D01*
X0078943Y0012752D01*
X0078825Y0012647D01*
X0078704Y0012545D01*
X0078581Y0012445D01*
X0078455Y0012349D01*
X0078327Y0012256D01*
X0078197Y0012166D01*
X0078064Y0012080D01*
X0077929Y0011996D01*
X0077793Y0011917D01*
X0077654Y0011840D01*
X0077513Y0011768D01*
X0077371Y0011698D01*
X0077227Y0011633D01*
X0077081Y0011571D01*
X0076934Y0011513D01*
X0076785Y0011458D01*
X0076635Y0011407D01*
X0076484Y0011360D01*
X0076332Y0011317D01*
X0076179Y0011278D01*
X0076024Y0011242D01*
X0075869Y0011211D01*
X0075713Y0011183D01*
X0075557Y0011159D01*
X0075400Y0011139D01*
X0075242Y0011123D01*
X0075085Y0011111D01*
X0074926Y0011103D01*
X0074768Y0011099D01*
X0074610Y0011099D01*
X0074452Y0011103D01*
X0074293Y0011111D01*
X0074136Y0011123D01*
X0073978Y0011139D01*
X0073821Y0011159D01*
X0073665Y0011183D01*
X0073509Y0011211D01*
X0073354Y0011242D01*
X0073199Y0011278D01*
X0073046Y0011317D01*
X0072894Y0011360D01*
X0072743Y0011407D01*
X0072593Y0011458D01*
X0072444Y0011513D01*
X0072297Y0011571D01*
X0072151Y0011633D01*
X0072007Y0011698D01*
X0071865Y0011768D01*
X0071724Y0011840D01*
X0071585Y0011917D01*
X0071449Y0011996D01*
X0071314Y0012080D01*
X0071181Y0012166D01*
X0071051Y0012256D01*
X0070923Y0012349D01*
X0070797Y0012445D01*
X0070674Y0012545D01*
X0070553Y0012647D01*
X0070435Y0012752D01*
X0070320Y0012861D01*
X0070207Y0012972D01*
X0070097Y0013086D01*
X0069990Y0013203D01*
X0069886Y0013322D01*
X0069785Y0013444D01*
X0069688Y0013569D01*
X0069593Y0013696D01*
X0069502Y0013825D01*
X0069413Y0013956D01*
X0069329Y0014090D01*
X0069247Y0014226D01*
X0069169Y0014363D01*
X0069095Y0014503D01*
X0069024Y0014645D01*
X0068956Y0014788D01*
X0068892Y0014933D01*
X0068832Y0015079D01*
X0068776Y0015227D01*
X0068723Y0015376D01*
X0068674Y0015527D01*
X0068629Y0015679D01*
X0068588Y0015832D01*
X0068550Y0015985D01*
X0068517Y0016140D01*
X0068487Y0016296D01*
X0068461Y0016452D01*
X0068440Y0016609D01*
X0068422Y0016766D01*
X0068408Y0016924D01*
X0068398Y0017082D01*
X0068392Y0017240D01*
X0068390Y0017398D01*
X0068508Y0103185D02*
X0068510Y0103343D01*
X0068516Y0103501D01*
X0068526Y0103659D01*
X0068540Y0103817D01*
X0068558Y0103974D01*
X0068579Y0104131D01*
X0068605Y0104287D01*
X0068635Y0104443D01*
X0068668Y0104598D01*
X0068706Y0104751D01*
X0068747Y0104904D01*
X0068792Y0105056D01*
X0068841Y0105207D01*
X0068894Y0105356D01*
X0068950Y0105504D01*
X0069010Y0105650D01*
X0069074Y0105795D01*
X0069142Y0105938D01*
X0069213Y0106080D01*
X0069287Y0106220D01*
X0069365Y0106357D01*
X0069447Y0106493D01*
X0069531Y0106627D01*
X0069620Y0106758D01*
X0069711Y0106887D01*
X0069806Y0107014D01*
X0069903Y0107139D01*
X0070004Y0107261D01*
X0070108Y0107380D01*
X0070215Y0107497D01*
X0070325Y0107611D01*
X0070438Y0107722D01*
X0070553Y0107831D01*
X0070671Y0107936D01*
X0070792Y0108038D01*
X0070915Y0108138D01*
X0071041Y0108234D01*
X0071169Y0108327D01*
X0071299Y0108417D01*
X0071432Y0108503D01*
X0071567Y0108587D01*
X0071703Y0108666D01*
X0071842Y0108743D01*
X0071983Y0108815D01*
X0072125Y0108885D01*
X0072269Y0108950D01*
X0072415Y0109012D01*
X0072562Y0109070D01*
X0072711Y0109125D01*
X0072861Y0109176D01*
X0073012Y0109223D01*
X0073164Y0109266D01*
X0073317Y0109305D01*
X0073472Y0109341D01*
X0073627Y0109372D01*
X0073783Y0109400D01*
X0073939Y0109424D01*
X0074096Y0109444D01*
X0074254Y0109460D01*
X0074411Y0109472D01*
X0074570Y0109480D01*
X0074728Y0109484D01*
X0074886Y0109484D01*
X0075044Y0109480D01*
X0075203Y0109472D01*
X0075360Y0109460D01*
X0075518Y0109444D01*
X0075675Y0109424D01*
X0075831Y0109400D01*
X0075987Y0109372D01*
X0076142Y0109341D01*
X0076297Y0109305D01*
X0076450Y0109266D01*
X0076602Y0109223D01*
X0076753Y0109176D01*
X0076903Y0109125D01*
X0077052Y0109070D01*
X0077199Y0109012D01*
X0077345Y0108950D01*
X0077489Y0108885D01*
X0077631Y0108815D01*
X0077772Y0108743D01*
X0077911Y0108666D01*
X0078047Y0108587D01*
X0078182Y0108503D01*
X0078315Y0108417D01*
X0078445Y0108327D01*
X0078573Y0108234D01*
X0078699Y0108138D01*
X0078822Y0108038D01*
X0078943Y0107936D01*
X0079061Y0107831D01*
X0079176Y0107722D01*
X0079289Y0107611D01*
X0079399Y0107497D01*
X0079506Y0107380D01*
X0079610Y0107261D01*
X0079711Y0107139D01*
X0079808Y0107014D01*
X0079903Y0106887D01*
X0079994Y0106758D01*
X0080083Y0106627D01*
X0080167Y0106493D01*
X0080249Y0106357D01*
X0080327Y0106220D01*
X0080401Y0106080D01*
X0080472Y0105938D01*
X0080540Y0105795D01*
X0080604Y0105650D01*
X0080664Y0105504D01*
X0080720Y0105356D01*
X0080773Y0105207D01*
X0080822Y0105056D01*
X0080867Y0104904D01*
X0080908Y0104751D01*
X0080946Y0104598D01*
X0080979Y0104443D01*
X0081009Y0104287D01*
X0081035Y0104131D01*
X0081056Y0103974D01*
X0081074Y0103817D01*
X0081088Y0103659D01*
X0081098Y0103501D01*
X0081104Y0103343D01*
X0081106Y0103185D01*
X0081104Y0103027D01*
X0081098Y0102869D01*
X0081088Y0102711D01*
X0081074Y0102553D01*
X0081056Y0102396D01*
X0081035Y0102239D01*
X0081009Y0102083D01*
X0080979Y0101927D01*
X0080946Y0101772D01*
X0080908Y0101619D01*
X0080867Y0101466D01*
X0080822Y0101314D01*
X0080773Y0101163D01*
X0080720Y0101014D01*
X0080664Y0100866D01*
X0080604Y0100720D01*
X0080540Y0100575D01*
X0080472Y0100432D01*
X0080401Y0100290D01*
X0080327Y0100150D01*
X0080249Y0100013D01*
X0080167Y0099877D01*
X0080083Y0099743D01*
X0079994Y0099612D01*
X0079903Y0099483D01*
X0079808Y0099356D01*
X0079711Y0099231D01*
X0079610Y0099109D01*
X0079506Y0098990D01*
X0079399Y0098873D01*
X0079289Y0098759D01*
X0079176Y0098648D01*
X0079061Y0098539D01*
X0078943Y0098434D01*
X0078822Y0098332D01*
X0078699Y0098232D01*
X0078573Y0098136D01*
X0078445Y0098043D01*
X0078315Y0097953D01*
X0078182Y0097867D01*
X0078047Y0097783D01*
X0077911Y0097704D01*
X0077772Y0097627D01*
X0077631Y0097555D01*
X0077489Y0097485D01*
X0077345Y0097420D01*
X0077199Y0097358D01*
X0077052Y0097300D01*
X0076903Y0097245D01*
X0076753Y0097194D01*
X0076602Y0097147D01*
X0076450Y0097104D01*
X0076297Y0097065D01*
X0076142Y0097029D01*
X0075987Y0096998D01*
X0075831Y0096970D01*
X0075675Y0096946D01*
X0075518Y0096926D01*
X0075360Y0096910D01*
X0075203Y0096898D01*
X0075044Y0096890D01*
X0074886Y0096886D01*
X0074728Y0096886D01*
X0074570Y0096890D01*
X0074411Y0096898D01*
X0074254Y0096910D01*
X0074096Y0096926D01*
X0073939Y0096946D01*
X0073783Y0096970D01*
X0073627Y0096998D01*
X0073472Y0097029D01*
X0073317Y0097065D01*
X0073164Y0097104D01*
X0073012Y0097147D01*
X0072861Y0097194D01*
X0072711Y0097245D01*
X0072562Y0097300D01*
X0072415Y0097358D01*
X0072269Y0097420D01*
X0072125Y0097485D01*
X0071983Y0097555D01*
X0071842Y0097627D01*
X0071703Y0097704D01*
X0071567Y0097783D01*
X0071432Y0097867D01*
X0071299Y0097953D01*
X0071169Y0098043D01*
X0071041Y0098136D01*
X0070915Y0098232D01*
X0070792Y0098332D01*
X0070671Y0098434D01*
X0070553Y0098539D01*
X0070438Y0098648D01*
X0070325Y0098759D01*
X0070215Y0098873D01*
X0070108Y0098990D01*
X0070004Y0099109D01*
X0069903Y0099231D01*
X0069806Y0099356D01*
X0069711Y0099483D01*
X0069620Y0099612D01*
X0069531Y0099743D01*
X0069447Y0099877D01*
X0069365Y0100013D01*
X0069287Y0100150D01*
X0069213Y0100290D01*
X0069142Y0100432D01*
X0069074Y0100575D01*
X0069010Y0100720D01*
X0068950Y0100866D01*
X0068894Y0101014D01*
X0068841Y0101163D01*
X0068792Y0101314D01*
X0068747Y0101466D01*
X0068706Y0101619D01*
X0068668Y0101772D01*
X0068635Y0101927D01*
X0068605Y0102083D01*
X0068579Y0102239D01*
X0068558Y0102396D01*
X0068540Y0102553D01*
X0068526Y0102711D01*
X0068516Y0102869D01*
X0068510Y0103027D01*
X0068508Y0103185D01*
D11*
X0069729Y0073776D03*
X0079729Y0073776D03*
X0079335Y0046846D03*
X0069335Y0046846D03*
D12*
X0074689Y0017398D03*
X0074807Y0103185D03*
M02*
